<?xml version="1.0" encoding="utf-8"?>
<!-- Generator: Adobe Illustrator 17.1.0, SVG Export Plug-In . SVG Version: 6.00 Build 0)  -->
<!DOCTYPE svg PUBLIC "-//W3C//DTD SVG 1.1//EN" "http://www.w3.org/Graphics/SVG/1.1/DTD/svg11.dtd">
<svg version="1.1" id="Layer_1" xmlns="http://www.w3.org/2000/svg" xmlns:xlink="http://www.w3.org/1999/xlink" x="0px" y="0px"
	 viewBox="0 0 197.5 669" enable-background="new 0 0 197.5 669" xml:space="preserve">
<g>
	<rect x="22.1" y="101.9" fill="#A47B53" width="156.6" height="93.5"/>
	<path fill="#BB7064" d="M161.2,205.2h-6.7H46.3h0h-7.6c-5.6,0-10.1,4.5-10.1,10.1v85.5h17.7v123.6h108.1V300.8h17.7v-84.6
		C172.1,210.1,167.2,205.2,161.2,205.2z"/>
	<g>
		<g opacity="0.1">
			<path fill="#231F20" d="M100.4,159.5l-54.1,44.5l34.2,46.7c9.8,13.4,29.8,13.4,39.6,0l34.2-46.7L100.4,159.5z"/>
		</g>
		<g>
			<path fill="#EFEEEE" d="M100.4,152.6l-54.1,44.5l34.2,46.7c9.8,13.4,29.8,13.4,39.6,0l34.2-46.7L100.4,152.6z"/>
		</g>
	</g>
	<g>
		<path fill="#F6C6A7" d="M113.8,207.2c-7.9,6-18.9,6-26.8,0c-22.4-17-64.9-32.2-64.9-64V89.3c0-43.2,34.5-79,77.7-79.3
			c43.5-0.3,78.9,34.9,78.9,78.3v54.9C178.7,175.1,136.2,190.2,113.8,207.2z"/>
	</g>
	<g>
		<defs>
			<path id="SVGID_5_" d="M100.4,217.6c-43.2,0-78.3-35.1-78.3-78.3v-51c0-43.2,35.1-78.3,78.3-78.3s78.3,35.1,78.3,78.3v51
				C178.7,182.5,143.6,217.6,100.4,217.6z"/>
		</defs>
		<clipPath id="SVGID_1_">
			<use xlink:href="#SVGID_5_"  overflow="visible"/>
		</clipPath>
		<g clip-path="url(#SVGID_1_)">
			<defs>
				<path id="SVGID_7_" d="M22.1,69.7c30.7,0,122.4-56.2,122.4-112.8S70.2-61,70.2-61L0,19.7L22.1,69.7z"/>
			</defs>
			<use xlink:href="#SVGID_7_"  overflow="visible" fill="#A47B53"/>
			<clipPath id="SVGID_2_">
				<use xlink:href="#SVGID_7_"  overflow="visible"/>
			</clipPath>
			<g clip-path="url(#SVGID_2_)">
				<path fill="#A47B53" d="M100.4,206.3c-43.2,0-78.3-35.1-78.3-78.3V77c0-43.2,35.1-78.3,78.3-78.3s78.3,35.1,78.3,78.3v51
					C178.7,171.2,143.6,206.3,100.4,206.3z"/>
			</g>
		</g>
		<g clip-path="url(#SVGID_1_)">
			<g opacity="0.1">
				<path fill="#010101" d="M173.5,77.3c-48.8,0-126.3-33.1-126.3-143.3s126.3,29.4,126.3,29.4V77.3z"/>
			</g>
			<g>
				<path fill="#A47B53" d="M178.7,77.3c-48.8,0-126.3-33.1-126.3-143.3s126.3,29.4,126.3,29.4V77.3z"/>
			</g>
		</g>
	</g>
	<g>
		<circle fill="#A47B53" cx="69.1" cy="99.4" r="3.5"/>
		<circle fill="#A47B53" cx="131.7" cy="99.4" r="3.5"/>
	</g>
	<circle fill="#F6C6A7" cx="178.7" cy="98.1" r="12.8"/>
	<circle fill="#F6C6A7" cx="22.1" cy="98.1" r="12.8"/>
	<rect x="154.4" y="296.7" fill="#EFEEEE" width="21.2" height="14.5"/>
	<rect x="25.2" y="296.7" fill="#EFEEEE" width="21.2" height="14.5"/>
	<g>
		<polygon fill="#F6C6A7" points="28.6,311.2 28.6,330.4 139.1,330.4 62.5,311.2 		"/>
		<polygon opacity="0.48" fill="#C6A28A" points="48.6,311.2 125.2,330.4 163.4,330.4 163.4,311.2 		"/>
		<polygon fill="#F6C6A7" points="48.6,311.2 139.1,330.4 172.1,330.4 172.1,311.2 		"/>
	</g>
	<polygon fill="#BB7064" points="186,669 128,669 128,646.7 154,646.7 165,656.7 186,660.7 	"/>
	<polygon fill="#BB7064" points="14.9,669 72.9,669 72.9,646.7 46.9,646.7 35.8,656.7 14.9,660.7 	"/>
	<g>
		<polygon fill="#42547B" points="46.3,646.7 57.4,646.7 46.3,553.3 		"/>
		<polygon fill="#42547B" points="128,646.7 140.6,646.7 128,539.6 		"/>
		<path fill="#4E6392" d="M154.4,424.4H46.3v128.9l11,93.4h15.4V479c0-15.1,12.2-27.3,27.3-27.3h0.6c15.1,0,27.3,12.2,27.3,27.3
			v60.6l12.6,107.1h13.8V424.4z"/>
	</g>
	<g>
		<g>
			<path fill="#010101" d="M120.2,268l1-1.9c0.3,0.2,0.6,0.4,1,0.4c0.5,0,0.9-0.3,0.9-0.9v-5.2h2.4v5.2c0,2.1-1.2,3-3.1,3
				C121.7,268.6,120.8,268.4,120.2,268z"/>
			<path fill="#010101" d="M131.8,268.5l-0.3-0.9h-2.9l-0.3,0.9h-2.8l3-8.1h3.1l3,8.1H131.8z M130,262.8l-0.8,2.6h1.6L130,262.8z"/>
			<path fill="#010101" d="M140.4,268.5l-3-4.1v4.1H135v-8.1h2.5l2.8,3.8v-3.8h2.4v8.1H140.4z"/>
			<path fill="#010101" d="M144.1,268.5v-8.1h6.1v2.1h-3.7v0.8h3.6v2.1h-3.6v0.9h3.7v2.1H144.1z"/>
		</g>
		<g>
			<rect x="116.3" y="256.5" fill="#EFEEEE" width="37.8" height="16.1"/>
		</g>
		<g>
			<path fill="#424244" d="M120.2,268l1-1.9c0.3,0.2,0.6,0.4,1,0.4c0.5,0,0.9-0.3,0.9-0.9v-5.2h2.4v5.2c0,2.1-1.2,3-3.1,3
				C121.7,268.6,120.8,268.4,120.2,268z"/>
			<path fill="#424244" d="M131.8,268.5l-0.3-0.9h-2.9l-0.3,0.9h-2.8l3-8.1h3.1l3,8.1H131.8z M130,262.8l-0.8,2.6h1.6L130,262.8z"/>
			<path fill="#424244" d="M140.4,268.5l-3-4.1v4.1H135v-8.1h2.5l2.8,3.8v-3.8h2.4v8.1H140.4z"/>
			<path fill="#424244" d="M144.1,268.5v-8.1h6.1v2.1h-3.7v0.8h3.6v2.1h-3.6v0.9h3.7v2.1H144.1z"/>
		</g>
	</g>
</g>
</svg>
