<?xml version="1.0" encoding="utf-8"?>
<!-- Generator: Adobe Illustrator 17.1.0, SVG Export Plug-In . SVG Version: 6.00 Build 0)  -->
<!DOCTYPE svg PUBLIC "-//W3C//DTD SVG 1.1//EN" "http://www.w3.org/Graphics/SVG/1.1/DTD/svg11.dtd">
<svg version="1.1" id="Layer_1" xmlns="http://www.w3.org/2000/svg" xmlns:xlink="http://www.w3.org/1999/xlink" x="0px" y="0px"
	 viewBox="0 0 210.9 500" enable-background="new 0 0 210.9 500" xml:space="preserve">
<g>
	<ellipse fill="#D98F9E" cx="105.4" cy="477.2" rx="105.4" ry="22.8"/>
	<g>
		<path fill="#BB7064" d="M153.2,116.9h-5.3H63h0h-6c-4.4,0-7.9,3.5-7.9,7.9V192H63v42.1h84.9V192h13.9v-66.5
			C161.8,120.8,157.9,116.9,153.2,116.9z"/>
		<g>
			<g>
				<g opacity="0.1">
					<path fill="#231F20" d="M105.4,118.3L63,116.1l26.9,36.7c7.7,10.5,23.4,10.5,31.1,0l26.9-36.7L105.4,118.3z"/>
				</g>
				<g>
					<path fill="#EFEEEE" d="M105.4,112.8L63,110.6l26.9,36.7c7.7,10.5,23.4,10.5,31.1,0l26.9-36.7L105.4,112.8z"/>
				</g>
			</g>
		</g>
		<g>
			<rect x="58.5" y="55.1" fill="#A47B53" width="93.9" height="56.1"/>
			<path fill="#F6C6A7" d="M140.7,102.9c-18.1,22.7-52.5,22.7-70.6,0c-6.7-8.4-11.7-16.8-11.7-23V47.7C58.5,22,78.9,0.4,104.6,0
				c26.3-0.4,47.8,20.8,47.8,47v32.9C152.4,86.1,147.4,94.5,140.7,102.9z"/>
			<g>
				<defs>
					<path id="SVGID_5_" d="M105.4,124.5c-25.9,0-47-21-47-47V47c0-25.9,21-47,47-47s47,21,47,47"/>
				</defs>
				<clipPath id="SVGID_1_">
					<use xlink:href="#SVGID_5_"  overflow="visible"/>
				</clipPath>
				<g clip-path="url(#SVGID_1_)">
					<defs>
						<path id="SVGID_7_" d="M58.5,35.8c18.4,0,73.4-33.7,73.4-67.6S87.3-42.6,87.3-42.6L45.2,5.8L58.5,35.8z"/>
					</defs>
					<use xlink:href="#SVGID_7_"  overflow="visible" fill="#A47B53"/>
					<clipPath id="SVGID_2_">
						<use xlink:href="#SVGID_7_"  overflow="visible"/>
					</clipPath>
					<path clip-path="url(#SVGID_2_)" fill="#A47B53" d="M105.4,117.7c-25.9,0-47-21-47-47V40.2c0-25.9,21-47,47-47s47,21,47,47
						v30.6C152.4,96.7,131.3,117.7,105.4,117.7z"/>
				</g>
				<g clip-path="url(#SVGID_1_)">
					<g opacity="0.1">
						<path fill="#010101" d="M149.2,40.3c-29.3,0-75.8-19.8-75.8-86S149.2-28,149.2-28V40.3z"/>
					</g>
					<g>
						<path fill="#A47B53" d="M152.4,40.3c-29.3,0-75.8-19.8-75.8-86S152.4-28,152.4-28V40.3z"/>
					</g>
				</g>
			</g>
			<g>
				<circle fill="#A47B53" cx="86.6" cy="53.6" r="2.1"/>
				<circle fill="#A47B53" cx="124.2" cy="53.6" r="2.1"/>
			</g>
			<circle fill="#F6C6A7" cx="152.4" cy="52.8" r="7.7"/>
			<circle fill="#F6C6A7" cx="58.5" cy="52.8" r="7.7"/>
		</g>
		<rect x="147.9" y="188.9" fill="#EFEEEE" width="16.6" height="11.4"/>
		<rect x="46.4" y="188.9" fill="#EFEEEE" width="16.6" height="11.4"/>
		<g>
			<polygon fill="#F6C6A7" points="49.1,200.2 49.1,215.3 135.8,215.3 75.7,200.2 			"/>
			<polygon opacity="0.48" fill="#C6A28A" points="64.8,200.2 124.9,215.3 155,215.3 155,200.2 			"/>
			<polygon fill="#F6C6A7" points="64.8,200.2 135.8,215.3 161.8,215.3 161.8,200.2 			"/>
		</g>
		<polygon fill="#BB7064" points="172.7,481.3 127.1,481.3 127.1,463.8 147.6,463.8 156.2,471.6 172.7,474.8 		"/>
		<polygon fill="#BB7064" points="38.3,481.3 83.8,481.3 83.8,463.8 63.4,463.8 54.7,471.6 38.3,474.8 		"/>
		<g>
			<polygon fill="#42547B" points="63,463.8 71.6,463.8 63,335.4 			"/>
			<polygon fill="#42547B" points="127.1,463.8 137.1,463.8 127.1,324.6 			"/>
			<path fill="#4E6392" d="M147.9,234.1H63v101.3l8.7,128.4h12.1V277c0-11.9,9.6-21.5,21.5-21.5h0.4c11.9,0,21.5,9.6,21.5,21.5v47.6
				l9.9,139.1h10.9V234.1z"/>
		</g>
		<g>
			<g>
				<path fill="#010101" d="M121,166.3l0.8-1.5c0.2,0.1,0.5,0.3,0.8,0.3c0.4,0,0.7-0.3,0.7-0.7v-4h1.9v4.1c0,1.6-1,2.4-2.5,2.4
					C122.2,166.8,121.5,166.6,121,166.3z"/>
				<path fill="#010101" d="M130.1,166.7l-0.2-0.7h-2.3l-0.2,0.7h-2.2l2.3-6.3h2.4l2.3,6.3H130.1z M128.7,162.2l-0.6,2h1.3
					L128.7,162.2z"/>
				<path fill="#010101" d="M136.9,166.7l-2.3-3.2v3.2h-1.9v-6.3h2l2.2,3v-3h1.9v6.3H136.9z"/>
				<path fill="#010101" d="M139.7,166.7v-6.3h4.8v1.7h-2.9v0.6h2.8v1.7h-2.8v0.7h2.9v1.7H139.7z"/>
			</g>
			<g>
				<rect x="117.9" y="157.2" fill="#EFEEEE" width="29.7" height="12.6"/>
			</g>
			<g>
				<path fill="#424244" d="M121,166.3l0.8-1.5c0.2,0.1,0.5,0.3,0.8,0.3c0.4,0,0.7-0.3,0.7-0.7v-4h1.9v4.1c0,1.6-1,2.4-2.5,2.4
					C122.2,166.8,121.5,166.6,121,166.3z"/>
				<path fill="#424244" d="M130.1,166.7l-0.2-0.7h-2.3l-0.2,0.7h-2.2l2.3-6.3h2.4l2.3,6.3H130.1z M128.7,162.2l-0.6,2h1.3
					L128.7,162.2z"/>
				<path fill="#424244" d="M136.9,166.7l-2.3-3.2v3.2h-1.9v-6.3h2l2.2,3v-3h1.9v6.3H136.9z"/>
				<path fill="#424244" d="M139.7,166.7v-6.3h4.8v1.7h-2.9v0.6h2.8v1.7h-2.8v0.7h2.9v1.7H139.7z"/>
			</g>
		</g>
	</g>
</g>
</svg>
