<?xml version="1.0" encoding="utf-8"?>
<!-- Generator: Adobe Illustrator 17.1.0, SVG Export Plug-In . SVG Version: 6.00 Build 0)  -->
<!DOCTYPE svg PUBLIC "-//W3C//DTD SVG 1.1//EN" "http://www.w3.org/Graphics/SVG/1.1/DTD/svg11.dtd">
<svg version="1.1" id="Layer_1" xmlns="http://www.w3.org/2000/svg" xmlns:xlink="http://www.w3.org/1999/xlink" x="0px" y="0px"
	 viewBox="0 0 659.3 414.7" enable-background="new 0 0 659.3 414.7" xml:space="preserve">
<g>
	<g>
		<g>
			<g>
				<g>
					<path fill="none" stroke="#FFFFFF" stroke-width="6" stroke-miterlimit="10" d="M420.1,86.1H241.3c-6.7,0-12.1-5.4-12.1-12.1
						V15.1c0-6.7,5.4-12.1,12.1-12.1h178.7c6.7,0,12.1,5.4,12.1,12.1V74C432.2,80.7,426.7,86.1,420.1,86.1z"/>
					<polygon fill="#FFFFFF" points="312.6,63.2 330.7,25.9 348.7,63.2 					"/>
				</g>
				<g>
					<path fill="none" stroke="#FFFFFF" stroke-width="6" stroke-miterlimit="10" d="M241.3,104.3h178.7c6.7,0,12.1,5.4,12.1,12.1
						v58.9c0,6.7-5.4,12.1-12.1,12.1H241.3c-6.7,0-12.1-5.4-12.1-12.1v-58.9C229.2,109.7,234.6,104.3,241.3,104.3z"/>
					<polygon fill="#FFFFFF" points="348.7,127.2 330.7,164.5 312.6,127.2 					"/>
				</g>
				<g>
					<path fill="none" stroke="#FFFFFF" stroke-width="6" stroke-miterlimit="10" d="M465.4,104.3h178.7c6.7,0,12.1,5.4,12.1,12.1
						v58.9c0,6.7-5.4,12.1-12.1,12.1H465.4c-6.7,0-12.1-5.4-12.1-12.1v-58.9C453.3,109.7,458.7,104.3,465.4,104.3z"/>
					<polygon fill="#FFFFFF" points="536.1,127.8 573.4,145.8 536.1,163.9 					"/>
				</g>
				<g>
					<path fill="none" stroke="#FFFFFF" stroke-width="6" stroke-miterlimit="10" d="M17.2,104.3H196c6.7,0,12.1,5.4,12.1,12.1v58.9
						c0,6.7-5.4,12.1-12.1,12.1H17.2c-6.7,0-12.1-5.4-12.1-12.1v-58.9C5.1,109.7,10.5,104.3,17.2,104.3z"/>
					<polygon fill="#FFFFFF" points="125.2,163.9 88,145.8 125.2,127.8 					"/>
				</g>
			</g>
			<line fill="none" stroke="#FFFFFF" stroke-width="2.7116" stroke-miterlimit="10" x1="8.8" y1="251.8" x2="652.6" y2="251.8"/>
		</g>
	</g>
	<g>
		<path fill="#FFFFFF" d="M26.4,346L6.6,319v27H0v-37.8h6.8l19.3,26.2v-26.2h6.6V346H26.4z"/>
		<path fill="#FFFFFF" d="M67.3,346l-2.8-7.3H47.2l-2.8,7.3h-7.5l14.9-37.8H60L74.8,346H67.3z M55.8,314.9l-6.8,18h13.6L55.8,314.9z
			"/>
		<path fill="#FFFFFF" d="M87,346l-14.9-37.8h7.5l11.5,30.6l11.5-30.6h7.5L95.3,346H87z"/>
		<path fill="#FFFFFF" d="M114.3,346v-37.8h6.6V346H114.3z"/>
		<path fill="#FFFFFF" d="M127.3,327.1c0-11.8,8.9-19.6,19.8-19.6c7.4,0,12.2,3.5,15.2,7.9l-5.4,3.1c-2-2.8-5.6-5-9.8-5
			c-7.5,0-13,5.7-13,13.7c0,7.9,5.6,13.7,13,13.7c3.9,0,7.3-1.8,9-3.4v-5.9h-11.3v-5.8h17.9v14.2c-3.7,4.1-9,6.9-15.6,6.9
			C136.2,346.7,127.3,338.9,127.3,327.1z"/>
		<path fill="#FFFFFF" d="M195.8,346l-2.8-7.3h-17.3l-2.8,7.3h-7.5l14.9-37.8h8.3l14.9,37.8H195.8z M184.4,314.9l-6.8,18h13.6
			L184.4,314.9z"/>
		<path fill="#FFFFFF" d="M212.8,346v-32h-11.5v-5.8h29.5v5.8h-11.5v32H212.8z"/>
		<path fill="#FFFFFF" d="M236.5,346v-37.8h25.9v5.8h-19.3v9.8H262v5.8h-18.9v10.5h19.3v5.8H236.5z"/>
		<path fill="#FFFFFF" d="M292.8,346v-32h-11.5v-5.8h29.5v5.8h-11.5v32H292.8z"/>
		<path fill="#FFFFFF" d="M342.8,346v-16.5h-19.7V346h-6.6v-37.8h6.6v15.5h19.7v-15.5h6.6V346H342.8z"/>
		<path fill="#FFFFFF" d="M357.5,346v-37.8h6.6V346H357.5z"/>
		<path fill="#FFFFFF" d="M369.7,340.6l3.7-5.1c2.6,2.8,6.7,5.2,12,5.2c5.4,0,7.6-2.7,7.6-5.2c0-7.9-22.1-3-22.1-16.9
			c0-6.2,5.5-11.1,13.8-11.1c5.9,0,10.7,1.9,14.2,5.3l-3.8,4.9c-2.9-2.9-7-4.3-10.9-4.3c-3.9,0-6.4,1.9-6.4,4.7c0,7,22,2.7,22,16.8
			c0,6.3-4.4,11.7-14.6,11.7C378.1,346.7,373.1,344.2,369.7,340.6z"/>
		<path fill="#FFFFFF" d="M449.3,346l-7.4-27.9l-7.3,27.9h-7.1l-10.8-37.8h7.4l7.4,29.1l7.8-29.1h5.3l7.8,29.1l7.3-29.1h7.4
			L456.4,346H449.3z"/>
		<path fill="#FFFFFF" d="M471.6,346v-37.8h25.9v5.8h-19.3v9.8h18.9v5.8h-18.9v10.5h19.3v5.8H471.6z"/>
		<path fill="#FFFFFF" d="M504.3,346v-37.8h18.6c6.9,0,10.8,4.3,10.8,9.6c0,4.8-3.1,7.9-6.6,8.7c4,0.6,7.3,4.6,7.3,9.3
			c0,5.8-3.9,10.2-11,10.2H504.3z M526.9,318.9c0-2.8-1.9-4.9-5.3-4.9H511v9.8h10.6C525,323.8,526.9,321.8,526.9,318.9z
			 M527.6,334.9c0-2.8-2-5.2-5.8-5.2H511v10.5h10.9C525.5,340.1,527.6,338.2,527.6,334.9z"/>
		<path fill="#FFFFFF" d="M538.6,340.6l3.7-5.1c2.6,2.8,6.7,5.2,12,5.2c5.4,0,7.6-2.7,7.6-5.2c0-7.9-22.1-3-22.1-16.9
			c0-6.2,5.5-11.1,13.8-11.1c5.9,0,10.7,1.9,14.2,5.3l-3.8,4.9c-2.9-2.9-7-4.3-10.9-4.3c-3.9,0-6.4,1.9-6.4,4.7c0,7,22,2.7,22,16.8
			c0,6.3-4.4,11.7-14.6,11.7C547,346.7,542,344.2,538.6,340.6z"/>
		<path fill="#FFFFFF" d="M574.7,346v-37.8h6.6V346H574.7z"/>
		<path fill="#FFFFFF" d="M598.4,346v-32H587v-5.8h29.5v5.8h-11.5v32H598.4z"/>
		<path fill="#FFFFFF" d="M622.1,346v-37.8H648v5.8h-19.3v9.8h18.9v5.8h-18.9v10.5H648v5.8H622.1z"/>
		<path fill="#FFFFFF" d="M109.6,414l-7.4-27.9L94.9,414h-7.1L77,376.2h7.4l7.4,29.1l7.8-29.1h5.3l7.8,29.1l7.3-29.1h7.4L116.7,414
			H109.6z"/>
		<path fill="#FFFFFF" d="M131.9,414v-37.8h6.6V414H131.9z"/>
		<path fill="#FFFFFF" d="M155.6,414v-32h-11.5v-5.8h29.5v5.8h-11.5v32H155.6z"/>
		<path fill="#FFFFFF" d="M205.6,414v-16.5h-19.7V414h-6.6v-37.8h6.6v15.5h19.7v-15.5h6.6V414H205.6z"/>
		<path fill="#FFFFFF" d="M261.3,414l-2.8-7.3h-17.3l-2.8,7.3h-7.5l14.9-37.8h8.3l14.9,37.8H261.3z M249.8,382.9l-6.8,18h13.6
			L249.8,382.9z"/>
		<path fill="#FFFFFF" d="M294.6,414l-8.4-14.1h-6.6V414H273v-37.8h16.6c7.5,0,12.4,4.9,12.4,11.8c0,6.7-4.4,10.4-9,11.1l9.2,14.9
			H294.6z M295.1,388c0-3.6-2.7-6-6.5-6h-9.1v12h9.1C292.4,394.1,295.1,391.7,295.1,388z"/>
		<path fill="#FFFFFF" d="M330.2,414l-8.4-14.1h-6.6V414h-6.6v-37.8h16.6c7.5,0,12.4,4.9,12.4,11.8c0,6.7-4.4,10.4-9,11.1l9.2,14.9
			H330.2z M330.7,388c0-3.6-2.7-6-6.5-6h-9.1v12h9.1C328,394.1,330.7,391.7,330.7,388z"/>
		<path fill="#FFFFFF" d="M342.5,395.1c0-11.3,8-19.6,19.3-19.6c11.3,0,19.3,8.3,19.3,19.6c0,11.3-8,19.6-19.3,19.6
			C350.5,414.7,342.5,406.4,342.5,395.1z M374.3,395.1c0-7.8-4.9-13.7-12.5-13.7c-7.7,0-12.5,5.8-12.5,13.7
			c0,7.8,4.9,13.7,12.5,13.7C369.4,408.8,374.3,402.9,374.3,395.1z"/>
		<path fill="#FFFFFF" d="M415.3,414l-7.4-27.9l-7.3,27.9h-7.1l-10.8-37.8h7.4l7.4,29.1l7.8-29.1h5.3l7.8,29.1l7.3-29.1h7.4
			L422.4,414H415.3z"/>
		<path fill="#FFFFFF" d="M474.8,414l-12.7-15.9l-3.3,3.9V414h-6.6v-37.8h6.6v18l14.8-18h8.2l-15.4,17.9l16.5,20H474.8z"/>
		<path fill="#FFFFFF" d="M487.4,414v-37.8h25.9v5.8H494v9.8h18.9v5.8H494v10.5h19.3v5.8H487.4z"/>
		<path fill="#FFFFFF" d="M530.8,414v-15.7l-14.7-22.1h7.6l10.4,16.2l10.3-16.2h7.6l-14.6,22.1V414H530.8z"/>
		<path fill="#FFFFFF" d="M552.6,408.7l3.7-5.1c2.6,2.8,6.7,5.2,12,5.2c5.4,0,7.6-2.7,7.6-5.2c0-7.9-22.1-3-22.1-16.9
			c0-6.2,5.5-11.1,13.8-11.1c5.9,0,10.7,1.9,14.2,5.3l-3.8,4.9c-2.9-2.9-7-4.3-10.9-4.3c-3.9,0-6.4,1.9-6.4,4.7c0,7,22,2.7,22,16.8
			c0,6.3-4.4,11.7-14.6,11.7C561,414.7,556,412.3,552.6,408.7z"/>
	</g>
</g>
</svg>
