<?xml version="1.0" encoding="utf-8"?>
<!-- Generator: Adobe Illustrator 17.1.0, SVG Export Plug-In . SVG Version: 6.00 Build 0)  -->
<!DOCTYPE svg PUBLIC "-//W3C//DTD SVG 1.1//EN" "http://www.w3.org/Graphics/SVG/1.1/DTD/svg11.dtd">
<svg version="1.1" id="Layer_1" xmlns="http://www.w3.org/2000/svg" xmlns:xlink="http://www.w3.org/1999/xlink" x="0px" y="0px"
	 viewBox="0 0 657.1 338" enable-background="new 0 0 657.1 338" xml:space="preserve">
<g>
	<g>
		<g>
			<g>
				<path fill="none" stroke="#EFEEEE" stroke-width="6" stroke-miterlimit="10" d="M417.9,86.1H239.2c-6.7,0-12.1-5.4-12.1-12.1
					V15.1c0-6.7,5.4-12.1,12.1-12.1h178.7c6.7,0,12.1,5.4,12.1,12.1V74C430,80.7,424.6,86.1,417.9,86.1z"/>
				<polygon fill="#EFEEEE" points="310.5,63.2 328.6,25.9 346.6,63.2 				"/>
			</g>
			<g>
				<path fill="none" stroke="#EFEEEE" stroke-width="6" stroke-miterlimit="10" d="M239.2,104.3h178.7c6.7,0,12.1,5.4,12.1,12.1
					v58.9c0,6.7-5.4,12.1-12.1,12.1H239.2c-6.7,0-12.1-5.4-12.1-12.1v-58.9C227.1,109.7,232.5,104.3,239.2,104.3z"/>
				<polygon fill="#EFEEEE" points="346.6,127.2 328.6,164.5 310.5,127.2 				"/>
			</g>
			<g>
				<path fill="none" stroke="#EFEEEE" stroke-width="6" stroke-miterlimit="10" d="M463.3,104.3H642c6.7,0,12.1,5.4,12.1,12.1v58.9
					c0,6.7-5.4,12.1-12.1,12.1H463.3c-6.7,0-12.1-5.4-12.1-12.1v-58.9C451.2,109.7,456.6,104.3,463.3,104.3z"/>
				<polygon fill="#EFEEEE" points="534,127.8 571.3,145.8 534,163.9 				"/>
			</g>
			<g>
				<path fill="none" stroke="#EFEEEE" stroke-width="6" stroke-miterlimit="10" d="M15.1,104.3h178.7c6.7,0,12.1,5.4,12.1,12.1
					v58.9c0,6.7-5.4,12.1-12.1,12.1H15.1c-6.7,0-12.1-5.4-12.1-12.1v-58.9C3,109.7,8.4,104.3,15.1,104.3z"/>
				<polygon fill="#EFEEEE" points="123.1,163.9 85.8,145.8 123.1,127.8 				"/>
			</g>
		</g>
		<line fill="none" stroke="#EFEEEE" stroke-width="2.7116" stroke-miterlimit="10" x1="6.7" y1="251.8" x2="650.4" y2="251.8"/>
	</g>
	<g>
		<path fill="#FFFFFF" d="M32.1,337.2l-12.7-15.9l-3.3,3.9v12.1H9.5v-37.8h6.6v18l14.8-18h8.2l-15.4,17.9l16.5,20H32.1z"/>
		<path fill="#FFFFFF" d="M44.7,337.2v-37.8h25.9v5.8H51.4v9.8h18.9v5.8H51.4v10.5h19.3v5.8H44.7z"/>
		<path fill="#FFFFFF" d="M88.2,337.2v-15.7l-14.7-22.1h7.6l10.4,16.2l10.3-16.2h7.6l-14.6,22.1v15.7H88.2z"/>
		<path fill="#FFFFFF" d="M113.6,337.2v-37.8h18.6c6.9,0,10.8,4.3,10.8,9.6c0,4.8-3.1,7.9-6.6,8.7c4,0.6,7.3,4.6,7.3,9.3
			c0,5.8-3.9,10.2-11,10.2H113.6z M136.1,310.2c0-2.8-1.9-4.9-5.3-4.9h-10.6v9.8h10.6C134.2,315.1,136.1,313,136.1,310.2z
			 M136.9,326.1c0-2.8-2-5.2-5.8-5.2h-10.9v10.5h10.9C134.7,331.4,136.9,329.4,136.9,326.1z"/>
		<path fill="#FFFFFF" d="M148.6,318.4c0-11.3,8-19.6,19.3-19.6s19.3,8.3,19.3,19.6c0,11.3-8,19.6-19.3,19.6
			S148.6,329.6,148.6,318.4z M180.5,318.4c0-7.8-4.9-13.7-12.5-13.7c-7.7,0-12.5,5.8-12.5,13.7c0,7.8,4.9,13.7,12.5,13.7
			C175.5,332,180.5,326.1,180.5,318.4z"/>
		<path fill="#FFFFFF" d="M218.2,337.2l-2.8-7.3H198l-2.8,7.3h-7.5l14.9-37.8h8.3l14.9,37.8H218.2z M206.7,306.1l-6.8,18h13.6
			L206.7,306.1z"/>
		<path fill="#FFFFFF" d="M251.4,337.2l-8.4-14.1h-6.6v14.1h-6.6v-37.8h16.6c7.5,0,12.4,4.9,12.4,11.8c0,6.7-4.4,10.4-9,11.1
			l9.2,14.9H251.4z M252,311.3c0-3.6-2.7-6-6.5-6h-9.1v12h9.1C249.3,317.3,252,314.9,252,311.3z"/>
		<path fill="#FFFFFF" d="M265.4,337.2v-37.8h14.1c11.8,0,19.8,7.8,19.8,18.9c0,11.1-8,18.9-19.8,18.9H265.4z M292.5,318.4
			c0-7.3-4.5-13.1-13-13.1h-7.4v26.1h7.4C287.7,331.4,292.5,325.5,292.5,318.4z"/>
		<path fill="#FFFFFF" d="M346.6,337.2l-19.7-27v27h-6.6v-37.8h6.8l19.3,26.2v-26.2h6.6v37.8H346.6z"/>
		<path fill="#FFFFFF" d="M387.6,337.2l-2.8-7.3h-17.3l-2.8,7.3h-7.5l14.9-37.8h8.3l14.9,37.8H387.6z M376.1,306.1l-6.8,18h13.6
			L376.1,306.1z"/>
		<path fill="#FFFFFF" d="M407.3,337.2l-14.9-37.8h7.5l11.5,30.6l11.5-30.6h7.5l-14.9,37.8H407.3z"/>
		<path fill="#FFFFFF" d="M434.6,337.2v-37.8h6.6v37.8H434.6z"/>
		<path fill="#FFFFFF" d="M447.5,318.4c0-11.8,8.9-19.6,19.8-19.6c7.4,0,12.2,3.5,15.2,7.9l-5.4,3.1c-2-2.8-5.6-5-9.8-5
			c-7.5,0-13,5.7-13,13.7c0,7.9,5.6,13.7,13,13.7c3.9,0,7.3-1.8,9-3.4v-5.9h-11.3V317H483v14.2c-3.7,4.1-9,6.9-15.6,6.9
			C456.4,338,447.5,330.2,447.5,318.4z"/>
		<path fill="#FFFFFF" d="M516.1,337.2l-2.8-7.3h-17.3l-2.8,7.3h-7.5l14.9-37.8h8.3l14.9,37.8H516.1z M504.6,306.1l-6.8,18h13.6
			L504.6,306.1z"/>
		<path fill="#FFFFFF" d="M533.1,337.2v-32h-11.5v-5.8h29.5v5.8h-11.5v32H533.1z"/>
		<path fill="#FFFFFF" d="M556.8,337.2v-37.8h6.6v37.8H556.8z"/>
		<path fill="#FFFFFF" d="M569.8,318.4c0-11.3,8-19.6,19.3-19.6c11.3,0,19.3,8.3,19.3,19.6c0,11.3-8,19.6-19.3,19.6
			C577.8,337.9,569.8,329.6,569.8,318.4z M601.6,318.4c0-7.8-4.9-13.7-12.5-13.7c-7.7,0-12.5,5.8-12.5,13.7
			c0,7.8,4.9,13.7,12.5,13.7C596.7,332,601.6,326.1,601.6,318.4z"/>
		<path fill="#FFFFFF" d="M641.2,337.2l-19.7-27v27h-6.6v-37.8h6.8l19.3,26.2v-26.2h6.6v37.8H641.2z"/>
	</g>
</g>
</svg>
