<?xml version="1.0" encoding="UTF-8" standalone="no"?>
<svg width="40px" height="28px" viewBox="0 0 40 28" version="1.1" xmlns="http://www.w3.org/2000/svg" xmlns:xlink="http://www.w3.org/1999/xlink" xmlns:sketch="http://www.bohemiancoding.com/sketch/ns">
    <title>icn-verification</title>
    <description>Created with Sketch (http://www.bohemiancoding.com/sketch)</description>
    <defs></defs>
    <g id="Page-1" stroke="none" stroke-width="1" fill="none" fill-rule="evenodd" sketch:type="MSPage">
        <g id="Artboard-2" sketch:type="MSArtboardGroup" transform="translate(-193.000000, -54.000000)" fill="#4C4C4C">
            <path d="M226.553702,72.3969849 C226.042834,72.8894497 225.698785,73.1356784 225.521545,73.1356784 C225.427712,73.1356784 225.279145,73.0552772 225.075841,72.8944724 C224.872536,72.7336675 224.682267,72.5678401 224.505027,72.3969849 C224.327787,72.2261298 224.127092,72.0251268 223.902935,71.7939698 C223.678779,71.5628129 223.551064,71.432161 223.519786,71.4020101 L222.018467,72.8492462 L225.45899,76.1658291 C225.750915,76.4472376 225.896875,76.7889427 225.896875,77.1909548 C225.896875,77.6130674 225.693573,78.0200985 225.286964,78.4120603 C224.880354,78.8040221 224.458113,79 224.020226,79 C223.603191,79 223.248716,78.8592979 222.956791,78.5778894 L212.463197,68.4623116 C210.628242,69.7789011 208.725548,70.4371859 206.755056,70.4371859 C205.055638,70.4371859 203.671623,69.9221157 202.602971,68.8919598 C201.534318,67.8618039 201,66.5276464 201,64.8894472 C201,63.281399 201.495222,61.7085504 202.48568,60.1708543 C203.476139,58.6331581 204.768928,57.3869394 206.364088,56.4321608 C207.959247,55.4773822 209.590873,55 211.259014,55 C212.958432,55 214.342447,55.5150702 215.411099,56.5452261 C216.479752,57.575382 217.01407,58.9095395 217.01407,60.5477387 C217.01407,62.4472457 216.331185,64.2813982 214.965395,66.0502513 L220.517148,71.4020101 L222.018467,69.9547739 C221.987189,69.924623 221.851655,69.8015086 221.61186,69.5854271 C221.372065,69.3693457 221.16355,69.1758803 220.98631,69.0050251 C220.80907,68.83417 220.637046,68.6507547 220.470232,68.4547739 C220.303418,68.258793 220.220012,68.1155783 220.220012,68.0251256 C220.220012,67.8542705 220.475442,67.5226155 220.98631,67.0301508 C221.497178,66.537686 221.841227,66.2914573 222.018467,66.2914573 C222.154003,66.2914573 222.273899,66.341708 222.378158,66.4422111 C222.440713,66.5025129 222.680505,66.7261287 223.09754,67.1130653 C223.514575,67.5000019 223.94203,67.8994954 224.379917,68.3115578 C224.817804,68.7236202 225.268716,69.1557766 225.732668,69.6080402 C226.196619,70.0603038 226.577158,70.4522596 226.874296,70.7839196 C227.171433,71.1155795 227.32,71.3216076 227.32,71.4020101 C227.32,71.5728652 227.06457,71.9045202 226.553702,72.3969849 Z M212.998,58.5863636 C212.409997,58.0136335 211.696004,57.7272727 210.856,57.7272727 C210.015996,57.7272727 209.302003,58.0136335 208.714,58.5863636 C208.125997,59.1590938 207.832,59.8545414 207.832,60.6727273 C207.832,61.1022749 207.931749,61.5267024 208.13125,61.9460227 C207.700748,61.7517036 207.265002,61.6545455 206.824,61.6545455 C205.983996,61.6545455 205.270003,61.9409062 204.682,62.5136364 C204.093997,63.0863665 203.8,63.7818141 203.8,64.6 C203.8,65.4181859 204.093997,66.1136335 204.682,66.6863636 C205.270003,67.2590938 205.983996,67.5454545 206.824,67.5454545 C207.664004,67.5454545 208.377997,67.2590938 208.966,66.6863636 C209.554003,66.1136335 209.848,65.4181859 209.848,64.6 C209.848,64.1704524 209.748251,63.7460248 209.54875,63.3267045 C209.979252,63.5210237 210.414998,63.6181818 210.856,63.6181818 C211.696004,63.6181818 212.409997,63.331821 212.998,62.7590909 C213.586003,62.1863608 213.88,61.4909132 213.88,60.6727273 C213.88,59.8545414 213.586003,59.1590938 212.998,58.5863636 Z" id="-copy" sketch:type="MSShapeGroup"></path>
        </g>
    </g>
</svg>