<?xml version="1.0" encoding="UTF-8" standalone="no"?>
<svg width="24px" height="24px" viewBox="0 0 24 24" version="1.1" xmlns="http://www.w3.org/2000/svg" xmlns:xlink="http://www.w3.org/1999/xlink" xmlns:sketch="http://www.bohemiancoding.com/sketch/ns">
    <title>Artboard 1 1</title>
    <description>Created with Sketch (http://www.bohemiancoding.com/sketch)</description>
    <defs></defs>
    <g id="Page-1" stroke="none" stroke-width="1" fill="none" fill-rule="evenodd" sketch:type="MSPage">
        <g id="Artboard-1-1" sketch:type="MSArtboardGroup" transform="translate(-487.000000, -513.000000)">
            <g id="icn-verification.svg" sketch:type="MSLayerGroup" transform="translate(488.000000, 514.000000)">
                <polygon id="Star-1" fill="#4A4A4A" sketch:type="MSShapeGroup" points="10.9999996 21.0205591 6.40779788 22.086554 3.91439469 18.0856052 -0.0865540571 15.592202 0.979440928 10.9999991 -0.0865543491 6.40779871 3.91439424 3.91439522 6.40779717 -0.0865537104 11.0000001 0.979440928 15.5922031 -0.0865536009 18.0856076 3.91439708 22.0865566 6.40780426 21.0205591 11.0000018 22.0865529 15.5922049 18.0856018 18.0856088 15.5921939 22.0865574 "></polygon>
                <path d="M9.17258582,16.0036777 L10.4701543,17.4448208 L11.5389379,15.8267111 L16.823047,7.82671108 L17.6497581,6.57509261 L15.1465212,4.92167045 L14.3198101,6.17328892 L10.5,13 L10,12.5 L7.54330503,9.71060797 L6.53962729,8.59587438 L4.31016009,10.6032299 L5.31383783,11.7179635 L9.17258582,16.0036777 Z" id="Path-56" fill="#FFFFFF" sketch:type="MSShapeGroup"></path>
            </g>
        </g>
    </g>
</svg>