<?xml version="1.0" encoding="utf-8"?>
<!-- Generator: Adobe Illustrator 17.1.0, SVG Export Plug-In . SVG Version: 6.00 Build 0)  -->
<!DOCTYPE svg PUBLIC "-//W3C//DTD SVG 1.1//EN" "http://www.w3.org/Graphics/SVG/1.1/DTD/svg11.dtd">
<svg version="1.1" id="Layer_1" xmlns="http://www.w3.org/2000/svg" xmlns:xlink="http://www.w3.org/1999/xlink" x="0px" y="0px"
	 viewBox="0 0 582.9 494.5" enable-background="new 0 0 582.9 494.5" xml:space="preserve">
<g>
	<g>
		<g>
			<rect x="17" y="129.3" fill="#A47B53" width="208.4" height="120.7"/>
			<path fill="#BB7064" d="M216.7,493.5V281.4c0-8.1-6.5-14.6-14.6-14.6h-8.9H49.3h0H39.1c-7.4,0-13.4,6-13.4,13.4v213.3H216.7z"/>
			<g>
				<g opacity="0.1">
					<path fill="#231F20" d="M121.2,206l-71.9,59.3l37.5,51.1c17.1,23.3,51.9,23.3,69,0l37.5-51.1L121.2,206z"/>
				</g>
				<g>
					<path fill="#EFEEEE" d="M121.2,196.7L49.3,256l37.5,51.1c17.1,23.3,51.9,23.3,69,0l37.5-51.1L121.2,196.7z"/>
				</g>
			</g>
			<linearGradient id="SVGID_1_" gradientUnits="userSpaceOnUse" x1="121.1994" y1="275.4751" x2="121.1994" y2="6.9831">
				<stop  offset="0" style="stop-color:#F6C6A7"/>
				<stop  offset="0.3244" style="stop-color:#F6C3A6"/>
				<stop  offset="0.5822" style="stop-color:#F5BCA3"/>
				<stop  offset="0.8163" style="stop-color:#F4AF9D"/>
				<stop  offset="1" style="stop-color:#F2A197"/>
			</linearGradient>
			<path fill="url(#SVGID_1_)" d="M225.4,107.2C225.4,107.2,225.3,107.2,225.4,107.2C223.2,51.3,177,6.6,120.4,7
				C64.7,7.4,19.8,52.2,17.1,107.2c0,0-0.1,0-0.1,0c-9.4,0-17,7.6-17,17s7.6,17,17,17v43c0,42.4,56.6,62.6,86.4,85.2
				c10.5,8,25.1,8,35.7,0c29.8-22.6,86.4-42.8,86.4-85.2v-43c9.4,0,17-7.6,17-17S234.8,107.2,225.4,107.2z"/>
			<g>
				<defs>
					<path id="SVGID_7_" d="M121.2,283.3C63.6,283.3,17,236.6,17,179.1v-67.9C17,53.6,63.6,7,121.2,7s104.2,46.7,104.2,104.2v67.9
						C225.4,236.6,178.7,283.3,121.2,283.3z"/>
				</defs>
				<clipPath id="SVGID_2_">
					<use xlink:href="#SVGID_7_"  overflow="visible"/>
				</clipPath>
				<g clip-path="url(#SVGID_2_)">
					<defs>
						<path id="SVGID_9_" d="M17,86.4c40.9,0,163-74.9,163-150.1S81-87.6,81-87.6L-12.4,19.9L17,86.4z"/>
					</defs>
					<use xlink:href="#SVGID_9_"  overflow="visible" fill="#A47B53"/>
					<clipPath id="SVGID_3_">
						<use xlink:href="#SVGID_9_"  overflow="visible"/>
					</clipPath>
					<g clip-path="url(#SVGID_3_)">
						<path fill="#A47B53" d="M121.2,268.2C63.6,268.2,17,221.5,17,164V96.1C17,38.6,63.6-8.1,121.2-8.1S225.4,38.6,225.4,96.1V164
							C225.4,221.5,178.7,268.2,121.2,268.2z"/>
					</g>
				</g>
				<g clip-path="url(#SVGID_2_)">
					<g opacity="0.1">
						<path fill="#010101" d="M218.5,96.5c-65,0-168.1-44-168.1-190.8s168.1,39.2,168.1,39.2V96.5z"/>
					</g>
					<g>
						<path fill="#A47B53" d="M225.4,96.5c-65,0-168.1-44-168.1-190.8s168.1,39.2,168.1,39.2V96.5z"/>
					</g>
				</g>
			</g>
			<g>
				<circle fill="#A47B53" cx="79.5" cy="126" r="4.6"/>
				<circle fill="#A47B53" cx="162.9" cy="126" r="4.6"/>
			</g>
		</g>
		<g>
			<g>
				<path fill="#010101" d="M142.7,358.7l1.4-2.7c0.4,0.3,0.9,0.5,1.5,0.5c0.8,0,1.3-0.5,1.3-1.3v-7.4h3.5v7.5c0,3-1.8,4.3-4.5,4.3
					C144.8,359.6,143.6,359.4,142.7,358.7z"/>
				<path fill="#010101" d="M159.3,359.4l-0.4-1.4h-4.2l-0.4,1.4h-4l4.3-11.6h4.4l4.3,11.6H159.3z M156.8,351.2l-1.1,3.7h2.3
					L156.8,351.2z"/>
				<path fill="#010101" d="M171.7,359.4l-4.3-5.9v5.9h-3.5v-11.6h3.6l4,5.5v-5.5h3.5v11.6H171.7z"/>
				<path fill="#010101" d="M177,359.4v-11.6h8.8v3.1h-5.3v1.1h5.2v3.1h-5.2v1.3h5.3v3.1H177z"/>
			</g>
			<g>
				<rect x="137" y="342.2" fill="#EFEEEE" width="54.4" height="23.1"/>
			</g>
			<g>
				<path fill="#424244" d="M142.7,358.7l1.4-2.7c0.4,0.3,0.9,0.5,1.5,0.5c0.8,0,1.3-0.5,1.3-1.3v-7.4h3.5v7.5c0,3-1.8,4.3-4.5,4.3
					C144.8,359.6,143.6,359.4,142.7,358.7z"/>
				<path fill="#424244" d="M159.3,359.4l-0.4-1.4h-4.2l-0.4,1.4h-4l4.3-11.6h4.4l4.3,11.6H159.3z M156.8,351.2l-1.1,3.7h2.3
					L156.8,351.2z"/>
				<path fill="#424244" d="M171.7,359.4l-4.3-5.9v5.9h-3.5v-11.6h3.6l4,5.5v-5.5h3.5v11.6H171.7z"/>
				<path fill="#424244" d="M177,359.4v-11.6h8.8v3.1h-5.3v1.1h5.2v3.1h-5.2v1.3h5.3v3.1H177z"/>
			</g>
		</g>
	</g>
	<line fill="none" stroke="#F6C6A7" stroke-width="22.6927" stroke-miterlimit="10" x1="266.9" y1="494.5" x2="266.9" y2="333.6"/>
	<line fill="none" stroke="#F6C6A7" stroke-width="22.6927" stroke-miterlimit="10" x1="206.7" y1="494.5" x2="206.7" y2="396.6"/>
	<path fill="#424244" d="M293.1,216.6h-52.5c-3.7,0-6.7,3-6.7,6.7V338c0,3.7,3,6.7,6.7,6.7h52.5c3.7,0,6.7-3,6.7-6.7V223.3
		C299.8,219.6,296.8,216.6,293.1,216.6z"/>
	<rect x="238.6" y="235.3" fill="#EFEEEE" width="56.5" height="90.6"/>
	<rect x="280.3" y="280.6" fill="#F6C6A7" width="24" height="12"/>
	<rect x="280.3" y="297.3" fill="#F6C6A7" width="24" height="12"/>
	<rect x="280.3" y="314.1" fill="#F6C6A7" width="24" height="12"/>
	<rect x="225.4" y="314.1" fill="#F6C6A7" width="24" height="12"/>
	<g id="_x34_fHSgQ_2_">
		<g>
			<g>
				<path fill="#068A93" d="M255.9,273.6c0-4.8,2.1-7.8,6.4-9.5c1.2-0.5,2-0.2,2.5,0.9c0.9,1.9,1.7,3.8,2.5,5.7
					c0.5,1.2,0.2,2-0.9,2.5c-0.8,0.4-1.7,0.7-2.5,1.1c-1.2,0.6-1.6,1.5-1,2.7c1.5,3.3,3,6.6,4.5,9.9c0.6,1.3,1.5,1.6,2.9,1
					c0.8-0.4,1.6-0.8,2.5-1.1c1.1-0.4,1.9-0.1,2.3,0.9c0.9,1.9,1.8,3.8,2.6,5.8c0.5,1.1,0.2,1.9-1,2.5c-5.2,2.8-10,0.7-12.9-3.2
					c-3.9-5.2-6.7-10.9-7.7-17.4C256,274.8,256,274.2,255.9,273.6z"/>
			</g>
		</g>
	</g>
	<g>
		<g>
			<path fill="#010101" d="M347.5,266v-5.9h-7.5v5.9h-1.6v-12.9h1.6v5.5h7.5v-5.5h1.6V266H347.5z"/>
			<path fill="#010101" d="M351.5,261.3c0-2.7,1.9-4.9,4.6-4.9c2.8,0,4.5,2.2,4.5,5v0.4H353c0.1,1.8,1.4,3.2,3.4,3.2
				c1.1,0,2.1-0.4,2.9-1.2l0.7,0.9c-0.9,0.9-2.2,1.4-3.7,1.4C353.5,266.3,351.5,264.3,351.5,261.3z M356.1,257.7c-2,0-3,1.7-3.1,3.1
				h6.1C359.1,259.4,358.2,257.7,356.1,257.7z"/>
			<path fill="#010101" d="M362.9,266v-12.9h1.5V266H362.9z"/>
			<path fill="#010101" d="M367.3,266v-12.9h1.5V266H367.3z"/>
			<path fill="#010101" d="M371.1,261.3c0-2.7,1.8-4.9,4.6-4.9s4.6,2.2,4.6,4.9c0,2.7-1.8,4.9-4.6,4.9S371.1,264.1,371.1,261.3z
				 M378.8,261.3c0-1.9-1.1-3.6-3.1-3.6s-3.1,1.7-3.1,3.6c0,1.9,1.1,3.6,3.1,3.6S378.8,263.3,378.8,261.3z"/>
			<path fill="#010101" d="M387.4,254.4c0-0.5,0.4-1,1-1c0.5,0,1,0.4,1,1c0,0.5-0.4,1-1,1C387.9,255.4,387.4,254.9,387.4,254.4z
				 M387.7,266v-9.3h1.5v9.3H387.7z"/>
			<path fill="#010101" d="M391.2,264.8l0.8-1c0.6,0.7,1.8,1.3,3.1,1.3c1.4,0,2.2-0.7,2.2-1.6c0-2.3-5.8-0.9-5.8-4.3
				c0-1.4,1.3-2.7,3.5-2.7c1.6,0,2.7,0.6,3.5,1.4l-0.7,1c-0.6-0.7-1.6-1.2-2.8-1.2c-1.3,0-2.1,0.6-2.1,1.5c0,2,5.8,0.7,5.8,4.3
				c0,1.6-1.3,2.8-3.7,2.8C393.5,266.3,392.2,265.8,391.2,264.8z"/>
			<path fill="#010101" d="M406.3,264.1V258h-1.5v-1.3h1.5v-2.6h1.4v2.6h1.9v1.3h-1.9v5.8c0,0.7,0.3,1.2,0.9,1.2
				c0.4,0,0.8-0.2,1-0.4l0.4,1.1c-0.4,0.3-0.9,0.6-1.7,0.6C407,266.3,406.3,265.5,406.3,264.1z"/>
			<path fill="#010101" d="M418,266v-6.1c0-1.6-0.9-2.1-2.1-2.1c-1.1,0-2.2,0.7-2.8,1.5v6.8h-1.5v-12.9h1.5v4.9
				c0.7-0.8,1.9-1.6,3.3-1.6c2,0,3,0.9,3,3v6.6H418z"/>
			<path fill="#010101" d="M422.1,254.4c0-0.5,0.4-1,1-1c0.5,0,1,0.4,1,1c0,0.5-0.4,1-1,1C422.6,255.4,422.1,254.9,422.1,254.4z
				 M422.4,266v-9.3h1.5v9.3H422.4z"/>
			<path fill="#010101" d="M425.9,264.8l0.8-1c0.6,0.7,1.8,1.3,3.1,1.3c1.4,0,2.2-0.7,2.2-1.6c0-2.3-5.8-0.9-5.8-4.3
				c0-1.4,1.3-2.7,3.5-2.7c1.6,0,2.7,0.6,3.5,1.4l-0.7,1c-0.6-0.7-1.6-1.2-2.8-1.2c-1.3,0-2.1,0.6-2.1,1.5c0,2,5.8,0.7,5.8,4.3
				c0,1.6-1.3,2.8-3.7,2.8C428.2,266.3,426.9,265.8,425.9,264.8z"/>
			<path fill="#010101" d="M439.5,264.8l0.8-1.2c0.6,0.7,1.3,1.3,2.4,1.3c1.6,0,2.6-1.1,2.6-2.7v-9h1.6v9c0,2.8-1.8,4.1-4.1,4.1
				C441.5,266.3,440.4,265.8,439.5,264.8z"/>
			<path fill="#010101" d="M455.7,266V265c-0.8,0.9-1.8,1.3-3.1,1.3c-1.6,0-3.3-1.1-3.3-3.1c0-2.1,1.7-3.1,3.3-3.1
				c1.3,0,2.3,0.4,3.1,1.3v-1.7c0-1.3-1-2-2.4-2c-1.1,0-2,0.4-2.9,1.3l-0.7-1c1-1,2.2-1.5,3.7-1.5c2,0,3.6,0.9,3.6,3.2v6.4H455.7z
				 M455.7,264.1v-1.8c-0.6-0.8-1.5-1.2-2.6-1.2c-1.4,0-2.3,0.9-2.3,2c0,1.2,0.9,2,2.3,2C454.2,265.2,455.2,264.8,455.7,264.1z"/>
			<path fill="#010101" d="M466.4,266v-6.1c0-1.6-0.8-2.2-2.1-2.2c-1.1,0-2.2,0.7-2.8,1.5v6.8h-1.5v-9.3h1.5v1.4
				c0.7-0.8,1.9-1.6,3.3-1.6c2,0,3,1,3,3v6.6H466.4z"/>
			<path fill="#010101" d="M470.2,261.3c0-2.7,1.9-4.9,4.6-4.9c2.8,0,4.5,2.2,4.5,5v0.4h-7.6c0.1,1.8,1.4,3.2,3.4,3.2
				c1.1,0,2.1-0.4,2.9-1.2l0.7,0.9c-0.9,0.9-2.2,1.4-3.7,1.4C472.2,266.3,470.2,264.3,470.2,261.3z M474.8,257.7c-2,0-3,1.7-3.1,3.1
				h6.1C477.8,259.4,476.9,257.7,474.8,257.7z"/>
			<path fill="#010101" d="M482.7,260.9c0-2.5,3.5-2.7,3.5-4.7c0-1-0.8-1.8-2.3-1.8c-1.5,0-2.4,0.6-3.1,1.6l-1-1
				c0.9-1.2,2.4-2,4.2-2c2.4,0,3.8,1.3,3.8,3c0,2.9-3.8,3.2-3.8,5.1c0,0.3,0.2,0.7,0.5,0.9l-1.2,0.5
				C482.9,262,482.7,261.5,482.7,260.9z M482.8,265.2c0-0.6,0.5-1.1,1.1-1.1c0.6,0,1.1,0.5,1.1,1.1s-0.5,1.1-1.1,1.1
				C483.2,266.2,482.8,265.7,482.8,265.2z"/>
		</g>
		<g>
			<g>
				<rect x="315.3" y="247.9" fill="#068A93" width="185.5" height="23.3"/>
			</g>
			<g>
				<rect x="320.3" y="247.9" fill="#FFFFFF" width="185.5" height="23.3"/>
			</g>
		</g>
		<g>
			<path fill="#068A93" d="M347.5,266v-5.9h-7.5v5.9h-1.6v-12.9h1.6v5.5h7.5v-5.5h1.6V266H347.5z"/>
			<path fill="#068A93" d="M351.5,261.3c0-2.7,1.9-4.9,4.6-4.9c2.8,0,4.5,2.2,4.5,5v0.4H353c0.1,1.8,1.4,3.2,3.4,3.2
				c1.1,0,2.1-0.4,2.9-1.2l0.7,0.9c-0.9,0.9-2.2,1.4-3.7,1.4C353.5,266.3,351.5,264.3,351.5,261.3z M356.1,257.7c-2,0-3,1.7-3.1,3.1
				h6.1C359.1,259.4,358.2,257.7,356.1,257.7z"/>
			<path fill="#068A93" d="M362.9,266v-12.9h1.5V266H362.9z"/>
			<path fill="#068A93" d="M367.3,266v-12.9h1.5V266H367.3z"/>
			<path fill="#068A93" d="M371.1,261.3c0-2.7,1.8-4.9,4.6-4.9s4.6,2.2,4.6,4.9c0,2.7-1.8,4.9-4.6,4.9S371.1,264.1,371.1,261.3z
				 M378.8,261.3c0-1.9-1.1-3.6-3.1-3.6s-3.1,1.7-3.1,3.6c0,1.9,1.1,3.6,3.1,3.6S378.8,263.3,378.8,261.3z"/>
			<path fill="#068A93" d="M387.4,254.4c0-0.5,0.4-1,1-1c0.5,0,1,0.4,1,1c0,0.5-0.4,1-1,1C387.9,255.4,387.4,254.9,387.4,254.4z
				 M387.7,266v-9.3h1.5v9.3H387.7z"/>
			<path fill="#068A93" d="M391.2,264.8l0.8-1c0.6,0.7,1.8,1.3,3.1,1.3c1.4,0,2.2-0.7,2.2-1.6c0-2.3-5.8-0.9-5.8-4.3
				c0-1.4,1.3-2.7,3.5-2.7c1.6,0,2.7,0.6,3.5,1.4l-0.7,1c-0.6-0.7-1.6-1.2-2.8-1.2c-1.3,0-2.1,0.6-2.1,1.5c0,2,5.8,0.7,5.8,4.3
				c0,1.6-1.3,2.8-3.7,2.8C393.5,266.3,392.2,265.8,391.2,264.8z"/>
			<path fill="#068A93" d="M406.3,264.1V258h-1.5v-1.3h1.5v-2.6h1.4v2.6h1.9v1.3h-1.9v5.8c0,0.7,0.3,1.2,0.9,1.2
				c0.4,0,0.8-0.2,1-0.4l0.4,1.1c-0.4,0.3-0.9,0.6-1.7,0.6C407,266.3,406.3,265.5,406.3,264.1z"/>
			<path fill="#068A93" d="M418,266v-6.1c0-1.6-0.9-2.1-2.1-2.1c-1.1,0-2.2,0.7-2.8,1.5v6.8h-1.5v-12.9h1.5v4.9
				c0.7-0.8,1.9-1.6,3.3-1.6c2,0,3,0.9,3,3v6.6H418z"/>
			<path fill="#068A93" d="M422.1,254.4c0-0.5,0.4-1,1-1c0.5,0,1,0.4,1,1c0,0.5-0.4,1-1,1C422.6,255.4,422.1,254.9,422.1,254.4z
				 M422.4,266v-9.3h1.5v9.3H422.4z"/>
			<path fill="#068A93" d="M425.9,264.8l0.8-1c0.6,0.7,1.8,1.3,3.1,1.3c1.4,0,2.2-0.7,2.2-1.6c0-2.3-5.8-0.9-5.8-4.3
				c0-1.4,1.3-2.7,3.5-2.7c1.6,0,2.7,0.6,3.5,1.4l-0.7,1c-0.6-0.7-1.6-1.2-2.8-1.2c-1.3,0-2.1,0.6-2.1,1.5c0,2,5.8,0.7,5.8,4.3
				c0,1.6-1.3,2.8-3.7,2.8C428.2,266.3,426.9,265.8,425.9,264.8z"/>
			<path fill="#068A93" d="M439.5,264.8l0.8-1.2c0.6,0.7,1.3,1.3,2.4,1.3c1.6,0,2.6-1.1,2.6-2.7v-9h1.6v9c0,2.8-1.8,4.1-4.1,4.1
				C441.5,266.3,440.4,265.8,439.5,264.8z"/>
			<path fill="#068A93" d="M455.7,266V265c-0.8,0.9-1.8,1.3-3.1,1.3c-1.6,0-3.3-1.1-3.3-3.1c0-2.1,1.7-3.1,3.3-3.1
				c1.3,0,2.3,0.4,3.1,1.3v-1.7c0-1.3-1-2-2.4-2c-1.1,0-2,0.4-2.9,1.3l-0.7-1c1-1,2.2-1.5,3.7-1.5c2,0,3.6,0.9,3.6,3.2v6.4H455.7z
				 M455.7,264.1v-1.8c-0.6-0.8-1.5-1.2-2.6-1.2c-1.4,0-2.3,0.9-2.3,2c0,1.2,0.9,2,2.3,2C454.2,265.2,455.2,264.8,455.7,264.1z"/>
			<path fill="#068A93" d="M466.4,266v-6.1c0-1.6-0.8-2.2-2.1-2.2c-1.1,0-2.2,0.7-2.8,1.5v6.8h-1.5v-9.3h1.5v1.4
				c0.7-0.8,1.9-1.6,3.3-1.6c2,0,3,1,3,3v6.6H466.4z"/>
			<path fill="#068A93" d="M470.2,261.3c0-2.7,1.9-4.9,4.6-4.9c2.8,0,4.5,2.2,4.5,5v0.4h-7.6c0.1,1.8,1.4,3.2,3.4,3.2
				c1.1,0,2.1-0.4,2.9-1.2l0.7,0.9c-0.9,0.9-2.2,1.4-3.7,1.4C472.2,266.3,470.2,264.3,470.2,261.3z M474.8,257.7c-2,0-3,1.7-3.1,3.1
				h6.1C477.8,259.4,476.9,257.7,474.8,257.7z"/>
			<path fill="#068A93" d="M482.7,260.9c0-2.5,3.5-2.7,3.5-4.7c0-1-0.8-1.8-2.3-1.8c-1.5,0-2.4,0.6-3.1,1.6l-1-1
				c0.9-1.2,2.4-2,4.2-2c2.4,0,3.8,1.3,3.8,3c0,2.9-3.8,3.2-3.8,5.1c0,0.3,0.2,0.7,0.5,0.9l-1.2,0.5
				C482.9,262,482.7,261.5,482.7,260.9z M482.8,265.2c0-0.6,0.5-1.1,1.1-1.1c0.6,0,1.1,0.5,1.1,1.1s-0.5,1.1-1.1,1.1
				C483.2,266.2,482.8,265.7,482.8,265.2z"/>
		</g>
	</g>
	<g>
		<g>
			<path fill="#010101" d="M342.1,304.8v-5.5l-5.1-7.4h1.9l4,6l4-6h1.9l-5.1,7.4v5.5H342.1z"/>
			<path fill="#010101" d="M347.4,300.1c0-2.7,1.9-4.9,4.6-4.9c2.8,0,4.5,2.2,4.5,5v0.4h-7.6c0.1,1.8,1.4,3.2,3.4,3.2
				c1.1,0,2.1-0.4,2.9-1.2l0.7,0.9c-0.9,0.9-2.2,1.4-3.7,1.4C349.4,305,347.4,303,347.4,300.1z M352,296.4c-2,0-3,1.7-3.1,3.1h6.1
				C355,298.1,354.1,296.4,352,296.4z"/>
			<path fill="#010101" d="M358,303.5l0.8-1c0.6,0.7,1.8,1.3,3.1,1.3c1.4,0,2.2-0.7,2.2-1.6c0-2.3-5.8-0.9-5.8-4.3
				c0-1.4,1.3-2.7,3.5-2.7c1.6,0,2.7,0.6,3.5,1.4l-0.7,1c-0.6-0.7-1.6-1.2-2.8-1.2c-1.3,0-2.1,0.6-2.1,1.5c0,2,5.8,0.7,5.8,4.3
				c0,1.6-1.3,2.8-3.7,2.8C360.2,305,358.9,304.6,358,303.5z"/>
			<path fill="#010101" d="M368.2,307.2l-0.7-0.6c0.6-0.4,1.2-1.2,1.3-1.8c0,0-0.2,0-0.3,0c-0.5,0-0.9-0.4-0.9-1c0-0.6,0.4-1,1-1
				c0.6,0,1.2,0.5,1.2,1.5C369.8,305.5,369.1,306.6,368.2,307.2z"/>
			<path fill="#010101" d="M377.5,302.8v-6.1H376v-1.3h1.5v-2.6h1.4v2.6h1.9v1.3H379v5.8c0,0.7,0.3,1.2,0.9,1.2c0.4,0,0.8-0.2,1-0.4
				l0.4,1.1c-0.4,0.3-0.9,0.6-1.7,0.6C378.2,305,377.5,304.2,377.5,302.8z"/>
			<path fill="#010101" d="M389.2,304.8v-6.1c0-1.6-0.9-2.1-2.1-2.1c-1.1,0-2.2,0.7-2.8,1.5v6.8h-1.5v-12.9h1.5v4.9
				c0.7-0.8,1.9-1.6,3.3-1.6c2,0,3,0.9,3,3v6.6H389.2z"/>
			<path fill="#010101" d="M393.3,293.1c0-0.5,0.4-1,1-1c0.5,0,1,0.4,1,1c0,0.5-0.4,1-1,1C393.8,294.1,393.3,293.7,393.3,293.1z
				 M393.6,304.8v-9.3h1.5v9.3H393.6z"/>
			<path fill="#010101" d="M397.1,303.5l0.8-1c0.6,0.7,1.8,1.3,3.1,1.3c1.4,0,2.2-0.7,2.2-1.6c0-2.3-5.8-0.9-5.8-4.3
				c0-1.4,1.3-2.7,3.5-2.7c1.6,0,2.7,0.6,3.5,1.4l-0.7,1c-0.6-0.7-1.6-1.2-2.8-1.2c-1.3,0-2.1,0.6-2.1,1.5c0,2,5.8,0.7,5.8,4.3
				c0,1.6-1.3,2.8-3.7,2.8C399.4,305,398.1,304.6,397.1,303.5z"/>
			<path fill="#010101" d="M411.7,293.1c0-0.5,0.4-1,1-1c0.5,0,1,0.4,1,1c0,0.5-0.4,1-1,1C412.1,294.1,411.7,293.7,411.7,293.1z
				 M411.9,304.8v-9.3h1.5v9.3H411.9z"/>
			<path fill="#010101" d="M415.5,303.5l0.8-1c0.6,0.7,1.8,1.3,3.1,1.3c1.4,0,2.2-0.7,2.2-1.6c0-2.3-5.8-0.9-5.8-4.3
				c0-1.4,1.3-2.7,3.5-2.7c1.6,0,2.7,0.6,3.5,1.4l-0.7,1c-0.6-0.7-1.6-1.2-2.8-1.2c-1.3,0-2.1,0.6-2.1,1.5c0,2,5.8,0.7,5.8,4.3
				c0,1.6-1.3,2.8-3.7,2.8C417.7,305,416.4,304.6,415.5,303.5z"/>
			<path fill="#010101" d="M429,303.5l0.8-1.2c0.6,0.7,1.3,1.3,2.4,1.3c1.6,0,2.6-1.1,2.6-2.7v-9h1.6v9c0,2.8-1.8,4.1-4.1,4.1
				C431,305,429.9,304.6,429,303.5z"/>
			<path fill="#010101" d="M445.3,304.8v-1.1c-0.8,0.9-1.8,1.3-3.1,1.3c-1.6,0-3.3-1.1-3.3-3.1c0-2.1,1.7-3.1,3.3-3.1
				c1.3,0,2.3,0.4,3.1,1.3v-1.7c0-1.3-1-2-2.4-2c-1.1,0-2,0.4-2.9,1.3l-0.7-1c1-1,2.2-1.5,3.7-1.5c2,0,3.6,0.9,3.6,3.2v6.4H445.3z
				 M445.3,302.8v-1.8c-0.6-0.8-1.5-1.2-2.6-1.2c-1.4,0-2.3,0.9-2.3,2c0,1.2,0.9,2,2.3,2C443.7,304,444.7,303.6,445.3,302.8z"/>
			<path fill="#010101" d="M455.9,304.8v-6.1c0-1.6-0.8-2.2-2.1-2.2c-1.1,0-2.2,0.7-2.8,1.5v6.8h-1.5v-9.3h1.5v1.4
				c0.7-0.8,1.9-1.6,3.3-1.6c2,0,3,1,3,3v6.6H455.9z"/>
			<path fill="#010101" d="M459.8,300.1c0-2.7,1.9-4.9,4.6-4.9c2.8,0,4.5,2.2,4.5,5v0.4h-7.6c0.1,1.8,1.4,3.2,3.4,3.2
				c1.1,0,2.1-0.4,2.9-1.2l0.7,0.9c-0.9,0.9-2.2,1.4-3.7,1.4C461.8,305,459.8,303,459.8,300.1z M464.3,296.4c-2,0-3,1.7-3.1,3.1h6.1
				C467.4,298.1,466.5,296.4,464.3,296.4z"/>
		</g>
		<g>
			<g>
				<rect x="314" y="286.9" fill="#BB7064" width="167.9" height="25.4"/>
			</g>
			<g>
				<rect x="319" y="286.9" fill="#FFFFFF" width="167.9" height="25.4"/>
			</g>
		</g>
		<g>
			<path fill="#BB7064" d="M342.1,304.8v-5.5l-5.1-7.4h1.9l4,6l4-6h1.9l-5.1,7.4v5.5H342.1z"/>
			<path fill="#BB7064" d="M347.4,300.1c0-2.7,1.9-4.9,4.6-4.9c2.8,0,4.5,2.2,4.5,5v0.4h-7.6c0.1,1.8,1.4,3.2,3.4,3.2
				c1.1,0,2.1-0.4,2.9-1.2l0.7,0.9c-0.9,0.9-2.2,1.4-3.7,1.4C349.4,305,347.4,303,347.4,300.1z M352,296.4c-2,0-3,1.7-3.1,3.1h6.1
				C355,298.1,354.1,296.4,352,296.4z"/>
			<path fill="#BB7064" d="M358,303.5l0.8-1c0.6,0.7,1.8,1.3,3.1,1.3c1.4,0,2.2-0.7,2.2-1.6c0-2.3-5.8-0.9-5.8-4.3
				c0-1.4,1.3-2.7,3.5-2.7c1.6,0,2.7,0.6,3.5,1.4l-0.7,1c-0.6-0.7-1.6-1.2-2.8-1.2c-1.3,0-2.1,0.6-2.1,1.5c0,2,5.8,0.7,5.8,4.3
				c0,1.6-1.3,2.8-3.7,2.8C360.2,305,358.9,304.6,358,303.5z"/>
			<path fill="#BB7064" d="M368.2,307.2l-0.7-0.6c0.6-0.4,1.2-1.2,1.3-1.8c0,0-0.2,0-0.3,0c-0.5,0-0.9-0.4-0.9-1c0-0.6,0.4-1,1-1
				c0.6,0,1.2,0.5,1.2,1.5C369.8,305.5,369.1,306.6,368.2,307.2z"/>
			<path fill="#BB7064" d="M377.5,302.8v-6.1H376v-1.3h1.5v-2.6h1.4v2.6h1.9v1.3H379v5.8c0,0.7,0.3,1.2,0.9,1.2c0.4,0,0.8-0.2,1-0.4
				l0.4,1.1c-0.4,0.3-0.9,0.6-1.7,0.6C378.2,305,377.5,304.2,377.5,302.8z"/>
			<path fill="#BB7064" d="M389.2,304.8v-6.1c0-1.6-0.9-2.1-2.1-2.1c-1.1,0-2.2,0.7-2.8,1.5v6.8h-1.5v-12.9h1.5v4.9
				c0.7-0.8,1.9-1.6,3.3-1.6c2,0,3,0.9,3,3v6.6H389.2z"/>
			<path fill="#BB7064" d="M393.3,293.1c0-0.5,0.4-1,1-1c0.5,0,1,0.4,1,1c0,0.5-0.4,1-1,1C393.8,294.1,393.3,293.7,393.3,293.1z
				 M393.6,304.8v-9.3h1.5v9.3H393.6z"/>
			<path fill="#BB7064" d="M397.1,303.5l0.8-1c0.6,0.7,1.8,1.3,3.1,1.3c1.4,0,2.2-0.7,2.2-1.6c0-2.3-5.8-0.9-5.8-4.3
				c0-1.4,1.3-2.7,3.5-2.7c1.6,0,2.7,0.6,3.5,1.4l-0.7,1c-0.6-0.7-1.6-1.2-2.8-1.2c-1.3,0-2.1,0.6-2.1,1.5c0,2,5.8,0.7,5.8,4.3
				c0,1.6-1.3,2.8-3.7,2.8C399.4,305,398.1,304.6,397.1,303.5z"/>
			<path fill="#BB7064" d="M411.7,293.1c0-0.5,0.4-1,1-1c0.5,0,1,0.4,1,1c0,0.5-0.4,1-1,1C412.1,294.1,411.7,293.7,411.7,293.1z
				 M411.9,304.8v-9.3h1.5v9.3H411.9z"/>
			<path fill="#BB7064" d="M415.5,303.5l0.8-1c0.6,0.7,1.8,1.3,3.1,1.3c1.4,0,2.2-0.7,2.2-1.6c0-2.3-5.8-0.9-5.8-4.3
				c0-1.4,1.3-2.7,3.5-2.7c1.6,0,2.7,0.6,3.5,1.4l-0.7,1c-0.6-0.7-1.6-1.2-2.8-1.2c-1.3,0-2.1,0.6-2.1,1.5c0,2,5.8,0.7,5.8,4.3
				c0,1.6-1.3,2.8-3.7,2.8C417.7,305,416.4,304.6,415.5,303.5z"/>
			<path fill="#BB7064" d="M429,303.5l0.8-1.2c0.6,0.7,1.3,1.3,2.4,1.3c1.6,0,2.6-1.1,2.6-2.7v-9h1.6v9c0,2.8-1.8,4.1-4.1,4.1
				C431,305,429.9,304.6,429,303.5z"/>
			<path fill="#BB7064" d="M445.3,304.8v-1.1c-0.8,0.9-1.8,1.3-3.1,1.3c-1.6,0-3.3-1.1-3.3-3.1c0-2.1,1.7-3.1,3.3-3.1
				c1.3,0,2.3,0.4,3.1,1.3v-1.7c0-1.3-1-2-2.4-2c-1.1,0-2,0.4-2.9,1.3l-0.7-1c1-1,2.2-1.5,3.7-1.5c2,0,3.6,0.9,3.6,3.2v6.4H445.3z
				 M445.3,302.8v-1.8c-0.6-0.8-1.5-1.2-2.6-1.2c-1.4,0-2.3,0.9-2.3,2c0,1.2,0.9,2,2.3,2C443.7,304,444.7,303.6,445.3,302.8z"/>
			<path fill="#BB7064" d="M455.9,304.8v-6.1c0-1.6-0.8-2.2-2.1-2.2c-1.1,0-2.2,0.7-2.8,1.5v6.8h-1.5v-9.3h1.5v1.4
				c0.7-0.8,1.9-1.6,3.3-1.6c2,0,3,1,3,3v6.6H455.9z"/>
			<path fill="#BB7064" d="M459.8,300.1c0-2.7,1.9-4.9,4.6-4.9c2.8,0,4.5,2.2,4.5,5v0.4h-7.6c0.1,1.8,1.4,3.2,3.4,3.2
				c1.1,0,2.1-0.4,2.9-1.2l0.7,0.9c-0.9,0.9-2.2,1.4-3.7,1.4C461.8,305,459.8,303,459.8,300.1z M464.3,296.4c-2,0-3,1.7-3.1,3.1h6.1
				C467.4,298.1,466.5,296.4,464.3,296.4z"/>
		</g>
	</g>
	<g>
		<g>
			<path fill="#010101" d="M347.5,343.5l-1.1-2.9H340l-1.1,2.9H337l5.2-12.9h2l5.2,12.9H347.5z M343.2,332.3l-2.7,6.9h5.5
				L343.2,332.3z"/>
			<path fill="#010101" d="M351,343.5v-9.3h1.5v1.5c0.8-1,1.8-1.7,3.1-1.7v1.5c-0.2,0-0.3-0.1-0.6-0.1c-0.9,0-2.1,0.7-2.5,1.5v6.6
				H351z"/>
			<path fill="#010101" d="M356.8,338.9c0-2.7,1.9-4.9,4.6-4.9c2.8,0,4.5,2.2,4.5,5v0.4h-7.6c0.1,1.8,1.4,3.2,3.4,3.2
				c1.1,0,2.1-0.4,2.9-1.2l0.7,0.9c-0.9,0.9-2.2,1.4-3.7,1.4C358.8,343.8,356.8,341.8,356.8,338.9z M361.4,335.2c-2,0-3,1.7-3.1,3.1
				h6.1C364.5,336.9,363.5,335.2,361.4,335.2z"/>
			<path fill="#010101" d="M373,345.9c0.2,0.1,0.6,0.2,0.8,0.2c0.6,0,1.1-0.2,1.4-1l0.6-1.4l-3.9-9.4h1.6l3.1,7.7l3.1-7.7h1.6
				l-4.7,11.2c-0.6,1.4-1.5,1.9-2.7,1.9c-0.3,0-0.8-0.1-1.1-0.1L373,345.9z"/>
			<path fill="#010101" d="M382.2,338.9c0-2.7,1.8-4.9,4.6-4.9s4.6,2.2,4.6,4.9c0,2.7-1.8,4.9-4.6,4.9S382.2,341.6,382.2,338.9z
				 M389.9,338.9c0-1.9-1.1-3.6-3.1-3.6s-3.1,1.7-3.1,3.6c0,1.9,1.1,3.6,3.1,3.6S389.9,340.8,389.9,338.9z"/>
			<path fill="#010101" d="M400.1,343.5v-1.3c-0.7,0.8-1.9,1.5-3.3,1.5c-2,0-3-0.9-3-3v-6.6h1.5v6.1c0,1.6,0.8,2.1,2.1,2.1
				c1.1,0,2.2-0.7,2.8-1.4v-6.9h1.4v9.3H400.1z"/>
			<path fill="#010101" d="M408.6,342.3l0.8-1c0.6,0.7,1.8,1.3,3.1,1.3c1.4,0,2.2-0.7,2.2-1.6c0-2.3-5.8-0.9-5.8-4.3
				c0-1.4,1.3-2.7,3.5-2.7c1.6,0,2.7,0.6,3.5,1.4l-0.7,1c-0.6-0.7-1.6-1.2-2.8-1.2c-1.3,0-2.1,0.6-2.1,1.5c0,2,5.8,0.7,5.8,4.3
				c0,1.6-1.3,2.8-3.7,2.8C410.9,343.8,409.6,343.3,408.6,342.3z"/>
			<path fill="#010101" d="M424.7,343.5v-1.3c-0.7,0.8-1.9,1.5-3.3,1.5c-2,0-3-0.9-3-3v-6.6h1.5v6.1c0,1.6,0.8,2.1,2.1,2.1
				c1.1,0,2.2-0.7,2.8-1.4v-6.9h1.4v9.3H424.7z"/>
			<path fill="#010101" d="M429.1,343.5v-9.3h1.5v1.5c0.8-1,1.8-1.7,3.1-1.7v1.5c-0.2,0-0.3-0.1-0.6-0.1c-0.9,0-2.1,0.7-2.5,1.5v6.6
				H429.1z"/>
			<path fill="#010101" d="M434.9,338.9c0-2.7,1.9-4.9,4.6-4.9c2.8,0,4.5,2.2,4.5,5v0.4h-7.6c0.1,1.8,1.4,3.2,3.4,3.2
				c1.1,0,2.1-0.4,2.9-1.2l0.7,0.9c-0.9,0.9-2.2,1.4-3.7,1.4C436.9,343.8,434.9,341.8,434.9,338.9z M439.5,335.2c-2,0-3,1.7-3.1,3.1
				h6.1C442.6,336.9,441.6,335.2,439.5,335.2z"/>
			<path fill="#010101" d="M451.1,345.9c0.2,0.1,0.6,0.2,0.8,0.2c0.6,0,1.1-0.2,1.4-1l0.6-1.4l-3.9-9.4h1.6l3.1,7.7l3.1-7.7h1.6
				l-4.7,11.2c-0.6,1.4-1.5,1.9-2.7,1.9c-0.3,0-0.8-0.1-1.1-0.1L451.1,345.9z"/>
			<path fill="#010101" d="M460.3,338.9c0-2.7,1.8-4.9,4.6-4.9s4.6,2.2,4.6,4.9c0,2.7-1.8,4.9-4.6,4.9S460.3,341.6,460.3,338.9z
				 M468,338.9c0-1.9-1.1-3.6-3.1-3.6s-3.1,1.7-3.1,3.6c0,1.9,1.1,3.6,3.1,3.6S468,340.8,468,338.9z"/>
			<path fill="#010101" d="M478.2,343.5v-1.3c-0.7,0.8-1.9,1.5-3.3,1.5c-2,0-3-0.9-3-3v-6.6h1.5v6.1c0,1.6,0.8,2.1,2.1,2.1
				c1.1,0,2.2-0.7,2.8-1.4v-6.9h1.4v9.3H478.2z"/>
			<path fill="#010101" d="M482.9,334.8l-0.7-0.6c0.6-0.4,1.2-1.2,1.3-1.8c0,0-0.2,0-0.3,0c-0.5,0-0.9-0.4-0.9-1c0-0.6,0.4-1,1-1
				c0.6,0,1.2,0.5,1.2,1.5C484.5,333.1,483.8,334.2,482.9,334.8z"/>
			<path fill="#010101" d="M487,343.5v-9.3h1.5v1.5c0.8-1,1.8-1.7,3.1-1.7v1.5c-0.2,0-0.3-0.1-0.6-0.1c-0.9,0-2.1,0.7-2.5,1.5v6.6
				H487z"/>
			<path fill="#010101" d="M492.8,338.9c0-2.7,1.9-4.9,4.6-4.9c2.8,0,4.5,2.2,4.5,5v0.4h-7.6c0.1,1.8,1.4,3.2,3.4,3.2
				c1.1,0,2.1-0.4,2.9-1.2l0.7,0.9c-0.9,0.9-2.2,1.4-3.7,1.4C494.8,343.8,492.8,341.8,492.8,338.9z M497.4,335.2c-2,0-3,1.7-3.1,3.1
				h6.1C500.5,336.9,499.5,335.2,497.4,335.2z"/>
			<path fill="#010101" d="M508,342.3l0.8-1.2c0.6,0.7,1.3,1.3,2.4,1.3c1.6,0,2.6-1.1,2.6-2.7v-9h1.6v9c0,2.8-1.8,4.1-4.1,4.1
				C510,343.8,508.9,343.3,508,342.3z"/>
			<path fill="#010101" d="M524.3,343.5v-1.1c-0.8,0.9-1.8,1.3-3.1,1.3c-1.6,0-3.3-1.1-3.3-3.1c0-2.1,1.7-3.1,3.3-3.1
				c1.3,0,2.3,0.4,3.1,1.3v-1.7c0-1.3-1-2-2.4-2c-1.1,0-2,0.4-2.9,1.3l-0.7-1c1-1,2.2-1.5,3.7-1.5c2,0,3.6,0.9,3.6,3.2v6.4H524.3z
				 M524.3,341.6v-1.8c-0.6-0.8-1.5-1.2-2.6-1.2c-1.4,0-2.3,0.9-2.3,2c0,1.2,0.9,2,2.3,2C522.7,342.7,523.7,342.4,524.3,341.6z"/>
			<path fill="#010101" d="M534.9,343.5v-6.1c0-1.6-0.8-2.2-2.1-2.2c-1.1,0-2.2,0.7-2.8,1.5v6.8h-1.5v-9.3h1.5v1.4
				c0.7-0.8,1.9-1.6,3.3-1.6c2,0,3,1,3,3v6.6H534.9z"/>
			<path fill="#010101" d="M538.7,338.9c0-2.7,1.9-4.9,4.6-4.9c2.8,0,4.5,2.2,4.5,5v0.4h-7.6c0.1,1.8,1.4,3.2,3.4,3.2
				c1.1,0,2.1-0.4,2.9-1.2l0.7,0.9c-0.9,0.9-2.2,1.4-3.7,1.4C540.7,343.8,538.7,341.8,538.7,338.9z M543.3,335.2c-2,0-3,1.7-3.1,3.1
				h6.1C546.4,336.9,545.5,335.2,543.3,335.2z"/>
			<path fill="#010101" d="M551.2,338.4c0-2.5,3.5-2.7,3.5-4.7c0-1-0.8-1.8-2.3-1.8c-1.5,0-2.4,0.6-3.1,1.6l-1-1
				c0.9-1.2,2.4-2,4.2-2c2.4,0,3.8,1.3,3.8,3c0,2.9-3.8,3.2-3.8,5.1c0,0.3,0.2,0.7,0.5,0.9l-1.2,0.5
				C551.4,339.5,551.2,339,551.2,338.4z M551.3,342.7c0-0.6,0.5-1.1,1.1-1.1c0.6,0,1.1,0.5,1.1,1.1s-0.5,1.1-1.1,1.1
				C551.8,343.7,551.3,343.3,551.3,342.7z"/>
		</g>
		<g>
			<g>
				<rect x="314" y="325.5" fill="#068A93" width="255.4" height="26.9"/>
			</g>
			<g>
				<rect x="319" y="325.5" fill="#FFFFFF" width="255.4" height="26.9"/>
			</g>
		</g>
		<g>
			<path fill="#068A93" d="M347.5,343.5l-1.1-2.9H340l-1.1,2.9H337l5.2-12.9h2l5.2,12.9H347.5z M343.2,332.3l-2.7,6.9h5.5
				L343.2,332.3z"/>
			<path fill="#068A93" d="M351,343.5v-9.3h1.5v1.5c0.8-1,1.8-1.7,3.1-1.7v1.5c-0.2,0-0.3-0.1-0.6-0.1c-0.9,0-2.1,0.7-2.5,1.5v6.6
				H351z"/>
			<path fill="#068A93" d="M356.8,338.9c0-2.7,1.9-4.9,4.6-4.9c2.8,0,4.5,2.2,4.5,5v0.4h-7.6c0.1,1.8,1.4,3.2,3.4,3.2
				c1.1,0,2.1-0.4,2.9-1.2l0.7,0.9c-0.9,0.9-2.2,1.4-3.7,1.4C358.8,343.8,356.8,341.8,356.8,338.9z M361.4,335.2c-2,0-3,1.7-3.1,3.1
				h6.1C364.5,336.9,363.5,335.2,361.4,335.2z"/>
			<path fill="#068A93" d="M373,345.9c0.2,0.1,0.6,0.2,0.8,0.2c0.6,0,1.1-0.2,1.4-1l0.6-1.4l-3.9-9.4h1.6l3.1,7.7l3.1-7.7h1.6
				l-4.7,11.2c-0.6,1.4-1.5,1.9-2.7,1.9c-0.3,0-0.8-0.1-1.1-0.1L373,345.9z"/>
			<path fill="#068A93" d="M382.2,338.9c0-2.7,1.8-4.9,4.6-4.9s4.6,2.2,4.6,4.9c0,2.7-1.8,4.9-4.6,4.9S382.2,341.6,382.2,338.9z
				 M389.9,338.9c0-1.9-1.1-3.6-3.1-3.6s-3.1,1.7-3.1,3.6c0,1.9,1.1,3.6,3.1,3.6S389.9,340.8,389.9,338.9z"/>
			<path fill="#068A93" d="M400.1,343.5v-1.3c-0.7,0.8-1.9,1.5-3.3,1.5c-2,0-3-0.9-3-3v-6.6h1.5v6.1c0,1.6,0.8,2.1,2.1,2.1
				c1.1,0,2.2-0.7,2.8-1.4v-6.9h1.4v9.3H400.1z"/>
			<path fill="#068A93" d="M408.6,342.3l0.8-1c0.6,0.7,1.8,1.3,3.1,1.3c1.4,0,2.2-0.7,2.2-1.6c0-2.3-5.8-0.9-5.8-4.3
				c0-1.4,1.3-2.7,3.5-2.7c1.6,0,2.7,0.6,3.5,1.4l-0.7,1c-0.6-0.7-1.6-1.2-2.8-1.2c-1.3,0-2.1,0.6-2.1,1.5c0,2,5.8,0.7,5.8,4.3
				c0,1.6-1.3,2.8-3.7,2.8C410.9,343.8,409.6,343.3,408.6,342.3z"/>
			<path fill="#068A93" d="M424.7,343.5v-1.3c-0.7,0.8-1.9,1.5-3.3,1.5c-2,0-3-0.9-3-3v-6.6h1.5v6.1c0,1.6,0.8,2.1,2.1,2.1
				c1.1,0,2.2-0.7,2.8-1.4v-6.9h1.4v9.3H424.7z"/>
			<path fill="#068A93" d="M429.1,343.5v-9.3h1.5v1.5c0.8-1,1.8-1.7,3.1-1.7v1.5c-0.2,0-0.3-0.1-0.6-0.1c-0.9,0-2.1,0.7-2.5,1.5v6.6
				H429.1z"/>
			<path fill="#068A93" d="M434.9,338.9c0-2.7,1.9-4.9,4.6-4.9c2.8,0,4.5,2.2,4.5,5v0.4h-7.6c0.1,1.8,1.4,3.2,3.4,3.2
				c1.1,0,2.1-0.4,2.9-1.2l0.7,0.9c-0.9,0.9-2.2,1.4-3.7,1.4C436.9,343.8,434.9,341.8,434.9,338.9z M439.5,335.2c-2,0-3,1.7-3.1,3.1
				h6.1C442.6,336.9,441.6,335.2,439.5,335.2z"/>
			<path fill="#068A93" d="M451.1,345.9c0.2,0.1,0.6,0.2,0.8,0.2c0.6,0,1.1-0.2,1.4-1l0.6-1.4l-3.9-9.4h1.6l3.1,7.7l3.1-7.7h1.6
				l-4.7,11.2c-0.6,1.4-1.5,1.9-2.7,1.9c-0.3,0-0.8-0.1-1.1-0.1L451.1,345.9z"/>
			<path fill="#068A93" d="M460.3,338.9c0-2.7,1.8-4.9,4.6-4.9s4.6,2.2,4.6,4.9c0,2.7-1.8,4.9-4.6,4.9S460.3,341.6,460.3,338.9z
				 M468,338.9c0-1.9-1.1-3.6-3.1-3.6s-3.1,1.7-3.1,3.6c0,1.9,1.1,3.6,3.1,3.6S468,340.8,468,338.9z"/>
			<path fill="#068A93" d="M478.2,343.5v-1.3c-0.7,0.8-1.9,1.5-3.3,1.5c-2,0-3-0.9-3-3v-6.6h1.5v6.1c0,1.6,0.8,2.1,2.1,2.1
				c1.1,0,2.2-0.7,2.8-1.4v-6.9h1.4v9.3H478.2z"/>
			<path fill="#068A93" d="M482.9,334.8l-0.7-0.6c0.6-0.4,1.2-1.2,1.3-1.8c0,0-0.2,0-0.3,0c-0.5,0-0.9-0.4-0.9-1c0-0.6,0.4-1,1-1
				c0.6,0,1.2,0.5,1.2,1.5C484.5,333.1,483.8,334.2,482.9,334.8z"/>
			<path fill="#068A93" d="M487,343.5v-9.3h1.5v1.5c0.8-1,1.8-1.7,3.1-1.7v1.5c-0.2,0-0.3-0.1-0.6-0.1c-0.9,0-2.1,0.7-2.5,1.5v6.6
				H487z"/>
			<path fill="#068A93" d="M492.8,338.9c0-2.7,1.9-4.9,4.6-4.9c2.8,0,4.5,2.2,4.5,5v0.4h-7.6c0.1,1.8,1.4,3.2,3.4,3.2
				c1.1,0,2.1-0.4,2.9-1.2l0.7,0.9c-0.9,0.9-2.2,1.4-3.7,1.4C494.8,343.8,492.8,341.8,492.8,338.9z M497.4,335.2c-2,0-3,1.7-3.1,3.1
				h6.1C500.5,336.9,499.5,335.2,497.4,335.2z"/>
			<path fill="#068A93" d="M508,342.3l0.8-1.2c0.6,0.7,1.3,1.3,2.4,1.3c1.6,0,2.6-1.1,2.6-2.7v-9h1.6v9c0,2.8-1.8,4.1-4.1,4.1
				C510,343.8,508.9,343.3,508,342.3z"/>
			<path fill="#068A93" d="M524.3,343.5v-1.1c-0.8,0.9-1.8,1.3-3.1,1.3c-1.6,0-3.3-1.1-3.3-3.1c0-2.1,1.7-3.1,3.3-3.1
				c1.3,0,2.3,0.4,3.1,1.3v-1.7c0-1.3-1-2-2.4-2c-1.1,0-2,0.4-2.9,1.3l-0.7-1c1-1,2.2-1.5,3.7-1.5c2,0,3.6,0.9,3.6,3.2v6.4H524.3z
				 M524.3,341.6v-1.8c-0.6-0.8-1.5-1.2-2.6-1.2c-1.4,0-2.3,0.9-2.3,2c0,1.2,0.9,2,2.3,2C522.7,342.7,523.7,342.4,524.3,341.6z"/>
			<path fill="#068A93" d="M534.9,343.5v-6.1c0-1.6-0.8-2.2-2.1-2.2c-1.1,0-2.2,0.7-2.8,1.5v6.8h-1.5v-9.3h1.5v1.4
				c0.7-0.8,1.9-1.6,3.3-1.6c2,0,3,1,3,3v6.6H534.9z"/>
			<path fill="#068A93" d="M538.7,338.9c0-2.7,1.9-4.9,4.6-4.9c2.8,0,4.5,2.2,4.5,5v0.4h-7.6c0.1,1.8,1.4,3.2,3.4,3.2
				c1.1,0,2.1-0.4,2.9-1.2l0.7,0.9c-0.9,0.9-2.2,1.4-3.7,1.4C540.7,343.8,538.7,341.8,538.7,338.9z M543.3,335.2c-2,0-3,1.7-3.1,3.1
				h6.1C546.4,336.9,545.5,335.2,543.3,335.2z"/>
			<path fill="#068A93" d="M551.2,338.4c0-2.5,3.5-2.7,3.5-4.7c0-1-0.8-1.8-2.3-1.8c-1.5,0-2.4,0.6-3.1,1.6l-1-1
				c0.9-1.2,2.4-2,4.2-2c2.4,0,3.8,1.3,3.8,3c0,2.9-3.8,3.2-3.8,5.1c0,0.3,0.2,0.7,0.5,0.9l-1.2,0.5
				C551.4,339.5,551.2,339,551.2,338.4z M551.3,342.7c0-0.6,0.5-1.1,1.1-1.1c0.6,0,1.1,0.5,1.1,1.1s-0.5,1.1-1.1,1.1
				C551.8,343.7,551.3,343.3,551.3,342.7z"/>
		</g>
	</g>
	<g>
		<g>
			<path fill="#010101" d="M338,381.4c0-0.6,0.5-1.1,1.1-1.1s1.1,0.5,1.1,1.1s-0.5,1.1-1.1,1.1S338,382,338,381.4z"/>
			<path fill="#010101" d="M342.4,381.4c0-0.6,0.5-1.1,1.1-1.1s1.1,0.5,1.1,1.1s-0.5,1.1-1.1,1.1S342.4,382,342.4,381.4z"/>
			<path fill="#010101" d="M346.9,381.4c0-0.6,0.5-1.1,1.1-1.1s1.1,0.5,1.1,1.1s-0.5,1.1-1.1,1.1S346.9,382,346.9,381.4z"/>
		</g>
		<g>
			<g>
				<rect x="315" y="375.4" fill="#BB7064" width="47" height="12.1"/>
			</g>
			<g>
				<rect x="320" y="375.4" fill="#FFFFFF" width="47" height="12.1"/>
			</g>
		</g>
		<g>
			<path fill="#BB7064" d="M338,381.4c0-0.6,0.5-1.1,1.1-1.1s1.1,0.5,1.1,1.1s-0.5,1.1-1.1,1.1S338,382,338,381.4z"/>
			<path fill="#BB7064" d="M342.4,381.4c0-0.6,0.5-1.1,1.1-1.1s1.1,0.5,1.1,1.1s-0.5,1.1-1.1,1.1S342.4,382,342.4,381.4z"/>
			<path fill="#BB7064" d="M346.9,381.4c0-0.6,0.5-1.1,1.1-1.1s1.1,0.5,1.1,1.1s-0.5,1.1-1.1,1.1S346.9,382,346.9,381.4z"/>
		</g>
	</g>
	<rect x="193.1" y="383.4" fill="#EFEEEE" width="29.5" height="13.2"/>
	<line fill="none" stroke="#F6C6A7" stroke-width="22.6927" stroke-miterlimit="10" x1="36.3" y1="494.5" x2="36.3" y2="396.6"/>
	<rect x="22.7" y="383.4" fill="#EFEEEE" width="29.5" height="13.2"/>
</g>
</svg>
