<?xml version="1.0" encoding="utf-8"?>
<!-- Generator: Adobe Illustrator 17.1.0, SVG Export Plug-In . SVG Version: 6.00 Build 0)  -->
<!DOCTYPE svg PUBLIC "-//W3C//DTD SVG 1.1//EN" "http://www.w3.org/Graphics/SVG/1.1/DTD/svg11.dtd">
<svg version="1.1" id="Layer_1" xmlns="http://www.w3.org/2000/svg" xmlns:xlink="http://www.w3.org/1999/xlink" x="0px" y="0px"
	 viewBox="0 0 585.8 487.5" enable-background="new 0 0 585.8 487.5" xml:space="preserve">
<g>
	<g>
		<g>
			<rect x="17" y="122.3" fill="#A47B53" width="208.4" height="120.7"/>
			<path fill="#BB7064" d="M216.7,486.5V274.4c0-8.1-6.5-14.6-14.6-14.6h-8.9H49.3h0H39.1c-7.4,0-13.4,6-13.4,13.4v213.3H216.7z"/>
			<g>
				<g opacity="0.1">
					<path fill="#231F20" d="M121.2,199l-71.9,59.3l37.5,51.1c17.1,23.3,51.9,23.3,69,0l37.5-51.1L121.2,199z"/>
				</g>
				<g>
					<path fill="#EFEEEE" d="M121.2,189.8L49.3,249l37.5,51.1c17.1,23.3,51.9,23.3,69,0l37.5-51.1L121.2,189.8z"/>
				</g>
			</g>
			<linearGradient id="SVGID_1_" gradientUnits="userSpaceOnUse" x1="121.1994" y1="268.4919" x2="121.1994" y2="1.818989e-12">
				<stop  offset="0" style="stop-color:#F6C6A7"/>
				<stop  offset="0.3244" style="stop-color:#F6C3A6"/>
				<stop  offset="0.5822" style="stop-color:#F5BCA3"/>
				<stop  offset="0.8163" style="stop-color:#F4AF9D"/>
				<stop  offset="1" style="stop-color:#F2A197"/>
			</linearGradient>
			<path fill="url(#SVGID_1_)" d="M225.4,100.3C225.4,100.3,225.3,100.3,225.4,100.3C223.2,44.3,177-0.4,120.4,0
				C64.7,0.4,19.8,45.2,17.1,100.3c0,0-0.1,0-0.1,0c-9.4,0-17,7.6-17,17s7.6,17,17,17v43c0,42.4,56.6,62.6,86.4,85.2
				c10.5,8,25.1,8,35.7,0c29.8-22.6,86.4-42.8,86.4-85.2v-43c9.4,0,17-7.6,17-17S234.8,100.3,225.4,100.3z"/>
			<g>
				<defs>
					<path id="SVGID_2_" d="M121.2,276.3C63.6,276.3,17,229.6,17,172.1v-67.9C17,46.7,63.6,0,121.2,0s104.2,46.7,104.2,104.2v67.9
						C225.4,229.6,178.7,276.3,121.2,276.3z"/>
				</defs>
				<clipPath id="SVGID_3_">
					<use xlink:href="#SVGID_2_"  overflow="visible"/>
				</clipPath>
				<g clip-path="url(#SVGID_3_)">
					<defs>
						<path id="SVGID_4_" d="M17,79.4c40.9,0,163-74.9,163-150.1S81-94.6,81-94.6L-12.4,13L17,79.4z"/>
					</defs>
					<use xlink:href="#SVGID_4_"  overflow="visible" fill="#A47B53"/>
					<clipPath id="SVGID_5_">
						<use xlink:href="#SVGID_4_"  overflow="visible"/>
					</clipPath>
					<g clip-path="url(#SVGID_5_)">
						<path fill="#A47B53" d="M121.2,261.2C63.6,261.2,17,214.6,17,157V89.2C17,31.6,63.6-15.1,121.2-15.1S225.4,31.6,225.4,89.2
							V157C225.4,214.6,178.7,261.2,121.2,261.2z"/>
					</g>
				</g>
				<g clip-path="url(#SVGID_3_)">
					<g opacity="0.1">
						<path fill="#010101" d="M218.5,89.5c-65,0-168.1-44-168.1-190.8s168.1,39.2,168.1,39.2V89.5z"/>
					</g>
					<g>
						<path fill="#A47B53" d="M225.4,89.5c-65,0-168.1-44-168.1-190.8s168.1,39.2,168.1,39.2V89.5z"/>
					</g>
				</g>
			</g>
			<g>
				<circle fill="#A47B53" cx="79.5" cy="119" r="4.6"/>
				<circle fill="#A47B53" cx="162.9" cy="119" r="4.6"/>
			</g>
		</g>
		<g>
			<g>
				<path fill="#010101" d="M142.7,351.7l1.4-2.7c0.4,0.3,0.9,0.5,1.5,0.5c0.8,0,1.3-0.5,1.3-1.3v-7.4h3.5v7.5c0,3-1.8,4.3-4.5,4.3
					C144.8,352.6,143.6,352.4,142.7,351.7z"/>
				<path fill="#010101" d="M159.3,352.4l-0.4-1.4h-4.2l-0.4,1.4h-4l4.3-11.6h4.4l4.3,11.6H159.3z M156.8,344.3l-1.1,3.7h2.3
					L156.8,344.3z"/>
				<path fill="#010101" d="M171.7,352.4l-4.3-5.9v5.9h-3.5v-11.6h3.6l4,5.5v-5.5h3.5v11.6H171.7z"/>
				<path fill="#010101" d="M177,352.4v-11.6h8.8v3.1h-5.3v1.1h5.2v3.1h-5.2v1.3h5.3v3.1H177z"/>
			</g>
			<g>
				<rect x="137" y="335.2" fill="#EFEEEE" width="54.4" height="23.1"/>
			</g>
			<g>
				<path fill="#424244" d="M142.7,351.7l1.4-2.7c0.4,0.3,0.9,0.5,1.5,0.5c0.8,0,1.3-0.5,1.3-1.3v-7.4h3.5v7.5c0,3-1.8,4.3-4.5,4.3
					C144.8,352.6,143.6,352.4,142.7,351.7z"/>
				<path fill="#424244" d="M159.3,352.4l-0.4-1.4h-4.2l-0.4,1.4h-4l4.3-11.6h4.4l4.3,11.6H159.3z M156.8,344.3l-1.1,3.7h2.3
					L156.8,344.3z"/>
				<path fill="#424244" d="M171.7,352.4l-4.3-5.9v5.9h-3.5v-11.6h3.6l4,5.5v-5.5h3.5v11.6H171.7z"/>
				<path fill="#424244" d="M177,352.4v-11.6h8.8v3.1h-5.3v1.1h5.2v3.1h-5.2v1.3h5.3v3.1H177z"/>
			</g>
		</g>
	</g>
	<line fill="none" stroke="#F6C6A7" stroke-width="22.6927" stroke-miterlimit="10" x1="266.9" y1="487.5" x2="266.9" y2="326.6"/>
	<line fill="none" stroke="#F6C6A7" stroke-width="22.6927" stroke-miterlimit="10" x1="206.7" y1="487.5" x2="206.7" y2="389.6"/>
	<path fill="#424244" d="M293.1,209.6h-52.5c-3.7,0-6.7,3-6.7,6.7V331c0,3.7,3,6.7,6.7,6.7h52.5c3.7,0,6.7-3,6.7-6.7V216.3
		C299.8,212.6,296.8,209.6,293.1,209.6z"/>
	<rect x="238.6" y="228.3" fill="#EFEEEE" width="56.5" height="90.6"/>
	<rect x="225.4" y="307.1" fill="#F6C6A7" width="24" height="12"/>
	<g id="_x34_fHSgQ_2_">
		<g>
			<g>
				<path fill="#068A93" d="M255.9,266.7c0-4.8,2.1-7.8,6.4-9.5c1.2-0.5,2-0.2,2.5,0.9c0.9,1.9,1.7,3.8,2.5,5.7
					c0.5,1.2,0.2,2-0.9,2.5c-0.8,0.4-1.7,0.7-2.5,1.1c-1.2,0.6-1.6,1.5-1,2.7c1.5,3.3,3,6.6,4.5,9.9c0.6,1.3,1.5,1.6,2.9,1
					c0.8-0.4,1.6-0.8,2.5-1.1c1.1-0.4,1.9-0.1,2.3,0.9c0.9,1.9,1.8,3.8,2.6,5.8c0.5,1.1,0.2,1.9-1,2.5c-5.2,2.8-10,0.7-12.9-3.2
					c-3.9-5.2-6.7-10.9-7.7-17.4C256,267.8,256,267.2,255.9,266.7z"/>
			</g>
		</g>
	</g>
	<g>
		<text transform="matrix(1 0 0 1 336.8215 259.0392)" fill="#010101" font-family="'ProximaNova-Regular'" font-size="19.3395">Hello is this Jane?</text>
		<g>
			<g>
				<rect x="313.8" y="237.9" fill="#068A93" width="188.3" height="31.4"/>
			</g>
			<rect x="318.8" y="237.9" fill="#FFFFFF" width="188.3" height="31.4"/>
		</g>
		<g>
			<text transform="matrix(1 0 0 1 336.8215 259.0392)" fill="#068A93" font-family="'ProximaNova-Regular'" font-size="19.3395">Hello is this Jane?</text>
		</g>
	</g>
	<g>
		<text transform="matrix(1 0 0 1 336.8215 297.8025)" fill="#010101" font-family="'ProximaNova-Regular'" font-size="19.3395">Yes, this is Jane</text>
		<g>
			<g>
				<rect x="313.8" y="276.7" fill="#BB7064" width="171.4" height="31.4"/>
			</g>
			<rect x="318.8" y="276.7" fill="#FFFFFF" width="171.4" height="31.4"/>
		</g>
		<g>
			<text transform="matrix(1 0 0 1 336.8215 297.8025)" fill="#BB7064" font-family="'ProximaNova-Regular'" font-size="19.3395">Yes, this is Jane</text>
		</g>
	</g>
	<g>
		<text transform="matrix(1 0 0 1 336.8215 336.5653)" fill="#010101" font-family="'ProximaNova-Regular'" font-size="19.3395">Are you sure you’re Jane?</text>
		<g>
			<g>
				<rect x="313.8" y="315.4" fill="#068A93" width="256.8" height="31.4"/>
			</g>
			<rect x="318.8" y="315.4" fill="#FFFFFF" width="256.8" height="31.4"/>
		</g>
		<g>
			<text transform="matrix(1 0 0 1 336.8215 336.5653)" fill="#068A93" font-family="'ProximaNova-Regular'" font-size="19.3395">Are you sure you’re Jane?</text>
		</g>
	</g>
	<g>
		<text transform="matrix(1 0 0 1 336.8215 375.3295)" fill="#010101" font-family="'ProximaNova-Regular'" font-size="19.3395">...</text>
		<g>
			<g>
				<rect x="313.8" y="354.2" fill="#BB7064" width="49.3" height="31.4"/>
			</g>
			<rect x="318.8" y="354.2" fill="#FFFFFF" width="49.3" height="31.4"/>
		</g>
		<g>
			<text transform="matrix(1 0 0 1 336.8215 375.3295)" fill="#BB7064" font-family="'ProximaNova-Regular'" font-size="19.3395">...</text>
		</g>
	</g>
	<rect x="193.1" y="376.4" fill="#EFEEEE" width="29.5" height="13.2"/>
	<line fill="none" stroke="#F6C6A7" stroke-width="22.6927" stroke-miterlimit="10" x1="36.3" y1="487.5" x2="36.3" y2="389.6"/>
	<rect x="22.7" y="376.4" fill="#EFEEEE" width="29.5" height="13.2"/>
</g>
</svg>
