<?xml version="1.0" encoding="utf-8"?>
<!-- Generator: Adobe Illustrator 17.1.0, SVG Export Plug-In . SVG Version: 6.00 Build 0)  -->
<!DOCTYPE svg PUBLIC "-//W3C//DTD SVG 1.1//EN" "http://www.w3.org/Graphics/SVG/1.1/DTD/svg11.dtd">
<svg version="1.1" id="Layer_1" xmlns="http://www.w3.org/2000/svg" xmlns:xlink="http://www.w3.org/1999/xlink" x="0px" y="0px"
	 viewBox="0 0 652.3 442.3" enable-background="new 0 0 652.3 442.3" xml:space="preserve">
<g>
	<g>
		<line fill="none" stroke="#F6C6A7" stroke-width="26" stroke-miterlimit="10" x1="190.5" y1="441.8" x2="190.5" y2="345.1"/>
		<line fill="none" stroke="#F6C6A7" stroke-width="26" stroke-miterlimit="10" x1="17.8" y1="442.3" x2="17.8" y2="344.4"/>
		<g>
			<g>
				<path fill="#BB7064" d="M187.8,205.6h-9.3H29.2h0H18.8c-7.7,0-13.9,6.2-13.9,13.9v118.1h24.4v104.2h149.3V337.7H203V220.8
					C203,212.4,196.2,205.6,187.8,205.6z"/>
				<g>
					<g>
						<g opacity="0.1">
							<path fill="#231F20" d="M103.9,207.9l-74.7-3.8l47.3,64.5c13.6,18.5,41.2,18.5,54.8,0l47.3-64.5L103.9,207.9z"/>
						</g>
						<g>
							<path fill="#EFEEEE" d="M103.9,198.3l-74.7-3.8L76.5,259c13.6,18.5,41.2,18.5,54.8,0l47.3-64.5L103.9,198.3z"/>
						</g>
					</g>
				</g>
				<g>
					<rect x="21.3" y="96.9" fill="#A47B53" width="165.1" height="98.6"/>
					<path fill="#F6C6A7" d="M165.9,180.9c-31.7,40-92.4,40-124.1,0c-11.8-14.8-20.5-29.5-20.5-40.5V83.9
						c0-45.3,35.9-83.2,81.2-83.9c46.2-0.8,84,36.5,84,82.6v57.9C186.4,151.4,177.7,166.1,165.9,180.9z"/>
					<g>
						<defs>
							<path id="SVGID_5_" d="M103.8,218.9c-45.6,0-82.6-37-82.6-82.6V82.6C21.3,37,58.2,0,103.8,0s82.6,37,82.6,82.6"/>
						</defs>
						<clipPath id="SVGID_1_">
							<use xlink:href="#SVGID_5_"  overflow="visible"/>
						</clipPath>
						<g clip-path="url(#SVGID_1_)">
							<defs>
								<path id="SVGID_7_" d="M21.3,63C53.7,63,150.4,3.6,150.4-56S72-74.9,72-74.9L-2,10.3L21.3,63z"/>
							</defs>
							<use xlink:href="#SVGID_7_"  overflow="visible" fill="#A47B53"/>
							<clipPath id="SVGID_2_">
								<use xlink:href="#SVGID_7_"  overflow="visible"/>
							</clipPath>
							<path clip-path="url(#SVGID_2_)" fill="#A47B53" d="M103.8,207c-45.6,0-82.6-37-82.6-82.6V70.6c0-45.6,37-82.6,82.6-82.6
								s82.6,37,82.6,82.6v53.8C186.4,170,149.4,207,103.8,207z"/>
						</g>
						<g clip-path="url(#SVGID_1_)">
							<g opacity="0.1">
								<path fill="#010101" d="M180.9,70.9c-51.5,0-133.2-34.9-133.2-151.2s133.2,31,133.2,31V70.9z"/>
							</g>
							<g>
								<path fill="#A47B53" d="M186.4,70.9c-51.5,0-133.2-34.9-133.2-151.2s133.2,31,133.2,31V70.9z"/>
							</g>
						</g>
					</g>
					<g>
						<circle fill="#A47B53" cx="70.8" cy="94.3" r="3.7"/>
						<circle fill="#A47B53" cx="136.9" cy="94.3" r="3.7"/>
					</g>
					<circle fill="#F6C6A7" cx="186.4" cy="92.9" r="13.5"/>
					<circle fill="#F6C6A7" cx="21.3" cy="92.9" r="13.5"/>
				</g>
				<rect x="178.6" y="332.1" fill="#EFEEEE" width="29.2" height="20"/>
				<rect x="0" y="332.1" fill="#EFEEEE" width="29.2" height="20"/>
				<g>
					<g>
						<path fill="#010101" d="M131.3,292.3l1.4-2.6c0.4,0.3,0.9,0.5,1.4,0.5c0.7,0,1.2-0.5,1.2-1.3v-7.1h3.4v7.2
							c0,2.9-1.7,4.2-4.3,4.2C133.3,293.2,132.1,293,131.3,292.3z"/>
						<path fill="#010101" d="M147.2,293l-0.4-1.3h-4l-0.4,1.3h-3.8l4.1-11.1h4.2l4.1,11.1H147.2z M144.8,285.2l-1.1,3.6h2.2
							L144.8,285.2z"/>
						<path fill="#010101" d="M159.2,293l-4.1-5.6v5.6h-3.4v-11.1h3.5l3.9,5.3v-5.3h3.4V293H159.2z"/>
						<path fill="#010101" d="M164.2,293v-11.1h8.5v2.9h-5.1v1.1h5v2.9h-5v1.2h5.1v2.9H164.2z"/>
					</g>
					<g>
						<rect x="125.8" y="276.5" fill="#EFEEEE" width="52.3" height="22.2"/>
					</g>
					<g>
						<path fill="#424244" d="M131.3,292.3l1.4-2.6c0.4,0.3,0.9,0.5,1.4,0.5c0.7,0,1.2-0.5,1.2-1.3v-7.1h3.4v7.2
							c0,2.9-1.7,4.2-4.3,4.2C133.3,293.2,132.1,293,131.3,292.3z"/>
						<path fill="#424244" d="M147.2,293l-0.4-1.3h-4l-0.4,1.3h-3.8l4.1-11.1h4.2l4.1,11.1H147.2z M144.8,285.2l-1.1,3.6h2.2
							L144.8,285.2z"/>
						<path fill="#424244" d="M159.2,293l-4.1-5.6v5.6h-3.4v-11.1h3.5l3.9,5.3v-5.3h3.4V293H159.2z"/>
						<path fill="#424244" d="M164.2,293v-11.1h8.5v2.9h-5.1v1.1h5v2.9h-5v1.2h5.1v2.9H164.2z"/>
					</g>
				</g>
			</g>
		</g>
		<line fill="none" stroke="#F6C6A7" stroke-width="22.6927" stroke-miterlimit="10" x1="248.4" y1="442.3" x2="248.4" y2="281.5"/>
		<path fill="#424244" d="M274.7,164.4h-52.5c-3.7,0-6.7,3-6.7,6.7v114.7c0,3.7,3,6.7,6.7,6.7h52.5c3.7,0,6.7-3,6.7-6.7V171.1
			C281.3,167.4,278.3,164.4,274.7,164.4z"/>
		<rect x="220.2" y="183.2" fill="#EFEEEE" width="56.5" height="90.6"/>
		<rect x="261.9" y="228.5" fill="#F6C6A7" width="24" height="12"/>
		<rect x="261.9" y="245.1" fill="#F6C6A7" width="24" height="12"/>
		<rect x="261.9" y="262" fill="#F6C6A7" width="24" height="12"/>
		<rect x="206.9" y="262" fill="#F6C6A7" width="24" height="12"/>
		<g id="_x34_fHSgQ_2_">
			<g>
				<g>
					<path fill="#068A93" d="M237.4,221.5c0-4.8,2.1-7.8,6.4-9.5c1.2-0.5,2-0.2,2.5,0.9c0.9,1.9,1.7,3.8,2.5,5.7
						c0.5,1.2,0.2,2-0.9,2.5c-0.8,0.4-1.7,0.7-2.5,1.1c-1.2,0.6-1.6,1.5-1,2.7c1.5,3.3,3,6.6,4.5,9.9c0.6,1.3,1.5,1.6,2.9,1
						c0.8-0.4,1.6-0.8,2.5-1.1c1.1-0.4,1.9-0.1,2.3,0.9c0.9,1.9,1.8,3.8,2.6,5.8c0.5,1.1,0.2,1.9-1,2.5c-5.2,2.8-10,0.7-12.9-3.2
						c-3.9-5.2-6.7-10.9-7.7-17.4C237.5,222.7,237.5,222.1,237.4,221.5z"/>
				</g>
			</g>
		</g>
	</g>
	<g>
		<g>
			<g>
				<path fill="#010101" d="M418.5,170.9V165h-7.5v5.9h-1.6V158h1.6v5.5h7.5V158h1.6v12.9H418.5z"/>
				<path fill="#010101" d="M422.5,166.2c0-2.7,1.9-4.9,4.6-4.9c2.8,0,4.5,2.2,4.5,5v0.4H424c0.1,1.8,1.4,3.2,3.4,3.2
					c1.1,0,2.1-0.4,2.9-1.2l0.7,0.9c-0.9,0.9-2.2,1.4-3.7,1.4C424.5,171.1,422.5,169.1,422.5,166.2z M427.1,162.5
					c-2,0-3,1.7-3.1,3.1h6.1C430.1,164.2,429.2,162.5,427.1,162.5z"/>
				<path fill="#010101" d="M433.9,170.9V158h1.5v12.9H433.9z"/>
				<path fill="#010101" d="M438.3,170.9V158h1.5v12.9H438.3z"/>
				<path fill="#010101" d="M442.1,166.2c0-2.7,1.8-4.9,4.6-4.9s4.6,2.2,4.6,4.9c0,2.7-1.8,4.9-4.6,4.9S442.1,168.9,442.1,166.2z
					 M449.8,166.2c0-1.9-1.1-3.6-3.1-3.6s-3.1,1.7-3.1,3.6c0,1.9,1.1,3.6,3.1,3.6S449.8,168.1,449.8,166.2z"/>
				<path fill="#010101" d="M458.4,159.3c0-0.5,0.4-1,1-1c0.5,0,1,0.4,1,1c0,0.5-0.4,1-1,1C458.9,160.2,458.4,159.8,458.4,159.3z
					 M458.7,170.9v-9.3h1.5v9.3H458.7z"/>
				<path fill="#010101" d="M462.2,169.7l0.8-1c0.6,0.7,1.8,1.3,3.1,1.3c1.4,0,2.2-0.7,2.2-1.6c0-2.3-5.8-0.9-5.8-4.3
					c0-1.4,1.3-2.7,3.5-2.7c1.6,0,2.7,0.6,3.5,1.4l-0.7,1c-0.6-0.7-1.6-1.2-2.8-1.2c-1.3,0-2.1,0.6-2.1,1.5c0,2,5.8,0.7,5.8,4.3
					c0,1.6-1.3,2.8-3.7,2.8C464.4,171.1,463.1,170.7,462.2,169.7z"/>
				<path fill="#010101" d="M477.3,168.9v-6.1h-1.5v-1.3h1.5V159h1.4v2.6h1.9v1.3h-1.9v5.8c0,0.7,0.3,1.2,0.9,1.2
					c0.4,0,0.8-0.2,1-0.4l0.4,1.1c-0.4,0.3-0.9,0.6-1.7,0.6C478,171.1,477.3,170.3,477.3,168.9z"/>
				<path fill="#010101" d="M489,170.9v-6.1c0-1.6-0.9-2.1-2.1-2.1c-1.1,0-2.2,0.7-2.8,1.5v6.8h-1.5V158h1.5v4.9
					c0.7-0.8,1.9-1.6,3.3-1.6c2,0,3,0.9,3,3v6.6H489z"/>
				<path fill="#010101" d="M493.1,159.3c0-0.5,0.4-1,1-1c0.5,0,1,0.4,1,1c0,0.5-0.4,1-1,1C493.5,160.2,493.1,159.8,493.1,159.3z
					 M493.4,170.9v-9.3h1.5v9.3H493.4z"/>
				<path fill="#010101" d="M496.9,169.7l0.8-1c0.6,0.7,1.8,1.3,3.1,1.3c1.4,0,2.2-0.7,2.2-1.6c0-2.3-5.8-0.9-5.8-4.3
					c0-1.4,1.3-2.7,3.5-2.7c1.6,0,2.7,0.6,3.5,1.4l-0.7,1c-0.6-0.7-1.6-1.2-2.8-1.2c-1.3,0-2.1,0.6-2.1,1.5c0,2,5.8,0.7,5.8,4.3
					c0,1.6-1.3,2.8-3.7,2.8C499.1,171.1,497.8,170.7,496.9,169.7z"/>
				<path fill="#010101" d="M510.5,169.6l0.8-1.2c0.6,0.7,1.3,1.3,2.4,1.3c1.6,0,2.6-1.1,2.6-2.7v-9h1.6v9c0,2.8-1.8,4.1-4.1,4.1
					C512.4,171.1,511.3,170.7,510.5,169.6z"/>
				<path fill="#010101" d="M526.7,170.9v-1.1c-0.8,0.9-1.8,1.3-3.1,1.3c-1.6,0-3.3-1.1-3.3-3.1c0-2.1,1.7-3.1,3.3-3.1
					c1.3,0,2.3,0.4,3.1,1.3v-1.7c0-1.3-1-2-2.4-2c-1.1,0-2,0.4-2.9,1.3l-0.7-1c1-1,2.2-1.5,3.7-1.5c2,0,3.6,0.9,3.6,3.2v6.4H526.7z
					 M526.7,168.9v-1.8c-0.6-0.8-1.5-1.2-2.6-1.2c-1.4,0-2.3,0.9-2.3,2c0,1.2,0.9,2,2.3,2C525.2,170.1,526.2,169.7,526.7,168.9z"/>
				<path fill="#010101" d="M537.4,170.9v-6.1c0-1.6-0.8-2.2-2.1-2.2c-1.1,0-2.2,0.7-2.8,1.5v6.8h-1.5v-9.3h1.5v1.4
					c0.7-0.8,1.9-1.6,3.3-1.6c2,0,3,1,3,3v6.6H537.4z"/>
				<path fill="#010101" d="M541.2,166.2c0-2.7,1.9-4.9,4.6-4.9c2.8,0,4.5,2.2,4.5,5v0.4h-7.6c0.1,1.8,1.4,3.2,3.4,3.2
					c1.1,0,2.1-0.4,2.9-1.2l0.7,0.9c-0.9,0.9-2.2,1.4-3.7,1.4C543.2,171.1,541.2,169.1,541.2,166.2z M545.8,162.5
					c-2,0-3,1.7-3.1,3.1h6.1C548.8,164.2,547.9,162.5,545.8,162.5z"/>
				<path fill="#010101" d="M553.6,165.8c0-2.5,3.5-2.7,3.5-4.7c0-1-0.8-1.8-2.3-1.8c-1.5,0-2.4,0.6-3.1,1.6l-1-1
					c0.9-1.2,2.4-2,4.2-2c2.4,0,3.8,1.3,3.8,3c0,2.9-3.8,3.2-3.8,5.1c0,0.3,0.2,0.7,0.5,0.9l-1.2,0.5
					C553.9,166.9,553.6,166.3,553.6,165.8z M553.7,170c0-0.6,0.5-1.1,1.1-1.1c0.6,0,1.1,0.5,1.1,1.1s-0.5,1.1-1.1,1.1
					C554.2,171.1,553.7,170.6,553.7,170z"/>
			</g>
			<g>
				<g>
					<rect x="386.3" y="147.8" fill="#068A93" width="185.5" height="33.3"/>
				</g>
				<g>
					<rect x="391.3" y="147.8" fill="#FFFFFF" width="185.5" height="33.3"/>
				</g>
			</g>
			<g>
				<path fill="#068A93" d="M418.5,170.9V165h-7.5v5.9h-1.6V158h1.6v5.5h7.5V158h1.6v12.9H418.5z"/>
				<path fill="#068A93" d="M422.5,166.2c0-2.7,1.9-4.9,4.6-4.9c2.8,0,4.5,2.2,4.5,5v0.4H424c0.1,1.8,1.4,3.2,3.4,3.2
					c1.1,0,2.1-0.4,2.9-1.2l0.7,0.9c-0.9,0.9-2.2,1.4-3.7,1.4C424.5,171.1,422.5,169.1,422.5,166.2z M427.1,162.5
					c-2,0-3,1.7-3.1,3.1h6.1C430.1,164.2,429.2,162.5,427.1,162.5z"/>
				<path fill="#068A93" d="M433.9,170.9V158h1.5v12.9H433.9z"/>
				<path fill="#068A93" d="M438.3,170.9V158h1.5v12.9H438.3z"/>
				<path fill="#068A93" d="M442.1,166.2c0-2.7,1.8-4.9,4.6-4.9s4.6,2.2,4.6,4.9c0,2.7-1.8,4.9-4.6,4.9S442.1,168.9,442.1,166.2z
					 M449.8,166.2c0-1.9-1.1-3.6-3.1-3.6s-3.1,1.7-3.1,3.6c0,1.9,1.1,3.6,3.1,3.6S449.8,168.1,449.8,166.2z"/>
				<path fill="#068A93" d="M458.4,159.3c0-0.5,0.4-1,1-1c0.5,0,1,0.4,1,1c0,0.5-0.4,1-1,1C458.9,160.2,458.4,159.8,458.4,159.3z
					 M458.7,170.9v-9.3h1.5v9.3H458.7z"/>
				<path fill="#068A93" d="M462.2,169.7l0.8-1c0.6,0.7,1.8,1.3,3.1,1.3c1.4,0,2.2-0.7,2.2-1.6c0-2.3-5.8-0.9-5.8-4.3
					c0-1.4,1.3-2.7,3.5-2.7c1.6,0,2.7,0.6,3.5,1.4l-0.7,1c-0.6-0.7-1.6-1.2-2.8-1.2c-1.3,0-2.1,0.6-2.1,1.5c0,2,5.8,0.7,5.8,4.3
					c0,1.6-1.3,2.8-3.7,2.8C464.4,171.1,463.1,170.7,462.2,169.7z"/>
				<path fill="#068A93" d="M477.3,168.9v-6.1h-1.5v-1.3h1.5V159h1.4v2.6h1.9v1.3h-1.9v5.8c0,0.7,0.3,1.2,0.9,1.2
					c0.4,0,0.8-0.2,1-0.4l0.4,1.1c-0.4,0.3-0.9,0.6-1.7,0.6C478,171.1,477.3,170.3,477.3,168.9z"/>
				<path fill="#068A93" d="M489,170.9v-6.1c0-1.6-0.9-2.1-2.1-2.1c-1.1,0-2.2,0.7-2.8,1.5v6.8h-1.5V158h1.5v4.9
					c0.7-0.8,1.9-1.6,3.3-1.6c2,0,3,0.9,3,3v6.6H489z"/>
				<path fill="#068A93" d="M493.1,159.3c0-0.5,0.4-1,1-1c0.5,0,1,0.4,1,1c0,0.5-0.4,1-1,1C493.5,160.2,493.1,159.8,493.1,159.3z
					 M493.4,170.9v-9.3h1.5v9.3H493.4z"/>
				<path fill="#068A93" d="M496.9,169.7l0.8-1c0.6,0.7,1.8,1.3,3.1,1.3c1.4,0,2.2-0.7,2.2-1.6c0-2.3-5.8-0.9-5.8-4.3
					c0-1.4,1.3-2.7,3.5-2.7c1.6,0,2.7,0.6,3.5,1.4l-0.7,1c-0.6-0.7-1.6-1.2-2.8-1.2c-1.3,0-2.1,0.6-2.1,1.5c0,2,5.8,0.7,5.8,4.3
					c0,1.6-1.3,2.8-3.7,2.8C499.1,171.1,497.8,170.7,496.9,169.7z"/>
				<path fill="#068A93" d="M510.5,169.6l0.8-1.2c0.6,0.7,1.3,1.3,2.4,1.3c1.6,0,2.6-1.1,2.6-2.7v-9h1.6v9c0,2.8-1.8,4.1-4.1,4.1
					C512.4,171.1,511.3,170.7,510.5,169.6z"/>
				<path fill="#068A93" d="M526.7,170.9v-1.1c-0.8,0.9-1.8,1.3-3.1,1.3c-1.6,0-3.3-1.1-3.3-3.1c0-2.1,1.7-3.1,3.3-3.1
					c1.3,0,2.3,0.4,3.1,1.3v-1.7c0-1.3-1-2-2.4-2c-1.1,0-2,0.4-2.9,1.3l-0.7-1c1-1,2.2-1.5,3.7-1.5c2,0,3.6,0.9,3.6,3.2v6.4H526.7z
					 M526.7,168.9v-1.8c-0.6-0.8-1.5-1.2-2.6-1.2c-1.4,0-2.3,0.9-2.3,2c0,1.2,0.9,2,2.3,2C525.2,170.1,526.2,169.7,526.7,168.9z"/>
				<path fill="#068A93" d="M537.4,170.9v-6.1c0-1.6-0.8-2.2-2.1-2.2c-1.1,0-2.2,0.7-2.8,1.5v6.8h-1.5v-9.3h1.5v1.4
					c0.7-0.8,1.9-1.6,3.3-1.6c2,0,3,1,3,3v6.6H537.4z"/>
				<path fill="#068A93" d="M541.2,166.2c0-2.7,1.9-4.9,4.6-4.9c2.8,0,4.5,2.2,4.5,5v0.4h-7.6c0.1,1.8,1.4,3.2,3.4,3.2
					c1.1,0,2.1-0.4,2.9-1.2l0.7,0.9c-0.9,0.9-2.2,1.4-3.7,1.4C543.2,171.1,541.2,169.1,541.2,166.2z M545.8,162.5
					c-2,0-3,1.7-3.1,3.1h6.1C548.8,164.2,547.9,162.5,545.8,162.5z"/>
				<path fill="#068A93" d="M553.6,165.8c0-2.5,3.5-2.7,3.5-4.7c0-1-0.8-1.8-2.3-1.8c-1.5,0-2.4,0.6-3.1,1.6l-1-1
					c0.9-1.2,2.4-2,4.2-2c2.4,0,3.8,1.3,3.8,3c0,2.9-3.8,3.2-3.8,5.1c0,0.3,0.2,0.7,0.5,0.9l-1.2,0.5
					C553.9,166.9,553.6,166.3,553.6,165.8z M553.7,170c0-0.6,0.5-1.1,1.1-1.1c0.6,0,1.1,0.5,1.1,1.1s-0.5,1.1-1.1,1.1
					C554.2,171.1,553.7,170.6,553.7,170z"/>
			</g>
		</g>
		<g>
			<g>
				<path fill="#010101" d="M414.4,214.2v-5.5l-5.1-7.4h1.9l4,6l4-6h1.9l-5.1,7.4v5.5H414.4z"/>
				<path fill="#010101" d="M419.7,209.5c0-2.7,1.9-4.9,4.6-4.9c2.8,0,4.5,2.2,4.5,5v0.4h-7.6c0.1,1.8,1.4,3.2,3.4,3.2
					c1.1,0,2.1-0.4,2.9-1.2l0.7,0.9c-0.9,0.9-2.2,1.4-3.7,1.4C421.7,214.4,419.7,212.5,419.7,209.5z M424.3,205.8
					c-2,0-3,1.7-3.1,3.1h6.1C427.3,207.6,426.4,205.8,424.3,205.8z"/>
				<path fill="#010101" d="M430.3,213l0.8-1c0.6,0.7,1.8,1.3,3.1,1.3c1.4,0,2.2-0.7,2.2-1.6c0-2.3-5.8-0.9-5.8-4.3
					c0-1.4,1.3-2.7,3.5-2.7c1.6,0,2.7,0.6,3.5,1.4l-0.7,1c-0.6-0.7-1.6-1.2-2.8-1.2c-1.3,0-2.1,0.6-2.1,1.5c0,2,5.8,0.7,5.8,4.3
					c0,1.6-1.3,2.8-3.7,2.8C432.6,214.4,431.3,214,430.3,213z"/>
				<path fill="#010101" d="M440.5,216.7l-0.7-0.6c0.6-0.4,1.2-1.2,1.3-1.8c0,0-0.2,0-0.3,0c-0.5,0-0.9-0.4-0.9-1c0-0.6,0.4-1,1-1
					c0.6,0,1.2,0.5,1.2,1.5C442.1,214.9,441.4,216,440.5,216.7z"/>
				<path fill="#010101" d="M449.8,212.3v-6.1h-1.5v-1.3h1.5v-2.6h1.4v2.6h1.9v1.3h-1.9v5.8c0,0.7,0.3,1.2,0.9,1.2
					c0.4,0,0.8-0.2,1-0.4l0.4,1.1c-0.4,0.3-0.9,0.6-1.7,0.6C450.5,214.4,449.8,213.7,449.8,212.3z"/>
				<path fill="#010101" d="M461.6,214.2v-6.1c0-1.6-0.9-2.1-2.1-2.1c-1.1,0-2.2,0.7-2.8,1.5v6.8h-1.5v-12.9h1.5v4.9
					c0.7-0.8,1.9-1.6,3.3-1.6c2,0,3,0.9,3,3v6.6H461.6z"/>
				<path fill="#010101" d="M465.7,202.6c0-0.5,0.4-1,1-1c0.5,0,1,0.4,1,1c0,0.5-0.4,1-1,1C466.1,203.5,465.7,203.1,465.7,202.6z
					 M465.9,214.2v-9.3h1.5v9.3H465.9z"/>
				<path fill="#010101" d="M469.5,213l0.8-1c0.6,0.7,1.8,1.3,3.1,1.3c1.4,0,2.2-0.7,2.2-1.6c0-2.3-5.8-0.9-5.8-4.3
					c0-1.4,1.3-2.7,3.5-2.7c1.6,0,2.7,0.6,3.5,1.4l-0.7,1c-0.6-0.7-1.6-1.2-2.8-1.2c-1.3,0-2.1,0.6-2.1,1.5c0,2,5.8,0.7,5.8,4.3
					c0,1.6-1.3,2.8-3.7,2.8C471.7,214.4,470.4,214,469.5,213z"/>
				<path fill="#010101" d="M484,202.6c0-0.5,0.4-1,1-1c0.5,0,1,0.4,1,1c0,0.5-0.4,1-1,1C484.4,203.5,484,203.1,484,202.6z
					 M484.2,214.2v-9.3h1.5v9.3H484.2z"/>
				<path fill="#010101" d="M487.8,213l0.8-1c0.6,0.7,1.8,1.3,3.1,1.3c1.4,0,2.2-0.7,2.2-1.6c0-2.3-5.8-0.9-5.8-4.3
					c0-1.4,1.3-2.7,3.5-2.7c1.6,0,2.7,0.6,3.5,1.4l-0.7,1c-0.6-0.7-1.6-1.2-2.8-1.2c-1.3,0-2.1,0.6-2.1,1.5c0,2,5.8,0.7,5.8,4.3
					c0,1.6-1.3,2.8-3.7,2.8C490,214.4,488.7,214,487.8,213z"/>
				<path fill="#010101" d="M501.3,213l0.8-1.2c0.6,0.7,1.3,1.3,2.4,1.3c1.6,0,2.6-1.1,2.6-2.7v-9h1.6v9c0,2.8-1.8,4.1-4.1,4.1
					C503.3,214.4,502.2,214,501.3,213z"/>
				<path fill="#010101" d="M517.6,214.2v-1.1c-0.8,0.9-1.8,1.3-3.1,1.3c-1.6,0-3.3-1.1-3.3-3.1c0-2.1,1.7-3.1,3.3-3.1
					c1.3,0,2.3,0.4,3.1,1.3v-1.7c0-1.3-1-2-2.4-2c-1.1,0-2,0.4-2.9,1.3l-0.7-1c1-1,2.2-1.5,3.7-1.5c2,0,3.6,0.9,3.6,3.2v6.4H517.6z
					 M517.6,212.2v-1.8c-0.6-0.8-1.5-1.2-2.6-1.2c-1.4,0-2.3,0.9-2.3,2c0,1.2,0.9,2,2.3,2C516.1,213.4,517,213,517.6,212.2z"/>
				<path fill="#010101" d="M528.3,214.2v-6.1c0-1.6-0.8-2.2-2.1-2.2c-1.1,0-2.2,0.7-2.8,1.5v6.8H522v-9.3h1.5v1.4
					c0.7-0.8,1.9-1.6,3.3-1.6c2,0,3,1,3,3v6.6H528.3z"/>
				<path fill="#010101" d="M532.1,209.5c0-2.7,1.9-4.9,4.6-4.9c2.8,0,4.5,2.2,4.5,5v0.4h-7.6c0.1,1.8,1.4,3.2,3.4,3.2
					c1.1,0,2.1-0.4,2.9-1.2l0.7,0.9c-0.9,0.9-2.2,1.4-3.7,1.4C534.1,214.4,532.1,212.5,532.1,209.5z M536.7,205.8
					c-2,0-3,1.7-3.1,3.1h6.1C539.7,207.6,538.8,205.8,536.7,205.8z"/>
			</g>
			<g>
				<g>
					<rect x="386.3" y="191.3" fill="#BB7064" width="167.9" height="35.4"/>
				</g>
				<g>
					<rect x="391.3" y="191.3" fill="#FFFFFF" width="167.9" height="35.4"/>
				</g>
			</g>
			<g>
				<path fill="#BB7064" d="M414.4,214.2v-5.5l-5.1-7.4h1.9l4,6l4-6h1.9l-5.1,7.4v5.5H414.4z"/>
				<path fill="#BB7064" d="M419.7,209.5c0-2.7,1.9-4.9,4.6-4.9c2.8,0,4.5,2.2,4.5,5v0.4h-7.6c0.1,1.8,1.4,3.2,3.4,3.2
					c1.1,0,2.1-0.4,2.9-1.2l0.7,0.9c-0.9,0.9-2.2,1.4-3.7,1.4C421.7,214.4,419.7,212.5,419.7,209.5z M424.3,205.8
					c-2,0-3,1.7-3.1,3.1h6.1C427.3,207.6,426.4,205.8,424.3,205.8z"/>
				<path fill="#BB7064" d="M430.3,213l0.8-1c0.6,0.7,1.8,1.3,3.1,1.3c1.4,0,2.2-0.7,2.2-1.6c0-2.3-5.8-0.9-5.8-4.3
					c0-1.4,1.3-2.7,3.5-2.7c1.6,0,2.7,0.6,3.5,1.4l-0.7,1c-0.6-0.7-1.6-1.2-2.8-1.2c-1.3,0-2.1,0.6-2.1,1.5c0,2,5.8,0.7,5.8,4.3
					c0,1.6-1.3,2.8-3.7,2.8C432.6,214.4,431.3,214,430.3,213z"/>
				<path fill="#BB7064" d="M440.5,216.7l-0.7-0.6c0.6-0.4,1.2-1.2,1.3-1.8c0,0-0.2,0-0.3,0c-0.5,0-0.9-0.4-0.9-1c0-0.6,0.4-1,1-1
					c0.6,0,1.2,0.5,1.2,1.5C442.1,214.9,441.4,216,440.5,216.7z"/>
				<path fill="#BB7064" d="M449.8,212.3v-6.1h-1.5v-1.3h1.5v-2.6h1.4v2.6h1.9v1.3h-1.9v5.8c0,0.7,0.3,1.2,0.9,1.2
					c0.4,0,0.8-0.2,1-0.4l0.4,1.1c-0.4,0.3-0.9,0.6-1.7,0.6C450.5,214.4,449.8,213.7,449.8,212.3z"/>
				<path fill="#BB7064" d="M461.6,214.2v-6.1c0-1.6-0.9-2.1-2.1-2.1c-1.1,0-2.2,0.7-2.8,1.5v6.8h-1.5v-12.9h1.5v4.9
					c0.7-0.8,1.9-1.6,3.3-1.6c2,0,3,0.9,3,3v6.6H461.6z"/>
				<path fill="#BB7064" d="M465.7,202.6c0-0.5,0.4-1,1-1c0.5,0,1,0.4,1,1c0,0.5-0.4,1-1,1C466.1,203.5,465.7,203.1,465.7,202.6z
					 M465.9,214.2v-9.3h1.5v9.3H465.9z"/>
				<path fill="#BB7064" d="M469.5,213l0.8-1c0.6,0.7,1.8,1.3,3.1,1.3c1.4,0,2.2-0.7,2.2-1.6c0-2.3-5.8-0.9-5.8-4.3
					c0-1.4,1.3-2.7,3.5-2.7c1.6,0,2.7,0.6,3.5,1.4l-0.7,1c-0.6-0.7-1.6-1.2-2.8-1.2c-1.3,0-2.1,0.6-2.1,1.5c0,2,5.8,0.7,5.8,4.3
					c0,1.6-1.3,2.8-3.7,2.8C471.7,214.4,470.4,214,469.5,213z"/>
				<path fill="#BB7064" d="M484,202.6c0-0.5,0.4-1,1-1c0.5,0,1,0.4,1,1c0,0.5-0.4,1-1,1C484.4,203.5,484,203.1,484,202.6z
					 M484.2,214.2v-9.3h1.5v9.3H484.2z"/>
				<path fill="#BB7064" d="M487.8,213l0.8-1c0.6,0.7,1.8,1.3,3.1,1.3c1.4,0,2.2-0.7,2.2-1.6c0-2.3-5.8-0.9-5.8-4.3
					c0-1.4,1.3-2.7,3.5-2.7c1.6,0,2.7,0.6,3.5,1.4l-0.7,1c-0.6-0.7-1.6-1.2-2.8-1.2c-1.3,0-2.1,0.6-2.1,1.5c0,2,5.8,0.7,5.8,4.3
					c0,1.6-1.3,2.8-3.7,2.8C490,214.4,488.7,214,487.8,213z"/>
				<path fill="#BB7064" d="M501.3,213l0.8-1.2c0.6,0.7,1.3,1.3,2.4,1.3c1.6,0,2.6-1.1,2.6-2.7v-9h1.6v9c0,2.8-1.8,4.1-4.1,4.1
					C503.3,214.4,502.2,214,501.3,213z"/>
				<path fill="#BB7064" d="M517.6,214.2v-1.1c-0.8,0.9-1.8,1.3-3.1,1.3c-1.6,0-3.3-1.1-3.3-3.1c0-2.1,1.7-3.1,3.3-3.1
					c1.3,0,2.3,0.4,3.1,1.3v-1.7c0-1.3-1-2-2.4-2c-1.1,0-2,0.4-2.9,1.3l-0.7-1c1-1,2.2-1.5,3.7-1.5c2,0,3.6,0.9,3.6,3.2v6.4H517.6z
					 M517.6,212.2v-1.8c-0.6-0.8-1.5-1.2-2.6-1.2c-1.4,0-2.3,0.9-2.3,2c0,1.2,0.9,2,2.3,2C516.1,213.4,517,213,517.6,212.2z"/>
				<path fill="#BB7064" d="M528.3,214.2v-6.1c0-1.6-0.8-2.2-2.1-2.2c-1.1,0-2.2,0.7-2.8,1.5v6.8H522v-9.3h1.5v1.4
					c0.7-0.8,1.9-1.6,3.3-1.6c2,0,3,1,3,3v6.6H528.3z"/>
				<path fill="#BB7064" d="M532.1,209.5c0-2.7,1.9-4.9,4.6-4.9c2.8,0,4.5,2.2,4.5,5v0.4h-7.6c0.1,1.8,1.4,3.2,3.4,3.2
					c1.1,0,2.1-0.4,2.9-1.2l0.7,0.9c-0.9,0.9-2.2,1.4-3.7,1.4C534.1,214.4,532.1,212.5,532.1,209.5z M536.7,205.8
					c-2,0-3,1.7-3.1,3.1h6.1C539.7,207.6,538.8,205.8,536.7,205.8z"/>
			</g>
		</g>
		<g>
			<g>
				<path fill="#010101" d="M419.8,258.2l-1.1-2.9h-6.4l-1.1,2.9h-1.8l5.2-12.9h2l5.2,12.9H419.8z M415.5,246.9l-2.7,6.9h5.5
					L415.5,246.9z"/>
				<path fill="#010101" d="M423.3,258.2v-9.3h1.5v1.5c0.8-1,1.8-1.7,3.1-1.7v1.5c-0.2,0-0.3-0.1-0.6-0.1c-0.9,0-2.1,0.7-2.5,1.5
					v6.6H423.3z"/>
				<path fill="#010101" d="M429.1,253.5c0-2.7,1.9-4.9,4.6-4.9c2.8,0,4.5,2.2,4.5,5v0.4h-7.6c0.1,1.8,1.4,3.2,3.4,3.2
					c1.1,0,2.1-0.4,2.9-1.2l0.7,0.9c-0.9,0.9-2.2,1.4-3.7,1.4C431.1,258.4,429.1,256.4,429.1,253.5z M433.7,249.8
					c-2,0-3,1.7-3.1,3.1h6.1C436.8,251.5,435.9,249.8,433.7,249.8z"/>
				<path fill="#010101" d="M445.3,260.5c0.2,0.1,0.6,0.2,0.8,0.2c0.6,0,1.1-0.2,1.4-1l0.6-1.4l-3.9-9.4h1.6l3.1,7.7l3.1-7.7h1.6
					l-4.7,11.2c-0.6,1.4-1.5,1.9-2.7,1.9c-0.3,0-0.8-0.1-1.1-0.1L445.3,260.5z"/>
				<path fill="#010101" d="M454.5,253.5c0-2.7,1.8-4.9,4.6-4.9s4.6,2.2,4.6,4.9c0,2.7-1.8,4.9-4.6,4.9S454.5,256.2,454.5,253.5z
					 M462.2,253.5c0-1.9-1.1-3.6-3.1-3.6s-3.1,1.7-3.1,3.6c0,1.9,1.1,3.6,3.1,3.6S462.2,255.4,462.2,253.5z"/>
				<path fill="#010101" d="M472.4,258.2v-1.3c-0.7,0.8-1.9,1.5-3.3,1.5c-2,0-3-0.9-3-3v-6.6h1.5v6.1c0,1.6,0.8,2.1,2.1,2.1
					c1.1,0,2.2-0.7,2.8-1.4v-6.9h1.4v9.3H472.4z"/>
				<path fill="#010101" d="M480.9,256.9l0.8-1c0.6,0.7,1.8,1.3,3.1,1.3c1.4,0,2.2-0.7,2.2-1.6c0-2.3-5.8-0.9-5.8-4.3
					c0-1.4,1.3-2.7,3.5-2.7c1.6,0,2.7,0.6,3.5,1.4l-0.7,1c-0.6-0.7-1.6-1.2-2.8-1.2c-1.3,0-2.1,0.6-2.1,1.5c0,2,5.8,0.7,5.8,4.3
					c0,1.6-1.3,2.8-3.7,2.8C483.2,258.4,481.9,257.9,480.9,256.9z"/>
				<path fill="#010101" d="M497,258.2v-1.3c-0.7,0.8-1.9,1.5-3.3,1.5c-2,0-3-0.9-3-3v-6.6h1.5v6.1c0,1.6,0.8,2.1,2.1,2.1
					c1.1,0,2.2-0.7,2.8-1.4v-6.9h1.4v9.3H497z"/>
				<path fill="#010101" d="M501.4,258.2v-9.3h1.5v1.5c0.8-1,1.8-1.7,3.1-1.7v1.5c-0.2,0-0.3-0.1-0.6-0.1c-0.9,0-2.1,0.7-2.5,1.5
					v6.6H501.4z"/>
				<path fill="#010101" d="M507.2,253.5c0-2.7,1.9-4.9,4.6-4.9c2.8,0,4.5,2.2,4.5,5v0.4h-7.6c0.1,1.8,1.4,3.2,3.4,3.2
					c1.1,0,2.1-0.4,2.9-1.2l0.7,0.9c-0.9,0.9-2.2,1.4-3.7,1.4C509.2,258.4,507.2,256.4,507.2,253.5z M511.8,249.8
					c-2,0-3,1.7-3.1,3.1h6.1C514.9,251.5,513.9,249.8,511.8,249.8z"/>
				<path fill="#010101" d="M523.4,260.5c0.2,0.1,0.6,0.2,0.8,0.2c0.6,0,1.1-0.2,1.4-1l0.6-1.4l-3.9-9.4h1.6l3.1,7.7l3.1-7.7h1.6
					l-4.7,11.2c-0.6,1.4-1.5,1.9-2.7,1.9c-0.3,0-0.8-0.1-1.1-0.1L523.4,260.5z"/>
				<path fill="#010101" d="M532.6,253.5c0-2.7,1.8-4.9,4.6-4.9s4.6,2.2,4.6,4.9c0,2.7-1.8,4.9-4.6,4.9S532.6,256.2,532.6,253.5z
					 M540.3,253.5c0-1.9-1.1-3.6-3.1-3.6s-3.1,1.7-3.1,3.6c0,1.9,1.1,3.6,3.1,3.6S540.3,255.4,540.3,253.5z"/>
				<path fill="#010101" d="M550.5,258.2v-1.3c-0.7,0.8-1.9,1.5-3.3,1.5c-2,0-3-0.9-3-3v-6.6h1.5v6.1c0,1.6,0.8,2.1,2.1,2.1
					c1.1,0,2.2-0.7,2.8-1.4v-6.9h1.4v9.3H550.5z"/>
				<path fill="#010101" d="M555.2,249.5l-0.7-0.6c0.6-0.4,1.2-1.2,1.3-1.8c0,0-0.2,0-0.3,0c-0.5,0-0.9-0.4-0.9-1c0-0.6,0.4-1,1-1
					c0.6,0,1.2,0.5,1.2,1.5C556.8,247.7,556.1,248.8,555.2,249.5z"/>
				<path fill="#010101" d="M559.3,258.2v-9.3h1.5v1.5c0.8-1,1.8-1.7,3.1-1.7v1.5c-0.2,0-0.3-0.1-0.6-0.1c-0.9,0-2.1,0.7-2.5,1.5
					v6.6H559.3z"/>
				<path fill="#010101" d="M565.1,253.5c0-2.7,1.9-4.9,4.6-4.9c2.8,0,4.5,2.2,4.5,5v0.4h-7.6c0.1,1.8,1.4,3.2,3.4,3.2
					c1.1,0,2.1-0.4,2.9-1.2l0.7,0.9c-0.9,0.9-2.2,1.4-3.7,1.4C567.1,258.4,565.1,256.4,565.1,253.5z M569.7,249.8
					c-2,0-3,1.7-3.1,3.1h6.1C572.8,251.5,571.8,249.8,569.7,249.8z"/>
				<path fill="#010101" d="M580.3,256.9l0.8-1.2c0.6,0.7,1.3,1.3,2.4,1.3c1.6,0,2.6-1.1,2.6-2.7v-9h1.6v9c0,2.8-1.8,4.1-4.1,4.1
					C582.3,258.4,581.2,258,580.3,256.9z"/>
				<path fill="#010101" d="M596.6,258.2v-1.1c-0.8,0.9-1.8,1.3-3.1,1.3c-1.6,0-3.3-1.1-3.3-3.1c0-2.1,1.7-3.1,3.3-3.1
					c1.3,0,2.3,0.4,3.1,1.3v-1.7c0-1.3-1-2-2.4-2c-1.1,0-2,0.4-2.9,1.3l-0.7-1c1-1,2.2-1.5,3.7-1.5c2,0,3.6,0.9,3.6,3.2v6.4H596.6z
					 M596.6,256.2v-1.8c-0.6-0.8-1.5-1.2-2.6-1.2c-1.4,0-2.3,0.9-2.3,2c0,1.2,0.9,2,2.3,2C595,257.4,596,257,596.6,256.2z"/>
				<path fill="#010101" d="M607.2,258.2v-6.1c0-1.6-0.8-2.2-2.1-2.2c-1.1,0-2.2,0.7-2.8,1.5v6.8h-1.5v-9.3h1.5v1.4
					c0.7-0.8,1.9-1.6,3.3-1.6c2,0,3,1,3,3v6.6H607.2z"/>
				<path fill="#010101" d="M611.1,253.5c0-2.7,1.9-4.9,4.6-4.9c2.8,0,4.5,2.2,4.5,5v0.4h-7.6c0.1,1.8,1.4,3.2,3.4,3.2
					c1.1,0,2.1-0.4,2.9-1.2l0.7,0.9c-0.9,0.9-2.2,1.4-3.7,1.4C613,258.4,611.1,256.4,611.1,253.5z M615.6,249.8c-2,0-3,1.7-3.1,3.1
					h6.1C618.7,251.5,617.8,249.8,615.6,249.8z"/>
				<path fill="#010101" d="M623.5,253c0-2.5,3.5-2.7,3.5-4.7c0-1-0.8-1.8-2.3-1.8c-1.5,0-2.4,0.6-3.1,1.6l-1-1c0.9-1.2,2.4-2,4.2-2
					c2.4,0,3.8,1.3,3.8,3c0,2.9-3.8,3.2-3.8,5.1c0,0.3,0.2,0.7,0.5,0.9l-1.2,0.5C623.7,254.2,623.5,253.6,623.5,253z M623.6,257.3
					c0-0.6,0.5-1.1,1.1-1.1c0.6,0,1.1,0.5,1.1,1.1s-0.5,1.1-1.1,1.1C624.1,258.4,623.6,257.9,623.6,257.3z"/>
			</g>
			<g>
				<g>
					<rect x="386.3" y="235.1" fill="#068A93" width="255.4" height="36.9"/>
				</g>
				<g>
					<rect x="391.3" y="235.1" fill="#FFFFFF" width="255.4" height="36.9"/>
				</g>
			</g>
			<g>
				<path fill="#068A93" d="M419.8,258.2l-1.1-2.9h-6.4l-1.1,2.9h-1.8l5.2-12.9h2l5.2,12.9H419.8z M415.5,246.9l-2.7,6.9h5.5
					L415.5,246.9z"/>
				<path fill="#068A93" d="M423.3,258.2v-9.3h1.5v1.5c0.8-1,1.8-1.7,3.1-1.7v1.5c-0.2,0-0.3-0.1-0.6-0.1c-0.9,0-2.1,0.7-2.5,1.5
					v6.6H423.3z"/>
				<path fill="#068A93" d="M429.1,253.5c0-2.7,1.9-4.9,4.6-4.9c2.8,0,4.5,2.2,4.5,5v0.4h-7.6c0.1,1.8,1.4,3.2,3.4,3.2
					c1.1,0,2.1-0.4,2.9-1.2l0.7,0.9c-0.9,0.9-2.2,1.4-3.7,1.4C431.1,258.4,429.1,256.4,429.1,253.5z M433.7,249.8
					c-2,0-3,1.7-3.1,3.1h6.1C436.8,251.5,435.9,249.8,433.7,249.8z"/>
				<path fill="#068A93" d="M445.3,260.5c0.2,0.1,0.6,0.2,0.8,0.2c0.6,0,1.1-0.2,1.4-1l0.6-1.4l-3.9-9.4h1.6l3.1,7.7l3.1-7.7h1.6
					l-4.7,11.2c-0.6,1.4-1.5,1.9-2.7,1.9c-0.3,0-0.8-0.1-1.1-0.1L445.3,260.5z"/>
				<path fill="#068A93" d="M454.5,253.5c0-2.7,1.8-4.9,4.6-4.9s4.6,2.2,4.6,4.9c0,2.7-1.8,4.9-4.6,4.9S454.5,256.2,454.5,253.5z
					 M462.2,253.5c0-1.9-1.1-3.6-3.1-3.6s-3.1,1.7-3.1,3.6c0,1.9,1.1,3.6,3.1,3.6S462.2,255.4,462.2,253.5z"/>
				<path fill="#068A93" d="M472.4,258.2v-1.3c-0.7,0.8-1.9,1.5-3.3,1.5c-2,0-3-0.9-3-3v-6.6h1.5v6.1c0,1.6,0.8,2.1,2.1,2.1
					c1.1,0,2.2-0.7,2.8-1.4v-6.9h1.4v9.3H472.4z"/>
				<path fill="#068A93" d="M480.9,256.9l0.8-1c0.6,0.7,1.8,1.3,3.1,1.3c1.4,0,2.2-0.7,2.2-1.6c0-2.3-5.8-0.9-5.8-4.3
					c0-1.4,1.3-2.7,3.5-2.7c1.6,0,2.7,0.6,3.5,1.4l-0.7,1c-0.6-0.7-1.6-1.2-2.8-1.2c-1.3,0-2.1,0.6-2.1,1.5c0,2,5.8,0.7,5.8,4.3
					c0,1.6-1.3,2.8-3.7,2.8C483.2,258.4,481.9,257.9,480.9,256.9z"/>
				<path fill="#068A93" d="M497,258.2v-1.3c-0.7,0.8-1.9,1.5-3.3,1.5c-2,0-3-0.9-3-3v-6.6h1.5v6.1c0,1.6,0.8,2.1,2.1,2.1
					c1.1,0,2.2-0.7,2.8-1.4v-6.9h1.4v9.3H497z"/>
				<path fill="#068A93" d="M501.4,258.2v-9.3h1.5v1.5c0.8-1,1.8-1.7,3.1-1.7v1.5c-0.2,0-0.3-0.1-0.6-0.1c-0.9,0-2.1,0.7-2.5,1.5
					v6.6H501.4z"/>
				<path fill="#068A93" d="M507.2,253.5c0-2.7,1.9-4.9,4.6-4.9c2.8,0,4.5,2.2,4.5,5v0.4h-7.6c0.1,1.8,1.4,3.2,3.4,3.2
					c1.1,0,2.1-0.4,2.9-1.2l0.7,0.9c-0.9,0.9-2.2,1.4-3.7,1.4C509.2,258.4,507.2,256.4,507.2,253.5z M511.8,249.8
					c-2,0-3,1.7-3.1,3.1h6.1C514.9,251.5,513.9,249.8,511.8,249.8z"/>
				<path fill="#068A93" d="M523.4,260.5c0.2,0.1,0.6,0.2,0.8,0.2c0.6,0,1.1-0.2,1.4-1l0.6-1.4l-3.9-9.4h1.6l3.1,7.7l3.1-7.7h1.6
					l-4.7,11.2c-0.6,1.4-1.5,1.9-2.7,1.9c-0.3,0-0.8-0.1-1.1-0.1L523.4,260.5z"/>
				<path fill="#068A93" d="M532.6,253.5c0-2.7,1.8-4.9,4.6-4.9s4.6,2.2,4.6,4.9c0,2.7-1.8,4.9-4.6,4.9S532.6,256.2,532.6,253.5z
					 M540.3,253.5c0-1.9-1.1-3.6-3.1-3.6s-3.1,1.7-3.1,3.6c0,1.9,1.1,3.6,3.1,3.6S540.3,255.4,540.3,253.5z"/>
				<path fill="#068A93" d="M550.5,258.2v-1.3c-0.7,0.8-1.9,1.5-3.3,1.5c-2,0-3-0.9-3-3v-6.6h1.5v6.1c0,1.6,0.8,2.1,2.1,2.1
					c1.1,0,2.2-0.7,2.8-1.4v-6.9h1.4v9.3H550.5z"/>
				<path fill="#068A93" d="M555.2,249.5l-0.7-0.6c0.6-0.4,1.2-1.2,1.3-1.8c0,0-0.2,0-0.3,0c-0.5,0-0.9-0.4-0.9-1c0-0.6,0.4-1,1-1
					c0.6,0,1.2,0.5,1.2,1.5C556.8,247.7,556.1,248.8,555.2,249.5z"/>
				<path fill="#068A93" d="M559.3,258.2v-9.3h1.5v1.5c0.8-1,1.8-1.7,3.1-1.7v1.5c-0.2,0-0.3-0.1-0.6-0.1c-0.9,0-2.1,0.7-2.5,1.5
					v6.6H559.3z"/>
				<path fill="#068A93" d="M565.1,253.5c0-2.7,1.9-4.9,4.6-4.9c2.8,0,4.5,2.2,4.5,5v0.4h-7.6c0.1,1.8,1.4,3.2,3.4,3.2
					c1.1,0,2.1-0.4,2.9-1.2l0.7,0.9c-0.9,0.9-2.2,1.4-3.7,1.4C567.1,258.4,565.1,256.4,565.1,253.5z M569.7,249.8
					c-2,0-3,1.7-3.1,3.1h6.1C572.8,251.5,571.8,249.8,569.7,249.8z"/>
				<path fill="#068A93" d="M580.3,256.9l0.8-1.2c0.6,0.7,1.3,1.3,2.4,1.3c1.6,0,2.6-1.1,2.6-2.7v-9h1.6v9c0,2.8-1.8,4.1-4.1,4.1
					C582.3,258.4,581.2,258,580.3,256.9z"/>
				<path fill="#068A93" d="M596.6,258.2v-1.1c-0.8,0.9-1.8,1.3-3.1,1.3c-1.6,0-3.3-1.1-3.3-3.1c0-2.1,1.7-3.1,3.3-3.1
					c1.3,0,2.3,0.4,3.1,1.3v-1.7c0-1.3-1-2-2.4-2c-1.1,0-2,0.4-2.9,1.3l-0.7-1c1-1,2.2-1.5,3.7-1.5c2,0,3.6,0.9,3.6,3.2v6.4H596.6z
					 M596.6,256.2v-1.8c-0.6-0.8-1.5-1.2-2.6-1.2c-1.4,0-2.3,0.9-2.3,2c0,1.2,0.9,2,2.3,2C595,257.4,596,257,596.6,256.2z"/>
				<path fill="#068A93" d="M607.2,258.2v-6.1c0-1.6-0.8-2.2-2.1-2.2c-1.1,0-2.2,0.7-2.8,1.5v6.8h-1.5v-9.3h1.5v1.4
					c0.7-0.8,1.9-1.6,3.3-1.6c2,0,3,1,3,3v6.6H607.2z"/>
				<path fill="#068A93" d="M611.1,253.5c0-2.7,1.9-4.9,4.6-4.9c2.8,0,4.5,2.2,4.5,5v0.4h-7.6c0.1,1.8,1.4,3.2,3.4,3.2
					c1.1,0,2.1-0.4,2.9-1.2l0.7,0.9c-0.9,0.9-2.2,1.4-3.7,1.4C613,258.4,611.1,256.4,611.1,253.5z M615.6,249.8c-2,0-3,1.7-3.1,3.1
					h6.1C618.7,251.5,617.8,249.8,615.6,249.8z"/>
				<path fill="#068A93" d="M623.5,253c0-2.5,3.5-2.7,3.5-4.7c0-1-0.8-1.8-2.3-1.8c-1.5,0-2.4,0.6-3.1,1.6l-1-1c0.9-1.2,2.4-2,4.2-2
					c2.4,0,3.8,1.3,3.8,3c0,2.9-3.8,3.2-3.8,5.1c0,0.3,0.2,0.7,0.5,0.9l-1.2,0.5C623.7,254.2,623.5,253.6,623.5,253z M623.6,257.3
					c0-0.6,0.5-1.1,1.1-1.1c0.6,0,1.1,0.5,1.1,1.1s-0.5,1.1-1.1,1.1C624.1,258.4,623.6,257.9,623.6,257.3z"/>
			</g>
		</g>
		<g>
			<g>
				<path fill="#010101" d="M409.3,298.1c0-0.6,0.5-1.1,1.1-1.1s1.1,0.5,1.1,1.1s-0.5,1.1-1.1,1.1S409.3,298.6,409.3,298.1z"/>
				<path fill="#010101" d="M413.8,298.1c0-0.6,0.5-1.1,1.1-1.1s1.1,0.5,1.1,1.1s-0.5,1.1-1.1,1.1S413.8,298.6,413.8,298.1z"/>
				<path fill="#010101" d="M418.2,298.1c0-0.6,0.5-1.1,1.1-1.1s1.1,0.5,1.1,1.1s-0.5,1.1-1.1,1.1S418.2,298.6,418.2,298.1z"/>
			</g>
			<g>
				<g>
					<rect x="386.3" y="280" fill="#BB7064" width="47" height="36.1"/>
				</g>
				<g>
					<rect x="391.3" y="280" fill="#FFFFFF" width="47" height="36.1"/>
				</g>
			</g>
			<g>
				<path fill="#BB7064" d="M409.3,298.1c0-0.6,0.5-1.1,1.1-1.1s1.1,0.5,1.1,1.1s-0.5,1.1-1.1,1.1S409.3,298.6,409.3,298.1z"/>
				<path fill="#BB7064" d="M413.8,298.1c0-0.6,0.5-1.1,1.1-1.1s1.1,0.5,1.1,1.1s-0.5,1.1-1.1,1.1S413.8,298.6,413.8,298.1z"/>
				<path fill="#BB7064" d="M418.2,298.1c0-0.6,0.5-1.1,1.1-1.1s1.1,0.5,1.1,1.1s-0.5,1.1-1.1,1.1S418.2,298.6,418.2,298.1z"/>
			</g>
		</g>
	</g>
	<path fill="#424244" d="M137.3,68.1c-13.4,0-24.5,10.3-25.8,23.3H96.3C95,78.3,83.9,68.1,70.5,68.1c-14.3,0-25.9,11.6-25.9,25.9
		S56.2,120,70.5,120c13.4,0,24.5-10.3,25.8-23.3h15.1c1.3,13.1,12.4,23.3,25.8,23.3c14.3,0,25.9-11.6,25.9-25.9
		S151.6,68.1,137.3,68.1z M70.5,114.6c-11.4,0-20.6-9.2-20.6-20.6s9.2-20.6,20.6-20.6S91.1,82.7,91.1,94S81.9,114.6,70.5,114.6z
		 M137.3,114.6c-11.4,0-20.6-9.2-20.6-20.6s9.2-20.6,20.6-20.6c11.4,0,20.6,9.2,20.6,20.6S148.7,114.6,137.3,114.6z"/>
</g>
</svg>
