<?xml version="1.0" encoding="utf-8"?>
<!-- Generator: Adobe Illustrator 17.1.0, SVG Export Plug-In . SVG Version: 6.00 Build 0)  -->
<!DOCTYPE svg PUBLIC "-//W3C//DTD SVG 1.1//EN" "http://www.w3.org/Graphics/SVG/1.1/DTD/svg11.dtd">
<svg version="1.1" id="Layer_1" xmlns="http://www.w3.org/2000/svg" xmlns:xlink="http://www.w3.org/1999/xlink" x="0px" y="0px"
	 viewBox="0 0 343.9 424.1" enable-background="new 0 0 343.9 424.1" xml:space="preserve">
<pattern  x="-178.8" y="-53" width="118" height="118" patternUnits="userSpaceOnUse" id="vertical2" viewBox="118.2 -236.1 118 118" overflow="visible">
	<g>
		<polygon fill="none" points="118.2,-236.1 236.2,-236.1 236.2,-118.1 118.2,-118.1 		"/>
		<g>
			<polygon fill="#FFFFFF" points="354.5,0 236,0 236,-118.5 354.5,-118.5 			"/>
		</g>
		<g>
			<polygon fill="#FFFFFF" points="236.5,0 118,0 118,-118.5 236.5,-118.5 			"/>
			<line fill="none" stroke="#ACDAF3" stroke-miterlimit="10" x1="177.2" y1="-118.5" x2="177.2" y2="0"/>
			<line fill="none" stroke="#ACDAF3" stroke-miterlimit="10" x1="207.6" y1="-118.5" x2="207.6" y2="0"/>
			<line fill="none" stroke="#ACDAF3" stroke-miterlimit="10" x1="236.2" y1="-118.5" x2="236.2" y2="0"/>
			<line fill="none" stroke="#ACDAF3" stroke-miterlimit="10" x1="146.9" y1="-118.5" x2="146.9" y2="0"/>
		</g>
		<g>
			<polygon fill="#FFFFFF" points="118.5,0 0,0 0,-118.5 118.5,-118.5 			"/>
			<line fill="none" stroke="#ACDAF3" stroke-miterlimit="10" x1="118.2" y1="-118.5" x2="118.2" y2="0"/>
		</g>
		<g>
			<polygon fill="#FFFFFF" points="354.5,-118 236,-118 236,-236.5 354.5,-236.5 			"/>
		</g>
		<g>
			<polygon fill="#FFFFFF" points="236.5,-118 118,-118 118,-236.5 236.5,-236.5 			"/>
			<line fill="none" stroke="#ACDAF3" stroke-miterlimit="10" x1="177.2" y1="-236.5" x2="177.2" y2="-118"/>
			<line fill="none" stroke="#ACDAF3" stroke-miterlimit="10" x1="207.6" y1="-236.5" x2="207.6" y2="-118"/>
			<line fill="none" stroke="#ACDAF3" stroke-miterlimit="10" x1="236.2" y1="-236.5" x2="236.2" y2="-118"/>
			<line fill="none" stroke="#ACDAF3" stroke-miterlimit="10" x1="146.9" y1="-236.5" x2="146.9" y2="-118"/>
		</g>
		<g>
			<polygon fill="#FFFFFF" points="118.5,-118 0,-118 0,-236.5 118.5,-236.5 			"/>
			<line fill="none" stroke="#ACDAF3" stroke-miterlimit="10" x1="118.2" y1="-236.5" x2="118.2" y2="-118"/>
		</g>
		<g>
			<polygon fill="#FFFFFF" points="354.5,-236 236,-236 236,-354.5 354.5,-354.5 			"/>
		</g>
		<g>
			<polygon fill="#FFFFFF" points="236.5,-236 118,-236 118,-354.5 236.5,-354.5 			"/>
			<line fill="none" stroke="#ACDAF3" stroke-miterlimit="10" x1="177.2" y1="-354.5" x2="177.2" y2="-236"/>
			<line fill="none" stroke="#ACDAF3" stroke-miterlimit="10" x1="207.6" y1="-354.5" x2="207.6" y2="-236"/>
			<line fill="none" stroke="#ACDAF3" stroke-miterlimit="10" x1="236.2" y1="-354.5" x2="236.2" y2="-236"/>
			<line fill="none" stroke="#ACDAF3" stroke-miterlimit="10" x1="146.9" y1="-354.5" x2="146.9" y2="-236"/>
		</g>
		<g>
			<polygon fill="#FFFFFF" points="118.5,-236 0,-236 0,-354.5 118.5,-354.5 			"/>
			<line fill="none" stroke="#ACDAF3" stroke-miterlimit="10" x1="118.2" y1="-354.5" x2="118.2" y2="-236"/>
		</g>
	</g>
</pattern>
<g>
	<g>
		<g opacity="0.1">
			<rect x="3" y="274.1" fill="#010101" width="340.9" height="150"/>
		</g>
		<g>
			<rect x="0" y="270.1" fill="#BEB199" width="340.9" height="150"/>
		</g>
	</g>
	<g>
		<g opacity="0.1">
			
				<rect x="169.4" y="298.8" transform="matrix(0.9582 -0.2862 0.2862 0.9582 -91.5998 72.4819)" fill="#010101" width="65.7" height="101.7"/>
			
				<rect x="167.4" y="296.8" transform="matrix(0.9582 -0.2862 0.2862 0.9582 -91.1111 71.8259)" fill="#010101" width="65.7" height="101.7"/>
			
				<rect x="204.7" y="291.7" transform="matrix(0.9582 -0.2862 0.2862 0.9582 -76.7352 73.2541)" fill="#010101" width="15.2" height="15"/>
			
				<rect x="204.4" y="291.4" transform="matrix(0.9582 -0.2862 0.2862 0.9582 -76.6631 73.1574)" fill="#010101" width="15.2" height="15"/>
			<line fill="none" stroke="#010101" stroke-width="3" stroke-miterlimit="10" x1="175.9" y1="357.1" x2="225.7" y2="342.2"/>
			<line fill="none" stroke="#010101" stroke-width="3" stroke-miterlimit="10" x1="171.3" y1="341.9" x2="221.2" y2="327"/>
			<line fill="none" stroke="#010101" stroke-width="3" stroke-miterlimit="10" x1="166.8" y1="326.7" x2="216.7" y2="311.9"/>
			<line fill="none" stroke="#010101" stroke-width="3" stroke-miterlimit="10" x1="180.4" y1="372.2" x2="230.2" y2="357.4"/>
			<line fill="none" stroke="#010101" stroke-width="3" stroke-miterlimit="10" x1="184.9" y1="387.4" x2="234.7" y2="372.6"/>
		</g>
		<g>
			<g>
				<g>
					<g opacity="0.1">
						
							<rect x="167.4" y="296.8" transform="matrix(0.9582 -0.2862 0.2862 0.9582 -91.1111 71.8259)" fill="#010101" width="65.7" height="101.7"/>
					</g>
					<g>
						
							<rect x="165.4" y="294.8" transform="matrix(0.9582 -0.2862 0.2862 0.9582 -90.6224 71.1699)" fill="#FFFFFF" width="65.7" height="101.7"/>
					</g>
				</g>
				<g>
					<g opacity="0.1">
						
							<rect x="202.7" y="289.7" transform="matrix(0.9582 -0.2862 0.2862 0.9582 -76.2465 72.5981)" fill="#010101" width="15.2" height="15"/>
					</g>
					<g>
						
							<rect x="202.4" y="289.4" transform="matrix(0.9582 -0.2862 0.2862 0.9582 -76.1744 72.5015)" fill="#ACDAF3" width="15.2" height="15"/>
					</g>
				</g>
				<g>
					<g>
						<line fill="none" stroke="#CDD0D0" stroke-width="3" stroke-miterlimit="10" x1="173.9" y1="355.1" x2="223.7" y2="340.2"/>
					</g>
					<g>
						<line fill="none" stroke="#CDD0D0" stroke-width="3" stroke-miterlimit="10" x1="169.3" y1="339.9" x2="219.2" y2="325"/>
					</g>
					<g>
						<line fill="none" stroke="#CDD0D0" stroke-width="3" stroke-miterlimit="10" x1="164.8" y1="324.7" x2="214.7" y2="309.9"/>
					</g>
					<g>
						<line fill="none" stroke="#CDD0D0" stroke-width="3" stroke-miterlimit="10" x1="178.4" y1="370.2" x2="228.2" y2="355.4"/>
					</g>
					<g>
						<line fill="none" stroke="#CDD0D0" stroke-width="3" stroke-miterlimit="10" x1="182.9" y1="385.4" x2="232.7" y2="370.6"/>
					</g>
				</g>
			</g>
		</g>
	</g>
	<g>
		<g opacity="0.1">
			
				<rect x="206.2" y="300.8" transform="matrix(0.9582 -0.2862 0.2862 0.9582 -87.0197 79.96)" fill="#010101" width="47.7" height="73.9"/>
			
				<rect x="204.8" y="299.3" transform="matrix(0.9582 -0.2862 0.2862 0.9582 -86.6648 79.4837)" fill="#010101" width="47.7" height="73.9"/>
			<line fill="none" stroke="#010101" stroke-width="2.1786" stroke-miterlimit="10" x1="210.9" y1="343.1" x2="247.1" y2="332.3"/>
			<line fill="none" stroke="#010101" stroke-width="2.1786" stroke-miterlimit="10" x1="207.7" y1="332.1" x2="243.9" y2="321.3"/>
			<line fill="none" stroke="#010101" stroke-width="2.1786" stroke-miterlimit="10" x1="204.4" y1="321.1" x2="240.6" y2="310.3"/>
			<line fill="none" stroke="#010101" stroke-width="2.1786" stroke-miterlimit="10" x1="214.2" y1="354.1" x2="250.4" y2="343.3"/>
			<line fill="none" stroke="#010101" stroke-width="2.1786" stroke-miterlimit="10" x1="217.5" y1="365.1" x2="253.7" y2="354.3"/>
		</g>
		<g>
			<g>
				<g>
					<g opacity="0.1">
						
							<rect x="204.8" y="299.3" transform="matrix(0.9582 -0.2862 0.2862 0.9582 -86.6648 79.4837)" fill="#010101" width="47.7" height="73.9"/>
					</g>
					<g>
						
							<rect x="203.3" y="297.9" transform="matrix(0.9582 -0.2862 0.2862 0.9582 -86.3099 79.0073)" fill="#FFFFFF" width="47.7" height="73.9"/>
					</g>
				</g>
				<g>
					<g>
						
							<line fill="none" stroke="#CDD0D0" stroke-width="2.1786" stroke-miterlimit="10" x1="209.5" y1="341.6" x2="245.7" y2="330.9"/>
					</g>
					<g>
						
							<line fill="none" stroke="#CDD0D0" stroke-width="2.1786" stroke-miterlimit="10" x1="206.2" y1="330.6" x2="242.4" y2="319.8"/>
					</g>
					<g>
						
							<line fill="none" stroke="#CDD0D0" stroke-width="2.1786" stroke-miterlimit="10" x1="202.9" y1="319.6" x2="239.1" y2="308.8"/>
					</g>
					<g>
						
							<line fill="none" stroke="#CDD0D0" stroke-width="2.1786" stroke-miterlimit="10" x1="212.8" y1="352.7" x2="249" y2="341.9"/>
					</g>
					<g>
						
							<line fill="none" stroke="#CDD0D0" stroke-width="2.1786" stroke-miterlimit="10" x1="216.1" y1="363.7" x2="252.3" y2="352.9"/>
					</g>
				</g>
			</g>
		</g>
	</g>
	<g>
		<g opacity="0.1">
			
				<rect x="102.9" y="302.3" transform="matrix(0.9998 -2.171305e-02 2.171305e-02 0.9998 -7.5979 3.0043)" fill="#010101" width="63.4" height="98.2"/>
			
				<rect x="100.9" y="300.4" transform="matrix(0.9998 -2.171305e-02 2.171305e-02 0.9998 -7.5564 2.962)" fill="#010101" width="63.4" height="98.2"/>
			
				<rect x="146" y="381.9" transform="matrix(0.9998 -2.171362e-02 2.171362e-02 0.9998 -8.435 3.4739)" fill="#010101" width="19.5" height="16.4"/>
			
				<rect x="145.7" y="381.6" transform="matrix(0.9998 -2.171362e-02 2.171362e-02 0.9998 -8.4281 3.4668)" fill="#010101" width="19.5" height="16.4"/>
			<line fill="none" stroke="#010101" stroke-width="2.8958" stroke-miterlimit="10" x1="107.6" y1="352" x2="157.8" y2="350.9"/>
			<line fill="none" stroke="#010101" stroke-width="2.8958" stroke-miterlimit="10" x1="107.2" y1="336.7" x2="157.4" y2="335.7"/>
			<line fill="none" stroke="#010101" stroke-width="2.8958" stroke-miterlimit="10" x1="106.9" y1="321.4" x2="157.1" y2="320.4"/>
			<line fill="none" stroke="#010101" stroke-width="2.8958" stroke-miterlimit="10" x1="107.9" y1="367.3" x2="158.1" y2="366.2"/>
			<line fill="none" stroke="#010101" stroke-width="2.8958" stroke-miterlimit="10" x1="108.2" y1="382.6" x2="158.4" y2="381.5"/>
		</g>
		<g>
			<g>
				<g>
					<g opacity="0.1">
						
							<rect x="100.9" y="300.4" transform="matrix(0.9998 -2.171305e-02 2.171305e-02 0.9998 -7.5564 2.962)" fill="#010101" width="63.4" height="98.2"/>
					</g>
					<g>
						
							<rect x="99" y="298.4" transform="matrix(0.9998 -2.171305e-02 2.171305e-02 0.9998 -7.515 2.9196)" fill="#FFFFFF" width="63.4" height="98.2"/>
					</g>
				</g>
				<g>
					<g opacity="0.1">
						
							<rect x="144.1" y="380" transform="matrix(0.9998 -2.171362e-02 2.171362e-02 0.9998 -8.3936 3.4316)" fill="#010101" width="19.5" height="16.4"/>
					</g>
					<g>
						
							<rect x="143.7" y="379.7" transform="matrix(0.9998 -2.171362e-02 2.171362e-02 0.9998 -8.3866 3.4245)" fill="#ACDAF3" width="19.5" height="16.4"/>
					</g>
				</g>
				<g>
					<g>
						
							<line fill="none" stroke="#CDD0D0" stroke-width="2.8958" stroke-miterlimit="10" x1="105.6" y1="350.1" x2="155.8" y2="349"/>
					</g>
					<g>
						
							<line fill="none" stroke="#CDD0D0" stroke-width="2.8958" stroke-miterlimit="10" x1="105.3" y1="334.8" x2="155.5" y2="333.7"/>
					</g>
					<g>
						
							<line fill="none" stroke="#CDD0D0" stroke-width="2.8958" stroke-miterlimit="10" x1="105" y1="319.5" x2="155.2" y2="318.5"/>
					</g>
					<g>
						
							<line fill="none" stroke="#CDD0D0" stroke-width="2.8958" stroke-miterlimit="10" x1="106" y1="365.4" x2="156.1" y2="364.3"/>
					</g>
					<g>
						
							<line fill="none" stroke="#CDD0D0" stroke-width="2.8958" stroke-miterlimit="10" x1="106.3" y1="380.6" x2="156.5" y2="379.6"/>
					</g>
				</g>
			</g>
		</g>
	</g>
	<g>
		<g>
			<g>
				<defs>
					<path id="SVGID_3_" d="M121.2,55.3l30.3-34.8c0,0,32-16.6,32,7.7s-39.5,48.6-52.8,48.6L121.2,55.3z"/>
				</defs>
				<use xlink:href="#SVGID_3_"  overflow="visible" fill="#71553A"/>
				<clipPath id="SVGID_1_">
					<use xlink:href="#SVGID_3_"  overflow="visible"/>
				</clipPath>
				<g clip-path="url(#SVGID_1_)">
					<path fill="#71553A" d="M164.4,135.7c-18.6,0-33.7-15.1-33.7-33.7v-22c0-18.6,15.1-33.7,33.7-33.7s33.7,15.1,33.7,33.7v22
						C198.2,120.5,183.1,135.7,164.4,135.7z"/>
				</g>
			</g>
			<g>
				<g opacity="0.1">
					<path fill="#010101" d="M195.9,80.1c-21,0-54.5-14.2-54.5-61.8S195.9,31,195.9,31V80.1z"/>
				</g>
				<g>
					<path fill="#71553A" d="M198.2,80.1c-21,0-54.5-14.2-54.5-61.8S198.2,31,198.2,31V80.1z"/>
				</g>
			</g>
		</g>
		<path fill="url(#vertical2)" d="M214.2,271.7h-99.4V169.1c0-21.1,17.1-38.2,38.2-38.2h23c21.1,0,38.2,17.1,38.2,38.2V271.7z"/>
		<g>
			<path fill="#F6C6A7" d="M146.6,137.7c0.1,0.2,0.2,0.3,0.3,0.5l9.3,16.1c3.7,6.4,12.8,6.4,16.5,0l9.3-16.1
				c0.1-0.2,0.2-0.3,0.3-0.5c-5.2,3.2-11.3,5.1-17.8,5.1S151.8,141,146.6,137.7z"/>
			<path fill="#E8B99E" d="M173.7,123.9h-18.6c-7.2,0-11.7,7.6-8.5,13.8c5.2,3.2,11.3,5.1,17.8,5.1s12.6-1.9,17.8-5.1
				C185.4,131.5,180.9,123.9,173.7,123.9z"/>
		</g>
		<g>
			<path fill="#F6C6A7" d="M164.4,140.5c-18.6,0-33.7-15.1-33.7-33.7v-22c0-18.6,15.1-33.7,33.7-33.7s33.7,15.1,33.7,33.7v22
				C198.2,125.4,183.1,140.5,164.4,140.5z"/>
		</g>
		<g>
			<circle fill="#A47B53" cx="150.9" cy="89.6" r="1.5"/>
			<circle fill="#A47B53" cx="177.9" cy="89.6" r="1.5"/>
		</g>
		<circle fill="#F6C6A7" cx="198.2" cy="89" r="5.5"/>
		<circle fill="#F6C6A7" cx="130.7" cy="89" r="5.5"/>
		<g>
			<path fill="#71553A" d="M167.4,113.3c-0.3,3.7-3.5,6.5-7.3,6.3c-3.7-0.3-16.3-1.1-16.3-1.1c4.6,0.3,9.2-13,17.4-12.4
				C164.8,106.3,167.6,109.6,167.4,113.3z"/>
			<g>
				<g opacity="0.2">
					<path fill="#010101" d="M160.6,114.1c0.5,3.7,4,6.3,7.7,5.7s16.2-2.2,16.2-2.2c-4.6,0.7-10.1-12.4-18.2-11.2
						C162.6,107,160,110.4,160.6,114.1z"/>
				</g>
				<g>
					<path fill="#71553A" d="M161.6,114.1c0.5,3.7,4,6.3,7.7,5.7c3.7-0.5,16.2-2.2,16.2-2.2c-4.6,0.7-10.1-12.4-18.2-11.2
						C163.6,107,161.1,110.4,161.6,114.1z"/>
				</g>
			</g>
		</g>
		<path fill="#F6C6A7" d="M119.9,351.1h0.1c2.9,0,5.2-2.3,5.2-5.2v-112h-10.5v112C114.7,348.7,117,351.1,119.9,351.1z"/>
		<path fill="#F6C6A7" d="M209.4,351.1h0.1c2.9,0,5.2-2.3,5.2-5.2v-112h-10.5v112C204.3,348.7,206.6,351.1,209.4,351.1z"/>
	</g>
	<g>
		<g>
			<path fill="none" stroke="#F6C6A7" stroke-width="10" stroke-miterlimit="10" d="M209.5,205.7c0,0,0,11.9,0,27.6
				s23.3,15.8,23.3,0c0-15.8,0-142.2,0-142.2"/>
			<g>
				<circle fill="#F6C6A7" cx="232.9" cy="91.1" r="4.9"/>
			</g>
		</g>
	</g>
	<g>
		<g>
			<path fill="none" stroke="#F6C6A7" stroke-width="10" stroke-miterlimit="10" d="M121.3,205.7c0,0,0,11.9,0,27.6
				s-23.3,15.8-23.3,0c0-15.8,0-142.2,0-142.2"/>
			<g>
				<circle fill="#F6C6A7" cx="97.9" cy="91.1" r="4.9"/>
			</g>
		</g>
	</g>
	<g>
		<g>
			<path fill="none" stroke="#F6C6A7" stroke-width="10" stroke-miterlimit="10" d="M209.5,205.7c0,0,0,11.9,0,27.6
				s22.1,21,29.6,4.8c9.9-21.3,50.8-92.7,50.8-92.7"/>
			<g>
				<circle fill="#F6C6A7" cx="289.9" cy="145.5" r="4.9"/>
			</g>
		</g>
	</g>
	<g>
		<g opacity="0.1">
			
				<rect x="137.4" y="300.3" transform="matrix(0.9209 0.3899 -0.3899 0.9209 146.8643 -37.2111)" fill="#010101" width="55.3" height="85.7"/>
			
				<rect x="135.8" y="298.7" transform="matrix(0.9209 0.3899 -0.3899 0.9209 146.0743 -36.6876)" fill="#010101" width="55.3" height="85.7"/>
			
				<rect x="151.4" y="293.7" transform="matrix(0.9209 0.3899 -0.3899 0.9209 130.0373 -37.9455)" fill="#010101" width="14.2" height="15.3"/>
			
				<rect x="151.1" y="293.4" transform="matrix(0.9209 0.3899 -0.3899 0.9209 129.8965 -37.8523)" fill="#010101" width="14.2" height="15.3"/>
			<line fill="none" stroke="#010101" stroke-width="2.5268" stroke-miterlimit="10" x1="142.6" y1="334.6" x2="182.9" y2="351.7"/>
			<line fill="none" stroke="#010101" stroke-width="2.5268" stroke-miterlimit="10" x1="147.8" y1="322.3" x2="188.1" y2="339.4"/>
			<line fill="none" stroke="#010101" stroke-width="2.5268" stroke-miterlimit="10" x1="153" y1="310" x2="193.3" y2="327.1"/>
			<line fill="none" stroke="#010101" stroke-width="2.5268" stroke-miterlimit="10" x1="137.4" y1="346.8" x2="177.7" y2="363.9"/>
			<line fill="none" stroke="#010101" stroke-width="2.5268" stroke-miterlimit="10" x1="132.1" y1="359.1" x2="172.5" y2="376.2"/>
		</g>
		<g>
			<g>
				<g>
					<g opacity="0.1">
						
							<rect x="135.8" y="298.7" transform="matrix(0.9209 0.3899 -0.3899 0.9209 146.0743 -36.6876)" fill="#010101" width="55.3" height="85.7"/>
					</g>
					<g>
						
							<rect x="134.1" y="297" transform="matrix(0.9209 0.3899 -0.3899 0.9209 145.2841 -36.1641)" fill="#FFFFFF" width="55.3" height="85.7"/>
					</g>
				</g>
				<g>
					<g opacity="0.1">
						
							<rect x="149.7" y="292" transform="matrix(0.9209 0.3899 -0.3899 0.9209 129.2472 -37.4221)" fill="#010101" width="14.2" height="15.3"/>
					</g>
					<g>
						
							<rect x="149.4" y="291.7" transform="matrix(0.9209 0.3899 -0.3899 0.9209 129.1064 -37.3288)" fill="#ACDAF3" width="14.2" height="15.3"/>
					</g>
				</g>
				<g>
					<g>
						
							<line fill="none" stroke="#CDD0D0" stroke-width="2.5268" stroke-miterlimit="10" x1="140.9" y1="332.9" x2="181.2" y2="350"/>
					</g>
					<g>
						
							<line fill="none" stroke="#CDD0D0" stroke-width="2.5268" stroke-miterlimit="10" x1="146.1" y1="320.6" x2="186.4" y2="337.7"/>
					</g>
					<g>
						
							<line fill="none" stroke="#CDD0D0" stroke-width="2.5268" stroke-miterlimit="10" x1="151.3" y1="308.3" x2="191.6" y2="325.4"/>
					</g>
					<g>
						
							<line fill="none" stroke="#CDD0D0" stroke-width="2.5268" stroke-miterlimit="10" x1="135.7" y1="345.2" x2="176" y2="362.2"/>
					</g>
					<g>
						
							<line fill="none" stroke="#CDD0D0" stroke-width="2.5268" stroke-miterlimit="10" x1="130.5" y1="357.4" x2="170.8" y2="374.5"/>
					</g>
				</g>
			</g>
		</g>
	</g>
	<rect x="283.9" y="318.3" fill="#FFFFFF" width="42.7" height="52.3"/>
	<rect x="285.8" y="358" fill="#6E6F71" width="38.8" height="8.8"/>
	<g>
		<g>
			<rect x="296.2" y="347.6" fill="#6E6F71" width="7.8" height="7.8"/>
			<rect x="286" y="347.6" fill="#F1AE6D" width="7.8" height="7.8"/>
			<rect x="306.3" y="347.6" fill="#6E6F71" width="7.8" height="7.8"/>
			<rect x="316.5" y="347.6" fill="#6E6F71" width="7.8" height="7.8"/>
		</g>
	</g>
	<g>
		<g>
			<rect x="296.2" y="338.6" fill="#6E6F71" width="7.8" height="7.8"/>
			<rect x="286" y="338.6" fill="#E77A82" width="7.8" height="7.8"/>
			<rect x="306.3" y="338.6" fill="#6E6F71" width="7.8" height="7.8"/>
			<rect x="316.5" y="338.6" fill="#6E6F71" width="7.8" height="7.8"/>
		</g>
	</g>
	<g>
		<g>
			<rect x="296.2" y="329.7" fill="#6E6F71" width="7.8" height="7.8"/>
			<rect x="286" y="329.7" fill="#6E6F71" width="7.8" height="7.8"/>
			<rect x="306.3" y="329.7" fill="#6E6F71" width="7.8" height="7.8"/>
			<rect x="316.5" y="329.7" fill="#6E6F71" width="7.8" height="7.8"/>
		</g>
	</g>
	<g>
		<g>
			<rect x="296.2" y="320.8" fill="#6E6F71" width="7.8" height="7.8"/>
			<rect x="286" y="320.8" fill="#6E6F71" width="7.8" height="7.8"/>
			<rect x="306.3" y="320.8" fill="#6E6F71" width="7.8" height="7.8"/>
			<rect x="316.5" y="320.8" fill="#6E6F71" width="7.8" height="7.8"/>
		</g>
	</g>
	<g>
		<g>
			<polyline fill="none" stroke="#F6C6A7" stroke-width="10" stroke-miterlimit="10" points="209.5,205.7 209.5,249.3 300.1,324.7 
							"/>
			<g>
				<circle fill="#F6C6A7" cx="300.1" cy="324.7" r="4.9"/>
			</g>
		</g>
	</g>
	<path fill="#424244" d="M239.4,99.5h-13.4c-1.6,0-3-1.3-3-3V63.9c0-1.6,1.3-3,3-3h13.4c1.6,0,3,1.3,3,3v32.6
		C242.4,98.2,241.1,99.5,239.4,99.5z"/>
	<rect x="224.1" y="65.9" fill="#EFEEEE" width="17.3" height="28.6"/>
	<polygon fill="#FFFFFF" points="239.6,82.5 228.6,82.5 226.2,85.6 226.2,72.2 239.6,72.2 	"/>
	<line fill="none" stroke="#CDD0D0" stroke-miterlimit="10" x1="228.4" y1="77.3" x2="237.4" y2="77.3"/>
	<line fill="none" stroke="#CDD0D0" stroke-miterlimit="10" x1="228.4" y1="80.1" x2="237.4" y2="80.1"/>
	<line fill="none" stroke="#CDD0D0" stroke-miterlimit="10" x1="228.4" y1="74.9" x2="237.4" y2="74.9"/>
	<g>
		
			<rect x="293.5" y="137" transform="matrix(0.6206 -0.7842 0.7842 0.6206 -8.6103 289.6512)" fill="#6E6F71" width="3" height="33.5"/>
		<polygon fill="#F6C6A7" points="309.1,162.9 307.2,165.3 311.5,166.8 		"/>
		
			<rect x="276.9" y="136.2" transform="matrix(0.6206 -0.7842 0.7842 0.6206 -4.6092 271.6564)" fill="#ACDAF3" width="3" height="8.7"/>
	</g>
	<g>
		<rect x="8.2" y="130.2" fill="#ACDAF3" width="25.4" height="36.4"/>
		<circle fill="none" stroke="#ACDAF3" stroke-width="5" stroke-miterlimit="10" cx="33.6" cy="145.5" r="8.2"/>
	</g>
	<g>
		<g>
			<path fill="none" stroke="#F6C6A7" stroke-width="11" stroke-miterlimit="10" d="M120.1,205.2c0,0,0,11.9,0,27.6
				s-22.1,21-29.6,4.8C80.7,216.4,39.8,145,39.8,145"/>
			<g>
				<circle fill="#F6C6A7" cx="39.8" cy="145" r="5.4"/>
			</g>
		</g>
	</g>
	<g>
		<g opacity="0.1">
			
				<rect x="28.8" y="338.4" transform="matrix(0.9295 -0.3688 0.3688 0.9295 -126.0756 43.4337)" fill="#010101" width="43.7" height="26.2"/>
			<polygon fill="#010101" points="25.5,349 66.1,332.9 52.8,358.6 			"/>
			<polygon fill="#010101" points="25.5,347.6 66.1,331.5 52.8,357.2 			"/>
		</g>
		<g>
			<g>
				
					<rect x="28.8" y="336.4" transform="matrix(0.9295 -0.3688 0.3688 0.9295 -125.338 43.2927)" fill="#FFFFFF" width="43.7" height="26.2"/>
				<g>
					<g opacity="0.1">
						<polygon fill="#010101" points="25.5,347 66.1,330.9 52.8,356.6 						"/>
					</g>
					<g>
						<polygon fill="#FFFFFF" points="25.5,345.6 66.1,329.5 52.8,355.2 						"/>
					</g>
				</g>
			</g>
		</g>
	</g>
	<g>
		<g opacity="0.1">
			
				<rect x="40.5" y="317.5" transform="matrix(0.8923 0.4514 -0.4514 0.8923 155.9451 7.4755)" fill="#010101" width="43.7" height="26.2"/>
			<polygon fill="#010101" points="48.7,310.7 87.6,330.4 59.5,337.5 			"/>
			<polygon fill="#010101" points="48.7,309.3 87.6,329 59.5,336.1 			"/>
		</g>
		<g>
			<g>
				
					<rect x="40.5" y="315.5" transform="matrix(0.8923 0.4514 -0.4514 0.8923 155.0424 7.2601)" fill="#FFFFFF" width="43.7" height="26.2"/>
				<g>
					<g opacity="0.1">
						<polygon fill="#010101" points="48.7,308.7 87.6,328.4 59.5,335.5 						"/>
					</g>
					<g>
						<polygon fill="#FFFFFF" points="48.7,307.3 87.6,327 59.5,334.1 						"/>
					</g>
				</g>
			</g>
		</g>
	</g>
</g>
</svg>
