<?xml version="1.0" encoding="utf-8"?>
<!-- Generator: Adobe Illustrator 17.1.0, SVG Export Plug-In . SVG Version: 6.00 Build 0)  -->
<!DOCTYPE svg PUBLIC "-//W3C//DTD SVG 1.1//EN" "http://www.w3.org/Graphics/SVG/1.1/DTD/svg11.dtd">
<svg version="1.1" id="Layer_1" xmlns="http://www.w3.org/2000/svg" xmlns:xlink="http://www.w3.org/1999/xlink" x="0px" y="0px"
	 viewBox="0 0 357.6 417.1" enable-background="new 0 0 357.6 417.1" xml:space="preserve">
<g>
	<polygon opacity="0.2" fill="#CCCCCC" points="242.9,174.1 151.6,174.1 7.4,92.8 98.7,92.8 	"/>
	<polygon opacity="0.2" fill="#CCCCCC" points="242.9,297.8 151.6,297.8 7.4,216.5 98.7,216.5 	"/>
	<rect x="220.7" y="241.5" fill="#EFEEEE" width="16.4" height="11.2"/>
	<rect x="120.5" y="241.5" fill="#EFEEEE" width="16.4" height="11.2"/>
	<g>
		<rect x="7.4" y="206.6" fill="#A47B53" width="91.3" height="9.9"/>
		<g>
			<path fill="#424244" d="M68.8,131.4H16.1c-1.1,0-2-0.7-2-1.5v-3.8c0-0.8,0.9-1.5,2-1.5h52.7c1.1,0,2,0.7,2,1.5v3.8
				C70.8,130.7,69.9,131.4,68.8,131.4z"/>
			<path fill="#A47B53" d="M60.3,150.9H24.6c-1.9,0-3.4-1.5-3.4-3.4v-0.1c0-1.9,1.5-3.4,3.4-3.4h35.6c1.9,0,3.4,1.5,3.4,3.4v0.1
				C63.7,149.4,62.1,150.9,60.3,150.9z"/>
			<path fill="#A48668" d="M60.3,143.1H24.6c-1.9,0-3.4-1.5-3.4-3.4v-0.1c0-1.9,1.5-3.4,3.4-3.4h35.6c1.9,0,3.4,1.5,3.4,3.4v0.1
				C63.7,141.6,62.1,143.1,60.3,143.1z"/>
			<path fill="#DEB792" d="M60.3,158.7H24.6c-1.9,0-3.4-1.5-3.4-3.4v-0.1c0-1.9,1.5-3.4,3.4-3.4h35.6c1.9,0,3.4,1.5,3.4,3.4v0.1
				C63.7,157.1,62.1,158.7,60.3,158.7z"/>
			<path fill="#A47B53" d="M60.3,166.4H24.6c-1.9,0-3.4-1.5-3.4-3.4v-0.1c0-1.9,1.5-3.4,3.4-3.4h35.6c1.9,0,3.4,1.5,3.4,3.4v0.1
				C63.7,164.9,62.1,166.4,60.3,166.4z"/>
			<path fill="#A47B53" d="M60.3,174.1H24.6c-1.9,0-3.4-1.5-3.4-3.4v-0.1c0-1.9,1.5-3.4,3.4-3.4h35.6c1.9,0,3.4,1.5,3.4,3.4v0.1
				C63.7,172.6,62.1,174.1,60.3,174.1z"/>
			<path fill="#DEB792" d="M60.3,181.8H24.6c-1.9,0-3.4-1.5-3.4-3.4v-0.1c0-1.9,1.5-3.4,3.4-3.4h35.6c1.9,0,3.4,1.5,3.4,3.4v0.1
				C63.7,180.3,62.1,181.8,60.3,181.8z"/>
			<path fill="#A47B53" d="M60.3,189.6H24.6c-1.9,0-3.4-1.5-3.4-3.4v-0.1c0-1.9,1.5-3.4,3.4-3.4h35.6c1.9,0,3.4,1.5,3.4,3.4v0.1
				C63.7,188,62.1,189.6,60.3,189.6z"/>
			<path fill="#DEB792" d="M60.3,197.3H24.6c-1.9,0-3.4-1.5-3.4-3.4v-0.1c0-1.9,1.5-3.4,3.4-3.4h35.6c1.9,0,3.4,1.5,3.4,3.4v0.1
				C63.7,195.8,62.1,197.3,60.3,197.3z"/>
			<path fill="#A47B53" d="M60.3,205H24.6c-1.9,0-3.4-1.5-3.4-3.4v-0.1c0-1.9,1.5-3.4,3.4-3.4h35.6c1.9,0,3.4,1.5,3.4,3.4v0.1
				C63.7,203.5,62.1,205,60.3,205z"/>
			<rect x="15.6" y="132.8" opacity="0.32" fill="#616161" width="53.7" height="74.7"/>
		</g>
		<g>
			<path fill="#424244" d="M90,131.4H37.3c-1.1,0-2-0.7-2-1.5v-3.8c0-0.8,0.9-1.5,2-1.5H90c1.1,0,2,0.7,2,1.5v3.8
				C92.1,130.7,91.1,131.4,90,131.4z"/>
			<path fill="#A47B53" d="M81.5,150.9H45.9c-1.9,0-3.4-1.5-3.4-3.4v-0.1c0-1.9,1.5-3.4,3.4-3.4h35.6c1.9,0,3.4,1.5,3.4,3.4v0.1
				C84.9,149.4,83.4,150.9,81.5,150.9z"/>
			<path fill="#A48668" d="M81.5,143.1H45.9c-1.9,0-3.4-1.5-3.4-3.4v-0.1c0-1.9,1.5-3.4,3.4-3.4h35.6c1.9,0,3.4,1.5,3.4,3.4v0.1
				C84.9,141.6,83.4,143.1,81.5,143.1z"/>
			<path fill="#DEB792" d="M81.5,158.7H45.9c-1.9,0-3.4-1.5-3.4-3.4v-0.1c0-1.9,1.5-3.4,3.4-3.4h35.6c1.9,0,3.4,1.5,3.4,3.4v0.1
				C84.9,157.1,83.4,158.7,81.5,158.7z"/>
			<path fill="#A47B53" d="M81.5,166.4H45.9c-1.9,0-3.4-1.5-3.4-3.4v-0.1c0-1.9,1.5-3.4,3.4-3.4h35.6c1.9,0,3.4,1.5,3.4,3.4v0.1
				C84.9,164.9,83.4,166.4,81.5,166.4z"/>
			<path fill="#A47B53" d="M81.5,174.1H45.9c-1.9,0-3.4-1.5-3.4-3.4v-0.1c0-1.9,1.5-3.4,3.4-3.4h35.6c1.9,0,3.4,1.5,3.4,3.4v0.1
				C84.9,172.6,83.4,174.1,81.5,174.1z"/>
			<path fill="#DEB792" d="M81.5,181.8H45.9c-1.9,0-3.4-1.5-3.4-3.4v-0.1c0-1.9,1.5-3.4,3.4-3.4h35.6c1.9,0,3.4,1.5,3.4,3.4v0.1
				C84.9,180.3,83.4,181.8,81.5,181.8z"/>
			<path fill="#A47B53" d="M81.5,189.6H45.9c-1.9,0-3.4-1.5-3.4-3.4v-0.1c0-1.9,1.5-3.4,3.4-3.4h35.6c1.9,0,3.4,1.5,3.4,3.4v0.1
				C84.9,188,83.4,189.6,81.5,189.6z"/>
			<path fill="#DEB792" d="M81.5,197.3H45.9c-1.9,0-3.4-1.5-3.4-3.4v-0.1c0-1.9,1.5-3.4,3.4-3.4h35.6c1.9,0,3.4,1.5,3.4,3.4v0.1
				C84.9,195.8,83.4,197.3,81.5,197.3z"/>
			<path fill="#A47B53" d="M81.5,205H45.9c-1.9,0-3.4-1.5-3.4-3.4v-0.1c0-1.9,1.5-3.4,3.4-3.4h35.6c1.9,0,3.4,1.5,3.4,3.4v0.1
				C84.9,203.5,83.4,205,81.5,205z"/>
			<rect x="36.8" y="132.8" opacity="0.32" fill="#616161" width="53.7" height="74.7"/>
		</g>
	</g>
	<g>
		<rect x="7.4" y="82.9" fill="#A47B53" width="91.3" height="9.9"/>
		<g>
			<path fill="#B9BABD" d="M63.9,6.9H11.3c-1.1,0-2-0.7-2-1.5V1.5c0-0.8,0.9-1.5,2-1.5h52.7c1.1,0,2,0.7,2,1.5v3.8
				C66,6.2,65.1,6.9,63.9,6.9z"/>
			<path fill="#A47B53" d="M55.4,26.4H19.8c-1.9,0-3.4-1.5-3.4-3.4v-0.1c0-1.9,1.5-3.4,3.4-3.4h35.6c1.9,0,3.4,1.5,3.4,3.4V23
				C58.8,24.9,57.3,26.4,55.4,26.4z"/>
			<path fill="#A48668" d="M55.4,18.6H19.8c-1.9,0-3.4-1.5-3.4-3.4v-0.1c0-1.9,1.5-3.4,3.4-3.4h35.6c1.9,0,3.4,1.5,3.4,3.4v0.1
				C58.8,17,57.3,18.6,55.4,18.6z"/>
			<path fill="#DEB792" d="M55.4,34.1H19.8c-1.9,0-3.4-1.5-3.4-3.4v-0.1c0-1.9,1.5-3.4,3.4-3.4h35.6c1.9,0,3.4,1.5,3.4,3.4v0.1
				C58.8,32.6,57.3,34.1,55.4,34.1z"/>
			<path fill="#A47B53" d="M55.4,41.9H19.8c-1.9,0-3.4-1.5-3.4-3.4v-0.1c0-1.9,1.5-3.4,3.4-3.4h35.6c1.9,0,3.4,1.5,3.4,3.4v0.1
				C58.8,40.3,57.3,41.9,55.4,41.9z"/>
			<path fill="#A47B53" d="M55.4,49.6H19.8c-1.9,0-3.4-1.5-3.4-3.4v-0.1c0-1.9,1.5-3.4,3.4-3.4h35.6c1.9,0,3.4,1.5,3.4,3.4v0.1
				C58.8,48.1,57.3,49.6,55.4,49.6z"/>
			<path fill="#DEB792" d="M55.4,57.3H19.8c-1.9,0-3.4-1.5-3.4-3.4v-0.1c0-1.9,1.5-3.4,3.4-3.4h35.6c1.9,0,3.4,1.5,3.4,3.4v0.1
				C58.8,55.8,57.3,57.3,55.4,57.3z"/>
			<path fill="#A47B53" d="M55.4,65H19.8c-1.9,0-3.4-1.5-3.4-3.4v-0.1c0-1.9,1.5-3.4,3.4-3.4h35.6c1.9,0,3.4,1.5,3.4,3.4v0.1
				C58.8,63.5,57.3,65,55.4,65z"/>
			<path fill="#DEB792" d="M55.4,72.8H19.8c-1.9,0-3.4-1.5-3.4-3.4v-0.1c0-1.9,1.5-3.4,3.4-3.4h35.6c1.9,0,3.4,1.5,3.4,3.4v0.1
				C58.8,71.2,57.3,72.8,55.4,72.8z"/>
			<path fill="#A47B53" d="M55.4,80.5H19.8c-1.9,0-3.4-1.5-3.4-3.4V77c0-1.9,1.5-3.4,3.4-3.4h35.6c1.9,0,3.4,1.5,3.4,3.4v0.1
				C58.8,79,57.3,80.5,55.4,80.5z"/>
			<rect x="10.7" y="8.2" opacity="0.32" fill="#616161" width="53.7" height="74.7"/>
		</g>
		<g>
			<path fill="#424244" d="M90.8,6.9H38.1c-1.1,0-2-0.7-2-1.5V1.5c0-0.8,0.9-1.5,2-1.5h52.7c1.1,0,2,0.7,2,1.5v3.8
				C92.8,6.2,91.9,6.9,90.8,6.9z"/>
			<path fill="#A47B53" d="M82.3,26.4H46.6c-1.9,0-3.4-1.5-3.4-3.4v-0.1c0-1.9,1.5-3.4,3.4-3.4h35.6c1.9,0,3.4,1.5,3.4,3.4V23
				C85.7,24.9,84.1,26.4,82.3,26.4z"/>
			<path fill="#A48668" d="M82.3,18.6H46.6c-1.9,0-3.4-1.5-3.4-3.4v-0.1c0-1.9,1.5-3.4,3.4-3.4h35.6c1.9,0,3.4,1.5,3.4,3.4v0.1
				C85.7,17,84.1,18.6,82.3,18.6z"/>
			<path fill="#DEB792" d="M82.3,34.1H46.6c-1.9,0-3.4-1.5-3.4-3.4v-0.1c0-1.9,1.5-3.4,3.4-3.4h35.6c1.9,0,3.4,1.5,3.4,3.4v0.1
				C85.7,32.6,84.1,34.1,82.3,34.1z"/>
			<path fill="#A47B53" d="M82.3,41.9H46.6c-1.9,0-3.4-1.5-3.4-3.4v-0.1c0-1.9,1.5-3.4,3.4-3.4h35.6c1.9,0,3.4,1.5,3.4,3.4v0.1
				C85.7,40.3,84.1,41.9,82.3,41.9z"/>
			<path fill="#A47B53" d="M82.3,49.6H46.6c-1.9,0-3.4-1.5-3.4-3.4v-0.1c0-1.9,1.5-3.4,3.4-3.4h35.6c1.9,0,3.4,1.5,3.4,3.4v0.1
				C85.7,48.1,84.1,49.6,82.3,49.6z"/>
			<path fill="#DEB792" d="M82.3,57.3H46.6c-1.9,0-3.4-1.5-3.4-3.4v-0.1c0-1.9,1.5-3.4,3.4-3.4h35.6c1.9,0,3.4,1.5,3.4,3.4v0.1
				C85.7,55.8,84.1,57.3,82.3,57.3z"/>
			<path fill="#A47B53" d="M82.3,65H46.6c-1.9,0-3.4-1.5-3.4-3.4v-0.1c0-1.9,1.5-3.4,3.4-3.4h35.6c1.9,0,3.4,1.5,3.4,3.4v0.1
				C85.7,63.5,84.1,65,82.3,65z"/>
			<path fill="#DEB792" d="M82.3,72.8H46.6c-1.9,0-3.4-1.5-3.4-3.4v-0.1c0-1.9,1.5-3.4,3.4-3.4h35.6c1.9,0,3.4,1.5,3.4,3.4v0.1
				C85.7,71.2,84.1,72.8,82.3,72.8z"/>
			<path fill="#A47B53" d="M82.3,80.5H46.6c-1.9,0-3.4-1.5-3.4-3.4V77c0-1.9,1.5-3.4,3.4-3.4h35.6c1.9,0,3.4,1.5,3.4,3.4v0.1
				C85.7,79,84.1,80.5,82.3,80.5z"/>
			<rect x="37.6" y="8.2" opacity="0.32" fill="#616161" width="53.7" height="74.7"/>
		</g>
	</g>
	<g>
		<g>
			<path fill="#BB7064" d="M217.9,170.8h-5.1h-81.5h0h-5.7c-4.2,0-7.6,3.4-7.6,7.6v64.5h13.3v40.4h81.5v-40.4h13.3v-63.8
				C226.2,174.5,222.5,170.8,217.9,170.8z"/>
			<g>
				<g>
					<g opacity="0.1">
						<path fill="#231F20" d="M172.1,172.1l-40.8-2.1l25.8,35.2c7.4,10.1,22.5,10.1,29.9,0l25.8-35.2L172.1,172.1z"/>
					</g>
					<g>
						<path fill="#EFEEEE" d="M172.1,166.8l-40.8-2.1l25.8,35.2c7.4,10.1,22.5,10.1,29.9,0l25.8-35.2L172.1,166.8z"/>
					</g>
				</g>
			</g>
			<g>
				<rect x="126.9" y="111.4" fill="#A47B53" width="90.2" height="53.9"/>
				<path fill="#F6C6A7" d="M205.9,157.3c-17.3,21.8-50.4,21.8-67.8,0c-6.4-8.1-11.2-16.1-11.2-22.1v-30.9
					c0-24.7,19.6-45.4,44.3-45.8c25.3-0.4,45.9,19.9,45.9,45.1v31.6C217.1,141.2,212.3,149.2,205.9,157.3z"/>
				<g>
					<defs>
						<path id="SVGID_7_" d="M172,178.1c-24.9,0-45.1-20.2-45.1-45.1v-29.4c0-24.9,20.2-45.1,45.1-45.1s45.1,20.2,45.1,45.1"/>
					</defs>
					<clipPath id="SVGID_1_">
						<use xlink:href="#SVGID_7_"  overflow="visible"/>
					</clipPath>
					<g clip-path="url(#SVGID_1_)">
						<defs>
							<path id="SVGID_9_" d="M126.9,92.9c17.7,0,70.5-32.4,70.5-65s-42.8-10.3-42.8-10.3l-40.4,46.5L126.9,92.9z"/>
						</defs>
						<use xlink:href="#SVGID_9_"  overflow="visible" fill="#A47B53"/>
						<clipPath id="SVGID_2_">
							<use xlink:href="#SVGID_9_"  overflow="visible"/>
						</clipPath>
						<path clip-path="url(#SVGID_2_)" fill="#A47B53" d="M172,171.5c-24.9,0-45.1-20.2-45.1-45.1V97.1c0-24.9,20.2-45.1,45.1-45.1
							s45.1,20.2,45.1,45.1v29.4C217.1,151.4,196.9,171.5,172,171.5z"/>
					</g>
					<g clip-path="url(#SVGID_1_)">
						<g opacity="0.1">
							<path fill="#010101" d="M214.1,97.2c-28.1,0-72.8-19-72.8-82.5s72.8,16.9,72.8,16.9V97.2z"/>
						</g>
						<g>
							<path fill="#A47B53" d="M217.1,97.2c-28.1,0-72.8-19-72.8-82.5s72.8,16.9,72.8,16.9V97.2z"/>
						</g>
					</g>
				</g>
				<g>
					<circle fill="#A47B53" cx="154" cy="110" r="2"/>
					<circle fill="#A47B53" cx="190.1" cy="110" r="2"/>
				</g>
				<circle fill="#F6C6A7" cx="217.1" cy="109.2" r="7.4"/>
				<circle fill="#F6C6A7" cx="126.9" cy="109.2" r="7.4"/>
			</g>
			<rect x="212.8" y="239.8" fill="#EFEEEE" width="16" height="10.9"/>
			<rect x="115.3" y="239.8" fill="#EFEEEE" width="16" height="10.9"/>
			<g>
				<polygon fill="#F6C6A7" points="117.9,250.8 117.9,265.2 201.2,265.2 143.5,250.8 				"/>
				<polygon opacity="0.48" fill="#C6A28A" points="133,250.8 190.7,265.2 219.6,265.2 219.6,250.8 				"/>
				<polygon fill="#F6C6A7" points="133,250.8 201.2,265.2 226.2,265.2 226.2,250.8 				"/>
			</g>
			<g>
				<g>
					<path fill="#010101" d="M187,218.1l0.7-1.4c0.2,0.1,0.5,0.3,0.8,0.3c0.4,0,0.7-0.3,0.7-0.7v-3.9h1.8v3.9c0,1.6-0.9,2.3-2.4,2.3
						C188.1,218.6,187.5,218.5,187,218.1z"/>
					<path fill="#010101" d="M195.7,218.5l-0.2-0.7h-2.2l-0.2,0.7H191l2.2-6.1h2.3l2.2,6.1H195.7z M194.4,214.2l-0.6,2h1.2
						L194.4,214.2z"/>
					<path fill="#010101" d="M202.2,218.5l-2.2-3.1v3.1h-1.8v-6.1h1.9l2.1,2.9v-2.9h1.8v6.1H202.2z"/>
					<path fill="#010101" d="M205,218.5v-6.1h4.6v1.6h-2.8v0.6h2.7v1.6h-2.7v0.7h2.8v1.6H205z"/>
				</g>
				<g>
					<rect x="184" y="209.5" fill="#EFEEEE" width="28.5" height="12.1"/>
				</g>
				<g>
					<path fill="#424244" d="M187,218.1l0.7-1.4c0.2,0.1,0.5,0.3,0.8,0.3c0.4,0,0.7-0.3,0.7-0.7v-3.9h1.8v3.9c0,1.6-0.9,2.3-2.4,2.3
						C188.1,218.6,187.5,218.5,187,218.1z"/>
					<path fill="#424244" d="M195.7,218.5l-0.2-0.7h-2.2l-0.2,0.7H191l2.2-6.1h2.3l2.2,6.1H195.7z M194.4,214.2l-0.6,2h1.2
						L194.4,214.2z"/>
					<path fill="#424244" d="M202.2,218.5l-2.2-3.1v3.1h-1.8v-6.1h1.9l2.1,2.9v-2.9h1.8v6.1H202.2z"/>
					<path fill="#424244" d="M205,218.5v-6.1h4.6v1.6h-2.8v0.6h2.7v1.6h-2.7v0.7h2.8v1.6H205z"/>
				</g>
			</g>
		</g>
	</g>
	<g>
		<g>
			<rect x="7.4" y="267.6" fill="#EFEEEE" width="342.8" height="149.5"/>
			<rect x="7.4" y="274" fill="#C2C2C2" width="342.8" height="143.1"/>
			<polygon opacity="0.2" fill="#5E5E5E" points="350.2,417.1 186.6,417.1 7.4,280.4 350.2,280.4 			"/>
			<rect x="0" y="267.6" fill="#A47B53" width="357.6" height="12.8"/>
			<rect x="239.5" y="190" fill="#5E5E5E" width="100.8" height="59.2"/>
			<g>
				<g opacity="0.1">
					<rect x="283.9" y="208.3" fill="#231F20" width="21.4" height="58.4"/>
				</g>
				<g>
					<rect x="279.2" y="208.3" fill="#5E5E5E" width="21.4" height="58.4"/>
				</g>
			</g>
			<g opacity="0.3">
				<defs>
					<rect id="SVGID_11_" x="7.4" y="280.4" opacity="0.3" width="342.8" height="136.7"/>
				</defs>
				<clipPath id="SVGID_3_">
					<use xlink:href="#SVGID_11_"  overflow="visible"/>
				</clipPath>
			</g>
		</g>
		<g>
			<path fill="#EFEEEE" d="M38.8,326.6l-5.8-9.2l-1.4,1.9v7.2h-7.9v-26h7.9v9.7l6.8-9.7h9.6l-9.8,12.1l10.2,13.9H38.8z"/>
			<path fill="#EFEEEE" d="M46.8,313.7c0-8,6.2-13.4,14.2-13.4s14.2,5.5,14.2,13.4S69,327.1,61,327.1S46.8,321.6,46.8,313.7z
				 M67.2,313.7c0-3.6-2.5-6.5-6.2-6.5s-6.2,2.9-6.2,6.5c0,3.6,2.5,6.5,6.2,6.5S67.2,317.3,67.2,313.7z"/>
			<path fill="#EFEEEE" d="M76.6,313.7c0-8,6.2-13.4,14.2-13.4s14.2,5.5,14.2,13.4s-6.2,13.4-14.2,13.4S76.6,321.6,76.6,313.7z
				 M97.1,313.7c0-3.6-2.5-6.5-6.2-6.5s-6.2,2.9-6.2,6.5c0,3.6,2.5,6.5,6.2,6.5S97.1,317.3,97.1,313.7z"/>
			<path fill="#EFEEEE" d="M123,326.6l-5.8-9.2l-1.4,1.9v7.2h-7.9v-26h7.9v9.7l6.8-9.7h9.6l-9.8,12.1l10.2,13.9H123z"/>
			<path fill="#EFEEEE" d="M134,326.6v-26h7.9v26H134z"/>
		</g>
	</g>
	<path fill="#424244" d="M190.8,95.4c-7.6,0-13.8,5.8-14.5,13.1h-8.5c-0.7-7.4-7-13.1-14.5-13.1c-8,0-14.6,6.5-14.6,14.6
		s6.5,14.6,14.6,14.6c7.6,0,13.8-5.8,14.5-13.1h8.5c0.7,7.4,7,13.1,14.5,13.1c8,0,14.6-6.5,14.6-14.6S198.8,95.4,190.8,95.4z
		 M153.2,121.6c-6.4,0-11.6-5.2-11.6-11.6s5.2-11.6,11.6-11.6s11.6,5.2,11.6,11.6S159.6,121.6,153.2,121.6z M190.8,121.6
		c-6.4,0-11.6-5.2-11.6-11.6s5.2-11.6,11.6-11.6s11.6,5.2,11.6,11.6S197.2,121.6,190.8,121.6z"/>
</g>
</svg>
