<?xml version="1.0" encoding="utf-8"?>
<!-- Generator: Adobe Illustrator 17.1.0, SVG Export Plug-In . SVG Version: 6.00 Build 0)  -->
<!DOCTYPE svg PUBLIC "-//W3C//DTD SVG 1.1//EN" "http://www.w3.org/Graphics/SVG/1.1/DTD/svg11.dtd">
<svg version="1.1" id="Layer_1" xmlns="http://www.w3.org/2000/svg" xmlns:xlink="http://www.w3.org/1999/xlink" x="0px" y="0px"
	 viewBox="0 0 357.6 417.1" enable-background="new 0 0 357.6 417.1" xml:space="preserve">
<g>
	<polygon opacity="0.2" fill="#CCCCCC" points="242.9,174.1 151.6,174.1 7.4,92.8 98.7,92.8 	"/>
	<polygon opacity="0.2" fill="#CCCCCC" points="242.9,297.8 151.6,297.8 7.4,216.5 98.7,216.5 	"/>
	<g>
		<rect x="118.1" y="81.7" fill="#A47B53" width="121.4" height="81.7"/>
		<path fill="#BB7064" d="M225.9,170.5h-5.2h-83.8h0H131c-4.3,0-7.8,3.5-7.8,7.8v66.3h13.7v95.8h83.8v-95.8h13.7V179
			C234.4,174.3,230.6,170.5,225.9,170.5z"/>
		<g>
			<g opacity="0.1">
				<path fill="#231F20" d="M178.8,135.1l-41.9,34.5l26.5,36.2c7.6,10.4,23.1,10.4,30.7,0l26.5-36.2L178.8,135.1z"/>
			</g>
			<g>
				<path fill="#EFEEEE" d="M178.8,129.7l-41.9,34.5l26.5,36.2c7.6,10.4,23.1,10.4,30.7,0l26.5-36.2L178.8,129.7z"/>
			</g>
		</g>
		<g>
			<path fill="#F6C6A7" d="M189.2,172.1c-6.1,4.7-14.6,4.7-20.8,0c-17.3-13.2-50.3-24.9-50.3-49.6V80.7c0-33.5,26.8-61.2,60.2-61.5
				c33.7-0.2,61.2,27,61.2,60.7v42.6C239.5,147.2,206.5,158.9,189.2,172.1z"/>
		</g>
		<g>
			<defs>
				<path id="SVGID_1_" d="M178.8,180.1c-33.5,0-60.7-27.2-60.7-60.7V79.9c0-33.5,27.2-60.7,60.7-60.7s60.7,27.2,60.7,60.7v39.5
					C239.5,153,212.3,180.1,178.8,180.1z"/>
			</defs>
			<clipPath id="SVGID_2_">
				<use xlink:href="#SVGID_1_"  overflow="visible"/>
			</clipPath>
			<g clip-path="url(#SVGID_2_)">
				<defs>
					<path id="SVGID_3_" d="M118.1,65.5c23.8,0,94.9-43.6,94.9-87.4s-57.6-13.9-57.6-13.9L101,26.8L118.1,65.5z"/>
				</defs>
				<use xlink:href="#SVGID_3_"  overflow="visible" fill="#A47B53"/>
				<clipPath id="SVGID_4_">
					<use xlink:href="#SVGID_3_"  overflow="visible"/>
				</clipPath>
				<g clip-path="url(#SVGID_4_)">
					<path fill="#A47B53" d="M178.8,171.4c-33.5,0-60.7-27.2-60.7-60.7V71.1c0-33.5,27.2-60.7,60.7-60.7s60.7,27.2,60.7,60.7v39.5
						C239.5,144.2,212.3,171.4,178.8,171.4z"/>
				</g>
			</g>
			<g clip-path="url(#SVGID_2_)">
				<g opacity="0.1">
					<path fill="#010101" d="M235.5,71.4c-37.9,0-97.9-25.6-97.9-111.1s97.9,22.8,97.9,22.8V71.4z"/>
				</g>
				<g>
					<path fill="#A47B53" d="M239.5,71.4c-37.9,0-97.9-25.6-97.9-111.1s97.9,22.8,97.9,22.8V71.4z"/>
				</g>
			</g>
		</g>
		<g>
			<circle fill="#A47B53" cx="154.5" cy="88.5" r="2.7"/>
			<circle fill="#A47B53" cx="203.1" cy="88.5" r="2.7"/>
		</g>
		<circle fill="#F6C6A7" cx="239.5" cy="87.5" r="9.9"/>
		<circle fill="#F6C6A7" cx="118.1" cy="87.5" r="9.9"/>
		<rect x="220.7" y="241.5" fill="#EFEEEE" width="16.4" height="11.2"/>
		<rect x="120.5" y="241.5" fill="#EFEEEE" width="16.4" height="11.2"/>
		<g>
			<polygon fill="#F6C6A7" points="123.2,252.7 123.2,267.6 208.8,267.6 149.5,252.7 			"/>
			<polygon opacity="0.48" fill="#C6A28A" points="138.7,252.7 198,267.6 227.7,267.6 227.7,252.7 			"/>
			<polygon fill="#F6C6A7" points="138.7,252.7 208.8,267.6 234.4,267.6 234.4,252.7 			"/>
		</g>
		<rect x="7.4" y="267.6" fill="#EFEEEE" width="342.8" height="149.5"/>
		<rect x="7.4" y="274" fill="#C2C2C2" width="342.8" height="143.1"/>
		<polygon opacity="0.2" fill="#5E5E5E" points="350.2,417.1 186.6,417.1 7.4,280.4 350.2,280.4 		"/>
		<rect x="0" y="267.6" fill="#A47B53" width="357.6" height="12.8"/>
	</g>
	<rect x="239.5" y="190" fill="#5E5E5E" width="100.8" height="59.2"/>
	<g>
		<g opacity="0.1">
			<rect x="283.9" y="208.3" fill="#231F20" width="21.4" height="58.4"/>
		</g>
		<g>
			<rect x="279.2" y="208.3" fill="#5E5E5E" width="21.4" height="58.4"/>
		</g>
	</g>
	<g opacity="0.3">
		<defs>
			<rect id="SVGID_5_" x="7.4" y="280.4" opacity="0.3" width="342.8" height="136.7"/>
		</defs>
		<clipPath id="SVGID_6_">
			<use xlink:href="#SVGID_5_"  overflow="visible"/>
		</clipPath>
	</g>
	<text transform="matrix(1 0 0 1 21.4978 326.6382)" fill="#EFEEEE" font-family="'ProximaNova-Black'" font-size="38.9678">KOOKI</text>
	<g>
		<rect x="7.4" y="206.6" fill="#A47B53" width="91.3" height="9.9"/>
		<g>
			<path fill="#424244" d="M68.8,131.4H16.1c-1.1,0-2-0.7-2-1.5v-3.8c0-0.8,0.9-1.5,2-1.5h52.7c1.1,0,2,0.7,2,1.5v3.8
				C70.8,130.7,69.9,131.4,68.8,131.4z"/>
			<path fill="#A47B53" d="M60.3,150.9H24.6c-1.9,0-3.4-1.5-3.4-3.4v-0.1c0-1.9,1.5-3.4,3.4-3.4h35.6c1.9,0,3.4,1.5,3.4,3.4v0.1
				C63.7,149.4,62.1,150.9,60.3,150.9z"/>
			<path fill="#A48668" d="M60.3,143.1H24.6c-1.9,0-3.4-1.5-3.4-3.4v-0.1c0-1.9,1.5-3.4,3.4-3.4h35.6c1.9,0,3.4,1.5,3.4,3.4v0.1
				C63.7,141.6,62.1,143.1,60.3,143.1z"/>
			<path fill="#DEB792" d="M60.3,158.7H24.6c-1.9,0-3.4-1.5-3.4-3.4v-0.1c0-1.9,1.5-3.4,3.4-3.4h35.6c1.9,0,3.4,1.5,3.4,3.4v0.1
				C63.7,157.1,62.1,158.7,60.3,158.7z"/>
			<path fill="#A47B53" d="M60.3,166.4H24.6c-1.9,0-3.4-1.5-3.4-3.4v-0.1c0-1.9,1.5-3.4,3.4-3.4h35.6c1.9,0,3.4,1.5,3.4,3.4v0.1
				C63.7,164.9,62.1,166.4,60.3,166.4z"/>
			<path fill="#A47B53" d="M60.3,174.1H24.6c-1.9,0-3.4-1.5-3.4-3.4v-0.1c0-1.9,1.5-3.4,3.4-3.4h35.6c1.9,0,3.4,1.5,3.4,3.4v0.1
				C63.7,172.6,62.1,174.1,60.3,174.1z"/>
			<path fill="#DEB792" d="M60.3,181.8H24.6c-1.9,0-3.4-1.5-3.4-3.4v-0.1c0-1.9,1.5-3.4,3.4-3.4h35.6c1.9,0,3.4,1.5,3.4,3.4v0.1
				C63.7,180.3,62.1,181.8,60.3,181.8z"/>
			<path fill="#A47B53" d="M60.3,189.6H24.6c-1.9,0-3.4-1.5-3.4-3.4v-0.1c0-1.9,1.5-3.4,3.4-3.4h35.6c1.9,0,3.4,1.5,3.4,3.4v0.1
				C63.7,188,62.1,189.6,60.3,189.6z"/>
			<path fill="#DEB792" d="M60.3,197.3H24.6c-1.9,0-3.4-1.5-3.4-3.4v-0.1c0-1.9,1.5-3.4,3.4-3.4h35.6c1.9,0,3.4,1.5,3.4,3.4v0.1
				C63.7,195.8,62.1,197.3,60.3,197.3z"/>
			<path fill="#A47B53" d="M60.3,205H24.6c-1.9,0-3.4-1.5-3.4-3.4v-0.1c0-1.9,1.5-3.4,3.4-3.4h35.6c1.9,0,3.4,1.5,3.4,3.4v0.1
				C63.7,203.5,62.1,205,60.3,205z"/>
			<rect x="15.6" y="132.8" opacity="0.32" fill="#616161" width="53.7" height="74.7"/>
		</g>
		<g>
			<path fill="#424244" d="M90,131.4H37.3c-1.1,0-2-0.7-2-1.5v-3.8c0-0.8,0.9-1.5,2-1.5H90c1.1,0,2,0.7,2,1.5v3.8
				C92.1,130.7,91.1,131.4,90,131.4z"/>
			<path fill="#A47B53" d="M81.5,150.9H45.9c-1.9,0-3.4-1.5-3.4-3.4v-0.1c0-1.9,1.5-3.4,3.4-3.4h35.6c1.9,0,3.4,1.5,3.4,3.4v0.1
				C84.9,149.4,83.4,150.9,81.5,150.9z"/>
			<path fill="#A48668" d="M81.5,143.1H45.9c-1.9,0-3.4-1.5-3.4-3.4v-0.1c0-1.9,1.5-3.4,3.4-3.4h35.6c1.9,0,3.4,1.5,3.4,3.4v0.1
				C84.9,141.6,83.4,143.1,81.5,143.1z"/>
			<path fill="#DEB792" d="M81.5,158.7H45.9c-1.9,0-3.4-1.5-3.4-3.4v-0.1c0-1.9,1.5-3.4,3.4-3.4h35.6c1.9,0,3.4,1.5,3.4,3.4v0.1
				C84.9,157.1,83.4,158.7,81.5,158.7z"/>
			<path fill="#A47B53" d="M81.5,166.4H45.9c-1.9,0-3.4-1.5-3.4-3.4v-0.1c0-1.9,1.5-3.4,3.4-3.4h35.6c1.9,0,3.4,1.5,3.4,3.4v0.1
				C84.9,164.9,83.4,166.4,81.5,166.4z"/>
			<path fill="#A47B53" d="M81.5,174.1H45.9c-1.9,0-3.4-1.5-3.4-3.4v-0.1c0-1.9,1.5-3.4,3.4-3.4h35.6c1.9,0,3.4,1.5,3.4,3.4v0.1
				C84.9,172.6,83.4,174.1,81.5,174.1z"/>
			<path fill="#DEB792" d="M81.5,181.8H45.9c-1.9,0-3.4-1.5-3.4-3.4v-0.1c0-1.9,1.5-3.4,3.4-3.4h35.6c1.9,0,3.4,1.5,3.4,3.4v0.1
				C84.9,180.3,83.4,181.8,81.5,181.8z"/>
			<path fill="#A47B53" d="M81.5,189.6H45.9c-1.9,0-3.4-1.5-3.4-3.4v-0.1c0-1.9,1.5-3.4,3.4-3.4h35.6c1.9,0,3.4,1.5,3.4,3.4v0.1
				C84.9,188,83.4,189.6,81.5,189.6z"/>
			<path fill="#DEB792" d="M81.5,197.3H45.9c-1.9,0-3.4-1.5-3.4-3.4v-0.1c0-1.9,1.5-3.4,3.4-3.4h35.6c1.9,0,3.4,1.5,3.4,3.4v0.1
				C84.9,195.8,83.4,197.3,81.5,197.3z"/>
			<path fill="#A47B53" d="M81.5,205H45.9c-1.9,0-3.4-1.5-3.4-3.4v-0.1c0-1.9,1.5-3.4,3.4-3.4h35.6c1.9,0,3.4,1.5,3.4,3.4v0.1
				C84.9,203.5,83.4,205,81.5,205z"/>
			<rect x="36.8" y="132.8" opacity="0.32" fill="#616161" width="53.7" height="74.7"/>
		</g>
	</g>
	<g>
		<rect x="7.4" y="82.9" fill="#A47B53" width="91.3" height="9.9"/>
		<g>
			<path fill="#B9BABD" d="M63.9,6.9H11.3c-1.1,0-2-0.7-2-1.5V1.5c0-0.8,0.9-1.5,2-1.5h52.7c1.1,0,2,0.7,2,1.5v3.8
				C66,6.2,65.1,6.9,63.9,6.9z"/>
			<path fill="#A47B53" d="M55.4,26.4H19.8c-1.9,0-3.4-1.5-3.4-3.4v-0.1c0-1.9,1.5-3.4,3.4-3.4h35.6c1.9,0,3.4,1.5,3.4,3.4V23
				C58.8,24.9,57.3,26.4,55.4,26.4z"/>
			<path fill="#A48668" d="M55.4,18.6H19.8c-1.9,0-3.4-1.5-3.4-3.4v-0.1c0-1.9,1.5-3.4,3.4-3.4h35.6c1.9,0,3.4,1.5,3.4,3.4v0.1
				C58.8,17,57.3,18.6,55.4,18.6z"/>
			<path fill="#DEB792" d="M55.4,34.1H19.8c-1.9,0-3.4-1.5-3.4-3.4v-0.1c0-1.9,1.5-3.4,3.4-3.4h35.6c1.9,0,3.4,1.5,3.4,3.4v0.1
				C58.8,32.6,57.3,34.1,55.4,34.1z"/>
			<path fill="#A47B53" d="M55.4,41.9H19.8c-1.9,0-3.4-1.5-3.4-3.4v-0.1c0-1.9,1.5-3.4,3.4-3.4h35.6c1.9,0,3.4,1.5,3.4,3.4v0.1
				C58.8,40.3,57.3,41.9,55.4,41.9z"/>
			<path fill="#A47B53" d="M55.4,49.6H19.8c-1.9,0-3.4-1.5-3.4-3.4v-0.1c0-1.9,1.5-3.4,3.4-3.4h35.6c1.9,0,3.4,1.5,3.4,3.4v0.1
				C58.8,48.1,57.3,49.6,55.4,49.6z"/>
			<path fill="#DEB792" d="M55.4,57.3H19.8c-1.9,0-3.4-1.5-3.4-3.4v-0.1c0-1.9,1.5-3.4,3.4-3.4h35.6c1.9,0,3.4,1.5,3.4,3.4v0.1
				C58.8,55.8,57.3,57.3,55.4,57.3z"/>
			<path fill="#A47B53" d="M55.4,65H19.8c-1.9,0-3.4-1.5-3.4-3.4v-0.1c0-1.9,1.5-3.4,3.4-3.4h35.6c1.9,0,3.4,1.5,3.4,3.4v0.1
				C58.8,63.5,57.3,65,55.4,65z"/>
			<path fill="#DEB792" d="M55.4,72.8H19.8c-1.9,0-3.4-1.5-3.4-3.4v-0.1c0-1.9,1.5-3.4,3.4-3.4h35.6c1.9,0,3.4,1.5,3.4,3.4v0.1
				C58.8,71.2,57.3,72.8,55.4,72.8z"/>
			<path fill="#A47B53" d="M55.4,80.5H19.8c-1.9,0-3.4-1.5-3.4-3.4V77c0-1.9,1.5-3.4,3.4-3.4h35.6c1.9,0,3.4,1.5,3.4,3.4v0.1
				C58.8,79,57.3,80.5,55.4,80.5z"/>
			<rect x="10.7" y="8.2" opacity="0.32" fill="#616161" width="53.7" height="74.7"/>
		</g>
		<g>
			<path fill="#424244" d="M90.8,6.9H38.1c-1.1,0-2-0.7-2-1.5V1.5c0-0.8,0.9-1.5,2-1.5h52.7c1.1,0,2,0.7,2,1.5v3.8
				C92.8,6.2,91.9,6.9,90.8,6.9z"/>
			<path fill="#A47B53" d="M82.3,26.4H46.6c-1.9,0-3.4-1.5-3.4-3.4v-0.1c0-1.9,1.5-3.4,3.4-3.4h35.6c1.9,0,3.4,1.5,3.4,3.4V23
				C85.7,24.9,84.1,26.4,82.3,26.4z"/>
			<path fill="#A48668" d="M82.3,18.6H46.6c-1.9,0-3.4-1.5-3.4-3.4v-0.1c0-1.9,1.5-3.4,3.4-3.4h35.6c1.9,0,3.4,1.5,3.4,3.4v0.1
				C85.7,17,84.1,18.6,82.3,18.6z"/>
			<path fill="#DEB792" d="M82.3,34.1H46.6c-1.9,0-3.4-1.5-3.4-3.4v-0.1c0-1.9,1.5-3.4,3.4-3.4h35.6c1.9,0,3.4,1.5,3.4,3.4v0.1
				C85.7,32.6,84.1,34.1,82.3,34.1z"/>
			<path fill="#A47B53" d="M82.3,41.9H46.6c-1.9,0-3.4-1.5-3.4-3.4v-0.1c0-1.9,1.5-3.4,3.4-3.4h35.6c1.9,0,3.4,1.5,3.4,3.4v0.1
				C85.7,40.3,84.1,41.9,82.3,41.9z"/>
			<path fill="#A47B53" d="M82.3,49.6H46.6c-1.9,0-3.4-1.5-3.4-3.4v-0.1c0-1.9,1.5-3.4,3.4-3.4h35.6c1.9,0,3.4,1.5,3.4,3.4v0.1
				C85.7,48.1,84.1,49.6,82.3,49.6z"/>
			<path fill="#DEB792" d="M82.3,57.3H46.6c-1.9,0-3.4-1.5-3.4-3.4v-0.1c0-1.9,1.5-3.4,3.4-3.4h35.6c1.9,0,3.4,1.5,3.4,3.4v0.1
				C85.7,55.8,84.1,57.3,82.3,57.3z"/>
			<path fill="#A47B53" d="M82.3,65H46.6c-1.9,0-3.4-1.5-3.4-3.4v-0.1c0-1.9,1.5-3.4,3.4-3.4h35.6c1.9,0,3.4,1.5,3.4,3.4v0.1
				C85.7,63.5,84.1,65,82.3,65z"/>
			<path fill="#DEB792" d="M82.3,72.8H46.6c-1.9,0-3.4-1.5-3.4-3.4v-0.1c0-1.9,1.5-3.4,3.4-3.4h35.6c1.9,0,3.4,1.5,3.4,3.4v0.1
				C85.7,71.2,84.1,72.8,82.3,72.8z"/>
			<path fill="#A47B53" d="M82.3,80.5H46.6c-1.9,0-3.4-1.5-3.4-3.4V77c0-1.9,1.5-3.4,3.4-3.4h35.6c1.9,0,3.4,1.5,3.4,3.4v0.1
				C85.7,79,84.1,80.5,82.3,80.5z"/>
			<rect x="37.6" y="8.2" opacity="0.32" fill="#616161" width="53.7" height="74.7"/>
		</g>
	</g>
	<g>
		<g>
			<path fill="#010101" d="M194.2,219.2l0.8-1.4c0.2,0.1,0.5,0.3,0.8,0.3c0.4,0,0.7-0.3,0.7-0.7v-4h1.9v4c0,1.6-1,2.3-2.4,2.3
				C195.3,219.7,194.7,219.6,194.2,219.2z"/>
			<path fill="#010101" d="M203.1,219.6l-0.2-0.7h-2.3l-0.2,0.7h-2.1l2.3-6.3h2.4l2.3,6.3H203.1z M201.8,215.2l-0.6,2h1.2
				L201.8,215.2z"/>
			<path fill="#010101" d="M209.8,219.6l-2.3-3.2v3.2h-1.9v-6.3h2l2.2,3v-3h1.9v6.3H209.8z"/>
			<path fill="#010101" d="M212.7,219.6v-6.3h4.7v1.7h-2.9v0.6h2.8v1.7h-2.8v0.7h2.9v1.7H212.7z"/>
		</g>
		<g>
			<rect x="191.1" y="210.3" fill="#EFEEEE" width="29.3" height="12.5"/>
		</g>
		<g>
			<path fill="#424244" d="M194.2,219.2l0.8-1.4c0.2,0.1,0.5,0.3,0.8,0.3c0.4,0,0.7-0.3,0.7-0.7v-4h1.9v4c0,1.6-1,2.3-2.4,2.3
				C195.3,219.7,194.7,219.6,194.2,219.2z"/>
			<path fill="#424244" d="M203.1,219.6l-0.2-0.7h-2.3l-0.2,0.7h-2.1l2.3-6.3h2.4l2.3,6.3H203.1z M201.8,215.2l-0.6,2h1.2
				L201.8,215.2z"/>
			<path fill="#424244" d="M209.8,219.6l-2.3-3.2v3.2h-1.9v-6.3h2l2.2,3v-3h1.9v6.3H209.8z"/>
			<path fill="#424244" d="M212.7,219.6v-6.3h4.7v1.7h-2.9v0.6h2.8v1.7h-2.8v0.7h2.9v1.7H212.7z"/>
		</g>
	</g>
</g>
</svg>
