<?xml version="1.0" encoding="utf-8"?>
<!-- Generator: Adobe Illustrator 17.1.0, SVG Export Plug-In . SVG Version: 6.00 Build 0)  -->
<!DOCTYPE svg PUBLIC "-//W3C//DTD SVG 1.1//EN" "http://www.w3.org/Graphics/SVG/1.1/DTD/svg11.dtd">
<svg version="1.1" id="Layer_1" xmlns="http://www.w3.org/2000/svg" xmlns:xlink="http://www.w3.org/1999/xlink" x="0px" y="0px"
	 viewBox="0 0 754.9 646.3" enable-background="new 0 0 754.9 646.3" xml:space="preserve">
<polygon points="730.8,424.8 509.2,424.8 508.2,424.8 508.2,425.8 518.2,449.3 518.2,450.3 519.2,450.3 720.8,450.3 721.8,450.3 
	721.8,449.3 731.8,425.8 731.8,424.8 "/>
<polygon points="486.9,425.8 265.3,425.8 264.3,425.8 264.3,426.8 274.3,450.3 274.3,451.3 275.3,451.3 476.9,451.3 477.9,451.3 
	477.9,450.3 487.9,426.8 487.9,425.8 "/>
<polyline fill="none" stroke="#010101" stroke-miterlimit="10" points="395.5,73 395.5,107.2 363.1,107.2 363.1,224.7 308.6,224.7 
	308.6,345.1 220.2,345.1 220.2,400.3 "/>
<polyline fill="none" stroke="#010101" stroke-miterlimit="10" points="395.5,107.2 431.7,107.2 431.7,127.1 "/>
<polyline fill="none" stroke="#010101" stroke-miterlimit="10" points="363.1,224.7 561.4,224.7 561.4,413.7 "/>
<polyline fill="none" stroke="#010101" stroke-miterlimit="10" points="308.6,345.1 377.2,345.1 377.2,407.5 "/>
<path fill="none" stroke="#010101" stroke-miterlimit="10" d="M399.3,73"/>
<g>
	<g>
		<path fill="#010101" d="M346,69v-8h3.2c2.5,0,4.2,1.6,4.2,4c0,2.4-1.7,4-4.2,4H346z M351.7,65c0-1.4-0.9-2.5-2.5-2.5h-1.5v5h1.5
			C350.8,67.5,351.7,66.3,351.7,65z"/>
		<path fill="#010101" d="M354.3,65c0-2.4,1.8-4.1,4.2-4.1c2.4,0,4.2,1.7,4.2,4.1c0,2.4-1.8,4.1-4.2,4.1
			C356,69.1,354.3,67.4,354.3,65z M360.9,65c0-1.5-1-2.6-2.4-2.6c-1.5,0-2.4,1.1-2.4,2.6c0,1.5,0.9,2.6,2.4,2.6
			C359.9,67.6,360.9,66.4,360.9,65z"/>
		<path fill="#010101" d="M369.1,69v-3.3L366,61h1.9l2,3.2l2-3.2h1.9l-3.1,4.7V69H369.1z"/>
		<path fill="#010101" d="M373.8,65c0-2.4,1.8-4.1,4.2-4.1c2.4,0,4.2,1.7,4.2,4.1c0,2.4-1.8,4.1-4.2,4.1
			C375.5,69.1,373.8,67.4,373.8,65z M380.4,65c0-1.5-1-2.6-2.4-2.6c-1.5,0-2.4,1.1-2.4,2.6c0,1.5,0.9,2.6,2.4,2.6
			C379.4,67.6,380.4,66.4,380.4,65z"/>
		<path fill="#010101" d="M383.3,65.8V61h1.7v4.7c0,1.1,0.6,1.9,1.9,1.9s1.9-0.8,1.9-1.9V61h1.7v4.8c0,2-1.2,3.3-3.6,3.3
			S383.3,67.7,383.3,65.8z"/>
		<path fill="#010101" d="M400.7,69l-3.8-5.2V69h-1.7v-8h1.8l3.7,5v-5h1.7v8H400.7z"/>
		<path fill="#010101" d="M403.9,69v-8h5.7v1.5h-4v1.7h3.9v1.5h-3.9v1.8h4V69H403.9z"/>
		<path fill="#010101" d="M410.9,69v-8h5.7v1.5h-4v1.7h3.9v1.5h-3.9v1.8h4V69H410.9z"/>
		<path fill="#010101" d="M417.9,69v-8h3.2c2.5,0,4.2,1.6,4.2,4c0,2.4-1.7,4-4.2,4H417.9z M423.6,65c0-1.4-0.9-2.5-2.5-2.5h-1.5v5
			h1.5C422.7,67.5,423.6,66.3,423.6,65z"/>
		<path fill="#010101" d="M435.1,69l-0.5-1.4h-3.4l-0.5,1.4h-1.9l3.1-8h2.1l3.1,8H435.1z M432.9,62.7l-1.2,3.4h2.5L432.9,62.7z"/>
		<path fill="#010101" d="M443.4,69l-3.8-5.2V69h-1.7v-8h1.8l3.7,5v-5h1.7v8H443.4z"/>
		<path fill="#010101" d="M357,83.4v-8h1.7v8H357z"/>
		<path fill="#010101" d="M364.8,83.4l-1.6-2.8H362v2.8h-1.7v-8h3.7c1.7,0,2.7,1.1,2.7,2.6c0,1.4-0.9,2.2-1.8,2.4l1.8,3H364.8z
			 M365,77.9c0-0.7-0.5-1.1-1.2-1.1H362V79h1.8C364.4,79,365,78.6,365,77.9z"/>
		<path fill="#010101" d="M368,83.4v-8h3.2c2.5,0,4.2,1.6,4.2,4c0,2.4-1.7,4-4.2,4H368z M373.7,79.4c0-1.4-0.9-2.5-2.5-2.5h-1.5v5
			h1.5C372.7,81.9,373.7,80.7,373.7,79.4z"/>
		<path fill="#010101" d="M385.2,83.4l-3.8-5.2v5.2h-1.7v-8h1.8l3.7,5v-5h1.7v8H385.2z"/>
		<path fill="#010101" d="M388.4,80.2v-4.8h1.7v4.8c0,1.1,0.6,1.9,1.9,1.9s1.9-0.8,1.9-1.9v-4.8h1.7v4.8c0,2-1.2,3.3-3.6,3.3
			S388.4,82.1,388.4,80.2z"/>
		<path fill="#010101" d="M404.2,83.4v-5.6l-2.3,5.6h-0.7l-2.3-5.6v5.6h-1.7v-8h2.4l1.9,4.8l1.9-4.8h2.4v8H404.2z"/>
		<path fill="#010101" d="M407.5,83.4v-8h4.2c1.5,0,2.3,1,2.3,2c0,1-0.6,1.7-1.4,1.8c0.9,0.1,1.5,1,1.5,2c0,1.2-0.8,2.2-2.3,2.2
			H407.5z M412.3,77.7c0-0.5-0.4-0.9-0.9-0.9h-2.1v1.7h2.1C411.9,78.6,412.3,78.2,412.3,77.7z M412.4,81c0-0.5-0.4-0.9-1-0.9h-2.2
			v1.9h2.2C412,81.9,412.4,81.5,412.4,81z"/>
		<path fill="#010101" d="M415.4,83.4v-8h5.7v1.5h-4v1.7h3.9V80h-3.9v1.8h4v1.5H415.4z"/>
		<path fill="#010101" d="M427,83.4l-1.6-2.8h-1.2v2.8h-1.7v-8h3.7c1.7,0,2.7,1.1,2.7,2.6c0,1.4-0.9,2.2-1.8,2.4l1.8,3H427z
			 M427.1,77.9c0-0.7-0.5-1.1-1.2-1.1h-1.8V79h1.8C426.6,79,427.1,78.6,427.1,77.9z"/>
		<path fill="#010101" d="M431.1,79.9c0-1.4,1.8-1.6,1.8-2.4c0-0.4-0.3-0.7-0.9-0.7c-0.6,0-1.1,0.3-1.5,0.7l-1-1.1
			c0.6-0.7,1.6-1.2,2.6-1.2c1.5,0,2.5,0.8,2.5,1.9c0,1.8-2,1.9-2,2.9c0,0.2,0.1,0.4,0.2,0.5l-1.3,0.4
			C431.2,80.6,431.1,80.3,431.1,79.9z M431.1,82.5c0-0.5,0.4-1,1-1c0.5,0,1,0.4,1,1s-0.4,1-1,1C431.5,83.5,431.1,83,431.1,82.5z"/>
	</g>
	<g>
		<rect x="323.3" y="49.5" fill="#E6E6E6" width="144.3" height="45.4"/>
	</g>
	<g>
		<path fill="#231F20" d="M346,69v-8h3.2c2.5,0,4.2,1.6,4.2,4c0,2.4-1.7,4-4.2,4H346z M351.7,65c0-1.4-0.9-2.5-2.5-2.5h-1.5v5h1.5
			C350.8,67.5,351.7,66.3,351.7,65z"/>
		<path fill="#231F20" d="M354.3,65c0-2.4,1.8-4.1,4.2-4.1c2.4,0,4.2,1.7,4.2,4.1c0,2.4-1.8,4.1-4.2,4.1
			C356,69.1,354.3,67.4,354.3,65z M360.9,65c0-1.5-1-2.6-2.4-2.6c-1.5,0-2.4,1.1-2.4,2.6c0,1.5,0.9,2.6,2.4,2.6
			C359.9,67.6,360.9,66.4,360.9,65z"/>
		<path fill="#231F20" d="M369.1,69v-3.3L366,61h1.9l2,3.2l2-3.2h1.9l-3.1,4.7V69H369.1z"/>
		<path fill="#231F20" d="M373.8,65c0-2.4,1.8-4.1,4.2-4.1c2.4,0,4.2,1.7,4.2,4.1c0,2.4-1.8,4.1-4.2,4.1
			C375.5,69.1,373.8,67.4,373.8,65z M380.4,65c0-1.5-1-2.6-2.4-2.6c-1.5,0-2.4,1.1-2.4,2.6c0,1.5,0.9,2.6,2.4,2.6
			C379.4,67.6,380.4,66.4,380.4,65z"/>
		<path fill="#231F20" d="M383.3,65.8V61h1.7v4.7c0,1.1,0.6,1.9,1.9,1.9s1.9-0.8,1.9-1.9V61h1.7v4.8c0,2-1.2,3.3-3.6,3.3
			S383.3,67.7,383.3,65.8z"/>
		<path fill="#231F20" d="M400.7,69l-3.8-5.2V69h-1.7v-8h1.8l3.7,5v-5h1.7v8H400.7z"/>
		<path fill="#231F20" d="M403.9,69v-8h5.7v1.5h-4v1.7h3.9v1.5h-3.9v1.8h4V69H403.9z"/>
		<path fill="#231F20" d="M410.9,69v-8h5.7v1.5h-4v1.7h3.9v1.5h-3.9v1.8h4V69H410.9z"/>
		<path fill="#231F20" d="M417.9,69v-8h3.2c2.5,0,4.2,1.6,4.2,4c0,2.4-1.7,4-4.2,4H417.9z M423.6,65c0-1.4-0.9-2.5-2.5-2.5h-1.5v5
			h1.5C422.7,67.5,423.6,66.3,423.6,65z"/>
		<path fill="#231F20" d="M435.1,69l-0.5-1.4h-3.4l-0.5,1.4h-1.9l3.1-8h2.1l3.1,8H435.1z M432.9,62.7l-1.2,3.4h2.5L432.9,62.7z"/>
		<path fill="#231F20" d="M443.4,69l-3.8-5.2V69h-1.7v-8h1.8l3.7,5v-5h1.7v8H443.4z"/>
		<path fill="#231F20" d="M357,83.4v-8h1.7v8H357z"/>
		<path fill="#231F20" d="M364.8,83.4l-1.6-2.8H362v2.8h-1.7v-8h3.7c1.7,0,2.7,1.1,2.7,2.6c0,1.4-0.9,2.2-1.8,2.4l1.8,3H364.8z
			 M365,77.9c0-0.7-0.5-1.1-1.2-1.1H362V79h1.8C364.4,79,365,78.6,365,77.9z"/>
		<path fill="#231F20" d="M368,83.4v-8h3.2c2.5,0,4.2,1.6,4.2,4c0,2.4-1.7,4-4.2,4H368z M373.7,79.4c0-1.4-0.9-2.5-2.5-2.5h-1.5v5
			h1.5C372.7,81.9,373.7,80.7,373.7,79.4z"/>
		<path fill="#231F20" d="M385.2,83.4l-3.8-5.2v5.2h-1.7v-8h1.8l3.7,5v-5h1.7v8H385.2z"/>
		<path fill="#231F20" d="M388.4,80.2v-4.8h1.7v4.8c0,1.1,0.6,1.9,1.9,1.9s1.9-0.8,1.9-1.9v-4.8h1.7v4.8c0,2-1.2,3.3-3.6,3.3
			S388.4,82.1,388.4,80.2z"/>
		<path fill="#231F20" d="M404.2,83.4v-5.6l-2.3,5.6h-0.7l-2.3-5.6v5.6h-1.7v-8h2.4l1.9,4.8l1.9-4.8h2.4v8H404.2z"/>
		<path fill="#231F20" d="M407.5,83.4v-8h4.2c1.5,0,2.3,1,2.3,2c0,1-0.6,1.7-1.4,1.8c0.9,0.1,1.5,1,1.5,2c0,1.2-0.8,2.2-2.3,2.2
			H407.5z M412.3,77.7c0-0.5-0.4-0.9-0.9-0.9h-2.1v1.7h2.1C411.9,78.6,412.3,78.2,412.3,77.7z M412.4,81c0-0.5-0.4-0.9-1-0.9h-2.2
			v1.9h2.2C412,81.9,412.4,81.5,412.4,81z"/>
		<path fill="#231F20" d="M415.4,83.4v-8h5.7v1.5h-4v1.7h3.9V80h-3.9v1.8h4v1.5H415.4z"/>
		<path fill="#231F20" d="M427,83.4l-1.6-2.8h-1.2v2.8h-1.7v-8h3.7c1.7,0,2.7,1.1,2.7,2.6c0,1.4-0.9,2.2-1.8,2.4l1.8,3H427z
			 M427.1,77.9c0-0.7-0.5-1.1-1.2-1.1h-1.8V79h1.8C426.6,79,427.1,78.6,427.1,77.9z"/>
		<path fill="#231F20" d="M431.1,79.9c0-1.4,1.8-1.6,1.8-2.4c0-0.4-0.3-0.7-0.9-0.7c-0.6,0-1.1,0.3-1.5,0.7l-1-1.1
			c0.6-0.7,1.6-1.2,2.6-1.2c1.5,0,2.5,0.8,2.5,1.9c0,1.8-2,1.9-2,2.9c0,0.2,0.1,0.4,0.2,0.5l-1.3,0.4
			C431.2,80.6,431.1,80.3,431.1,79.9z M431.1,82.5c0-0.5,0.4-1,1-1c0.5,0,1,0.4,1,1s-0.4,1-1,1C431.5,83.5,431.1,83,431.1,82.5z"/>
	</g>
</g>
<g>
	<g>
		<path fill="#010101" d="M354.2,137.8v-3.3l-3.1-4.7h1.9l2,3.2l2-3.2h1.9l-3.1,4.7v3.3H354.2z"/>
		<path fill="#010101" d="M359.7,137.8v-8h5.7v1.5h-4v1.7h3.9v1.5h-3.9v1.8h4v1.5H359.7z"/>
		<path fill="#010101" d="M366.2,136.7l0.9-1.3c0.6,0.6,1.4,1.1,2.5,1.1c0.9,0,1.4-0.4,1.4-0.9c0-1.4-4.6-0.4-4.6-3.5
			c0-1.3,1.2-2.4,3-2.4c1.3,0,2.3,0.4,3.1,1.1l-0.9,1.2c-0.6-0.6-1.5-0.9-2.3-0.9c-0.7,0-1.1,0.3-1.1,0.8c0,1.3,4.6,0.4,4.6,3.4
			c0,1.5-1,2.6-3.2,2.6C368,138,366.9,137.5,366.2,136.7z"/>
	</g>
	<g>
		<rect x="328.5" y="118.4" fill="#FFFFFF" width="67" height="30.9"/>
	</g>
	<g>
		<path fill="#231F20" d="M354.2,137.8v-3.3l-3.1-4.7h1.9l2,3.2l2-3.2h1.9l-3.1,4.7v3.3H354.2z"/>
		<path fill="#231F20" d="M359.7,137.8v-8h5.7v1.5h-4v1.7h3.9v1.5h-3.9v1.8h4v1.5H359.7z"/>
		<path fill="#231F20" d="M366.2,136.7l0.9-1.3c0.6,0.6,1.4,1.1,2.5,1.1c0.9,0,1.4-0.4,1.4-0.9c0-1.4-4.6-0.4-4.6-3.5
			c0-1.3,1.2-2.4,3-2.4c1.3,0,2.3,0.4,3.1,1.1l-0.9,1.2c-0.6-0.6-1.5-0.9-2.3-0.9c-0.7,0-1.1,0.3-1.1,0.8c0,1.3,4.6,0.4,4.6,3.4
			c0,1.5-1,2.6-3.2,2.6C368,138,366.9,137.5,366.2,136.7z"/>
	</g>
</g>
<g>
	<g>
		<path fill="#010101" d="M428.6,137.8l-3.8-5.2v5.2h-1.7v-8h1.8l3.7,5v-5h1.7v8H428.6z"/>
		<path fill="#010101" d="M431.4,133.8c0-2.4,1.8-4.1,4.2-4.1c2.4,0,4.2,1.7,4.2,4.1c0,2.4-1.8,4.1-4.2,4.1
			C433.2,138,431.4,136.2,431.4,133.8z M438,133.8c0-1.5-1-2.6-2.4-2.6c-1.5,0-2.4,1.1-2.4,2.6c0,1.5,0.9,2.6,2.4,2.6
			C437.1,136.5,438,135.3,438,133.8z"/>
	</g>
	<g>
		<rect x="400.4" y="118.4" fill="#FFFFFF" width="62.1" height="31"/>
	</g>
	<g>
		<path fill="#231F20" d="M428.6,137.8l-3.8-5.2v5.2h-1.7v-8h1.8l3.7,5v-5h1.7v8H428.6z"/>
		<path fill="#231F20" d="M431.4,133.8c0-2.4,1.8-4.1,4.2-4.1c2.4,0,4.2,1.7,4.2,4.1c0,2.4-1.8,4.1-4.2,4.1
			C433.2,138,431.4,136.2,431.4,133.8z M438,133.8c0-1.5-1-2.6-2.4-2.6c-1.5,0-2.4,1.1-2.4,2.6c0,1.5,0.9,2.6,2.4,2.6
			C437.1,136.5,438,135.3,438,133.8z"/>
	</g>
</g>
<g>
	<g>
		<path fill="#010101" d="M342.3,184.5l-0.5-1.4h-3.4l-0.5,1.4H336l3.1-8h2.1l3.1,8H342.3z M340.1,178.2l-1.2,3.4h2.5L340.1,178.2z"
			/>
		<path fill="#010101" d="M349.5,184.5l-1.6-2.8h-1.2v2.8H345v-8h3.7c1.7,0,2.7,1.1,2.7,2.6c0,1.4-0.9,2.2-1.8,2.4l1.8,3H349.5z
			 M349.7,179c0-0.7-0.5-1.1-1.2-1.1h-1.8v2.2h1.8C349.2,180.1,349.7,179.7,349.7,179z"/>
		<path fill="#010101" d="M352.7,184.5v-8h5.7v1.5h-4v1.7h3.9v1.5h-3.9v1.8h4v1.5H352.7z"/>
		<path fill="#010101" d="M365,184.5v-3.3l-3.1-4.7h1.9l2,3.2l2-3.2h1.9l-3.1,4.7v3.3H365z"/>
		<path fill="#010101" d="M369.7,180.5c0-2.4,1.8-4.1,4.2-4.1c2.4,0,4.2,1.7,4.2,4.1c0,2.4-1.8,4.1-4.2,4.1
			C371.4,184.6,369.7,182.9,369.7,180.5z M376.3,180.5c0-1.5-1-2.6-2.4-2.6c-1.5,0-2.4,1.1-2.4,2.6c0,1.5,0.9,2.6,2.4,2.6
			C375.3,183.1,376.3,182,376.3,180.5z"/>
		<path fill="#010101" d="M379.2,181.3v-4.8h1.7v4.8c0,1.1,0.6,1.9,1.9,1.9s1.9-0.8,1.9-1.9v-4.8h1.7v4.8c0,2-1.2,3.3-3.6,3.3
			S379.2,183.2,379.2,181.3z"/>
		<path fill="#010101" d="M387.8,179.6c0-0.5,0.4-1,1-1s1,0.4,1,1c0,0.5-0.4,1-1,1S387.8,180.1,387.8,179.6z M387.8,183.6
			c0-0.5,0.4-1,1-1s1,0.4,1,1s-0.4,1-1,1S387.8,184.2,387.8,183.6z"/>
		<path fill="#010101" d="M277.8,198.9v-8h1.7v8H277.8z"/>
		<path fill="#010101" d="M286.6,198.9l-3.8-5.2v5.2h-1.7v-8h1.8l3.7,5v-5h1.7v8H286.6z"/>
		<path fill="#010101" d="M289.8,198.9v-8h3.2c2.5,0,4.2,1.6,4.2,4c0,2.4-1.7,4-4.2,4H289.8z M295.5,194.9c0-1.4-0.9-2.5-2.5-2.5
			h-1.5v5h1.5C294.6,197.4,295.5,196.2,295.5,194.9z"/>
		<path fill="#010101" d="M298.4,198.9v-8h1.7v8H298.4z"/>
		<path fill="#010101" d="M304,198.9l-3.1-8h1.9l2.2,6.2l2.2-6.2h1.9l-3.1,8H304z"/>
		<path fill="#010101" d="M309.9,198.9v-8h1.7v8H309.9z"/>
		<path fill="#010101" d="M313.2,198.9v-8h3.2c2.5,0,4.2,1.6,4.2,4c0,2.4-1.7,4-4.2,4H313.2z M318.9,194.9c0-1.4-0.9-2.5-2.5-2.5
			h-1.5v5h1.5C318,197.4,318.9,196.2,318.9,194.9z"/>
		<path fill="#010101" d="M321.8,195.7v-4.8h1.7v4.7c0,1.1,0.6,1.9,1.9,1.9s1.9-0.8,1.9-1.9v-4.7h1.7v4.8c0,2-1.2,3.3-3.6,3.3
			S321.8,197.6,321.8,195.7z"/>
		<path fill="#010101" d="M335.8,198.9l-0.5-1.4h-3.4l-0.5,1.4h-1.9l3.1-8h2.1l3.1,8H335.8z M333.5,192.6l-1.2,3.4h2.5L333.5,192.6z
			"/>
		<path fill="#010101" d="M338.4,198.9v-8h1.7v6.5h3.4v1.5H338.4z"/>
		<path fill="#010101" d="M343.9,199.1l2.8-8.5h1.1l-2.8,8.5H343.9z"/>
		<path fill="#010101" d="M354.2,198.9l-3.8-5.2v5.2h-1.7v-8h1.8l3.7,5v-5h1.7v8H354.2z"/>
		<path fill="#010101" d="M357,194.9c0-2.4,1.8-4.1,4.2-4.1c2.4,0,4.2,1.7,4.2,4.1c0,2.4-1.8,4.1-4.2,4.1
			C358.8,199,357,197.3,357,194.9z M363.6,194.9c0-1.5-1-2.6-2.4-2.6c-1.5,0-2.4,1.1-2.4,2.6c0,1.5,0.9,2.6,2.4,2.6
			C362.7,197.5,363.6,196.4,363.6,194.9z"/>
		<path fill="#010101" d="M372.1,198.9l-3.8-5.2v5.2h-1.7v-8h1.8l3.7,5v-5h1.7v8H372.1z"/>
		<path fill="#010101" d="M374.9,196.6v-1.3h2.9v1.3H374.9z"/>
		<path fill="#010101" d="M378.9,198.9v-8h1.7v8H378.9z"/>
		<path fill="#010101" d="M387.7,198.9l-3.8-5.2v5.2h-1.7v-8h1.8l3.7,5v-5h1.7v8H387.7z"/>
		<path fill="#010101" d="M391,198.9v-8h3.2c2.5,0,4.2,1.6,4.2,4c0,2.4-1.7,4-4.2,4H391z M396.6,194.9c0-1.4-0.9-2.5-2.5-2.5h-1.5v5
			h1.5C395.7,197.4,396.6,196.2,396.6,194.9z"/>
		<path fill="#010101" d="M399.6,198.9v-8h1.7v8H399.6z"/>
		<path fill="#010101" d="M405.1,198.9l-3.1-8h1.9l2.2,6.2l2.2-6.2h1.9l-3.1,8H405.1z"/>
		<path fill="#010101" d="M411.1,198.9v-8h1.7v8H411.1z"/>
		<path fill="#010101" d="M414.4,198.9v-8h3.2c2.5,0,4.2,1.6,4.2,4c0,2.4-1.7,4-4.2,4H414.4z M420,194.9c0-1.4-0.9-2.5-2.5-2.5h-1.5
			v5h1.5C419.1,197.4,420,196.2,420,194.9z"/>
		<path fill="#010101" d="M423,195.7v-4.8h1.7v4.7c0,1.1,0.6,1.9,1.9,1.9s1.9-0.8,1.9-1.9v-4.7h1.7v4.8c0,2-1.2,3.3-3.6,3.3
			S423,197.6,423,195.7z"/>
		<path fill="#010101" d="M436.9,198.9l-0.5-1.4H433l-0.5,1.4h-1.9l3.1-8h2.1l3.1,8H436.9z M434.7,192.6l-1.2,3.4h2.5L434.7,192.6z"
			/>
		<path fill="#010101" d="M439.6,198.9v-8h1.7v6.5h3.4v1.5H439.6z"/>
		<path fill="#010101" d="M445.5,195.4c0-1.4,1.8-1.6,1.8-2.4c0-0.4-0.3-0.7-0.9-0.7c-0.6,0-1.1,0.3-1.5,0.7l-1-1.1
			c0.6-0.7,1.6-1.2,2.6-1.2c1.5,0,2.5,0.8,2.5,1.9c0,1.8-2,1.9-2,2.9c0,0.2,0.1,0.4,0.2,0.5l-1.3,0.4
			C445.7,196.1,445.5,195.8,445.5,195.4z M445.5,198c0-0.5,0.4-1,1-1c0.5,0,1,0.4,1,1c0,0.5-0.4,1-1,1
			C446,199,445.5,198.6,445.5,198z"/>
	</g>
	<g>
		<rect x="255.1" y="165" fill="#E5E5E5" width="216.6" height="45.4"/>
	</g>
	<g>
		<path fill="#231F20" d="M342.3,184.5l-0.5-1.4h-3.4l-0.5,1.4H336l3.1-8h2.1l3.1,8H342.3z M340.1,178.2l-1.2,3.4h2.5L340.1,178.2z"
			/>
		<path fill="#231F20" d="M349.5,184.5l-1.6-2.8h-1.2v2.8H345v-8h3.7c1.7,0,2.7,1.1,2.7,2.6c0,1.4-0.9,2.2-1.8,2.4l1.8,3H349.5z
			 M349.7,179c0-0.7-0.5-1.1-1.2-1.1h-1.8v2.2h1.8C349.2,180.1,349.7,179.7,349.7,179z"/>
		<path fill="#231F20" d="M352.7,184.5v-8h5.7v1.5h-4v1.7h3.9v1.5h-3.9v1.8h4v1.5H352.7z"/>
		<path fill="#231F20" d="M365,184.5v-3.3l-3.1-4.7h1.9l2,3.2l2-3.2h1.9l-3.1,4.7v3.3H365z"/>
		<path fill="#231F20" d="M369.7,180.5c0-2.4,1.8-4.1,4.2-4.1c2.4,0,4.2,1.7,4.2,4.1c0,2.4-1.8,4.1-4.2,4.1
			C371.4,184.6,369.7,182.9,369.7,180.5z M376.3,180.5c0-1.5-1-2.6-2.4-2.6c-1.5,0-2.4,1.1-2.4,2.6c0,1.5,0.9,2.6,2.4,2.6
			C375.3,183.1,376.3,182,376.3,180.5z"/>
		<path fill="#231F20" d="M379.2,181.3v-4.8h1.7v4.8c0,1.1,0.6,1.9,1.9,1.9s1.9-0.8,1.9-1.9v-4.8h1.7v4.8c0,2-1.2,3.3-3.6,3.3
			S379.2,183.2,379.2,181.3z"/>
		<path fill="#231F20" d="M387.8,179.6c0-0.5,0.4-1,1-1s1,0.4,1,1c0,0.5-0.4,1-1,1S387.8,180.1,387.8,179.6z M387.8,183.6
			c0-0.5,0.4-1,1-1s1,0.4,1,1s-0.4,1-1,1S387.8,184.2,387.8,183.6z"/>
		<path fill="#231F20" d="M277.8,198.9v-8h1.7v8H277.8z"/>
		<path fill="#231F20" d="M286.6,198.9l-3.8-5.2v5.2h-1.7v-8h1.8l3.7,5v-5h1.7v8H286.6z"/>
		<path fill="#231F20" d="M289.8,198.9v-8h3.2c2.5,0,4.2,1.6,4.2,4c0,2.4-1.7,4-4.2,4H289.8z M295.5,194.9c0-1.4-0.9-2.5-2.5-2.5
			h-1.5v5h1.5C294.6,197.4,295.5,196.2,295.5,194.9z"/>
		<path fill="#231F20" d="M298.4,198.9v-8h1.7v8H298.4z"/>
		<path fill="#231F20" d="M304,198.9l-3.1-8h1.9l2.2,6.2l2.2-6.2h1.9l-3.1,8H304z"/>
		<path fill="#231F20" d="M309.9,198.9v-8h1.7v8H309.9z"/>
		<path fill="#231F20" d="M313.2,198.9v-8h3.2c2.5,0,4.2,1.6,4.2,4c0,2.4-1.7,4-4.2,4H313.2z M318.9,194.9c0-1.4-0.9-2.5-2.5-2.5
			h-1.5v5h1.5C318,197.4,318.9,196.2,318.9,194.9z"/>
		<path fill="#231F20" d="M321.8,195.7v-4.8h1.7v4.7c0,1.1,0.6,1.9,1.9,1.9s1.9-0.8,1.9-1.9v-4.7h1.7v4.8c0,2-1.2,3.3-3.6,3.3
			S321.8,197.6,321.8,195.7z"/>
		<path fill="#231F20" d="M335.8,198.9l-0.5-1.4h-3.4l-0.5,1.4h-1.9l3.1-8h2.1l3.1,8H335.8z M333.5,192.6l-1.2,3.4h2.5L333.5,192.6z
			"/>
		<path fill="#231F20" d="M338.4,198.9v-8h1.7v6.5h3.4v1.5H338.4z"/>
		<path fill="#231F20" d="M343.9,199.1l2.8-8.5h1.1l-2.8,8.5H343.9z"/>
		<path fill="#231F20" d="M354.2,198.9l-3.8-5.2v5.2h-1.7v-8h1.8l3.7,5v-5h1.7v8H354.2z"/>
		<path fill="#231F20" d="M357,194.9c0-2.4,1.8-4.1,4.2-4.1c2.4,0,4.2,1.7,4.2,4.1c0,2.4-1.8,4.1-4.2,4.1
			C358.8,199,357,197.3,357,194.9z M363.6,194.9c0-1.5-1-2.6-2.4-2.6c-1.5,0-2.4,1.1-2.4,2.6c0,1.5,0.9,2.6,2.4,2.6
			C362.7,197.5,363.6,196.4,363.6,194.9z"/>
		<path fill="#231F20" d="M372.1,198.9l-3.8-5.2v5.2h-1.7v-8h1.8l3.7,5v-5h1.7v8H372.1z"/>
		<path fill="#231F20" d="M374.9,196.6v-1.3h2.9v1.3H374.9z"/>
		<path fill="#231F20" d="M378.9,198.9v-8h1.7v8H378.9z"/>
		<path fill="#231F20" d="M387.7,198.9l-3.8-5.2v5.2h-1.7v-8h1.8l3.7,5v-5h1.7v8H387.7z"/>
		<path fill="#231F20" d="M391,198.9v-8h3.2c2.5,0,4.2,1.6,4.2,4c0,2.4-1.7,4-4.2,4H391z M396.6,194.9c0-1.4-0.9-2.5-2.5-2.5h-1.5v5
			h1.5C395.7,197.4,396.6,196.2,396.6,194.9z"/>
		<path fill="#231F20" d="M399.6,198.9v-8h1.7v8H399.6z"/>
		<path fill="#231F20" d="M405.1,198.9l-3.1-8h1.9l2.2,6.2l2.2-6.2h1.9l-3.1,8H405.1z"/>
		<path fill="#231F20" d="M411.1,198.9v-8h1.7v8H411.1z"/>
		<path fill="#231F20" d="M414.4,198.9v-8h3.2c2.5,0,4.2,1.6,4.2,4c0,2.4-1.7,4-4.2,4H414.4z M420,194.9c0-1.4-0.9-2.5-2.5-2.5h-1.5
			v5h1.5C419.1,197.4,420,196.2,420,194.9z"/>
		<path fill="#231F20" d="M423,195.7v-4.8h1.7v4.7c0,1.1,0.6,1.9,1.9,1.9s1.9-0.8,1.9-1.9v-4.7h1.7v4.8c0,2-1.2,3.3-3.6,3.3
			S423,197.6,423,195.7z"/>
		<path fill="#231F20" d="M436.9,198.9l-0.5-1.4H433l-0.5,1.4h-1.9l3.1-8h2.1l3.1,8H436.9z M434.7,192.6l-1.2,3.4h2.5L434.7,192.6z"
			/>
		<path fill="#231F20" d="M439.6,198.9v-8h1.7v6.5h3.4v1.5H439.6z"/>
		<path fill="#231F20" d="M445.5,195.4c0-1.4,1.8-1.6,1.8-2.4c0-0.4-0.3-0.7-0.9-0.7c-0.6,0-1.1,0.3-1.5,0.7l-1-1.1
			c0.6-0.7,1.6-1.2,2.6-1.2c1.5,0,2.5,0.8,2.5,1.9c0,1.8-2,1.9-2,2.9c0,0.2,0.1,0.4,0.2,0.5l-1.3,0.4
			C445.7,196.1,445.5,195.8,445.5,195.4z M445.5,198c0-0.5,0.4-1,1-1c0.5,0,1,0.4,1,1c0,0.5-0.4,1-1,1
			C446,199,445.5,198.6,445.5,198z"/>
	</g>
</g>
<g>
	<g>
		<path fill="#010101" d="M271.8,301.7l-0.5-1.4h-3.4l-0.5,1.4h-1.9l3.1-8h2.1l3.1,8H271.8z M269.6,295.4l-1.2,3.4h2.5L269.6,295.4z
			"/>
		<path fill="#010101" d="M274.5,301.7v-8h3.7c1.7,0,2.7,1.2,2.7,2.6c0,1.4-1,2.6-2.7,2.6h-2v2.8H274.5z M279.2,296.3
			c0-0.7-0.5-1.1-1.2-1.1h-1.8v2.2h1.8C278.7,297.3,279.2,296.9,279.2,296.3z"/>
		<path fill="#010101" d="M282,301.7v-8h3.7c1.7,0,2.7,1.2,2.7,2.6c0,1.4-1,2.6-2.7,2.6h-2v2.8H282z M286.7,296.3
			c0-0.7-0.5-1.1-1.2-1.1h-1.8v2.2h1.8C286.2,297.3,286.7,296.9,286.7,296.3z"/>
		<path fill="#010101" d="M289.5,301.7v-8h1.7v6.5h3.4v1.5H289.5z"/>
		<path fill="#010101" d="M296.5,301.7v-3.3l-3.1-4.7h1.9l2,3.2l2-3.2h1.9l-3.1,4.7v3.3H296.5z"/>
		<path fill="#010101" d="M302,301.7v-8h1.7v8H302z"/>
		<path fill="#010101" d="M310.8,301.7l-3.8-5.2v5.2h-1.7v-8h1.8l3.7,5v-5h1.7v8H310.8z"/>
		<path fill="#010101" d="M313.6,297.7c0-2.5,1.9-4.1,4.3-4.1c1.7,0,2.7,0.8,3.3,1.8l-1.4,0.8c-0.4-0.6-1-1-1.9-1
			c-1.5,0-2.5,1.1-2.5,2.6c0,1.5,1.1,2.6,2.5,2.6c0.7,0,1.4-0.3,1.7-0.6v-1h-2.1v-1.5h3.8v3.1c-0.8,0.9-2,1.5-3.4,1.5
			C315.6,301.8,313.6,300.2,313.6,297.7z"/>
		<path fill="#010101" d="M325.7,301.7v-8h5.7v1.5h-4v1.7h3.9v1.5h-3.9v3.3H325.7z"/>
		<path fill="#010101" d="M332.2,297.7c0-2.4,1.8-4.1,4.2-4.1c2.4,0,4.2,1.7,4.2,4.1c0,2.4-1.8,4.1-4.2,4.1
			C334,301.8,332.2,300.1,332.2,297.7z M338.8,297.7c0-1.5-1-2.6-2.4-2.6c-1.5,0-2.4,1.1-2.4,2.6c0,1.5,0.9,2.6,2.4,2.6
			C337.9,300.3,338.8,299.2,338.8,297.7z"/>
		<path fill="#010101" d="M346.3,301.7l-1.6-2.8h-1.2v2.8h-1.7v-8h3.7c1.7,0,2.7,1.1,2.7,2.6c0,1.4-0.9,2.2-1.8,2.4l1.8,3H346.3z
			 M346.5,296.3c0-0.7-0.5-1.1-1.2-1.1h-1.8v2.2h1.8C345.9,297.3,346.5,296.9,346.5,296.3z"/>
		<path fill="#010101" d="M349.3,296.8c0-0.5,0.4-1,1-1s1,0.4,1,1c0,0.5-0.4,1-1,1S349.3,297.3,349.3,296.8z M349.3,300.8
			c0-0.5,0.4-1,1-1s1,0.4,1,1c0,0.5-0.4,1-1,1S349.3,301.4,349.3,300.8z"/>
		<path fill="#010101" d="M189.6,316.1v-3.3l-3.1-4.7h1.9l2,3.2l2-3.2h1.9l-3.1,4.7v3.3H189.6z"/>
		<path fill="#010101" d="M194.2,312.1c0-2.4,1.8-4.1,4.2-4.1c2.4,0,4.2,1.7,4.2,4.1c0,2.4-1.8,4.1-4.2,4.1
			C196,316.2,194.2,314.5,194.2,312.1z M200.8,312.1c0-1.5-1-2.6-2.4-2.6c-1.5,0-2.4,1.1-2.4,2.6c0,1.5,0.9,2.6,2.4,2.6
			C199.8,314.7,200.8,313.6,200.8,312.1z"/>
		<path fill="#010101" d="M203.8,312.9v-4.8h1.7v4.8c0,1.1,0.6,1.9,1.9,1.9s1.9-0.8,1.9-1.9v-4.8h1.7v4.8c0,2-1.2,3.3-3.6,3.3
			S203.8,314.9,203.8,312.9z"/>
		<path fill="#010101" d="M217.1,316.1l-1.6-2.8h-1.2v2.8h-1.7v-8h3.7c1.7,0,2.7,1.1,2.7,2.6c0,1.4-0.9,2.2-1.8,2.4l1.8,3H217.1z
			 M217.2,310.7c0-0.7-0.5-1.1-1.2-1.1h-1.8v2.2h1.8C216.7,311.7,217.2,311.3,217.2,310.7z"/>
		<path fill="#010101" d="M219.7,315l0.9-1.3c0.6,0.6,1.4,1.1,2.5,1.1c0.9,0,1.4-0.4,1.4-0.9c0-1.4-4.6-0.4-4.6-3.5
			c0-1.3,1.2-2.4,3-2.4c1.3,0,2.3,0.4,3.1,1.1l-0.9,1.2c-0.6-0.6-1.5-0.9-2.3-0.9c-0.7,0-1.1,0.3-1.1,0.8c0,1.3,4.6,0.4,4.6,3.4
			c0,1.5-1,2.6-3.2,2.6C221.6,316.2,220.5,315.7,219.7,315z"/>
		<path fill="#010101" d="M227.5,316.1v-8h5.7v1.5h-4v1.7h3.9v1.5h-3.9v1.8h4v1.5H227.5z"/>
		<path fill="#010101" d="M234.5,316.1v-8h1.7v6.5h3.4v1.5H234.5z"/>
		<path fill="#010101" d="M240.7,316.1v-8h5.7v1.5h-4v1.7h3.9v1.5h-3.9v3.3H240.7z"/>
		<path fill="#010101" d="M249.9,316.3l2.8-8.5h1.1l-2.8,8.5H249.9z"/>
		<path fill="#010101" d="M263.2,316.1l-0.5-1.4h-3.4l-0.5,1.4h-1.9l3.1-8h2.1l3.1,8H263.2z M261,309.8l-1.2,3.4h2.5L261,309.8z"/>
		<path fill="#010101" d="M268.6,312.1c0-2.5,1.9-4.1,4.3-4.1c1.8,0,2.8,1,3.3,2l-1.5,0.7c-0.3-0.6-1.1-1.2-1.9-1.2
			c-1.5,0-2.5,1.1-2.5,2.6c0,1.5,1.1,2.6,2.5,2.6c0.8,0,1.5-0.5,1.9-1.2l1.5,0.7c-0.6,1-1.6,2-3.3,2
			C270.4,316.2,268.6,314.6,268.6,312.1z"/>
		<path fill="#010101" d="M282.7,316.1v-3.4h-3.8v3.4h-1.7v-8h1.7v3.1h3.8v-3.1h1.7v8H282.7z"/>
		<path fill="#010101" d="M286,316.1v-8h1.7v8H286z"/>
		<path fill="#010101" d="M289.3,316.1v-8h1.7v6.5h3.4v1.5H289.3z"/>
		<path fill="#010101" d="M295.5,316.1v-8h3.2c2.5,0,4.2,1.6,4.2,4c0,2.4-1.7,4-4.2,4H295.5z M301.2,312.1c0-1.4-0.9-2.5-2.5-2.5
			h-1.5v5h1.5C300.3,314.6,301.2,313.5,301.2,312.1z"/>
		<path fill="#010101" d="M307.2,312.9v-4.8h1.7v4.8c0,1.1,0.6,1.9,1.9,1.9s1.9-0.8,1.9-1.9v-4.8h1.7v4.8c0,2-1.2,3.3-3.6,3.3
			S307.2,314.9,307.2,312.9z"/>
		<path fill="#010101" d="M321.5,316.1l-3.8-5.2v5.2H316v-8h1.8l3.7,5v-5h1.7v8H321.5z"/>
		<path fill="#010101" d="M324.8,316.1v-8h3.2c2.5,0,4.2,1.6,4.2,4c0,2.4-1.7,4-4.2,4H324.8z M330.4,312.1c0-1.4-0.9-2.5-2.5-2.5
			h-1.5v5h1.5C329.5,314.6,330.4,313.5,330.4,312.1z"/>
		<path fill="#010101" d="M333.4,316.1v-8h5.7v1.5h-4v1.7h3.9v1.5h-3.9v1.8h4v1.5H333.4z"/>
		<path fill="#010101" d="M344.9,316.1l-1.6-2.8h-1.2v2.8h-1.7v-8h3.7c1.7,0,2.7,1.1,2.7,2.6c0,1.4-0.9,2.2-1.8,2.4l1.8,3H344.9z
			 M345.1,310.7c0-0.7-0.5-1.1-1.2-1.1h-1.8v2.2h1.8C344.6,311.7,345.1,311.3,345.1,310.7z"/>
		<path fill="#010101" d="M352.8,316.1v-5.8l-1.3,1.4l-1-1l2.5-2.5h1.5v8H352.8z"/>
		<path fill="#010101" d="M355.7,312.1c0-2.4,1.4-4.1,3.7-4.1c1,0,1.8,0.3,2.4,0.8l-0.8,1.3c-0.4-0.4-0.9-0.6-1.6-0.6
			c-1.2,0-2,1-2,2.3c0,0.1,0,0.1,0,0.2c0.4-0.5,1.2-1,2.1-1c1.4,0,2.7,0.9,2.7,2.6c0,1.6-1.2,2.7-3.1,2.7
			C356.7,316.2,355.7,314.4,355.7,312.1z M360.5,313.5c0-0.8-0.7-1.2-1.5-1.2c-0.6,0-1.2,0.3-1.6,0.8c0.1,0.8,0.5,1.6,1.6,1.6
			C360,314.7,360.5,314.1,360.5,313.5z"/>
		<path fill="#010101" d="M368.7,316.1v-3.3l-3.1-4.7h1.9l2,3.2l2-3.2h1.9l-3.1,4.7v3.3H368.7z"/>
		<path fill="#010101" d="M374.2,316.1v-8h5.7v1.5h-4v1.7h3.9v1.5h-3.9v1.8h4v1.5H374.2z"/>
		<path fill="#010101" d="M386.7,316.1l-0.5-1.4h-3.4l-0.5,1.4h-1.9l3.1-8h2.1l3.1,8H386.7z M384.5,309.8l-1.2,3.4h2.5L384.5,309.8z
			"/>
		<path fill="#010101" d="M393.9,316.1l-1.6-2.8h-1.2v2.8h-1.7v-8h3.7c1.7,0,2.7,1.1,2.7,2.6c0,1.4-0.9,2.2-1.8,2.4l1.8,3H393.9z
			 M394.1,310.7c0-0.7-0.5-1.1-1.2-1.1h-1.8v2.2h1.8C393.6,311.7,394.1,311.3,394.1,310.7z"/>
		<path fill="#010101" d="M396.6,315l0.9-1.3c0.6,0.6,1.4,1.1,2.5,1.1c0.9,0,1.4-0.4,1.4-0.9c0-1.4-4.6-0.4-4.6-3.5
			c0-1.3,1.2-2.4,3-2.4c1.3,0,2.3,0.4,3.1,1.1l-0.9,1.2c-0.6-0.6-1.5-0.9-2.3-0.9c-0.7,0-1.1,0.3-1.1,0.8c0,1.3,4.6,0.4,4.6,3.4
			c0,1.5-1,2.6-3.2,2.6C398.4,316.2,397.3,315.7,396.6,315z"/>
		<path fill="#010101" d="M407,312.1c0-2.4,1.8-4.1,4.2-4.1c2.4,0,4.2,1.7,4.2,4.1c0,2.4-1.8,4.1-4.2,4.1
			C408.8,316.2,407,314.5,407,312.1z M413.6,312.1c0-1.5-1-2.6-2.4-2.6c-1.5,0-2.4,1.1-2.4,2.6c0,1.5,0.9,2.6,2.4,2.6
			C412.7,314.7,413.6,313.6,413.6,312.1z"/>
		<path fill="#010101" d="M416.6,316.1v-8h1.7v6.5h3.4v1.5H416.6z"/>
		<path fill="#010101" d="M422.9,316.1v-8h3.2c2.5,0,4.2,1.6,4.2,4c0,2.4-1.7,4-4.2,4H422.9z M428.5,312.1c0-1.4-0.9-2.5-2.5-2.5
			h-1.5v5h1.5C427.6,314.6,428.5,313.5,428.5,312.1z"/>
	</g>
	<g>
		<rect x="163.8" y="282.2" fill="#E5E5E5" width="289.2" height="45.4"/>
	</g>
	<g>
		<path fill="#231F20" d="M271.8,301.7l-0.5-1.4h-3.4l-0.5,1.4h-1.9l3.1-8h2.1l3.1,8H271.8z M269.6,295.4l-1.2,3.4h2.5L269.6,295.4z
			"/>
		<path fill="#231F20" d="M274.5,301.7v-8h3.7c1.7,0,2.7,1.2,2.7,2.6c0,1.4-1,2.6-2.7,2.6h-2v2.8H274.5z M279.2,296.3
			c0-0.7-0.5-1.1-1.2-1.1h-1.8v2.2h1.8C278.7,297.3,279.2,296.9,279.2,296.3z"/>
		<path fill="#231F20" d="M282,301.7v-8h3.7c1.7,0,2.7,1.2,2.7,2.6c0,1.4-1,2.6-2.7,2.6h-2v2.8H282z M286.7,296.3
			c0-0.7-0.5-1.1-1.2-1.1h-1.8v2.2h1.8C286.2,297.3,286.7,296.9,286.7,296.3z"/>
		<path fill="#231F20" d="M289.5,301.7v-8h1.7v6.5h3.4v1.5H289.5z"/>
		<path fill="#231F20" d="M296.5,301.7v-3.3l-3.1-4.7h1.9l2,3.2l2-3.2h1.9l-3.1,4.7v3.3H296.5z"/>
		<path fill="#231F20" d="M302,301.7v-8h1.7v8H302z"/>
		<path fill="#231F20" d="M310.8,301.7l-3.8-5.2v5.2h-1.7v-8h1.8l3.7,5v-5h1.7v8H310.8z"/>
		<path fill="#231F20" d="M313.6,297.7c0-2.5,1.9-4.1,4.3-4.1c1.7,0,2.7,0.8,3.3,1.8l-1.4,0.8c-0.4-0.6-1-1-1.9-1
			c-1.5,0-2.5,1.1-2.5,2.6c0,1.5,1.1,2.6,2.5,2.6c0.7,0,1.4-0.3,1.7-0.6v-1h-2.1v-1.5h3.8v3.1c-0.8,0.9-2,1.5-3.4,1.5
			C315.6,301.8,313.6,300.2,313.6,297.7z"/>
		<path fill="#231F20" d="M325.7,301.7v-8h5.7v1.5h-4v1.7h3.9v1.5h-3.9v3.3H325.7z"/>
		<path fill="#231F20" d="M332.2,297.7c0-2.4,1.8-4.1,4.2-4.1c2.4,0,4.2,1.7,4.2,4.1c0,2.4-1.8,4.1-4.2,4.1
			C334,301.8,332.2,300.1,332.2,297.7z M338.8,297.7c0-1.5-1-2.6-2.4-2.6c-1.5,0-2.4,1.1-2.4,2.6c0,1.5,0.9,2.6,2.4,2.6
			C337.9,300.3,338.8,299.2,338.8,297.7z"/>
		<path fill="#231F20" d="M346.3,301.7l-1.6-2.8h-1.2v2.8h-1.7v-8h3.7c1.7,0,2.7,1.1,2.7,2.6c0,1.4-0.9,2.2-1.8,2.4l1.8,3H346.3z
			 M346.5,296.3c0-0.7-0.5-1.1-1.2-1.1h-1.8v2.2h1.8C345.9,297.3,346.5,296.9,346.5,296.3z"/>
		<path fill="#231F20" d="M349.3,296.8c0-0.5,0.4-1,1-1s1,0.4,1,1c0,0.5-0.4,1-1,1S349.3,297.3,349.3,296.8z M349.3,300.8
			c0-0.5,0.4-1,1-1s1,0.4,1,1c0,0.5-0.4,1-1,1S349.3,301.4,349.3,300.8z"/>
		<path fill="#231F20" d="M189.6,316.1v-3.3l-3.1-4.7h1.9l2,3.2l2-3.2h1.9l-3.1,4.7v3.3H189.6z"/>
		<path fill="#231F20" d="M194.2,312.1c0-2.4,1.8-4.1,4.2-4.1c2.4,0,4.2,1.7,4.2,4.1c0,2.4-1.8,4.1-4.2,4.1
			C196,316.2,194.2,314.5,194.2,312.1z M200.8,312.1c0-1.5-1-2.6-2.4-2.6c-1.5,0-2.4,1.1-2.4,2.6c0,1.5,0.9,2.6,2.4,2.6
			C199.8,314.7,200.8,313.6,200.8,312.1z"/>
		<path fill="#231F20" d="M203.8,312.9v-4.8h1.7v4.8c0,1.1,0.6,1.9,1.9,1.9s1.9-0.8,1.9-1.9v-4.8h1.7v4.8c0,2-1.2,3.3-3.6,3.3
			S203.8,314.9,203.8,312.9z"/>
		<path fill="#231F20" d="M217.1,316.1l-1.6-2.8h-1.2v2.8h-1.7v-8h3.7c1.7,0,2.7,1.1,2.7,2.6c0,1.4-0.9,2.2-1.8,2.4l1.8,3H217.1z
			 M217.2,310.7c0-0.7-0.5-1.1-1.2-1.1h-1.8v2.2h1.8C216.7,311.7,217.2,311.3,217.2,310.7z"/>
		<path fill="#231F20" d="M219.7,315l0.9-1.3c0.6,0.6,1.4,1.1,2.5,1.1c0.9,0,1.4-0.4,1.4-0.9c0-1.4-4.6-0.4-4.6-3.5
			c0-1.3,1.2-2.4,3-2.4c1.3,0,2.3,0.4,3.1,1.1l-0.9,1.2c-0.6-0.6-1.5-0.9-2.3-0.9c-0.7,0-1.1,0.3-1.1,0.8c0,1.3,4.6,0.4,4.6,3.4
			c0,1.5-1,2.6-3.2,2.6C221.6,316.2,220.5,315.7,219.7,315z"/>
		<path fill="#231F20" d="M227.5,316.1v-8h5.7v1.5h-4v1.7h3.9v1.5h-3.9v1.8h4v1.5H227.5z"/>
		<path fill="#231F20" d="M234.5,316.1v-8h1.7v6.5h3.4v1.5H234.5z"/>
		<path fill="#231F20" d="M240.7,316.1v-8h5.7v1.5h-4v1.7h3.9v1.5h-3.9v3.3H240.7z"/>
		<path fill="#231F20" d="M249.9,316.3l2.8-8.5h1.1l-2.8,8.5H249.9z"/>
		<path fill="#231F20" d="M263.2,316.1l-0.5-1.4h-3.4l-0.5,1.4h-1.9l3.1-8h2.1l3.1,8H263.2z M261,309.8l-1.2,3.4h2.5L261,309.8z"/>
		<path fill="#231F20" d="M268.6,312.1c0-2.5,1.9-4.1,4.3-4.1c1.8,0,2.8,1,3.3,2l-1.5,0.7c-0.3-0.6-1.1-1.2-1.9-1.2
			c-1.5,0-2.5,1.1-2.5,2.6c0,1.5,1.1,2.6,2.5,2.6c0.8,0,1.5-0.5,1.9-1.2l1.5,0.7c-0.6,1-1.6,2-3.3,2
			C270.4,316.2,268.6,314.6,268.6,312.1z"/>
		<path fill="#231F20" d="M282.7,316.1v-3.4h-3.8v3.4h-1.7v-8h1.7v3.1h3.8v-3.1h1.7v8H282.7z"/>
		<path fill="#231F20" d="M286,316.1v-8h1.7v8H286z"/>
		<path fill="#231F20" d="M289.3,316.1v-8h1.7v6.5h3.4v1.5H289.3z"/>
		<path fill="#231F20" d="M295.5,316.1v-8h3.2c2.5,0,4.2,1.6,4.2,4c0,2.4-1.7,4-4.2,4H295.5z M301.2,312.1c0-1.4-0.9-2.5-2.5-2.5
			h-1.5v5h1.5C300.3,314.6,301.2,313.5,301.2,312.1z"/>
		<path fill="#231F20" d="M307.2,312.9v-4.8h1.7v4.8c0,1.1,0.6,1.9,1.9,1.9s1.9-0.8,1.9-1.9v-4.8h1.7v4.8c0,2-1.2,3.3-3.6,3.3
			S307.2,314.9,307.2,312.9z"/>
		<path fill="#231F20" d="M321.5,316.1l-3.8-5.2v5.2H316v-8h1.8l3.7,5v-5h1.7v8H321.5z"/>
		<path fill="#231F20" d="M324.8,316.1v-8h3.2c2.5,0,4.2,1.6,4.2,4c0,2.4-1.7,4-4.2,4H324.8z M330.4,312.1c0-1.4-0.9-2.5-2.5-2.5
			h-1.5v5h1.5C329.5,314.6,330.4,313.5,330.4,312.1z"/>
		<path fill="#231F20" d="M333.4,316.1v-8h5.7v1.5h-4v1.7h3.9v1.5h-3.9v1.8h4v1.5H333.4z"/>
		<path fill="#231F20" d="M344.9,316.1l-1.6-2.8h-1.2v2.8h-1.7v-8h3.7c1.7,0,2.7,1.1,2.7,2.6c0,1.4-0.9,2.2-1.8,2.4l1.8,3H344.9z
			 M345.1,310.7c0-0.7-0.5-1.1-1.2-1.1h-1.8v2.2h1.8C344.6,311.7,345.1,311.3,345.1,310.7z"/>
		<path fill="#231F20" d="M352.8,316.1v-5.8l-1.3,1.4l-1-1l2.5-2.5h1.5v8H352.8z"/>
		<path fill="#231F20" d="M355.7,312.1c0-2.4,1.4-4.1,3.7-4.1c1,0,1.8,0.3,2.4,0.8l-0.8,1.3c-0.4-0.4-0.9-0.6-1.6-0.6
			c-1.2,0-2,1-2,2.3c0,0.1,0,0.1,0,0.2c0.4-0.5,1.2-1,2.1-1c1.4,0,2.7,0.9,2.7,2.6c0,1.6-1.2,2.7-3.1,2.7
			C356.7,316.2,355.7,314.4,355.7,312.1z M360.5,313.5c0-0.8-0.7-1.2-1.5-1.2c-0.6,0-1.2,0.3-1.6,0.8c0.1,0.8,0.5,1.6,1.6,1.6
			C360,314.7,360.5,314.1,360.5,313.5z"/>
		<path fill="#231F20" d="M368.7,316.1v-3.3l-3.1-4.7h1.9l2,3.2l2-3.2h1.9l-3.1,4.7v3.3H368.7z"/>
		<path fill="#231F20" d="M374.2,316.1v-8h5.7v1.5h-4v1.7h3.9v1.5h-3.9v1.8h4v1.5H374.2z"/>
		<path fill="#231F20" d="M386.7,316.1l-0.5-1.4h-3.4l-0.5,1.4h-1.9l3.1-8h2.1l3.1,8H386.7z M384.5,309.8l-1.2,3.4h2.5L384.5,309.8z
			"/>
		<path fill="#231F20" d="M393.9,316.1l-1.6-2.8h-1.2v2.8h-1.7v-8h3.7c1.7,0,2.7,1.1,2.7,2.6c0,1.4-0.9,2.2-1.8,2.4l1.8,3H393.9z
			 M394.1,310.7c0-0.7-0.5-1.1-1.2-1.1h-1.8v2.2h1.8C393.6,311.7,394.1,311.3,394.1,310.7z"/>
		<path fill="#231F20" d="M396.6,315l0.9-1.3c0.6,0.6,1.4,1.1,2.5,1.1c0.9,0,1.4-0.4,1.4-0.9c0-1.4-4.6-0.4-4.6-3.5
			c0-1.3,1.2-2.4,3-2.4c1.3,0,2.3,0.4,3.1,1.1l-0.9,1.2c-0.6-0.6-1.5-0.9-2.3-0.9c-0.7,0-1.1,0.3-1.1,0.8c0,1.3,4.6,0.4,4.6,3.4
			c0,1.5-1,2.6-3.2,2.6C398.4,316.2,397.3,315.7,396.6,315z"/>
		<path fill="#231F20" d="M407,312.1c0-2.4,1.8-4.1,4.2-4.1c2.4,0,4.2,1.7,4.2,4.1c0,2.4-1.8,4.1-4.2,4.1
			C408.8,316.2,407,314.5,407,312.1z M413.6,312.1c0-1.5-1-2.6-2.4-2.6c-1.5,0-2.4,1.1-2.4,2.6c0,1.5,0.9,2.6,2.4,2.6
			C412.7,314.7,413.6,313.6,413.6,312.1z"/>
		<path fill="#231F20" d="M416.6,316.1v-8h1.7v6.5h3.4v1.5H416.6z"/>
		<path fill="#231F20" d="M422.9,316.1v-8h3.2c2.5,0,4.2,1.6,4.2,4c0,2.4-1.7,4-4.2,4H422.9z M428.5,312.1c0-1.4-0.9-2.5-2.5-2.5
			h-1.5v5h1.5C427.6,314.6,428.5,313.5,428.5,312.1z"/>
	</g>
</g>
<g>
	<g>
		<path fill="#010101" d="M519.2,256.9l-3.8-5.2v5.2h-1.7v-8h1.8l3.7,5v-5h1.7v8H519.2z"/>
		<path fill="#010101" d="M522,252.9c0-2.4,1.8-4.1,4.2-4.1c2.4,0,4.2,1.7,4.2,4.1c0,2.4-1.8,4.1-4.2,4.1
			C523.8,257.1,522,255.3,522,252.9z M528.6,252.9c0-1.5-1-2.6-2.4-2.6c-1.5,0-2.4,1.1-2.4,2.6c0,1.5,0.9,2.6,2.4,2.6
			C527.6,255.5,528.6,254.4,528.6,252.9z"/>
		<path fill="#010101" d="M537.1,256.9l-3.8-5.2v5.2h-1.7v-8h1.8l3.7,5v-5h1.7v8H537.1z"/>
		<path fill="#010101" d="M539.9,254.7v-1.3h2.9v1.3H539.9z"/>
		<path fill="#010101" d="M543.9,256.9v-8h1.7v8H543.9z"/>
		<path fill="#010101" d="M552.7,256.9l-3.8-5.2v5.2h-1.7v-8h1.8l3.7,5v-5h1.7v8H552.7z"/>
		<path fill="#010101" d="M555.9,256.9v-8h3.2c2.5,0,4.2,1.6,4.2,4c0,2.4-1.7,4-4.2,4H555.9z M561.6,252.9c0-1.4-0.9-2.5-2.5-2.5
			h-1.5v5h1.5C560.7,255.4,561.6,254.3,561.6,252.9z"/>
		<path fill="#010101" d="M564.6,256.9v-8h1.7v8H564.6z"/>
		<path fill="#010101" d="M570.1,256.9l-3.1-8h1.9l2.2,6.2l2.2-6.2h1.9l-3.1,8H570.1z"/>
		<path fill="#010101" d="M576.1,256.9v-8h1.7v8H576.1z"/>
		<path fill="#010101" d="M579.3,256.9v-8h3.2c2.5,0,4.2,1.6,4.2,4c0,2.4-1.7,4-4.2,4H579.3z M585,252.9c0-1.4-0.9-2.5-2.5-2.5h-1.5
			v5h1.5C584.1,255.4,585,254.3,585,252.9z"/>
		<path fill="#010101" d="M588,253.7v-4.8h1.7v4.8c0,1.1,0.6,1.9,1.9,1.9s1.9-0.8,1.9-1.9v-4.8h1.7v4.8c0,2-1.2,3.3-3.6,3.3
			S588,255.7,588,253.7z"/>
		<path fill="#010101" d="M601.9,256.9l-0.5-1.4H598l-0.5,1.4h-1.9l3.1-8h2.1l3.1,8H601.9z M599.7,250.6l-1.2,3.4h2.5L599.7,250.6z"
			/>
		<path fill="#010101" d="M604.6,256.9v-8h1.7v6.5h3.4v1.5H604.6z"/>
	</g>
	<g>
		<rect x="491" y="237.4" fill="#FFFFFF" width="141.4" height="31"/>
	</g>
	<g>
		<path fill="#231F20" d="M519.2,256.9l-3.8-5.2v5.2h-1.7v-8h1.8l3.7,5v-5h1.7v8H519.2z"/>
		<path fill="#231F20" d="M522,252.9c0-2.4,1.8-4.1,4.2-4.1c2.4,0,4.2,1.7,4.2,4.1c0,2.4-1.8,4.1-4.2,4.1
			C523.8,257.1,522,255.3,522,252.9z M528.6,252.9c0-1.5-1-2.6-2.4-2.6c-1.5,0-2.4,1.1-2.4,2.6c0,1.5,0.9,2.6,2.4,2.6
			C527.6,255.5,528.6,254.4,528.6,252.9z"/>
		<path fill="#231F20" d="M537.1,256.9l-3.8-5.2v5.2h-1.7v-8h1.8l3.7,5v-5h1.7v8H537.1z"/>
		<path fill="#231F20" d="M539.9,254.7v-1.3h2.9v1.3H539.9z"/>
		<path fill="#231F20" d="M543.9,256.9v-8h1.7v8H543.9z"/>
		<path fill="#231F20" d="M552.7,256.9l-3.8-5.2v5.2h-1.7v-8h1.8l3.7,5v-5h1.7v8H552.7z"/>
		<path fill="#231F20" d="M555.9,256.9v-8h3.2c2.5,0,4.2,1.6,4.2,4c0,2.4-1.7,4-4.2,4H555.9z M561.6,252.9c0-1.4-0.9-2.5-2.5-2.5
			h-1.5v5h1.5C560.7,255.4,561.6,254.3,561.6,252.9z"/>
		<path fill="#231F20" d="M564.6,256.9v-8h1.7v8H564.6z"/>
		<path fill="#231F20" d="M570.1,256.9l-3.1-8h1.9l2.2,6.2l2.2-6.2h1.9l-3.1,8H570.1z"/>
		<path fill="#231F20" d="M576.1,256.9v-8h1.7v8H576.1z"/>
		<path fill="#231F20" d="M579.3,256.9v-8h3.2c2.5,0,4.2,1.6,4.2,4c0,2.4-1.7,4-4.2,4H579.3z M585,252.9c0-1.4-0.9-2.5-2.5-2.5h-1.5
			v5h1.5C584.1,255.4,585,254.3,585,252.9z"/>
		<path fill="#231F20" d="M588,253.7v-4.8h1.7v4.8c0,1.1,0.6,1.9,1.9,1.9s1.9-0.8,1.9-1.9v-4.8h1.7v4.8c0,2-1.2,3.3-3.6,3.3
			S588,255.7,588,253.7z"/>
		<path fill="#231F20" d="M601.9,256.9l-0.5-1.4H598l-0.5,1.4h-1.9l3.1-8h2.1l3.1,8H601.9z M599.7,250.6l-1.2,3.4h2.5L599.7,250.6z"
			/>
		<path fill="#231F20" d="M604.6,256.9v-8h1.7v6.5h3.4v1.5H604.6z"/>
	</g>
</g>
<g>
	<g>
		<path fill="#010101" d="M275.9,256.9v-8h1.7v8H275.9z"/>
		<path fill="#010101" d="M284.7,256.9l-3.8-5.2v5.2h-1.7v-8h1.8l3.7,5v-5h1.7v8H284.7z"/>
		<path fill="#010101" d="M288,256.9v-8h3.2c2.5,0,4.2,1.6,4.2,4c0,2.4-1.7,4-4.2,4H288z M293.6,252.9c0-1.4-0.9-2.5-2.5-2.5h-1.5v5
			h1.5C292.7,255.4,293.6,254.3,293.6,252.9z"/>
		<path fill="#010101" d="M296.6,256.9v-8h1.7v8H296.6z"/>
		<path fill="#010101" d="M302.1,256.9l-3.1-8h1.9l2.2,6.2l2.2-6.2h1.9l-3.1,8H302.1z"/>
		<path fill="#010101" d="M308.1,256.9v-8h1.7v8H308.1z"/>
		<path fill="#010101" d="M311.4,256.9v-8h3.2c2.5,0,4.2,1.6,4.2,4c0,2.4-1.7,4-4.2,4H311.4z M317,252.9c0-1.4-0.9-2.5-2.5-2.5h-1.5
			v5h1.5C316.1,255.4,317,254.3,317,252.9z"/>
		<path fill="#010101" d="M320,253.7v-4.8h1.7v4.8c0,1.1,0.6,1.9,1.9,1.9s1.9-0.8,1.9-1.9v-4.8h1.7v4.8c0,2-1.2,3.3-3.6,3.3
			S320,255.7,320,253.7z"/>
		<path fill="#010101" d="M333.9,256.9l-0.5-1.4H330l-0.5,1.4h-1.9l3.1-8h2.1l3.1,8H333.9z M331.7,250.6l-1.2,3.4h2.5L331.7,250.6z"
			/>
		<path fill="#010101" d="M336.6,256.9v-8h1.7v6.5h3.4v1.5H336.6z"/>
	</g>
	<g>
		<rect x="253.3" y="237.6" fill="#FFFFFF" width="111.1" height="30.8"/>
	</g>
	<g>
		<path fill="#231F20" d="M275.9,256.9v-8h1.7v8H275.9z"/>
		<path fill="#231F20" d="M284.7,256.9l-3.8-5.2v5.2h-1.7v-8h1.8l3.7,5v-5h1.7v8H284.7z"/>
		<path fill="#231F20" d="M288,256.9v-8h3.2c2.5,0,4.2,1.6,4.2,4c0,2.4-1.7,4-4.2,4H288z M293.6,252.9c0-1.4-0.9-2.5-2.5-2.5h-1.5v5
			h1.5C292.7,255.4,293.6,254.3,293.6,252.9z"/>
		<path fill="#231F20" d="M296.6,256.9v-8h1.7v8H296.6z"/>
		<path fill="#231F20" d="M302.1,256.9l-3.1-8h1.9l2.2,6.2l2.2-6.2h1.9l-3.1,8H302.1z"/>
		<path fill="#231F20" d="M308.1,256.9v-8h1.7v8H308.1z"/>
		<path fill="#231F20" d="M311.4,256.9v-8h3.2c2.5,0,4.2,1.6,4.2,4c0,2.4-1.7,4-4.2,4H311.4z M317,252.9c0-1.4-0.9-2.5-2.5-2.5h-1.5
			v5h1.5C316.1,255.4,317,254.3,317,252.9z"/>
		<path fill="#231F20" d="M320,253.7v-4.8h1.7v4.8c0,1.1,0.6,1.9,1.9,1.9s1.9-0.8,1.9-1.9v-4.8h1.7v4.8c0,2-1.2,3.3-3.6,3.3
			S320,255.7,320,253.7z"/>
		<path fill="#231F20" d="M333.9,256.9l-0.5-1.4H330l-0.5,1.4h-1.9l3.1-8h2.1l3.1,8H333.9z M331.7,250.6l-1.2,3.4h2.5L331.7,250.6z"
			/>
		<path fill="#231F20" d="M336.6,256.9v-8h1.7v6.5h3.4v1.5H336.6z"/>
	</g>
</g>
<g>
	<g>
		<path fill="#010101" d="M205.4,375.1v-5.6l-2.3,5.6h-0.7l-2.3-5.6v5.6h-1.7v-8h2.4l1.9,4.8l1.9-4.8h2.4v8H205.4z"/>
		<path fill="#010101" d="M211,375.1v-3.3l-3.1-4.7h1.9l2,3.2l2-3.2h1.9l-3.1,4.7v3.3H211z"/>
		<path fill="#010101" d="M215.7,374l0.9-1.3c0.6,0.6,1.4,1.1,2.5,1.1c0.9,0,1.4-0.4,1.4-0.9c0-1.4-4.6-0.4-4.6-3.5
			c0-1.3,1.2-2.4,3-2.4c1.3,0,2.3,0.4,3.1,1.1l-0.9,1.2c-0.6-0.6-1.5-0.9-2.3-0.9c-0.7,0-1.1,0.3-1.1,0.8c0,1.3,4.6,0.4,4.6,3.4
			c0,1.5-1,2.6-3.2,2.6C217.5,375.3,216.4,374.7,215.7,374z"/>
		<path fill="#010101" d="M223.4,375.1v-8h5.7v1.5h-4v1.7h3.9v1.5h-3.9v1.8h4v1.5H223.4z"/>
		<path fill="#010101" d="M230.4,375.1v-8h1.7v6.5h3.4v1.5H230.4z"/>
		<path fill="#010101" d="M236.7,375.1v-8h5.7v1.5h-4v1.7h3.9v1.5h-3.9v3.3H236.7z"/>
	</g>
	<g>
		<rect x="175.8" y="355.7" fill="#FFFFFF" width="89.2" height="30.9"/>
	</g>
	<g>
		<path fill="#231F20" d="M205.4,375.1v-5.6l-2.3,5.6h-0.7l-2.3-5.6v5.6h-1.7v-8h2.4l1.9,4.8l1.9-4.8h2.4v8H205.4z"/>
		<path fill="#231F20" d="M211,375.1v-3.3l-3.1-4.7h1.9l2,3.2l2-3.2h1.9l-3.1,4.7v3.3H211z"/>
		<path fill="#231F20" d="M215.7,374l0.9-1.3c0.6,0.6,1.4,1.1,2.5,1.1c0.9,0,1.4-0.4,1.4-0.9c0-1.4-4.6-0.4-4.6-3.5
			c0-1.3,1.2-2.4,3-2.4c1.3,0,2.3,0.4,3.1,1.1l-0.9,1.2c-0.6-0.6-1.5-0.9-2.3-0.9c-0.7,0-1.1,0.3-1.1,0.8c0,1.3,4.6,0.4,4.6,3.4
			c0,1.5-1,2.6-3.2,2.6C217.5,375.3,216.4,374.7,215.7,374z"/>
		<path fill="#231F20" d="M223.4,375.1v-8h5.7v1.5h-4v1.7h3.9v1.5h-3.9v1.8h4v1.5H223.4z"/>
		<path fill="#231F20" d="M230.4,375.1v-8h1.7v6.5h3.4v1.5H230.4z"/>
		<path fill="#231F20" d="M236.7,375.1v-8h5.7v1.5h-4v1.7h3.9v1.5h-3.9v3.3H236.7z"/>
	</g>
</g>
<g>
	<g>
		<path fill="#010101" d="M298.1,375.1l-0.5-1.4h-3.4l-0.5,1.4h-1.9l3.1-8h2.1l3.1,8H298.1z M295.9,368.8l-1.2,3.4h2.5L295.9,368.8z
			"/>
		<path fill="#010101" d="M303.5,371.1c0-2.5,1.9-4.1,4.3-4.1c1.8,0,2.8,1,3.3,2l-1.5,0.7c-0.3-0.6-1.1-1.2-1.9-1.2
			c-1.5,0-2.5,1.1-2.5,2.6c0,1.5,1.1,2.6,2.5,2.6c0.8,0,1.5-0.5,1.9-1.2l1.5,0.7c-0.6,1-1.6,2-3.3,2
			C305.4,375.3,303.5,373.6,303.5,371.1z"/>
		<path fill="#010101" d="M317.6,375.1v-3.4h-3.8v3.4h-1.7v-8h1.7v3.1h3.8v-3.1h1.7v8H317.6z"/>
		<path fill="#010101" d="M320.9,375.1v-8h1.7v8H320.9z"/>
		<path fill="#010101" d="M324.2,375.1v-8h1.7v6.5h3.4v1.5H324.2z"/>
		<path fill="#010101" d="M330.5,375.1v-8h3.2c2.5,0,4.2,1.6,4.2,4c0,2.4-1.7,4-4.2,4H330.5z M336.1,371.1c0-1.4-0.9-2.5-2.5-2.5
			h-1.5v5h1.5C335.2,373.6,336.1,372.5,336.1,371.1z"/>
		<path fill="#010101" d="M342.2,371.9v-4.8h1.7v4.7c0,1.1,0.6,1.9,1.9,1.9s1.9-0.8,1.9-1.9v-4.7h1.7v4.8c0,2-1.2,3.3-3.6,3.3
			S342.2,373.9,342.2,371.9z"/>
		<path fill="#010101" d="M356.5,375.1l-3.8-5.2v5.2H351v-8h1.8l3.7,5v-5h1.7v8H356.5z"/>
		<path fill="#010101" d="M359.7,375.1v-8h3.2c2.5,0,4.2,1.6,4.2,4c0,2.4-1.7,4-4.2,4H359.7z M365.4,371.1c0-1.4-0.9-2.5-2.5-2.5
			h-1.5v5h1.5C364.4,373.6,365.4,372.5,365.4,371.1z"/>
		<path fill="#010101" d="M368.3,375.1v-8h5.7v1.5h-4v1.7h3.9v1.5H370v1.8h4v1.5H368.3z"/>
		<path fill="#010101" d="M379.8,375.1l-1.6-2.8H377v2.8h-1.7v-8h3.7c1.7,0,2.7,1.1,2.7,2.6c0,1.4-0.9,2.2-1.8,2.4l1.8,3H379.8z
			 M380,369.7c0-0.7-0.5-1.1-1.2-1.1H377v2.2h1.8C379.5,370.8,380,370.4,380,369.7z"/>
		<path fill="#010101" d="M387.7,375.1v-5.8l-1.3,1.4l-1-1l2.5-2.5h1.5v8H387.7z"/>
		<path fill="#010101" d="M390.7,371.1c0-2.4,1.4-4.1,3.7-4.1c1,0,1.8,0.3,2.4,0.8l-0.8,1.3c-0.4-0.4-0.9-0.6-1.6-0.6
			c-1.2,0-2,1-2,2.3c0,0.1,0,0.1,0,0.2c0.4-0.5,1.2-1,2.1-1c1.4,0,2.7,0.9,2.7,2.6c0,1.6-1.2,2.7-3.1,2.7
			C391.7,375.3,390.7,373.4,390.7,371.1z M395.4,372.6c0-0.8-0.7-1.2-1.5-1.2c-0.6,0-1.2,0.3-1.6,0.8c0.1,0.8,0.5,1.6,1.6,1.6
			C394.9,373.7,395.4,373.1,395.4,372.6z"/>
		<path fill="#010101" d="M400.6,375.1v-3.3l-3.1-4.7h1.9l2,3.2l2-3.2h1.9l-3.1,4.7v3.3H400.6z"/>
		<path fill="#010101" d="M406.1,375.1v-8h5.7v1.5h-4v1.7h3.9v1.5h-3.9v1.8h4v1.5H406.1z"/>
		<path fill="#010101" d="M418.6,375.1l-0.5-1.4h-3.4l-0.5,1.4h-1.9l3.1-8h2.1l3.1,8H418.6z M416.4,368.8l-1.2,3.4h2.5L416.4,368.8z
			"/>
		<path fill="#010101" d="M425.8,375.1l-1.6-2.8H423v2.8h-1.7v-8h3.7c1.7,0,2.7,1.1,2.7,2.6c0,1.4-0.9,2.2-1.8,2.4l1.8,3H425.8z
			 M426,369.7c0-0.7-0.5-1.1-1.2-1.1H423v2.2h1.8C425.4,370.8,426,370.4,426,369.7z"/>
		<path fill="#010101" d="M428.5,374l0.9-1.3c0.6,0.6,1.4,1.1,2.5,1.1c0.9,0,1.4-0.4,1.4-0.9c0-1.4-4.6-0.4-4.6-3.5
			c0-1.3,1.2-2.4,3-2.4c1.3,0,2.3,0.4,3.1,1.1l-0.9,1.2c-0.6-0.6-1.5-0.9-2.3-0.9c-0.7,0-1.1,0.3-1.1,0.8c0,1.3,4.6,0.4,4.6,3.4
			c0,1.5-1,2.6-3.2,2.6C430.3,375.3,429.2,374.7,428.5,374z"/>
		<path fill="#010101" d="M438.9,371.1c0-2.4,1.8-4.1,4.2-4.1c2.4,0,4.2,1.7,4.2,4.1c0,2.4-1.8,4.1-4.2,4.1
			C440.6,375.3,438.9,373.5,438.9,371.1z M445.5,371.1c0-1.5-1-2.6-2.4-2.6c-1.5,0-2.4,1.1-2.4,2.6c0,1.5,0.9,2.6,2.4,2.6
			C444.5,373.7,445.5,372.6,445.5,371.1z"/>
		<path fill="#010101" d="M448.4,375.1v-8h1.7v6.5h3.4v1.5H448.4z"/>
		<path fill="#010101" d="M454.7,375.1v-8h3.2c2.5,0,4.2,1.6,4.2,4c0,2.4-1.7,4-4.2,4H454.7z M460.4,371.1c0-1.4-0.9-2.5-2.5-2.5
			h-1.5v5h1.5C459.5,373.6,460.4,372.5,460.4,371.1z"/>
	</g>
	<g>
		<rect x="269.1" y="355.6" fill="#FFFFFF" width="215.7" height="31"/>
	</g>
	<g>
		<path fill="#231F20" d="M298.1,375.1l-0.5-1.4h-3.4l-0.5,1.4h-1.9l3.1-8h2.1l3.1,8H298.1z M295.9,368.8l-1.2,3.4h2.5L295.9,368.8z
			"/>
		<path fill="#231F20" d="M303.5,371.1c0-2.5,1.9-4.1,4.3-4.1c1.8,0,2.8,1,3.3,2l-1.5,0.7c-0.3-0.6-1.1-1.2-1.9-1.2
			c-1.5,0-2.5,1.1-2.5,2.6c0,1.5,1.1,2.6,2.5,2.6c0.8,0,1.5-0.5,1.9-1.2l1.5,0.7c-0.6,1-1.6,2-3.3,2
			C305.4,375.3,303.5,373.6,303.5,371.1z"/>
		<path fill="#231F20" d="M317.6,375.1v-3.4h-3.8v3.4h-1.7v-8h1.7v3.1h3.8v-3.1h1.7v8H317.6z"/>
		<path fill="#231F20" d="M320.9,375.1v-8h1.7v8H320.9z"/>
		<path fill="#231F20" d="M324.2,375.1v-8h1.7v6.5h3.4v1.5H324.2z"/>
		<path fill="#231F20" d="M330.5,375.1v-8h3.2c2.5,0,4.2,1.6,4.2,4c0,2.4-1.7,4-4.2,4H330.5z M336.1,371.1c0-1.4-0.9-2.5-2.5-2.5
			h-1.5v5h1.5C335.2,373.6,336.1,372.5,336.1,371.1z"/>
		<path fill="#231F20" d="M342.2,371.9v-4.8h1.7v4.7c0,1.1,0.6,1.9,1.9,1.9s1.9-0.8,1.9-1.9v-4.7h1.7v4.8c0,2-1.2,3.3-3.6,3.3
			S342.2,373.9,342.2,371.9z"/>
		<path fill="#231F20" d="M356.5,375.1l-3.8-5.2v5.2H351v-8h1.8l3.7,5v-5h1.7v8H356.5z"/>
		<path fill="#231F20" d="M359.7,375.1v-8h3.2c2.5,0,4.2,1.6,4.2,4c0,2.4-1.7,4-4.2,4H359.7z M365.4,371.1c0-1.4-0.9-2.5-2.5-2.5
			h-1.5v5h1.5C364.4,373.6,365.4,372.5,365.4,371.1z"/>
		<path fill="#231F20" d="M368.3,375.1v-8h5.7v1.5h-4v1.7h3.9v1.5H370v1.8h4v1.5H368.3z"/>
		<path fill="#231F20" d="M379.8,375.1l-1.6-2.8H377v2.8h-1.7v-8h3.7c1.7,0,2.7,1.1,2.7,2.6c0,1.4-0.9,2.2-1.8,2.4l1.8,3H379.8z
			 M380,369.7c0-0.7-0.5-1.1-1.2-1.1H377v2.2h1.8C379.5,370.8,380,370.4,380,369.7z"/>
		<path fill="#231F20" d="M387.7,375.1v-5.8l-1.3,1.4l-1-1l2.5-2.5h1.5v8H387.7z"/>
		<path fill="#231F20" d="M390.7,371.1c0-2.4,1.4-4.1,3.7-4.1c1,0,1.8,0.3,2.4,0.8l-0.8,1.3c-0.4-0.4-0.9-0.6-1.6-0.6
			c-1.2,0-2,1-2,2.3c0,0.1,0,0.1,0,0.2c0.4-0.5,1.2-1,2.1-1c1.4,0,2.7,0.9,2.7,2.6c0,1.6-1.2,2.7-3.1,2.7
			C391.7,375.3,390.7,373.4,390.7,371.1z M395.4,372.6c0-0.8-0.7-1.2-1.5-1.2c-0.6,0-1.2,0.3-1.6,0.8c0.1,0.8,0.5,1.6,1.6,1.6
			C394.9,373.7,395.4,373.1,395.4,372.6z"/>
		<path fill="#231F20" d="M400.6,375.1v-3.3l-3.1-4.7h1.9l2,3.2l2-3.2h1.9l-3.1,4.7v3.3H400.6z"/>
		<path fill="#231F20" d="M406.1,375.1v-8h5.7v1.5h-4v1.7h3.9v1.5h-3.9v1.8h4v1.5H406.1z"/>
		<path fill="#231F20" d="M418.6,375.1l-0.5-1.4h-3.4l-0.5,1.4h-1.9l3.1-8h2.1l3.1,8H418.6z M416.4,368.8l-1.2,3.4h2.5L416.4,368.8z
			"/>
		<path fill="#231F20" d="M425.8,375.1l-1.6-2.8H423v2.8h-1.7v-8h3.7c1.7,0,2.7,1.1,2.7,2.6c0,1.4-0.9,2.2-1.8,2.4l1.8,3H425.8z
			 M426,369.7c0-0.7-0.5-1.1-1.2-1.1H423v2.2h1.8C425.4,370.8,426,370.4,426,369.7z"/>
		<path fill="#231F20" d="M428.5,374l0.9-1.3c0.6,0.6,1.4,1.1,2.5,1.1c0.9,0,1.4-0.4,1.4-0.9c0-1.4-4.6-0.4-4.6-3.5
			c0-1.3,1.2-2.4,3-2.4c1.3,0,2.3,0.4,3.1,1.1l-0.9,1.2c-0.6-0.6-1.5-0.9-2.3-0.9c-0.7,0-1.1,0.3-1.1,0.8c0,1.3,4.6,0.4,4.6,3.4
			c0,1.5-1,2.6-3.2,2.6C430.3,375.3,429.2,374.7,428.5,374z"/>
		<path fill="#231F20" d="M438.9,371.1c0-2.4,1.8-4.1,4.2-4.1c2.4,0,4.2,1.7,4.2,4.1c0,2.4-1.8,4.1-4.2,4.1
			C440.6,375.3,438.9,373.5,438.9,371.1z M445.5,371.1c0-1.5-1-2.6-2.4-2.6c-1.5,0-2.4,1.1-2.4,2.6c0,1.5,0.9,2.6,2.4,2.6
			C444.5,373.7,445.5,372.6,445.5,371.1z"/>
		<path fill="#231F20" d="M448.4,375.1v-8h1.7v6.5h3.4v1.5H448.4z"/>
		<path fill="#231F20" d="M454.7,375.1v-8h3.2c2.5,0,4.2,1.6,4.2,4c0,2.4-1.7,4-4.2,4H454.7z M460.4,371.1c0-1.4-0.9-2.5-2.5-2.5
			h-1.5v5h1.5C459.5,373.6,460.4,372.5,460.4,371.1z"/>
	</g>
</g>
<g>
	<polygon points="247.2,425.8 25.6,425.8 24.5,425.8 24.5,426.8 34.5,450.3 34.5,451.3 35.6,451.3 237.2,451.3 238.2,451.3 
		238.2,450.3 248.2,426.8 248.2,425.8 	"/>
	<polygon fill="#58595B" points="247.2,400.3 25.6,400.3 24.5,400.3 24.5,401.3 24.5,424.8 24.5,425.8 25.6,425.8 247.2,425.8 
		248.2,425.8 248.2,424.8 248.2,401.3 248.2,400.3 	"/>
	<g>
		<g>
			<path fill="#010101" d="M118.5,417.6v-8h1.7v8H118.5z"/>
			<path fill="#010101" d="M126.3,417.6l-1.6-2.8h-1.2v2.8h-1.7v-8h3.7c1.7,0,2.7,1.1,2.7,2.6c0,1.4-0.9,2.2-1.8,2.4l1.8,3H126.3z
				 M126.5,412.2c0-0.7-0.5-1.1-1.2-1.1h-1.8v2.2h1.8C126,413.2,126.5,412.8,126.5,412.2z"/>
			<path fill="#010101" d="M132.4,416.5l0.9-1.2c0.5,0.6,1.3,0.9,2.1,0.9c0.9,0,1.5-0.5,1.5-1.2c0-0.7-0.5-1.2-1.4-1.2
				c-0.7,0-1.2,0.2-1.7,0.6l-1.2-0.3v-4.6h5.5v1.5h-3.8v2c0.4-0.4,1-0.7,1.8-0.7c1.4,0,2.6,1,2.6,2.6c0,1.7-1.3,2.8-3.2,2.8
				C134.1,417.7,133,417.3,132.4,416.5z"/>
			<path fill="#010101" d="M139.9,416.9l0.8-1.3c0.4,0.4,0.9,0.6,1.6,0.6c1.3,0,2-1.1,2-2.3c0-0.1,0-0.1,0-0.2c-0.4,0.5-1.2,1-2.1,1
				c-1.4,0-2.7-0.9-2.7-2.6c0-1.6,1.2-2.7,3.1-2.7c2.4,0,3.4,1.9,3.4,4.1c0,2.4-1.4,4.1-3.7,4.1
				C141.3,417.7,140.4,417.4,139.9,416.9z M144.2,412.6c-0.1-0.8-0.5-1.6-1.6-1.6c-0.9,0-1.4,0.6-1.4,1.2c0,0.8,0.7,1.2,1.5,1.2
				C143.2,413.3,143.8,413.1,144.2,412.6z"/>
			<path fill="#010101" d="M147,416.5l0.9-1.2c0.5,0.6,1.3,0.9,2.1,0.9c0.9,0,1.5-0.5,1.5-1.2c0-0.7-0.5-1.2-1.4-1.2
				c-0.7,0-1.2,0.2-1.7,0.6l-1.2-0.3v-4.6h5.5v1.5h-3.8v2c0.4-0.4,1-0.7,1.8-0.7c1.4,0,2.6,1,2.6,2.6c0,1.7-1.3,2.8-3.2,2.8
				C148.6,417.7,147.6,417.3,147,416.5z"/>
		</g>
		<g>
			<path fill="#FFFFFF" d="M118.5,417.6v-8h1.7v8H118.5z"/>
			<path fill="#FFFFFF" d="M126.3,417.6l-1.6-2.8h-1.2v2.8h-1.7v-8h3.7c1.7,0,2.7,1.1,2.7,2.6c0,1.4-0.9,2.2-1.8,2.4l1.8,3H126.3z
				 M126.5,412.2c0-0.7-0.5-1.1-1.2-1.1h-1.8v2.2h1.8C126,413.2,126.5,412.8,126.5,412.2z"/>
			<path fill="#FFFFFF" d="M132.4,416.5l0.9-1.2c0.5,0.6,1.3,0.9,2.1,0.9c0.9,0,1.5-0.5,1.5-1.2c0-0.7-0.5-1.2-1.4-1.2
				c-0.7,0-1.2,0.2-1.7,0.6l-1.2-0.3v-4.6h5.5v1.5h-3.8v2c0.4-0.4,1-0.7,1.8-0.7c1.4,0,2.6,1,2.6,2.6c0,1.7-1.3,2.8-3.2,2.8
				C134.1,417.7,133,417.3,132.4,416.5z"/>
			<path fill="#FFFFFF" d="M139.9,416.9l0.8-1.3c0.4,0.4,0.9,0.6,1.6,0.6c1.3,0,2-1.1,2-2.3c0-0.1,0-0.1,0-0.2c-0.4,0.5-1.2,1-2.1,1
				c-1.4,0-2.7-0.9-2.7-2.6c0-1.6,1.2-2.7,3.1-2.7c2.4,0,3.4,1.9,3.4,4.1c0,2.4-1.4,4.1-3.7,4.1
				C141.3,417.7,140.4,417.4,139.9,416.9z M144.2,412.6c-0.1-0.8-0.5-1.6-1.6-1.6c-0.9,0-1.4,0.6-1.4,1.2c0,0.8,0.7,1.2,1.5,1.2
				C143.2,413.3,143.8,413.1,144.2,412.6z"/>
			<path fill="#FFFFFF" d="M147,416.5l0.9-1.2c0.5,0.6,1.3,0.9,2.1,0.9c0.9,0,1.5-0.5,1.5-1.2c0-0.7-0.5-1.2-1.4-1.2
				c-0.7,0-1.2,0.2-1.7,0.6l-1.2-0.3v-4.6h5.5v1.5h-3.8v2c0.4-0.4,1-0.7,1.8-0.7c1.4,0,2.6,1,2.6,2.6c0,1.7-1.3,2.8-3.2,2.8
				C148.6,417.7,147.6,417.3,147,416.5z"/>
		</g>
	</g>
</g>
<rect x="29.9" y="426.1" fill="#F5B951" width="212.9" height="49.6"/>
<g>
	<path fill="#010101" d="M89.7,441v-5.8l-1.3,1.4l-1-1l2.5-2.5h1.5v8H89.7z"/>
	<path fill="#010101" d="M101.3,441l-2-2.9l-2,2.9h-2l2.9-4.1l-2.7-3.9h2l1.8,2.7l1.8-2.7h2.1l-2.7,3.9l2.9,4.1H101.3z"/>
	<path fill="#010101" d="M107.1,441v-8h3.2c2.5,0,4.2,1.6,4.2,4c0,2.4-1.7,4-4.2,4H107.1z M112.8,437c0-1.4-0.9-2.5-2.5-2.5h-1.5v5
		h1.5C111.9,439.5,112.8,438.4,112.8,437z"/>
	<path fill="#010101" d="M115.4,437c0-2.4,1.8-4.1,4.2-4.1c2.4,0,4.2,1.7,4.2,4.1c0,2.4-1.8,4.1-4.2,4.1
		C117.1,441.2,115.4,439.5,115.4,437z M122,437c0-1.5-1-2.6-2.4-2.6c-1.5,0-2.4,1.1-2.4,2.6c0,1.5,0.9,2.6,2.4,2.6
		C121,439.7,122,438.5,122,437z"/>
	<path fill="#010101" d="M124.6,437c0-2.5,1.9-4.1,4.3-4.1c1.8,0,2.8,1,3.3,2l-1.5,0.7c-0.3-0.6-1.1-1.2-1.9-1.2
		c-1.5,0-2.5,1.1-2.5,2.6c0,1.5,1.1,2.6,2.5,2.6c0.8,0,1.5-0.5,1.9-1.2l1.5,0.7c-0.6,1-1.6,2-3.3,2
		C126.4,441.2,124.6,439.5,124.6,437z"/>
	<path fill="#010101" d="M133.2,437.8V433h1.7v4.8c0,1.1,0.6,1.9,1.9,1.9s1.9-0.8,1.9-1.9V433h1.7v4.8c0,2-1.2,3.3-3.6,3.3
		S133.2,439.8,133.2,437.8z"/>
	<path fill="#010101" d="M148.9,441v-5.6l-2.3,5.6h-0.7l-2.3-5.6v5.6H142v-8h2.4l1.9,4.8l1.9-4.8h2.4v8H148.9z"/>
	<path fill="#010101" d="M152.2,441v-8h5.7v1.5h-4v1.7h3.9v1.5h-3.9v1.8h4v1.5H152.2z"/>
	<path fill="#010101" d="M164.8,441l-3.8-5.2v5.2h-1.7v-8h1.8l3.7,5v-5h1.7v8H164.8z"/>
	<path fill="#010101" d="M169.8,441v-6.5h-2.3V433h6.4v1.5h-2.3v6.5H169.8z"/>
	<path fill="#010101" d="M183.6,441l-0.5-1.4h-3.4l-0.5,1.4h-1.9l3.1-8h2.1l3.1,8H183.6z M181.3,434.7l-1.2,3.4h2.5L181.3,434.7z"/>
</g>
<rect x="29.9" y="475.7" fill="#E5E5E5" width="212.9" height="130.5"/>
<g>
	<path fill="#010101" d="M67.9,491.7l-0.5-1.4h-3.4l-0.5,1.4h-1.9l3.1-8h2.1l3.1,8H67.9z M65.7,485.4l-1.2,3.4h2.5L65.7,485.4z"/>
	<path fill="#010101" d="M70.6,491.7v-8h3.7c1.7,0,2.7,1.2,2.7,2.6c0,1.4-1,2.6-2.7,2.6h-2v2.8H70.6z M75.2,486.2
		c0-0.7-0.5-1.1-1.2-1.1h-1.8v2.2h1.8C74.7,487.3,75.2,486.9,75.2,486.2z"/>
	<path fill="#010101" d="M78,491.7v-8h3.7c1.7,0,2.7,1.2,2.7,2.6c0,1.4-1,2.6-2.7,2.6h-2v2.8H78z M82.7,486.2c0-0.7-0.5-1.1-1.2-1.1
		h-1.8v2.2h1.8C82.2,487.3,82.7,486.9,82.7,486.2z"/>
	<path fill="#010101" d="M85.5,491.7v-8h1.7v6.5h3.4v1.5H85.5z"/>
	<path fill="#010101" d="M91.8,491.7v-8h1.7v8H91.8z"/>
	<path fill="#010101" d="M94.7,487.7c0-2.5,1.9-4.1,4.3-4.1c1.8,0,2.8,1,3.3,2l-1.5,0.7c-0.3-0.6-1.1-1.2-1.9-1.2
		c-1.5,0-2.5,1.1-2.5,2.6c0,1.5,1.1,2.6,2.5,2.6c0.8,0,1.5-0.5,1.9-1.2l1.5,0.7c-0.6,1-1.6,2-3.3,2
		C96.6,491.8,94.7,490.1,94.7,487.7z"/>
	<path fill="#010101" d="M108.8,491.7l-0.5-1.4h-3.4l-0.5,1.4h-1.9l3.1-8h2.1l3.1,8H108.8z M106.6,485.4l-1.2,3.4h2.5L106.6,485.4z"
		/>
	<path fill="#010101" d="M117,491.7l-3.8-5.2v5.2h-1.7v-8h1.8l3.7,5v-5h1.7v8H117z"/>
	<path fill="#010101" d="M122.1,491.7v-6.5h-2.3v-1.5h6.4v1.5h-2.3v6.5H122.1z"/>
	<path fill="#010101" d="M130.3,491.7v-8h1.7v8H130.3z"/>
	<path fill="#010101" d="M139.1,491.7l-3.8-5.2v5.2h-1.7v-8h1.8l3.7,5v-5h1.7v8H139.1z"/>
	<path fill="#010101" d="M142.3,491.7v-8h5.7v1.5h-4v1.7h3.9v1.5H144v3.3H142.3z"/>
	<path fill="#010101" d="M148.8,487.7c0-2.4,1.8-4.1,4.2-4.1c2.4,0,4.2,1.7,4.2,4.1c0,2.4-1.8,4.1-4.2,4.1
		C150.5,491.8,148.8,490.1,148.8,487.7z M155.4,487.7c0-1.5-1-2.6-2.4-2.6c-1.5,0-2.4,1.1-2.4,2.6c0,1.5,0.9,2.6,2.4,2.6
		C154.4,490.3,155.4,489.2,155.4,487.7z"/>
	<path fill="#010101" d="M162.9,491.7l-1.6-2.8H160v2.8h-1.7v-8h3.7c1.7,0,2.7,1.1,2.7,2.6c0,1.4-0.9,2.2-1.8,2.4l1.8,3H162.9z
		 M163,486.2c0-0.7-0.5-1.1-1.2-1.1H160v2.2h1.8C162.5,487.3,163,486.9,163,486.2z"/>
	<path fill="#010101" d="M173,491.7v-5.6l-2.3,5.6H170l-2.3-5.6v5.6h-1.7v-8h2.4l1.9,4.8l1.9-4.8h2.4v8H173z"/>
	<path fill="#010101" d="M181.8,491.7l-0.5-1.4h-3.4l-0.5,1.4h-1.9l3.1-8h2.1l3.1,8H181.8z M179.6,485.4l-1.2,3.4h2.5L179.6,485.4z"
		/>
	<path fill="#010101" d="M185.6,491.7v-6.5h-2.3v-1.5h6.4v1.5h-2.3v6.5H185.6z"/>
	<path fill="#010101" d="M190.7,491.7v-8h1.7v8H190.7z"/>
	<path fill="#010101" d="M193.6,487.7c0-2.4,1.8-4.1,4.2-4.1c2.4,0,4.2,1.7,4.2,4.1c0,2.4-1.8,4.1-4.2,4.1
		C195.4,491.8,193.6,490.1,193.6,487.7z M200.2,487.7c0-1.5-1-2.6-2.4-2.6c-1.5,0-2.4,1.1-2.4,2.6c0,1.5,0.9,2.6,2.4,2.6
		C199.3,490.3,200.2,489.2,200.2,487.7z"/>
	<path fill="#010101" d="M208.7,491.7l-3.8-5.2v5.2h-1.7v-8h1.8l3.7,5v-5h1.7v8H208.7z"/>
</g>
<g>
	<path fill="#010101" d="M73,515.9l-0.5-1.4h-3.4l-0.5,1.4h-1.9l3.1-8h2.1l3.1,8H73z M70.8,509.6l-1.2,3.4h2.5L70.8,509.6z"/>
	<path fill="#010101" d="M75.7,515.9v-8h3.2c2.5,0,4.2,1.6,4.2,4c0,2.4-1.7,4-4.2,4H75.7z M81.4,511.9c0-1.4-0.9-2.5-2.5-2.5h-1.5v5
		h1.5C80.4,514.4,81.4,513.3,81.4,511.9z"/>
	<path fill="#010101" d="M84.3,515.9v-8h3.2c2.5,0,4.2,1.6,4.2,4c0,2.4-1.7,4-4.2,4H84.3z M90,511.9c0-1.4-0.9-2.5-2.5-2.5H86v5h1.5
		C89.1,514.4,90,513.3,90,511.9z"/>
	<path fill="#010101" d="M97.5,515.9l-1.6-2.8h-1.2v2.8h-1.7v-8h3.7c1.7,0,2.7,1.1,2.7,2.6c0,1.4-0.9,2.2-1.8,2.4l1.8,3H97.5z
		 M97.6,510.5c0-0.7-0.5-1.1-1.2-1.1h-1.8v2.2h1.8C97.1,511.6,97.6,511.2,97.6,510.5z"/>
	<path fill="#010101" d="M100.7,515.9v-8h5.7v1.5h-4v1.7h3.9v1.5h-3.9v1.8h4v1.5H100.7z"/>
	<path fill="#010101" d="M107.1,514.8l0.9-1.3c0.6,0.6,1.4,1.1,2.5,1.1c0.9,0,1.4-0.4,1.4-0.9c0-1.4-4.6-0.4-4.6-3.5
		c0-1.3,1.2-2.4,3-2.4c1.3,0,2.3,0.4,3.1,1.1l-0.9,1.2c-0.6-0.6-1.5-0.9-2.3-0.9c-0.7,0-1.1,0.3-1.1,0.8c0,1.3,4.6,0.4,4.6,3.4
		c0,1.5-1,2.6-3.2,2.6C109,516.1,107.9,515.6,107.1,514.8z"/>
	<path fill="#010101" d="M114.3,514.8l0.9-1.3c0.6,0.6,1.4,1.1,2.5,1.1c0.9,0,1.4-0.4,1.4-0.9c0-1.4-4.6-0.4-4.6-3.5
		c0-1.3,1.2-2.4,3-2.4c1.3,0,2.3,0.4,3.1,1.1l-0.9,1.2c-0.6-0.6-1.5-0.9-2.3-0.9c-0.7,0-1.1,0.3-1.1,0.8c0,1.3,4.6,0.4,4.6,3.4
		c0,1.5-1,2.6-3.2,2.6C116.2,516.1,115.1,515.6,114.3,514.8z"/>
	<path fill="#010101" d="M125.1,515.9v-8h1.7v8H125.1z"/>
	<path fill="#010101" d="M133.9,515.9l-3.8-5.2v5.2h-1.7v-8h1.8l3.7,5v-5h1.7v8H133.9z"/>
	<path fill="#010101" d="M137.2,515.9v-8h5.7v1.5h-4v1.7h3.9v1.5h-3.9v3.3H137.2z"/>
	<path fill="#010101" d="M143.6,511.9c0-2.4,1.8-4.1,4.2-4.1c2.4,0,4.2,1.7,4.2,4.1c0,2.4-1.8,4.1-4.2,4.1
		C145.4,516.1,143.6,514.3,143.6,511.9z M150.2,511.9c0-1.5-1-2.6-2.4-2.6c-1.5,0-2.4,1.1-2.4,2.6c0,1.5,0.9,2.6,2.4,2.6
		C149.3,514.6,150.2,513.4,150.2,511.9z"/>
	<path fill="#010101" d="M157.7,515.9l-1.6-2.8h-1.2v2.8h-1.7v-8h3.7c1.7,0,2.7,1.1,2.7,2.6c0,1.4-0.9,2.2-1.8,2.4l1.8,3H157.7z
		 M157.9,510.5c0-0.7-0.5-1.1-1.2-1.1h-1.8v2.2h1.8C157.4,511.6,157.9,511.2,157.9,510.5z"/>
	<path fill="#010101" d="M167.9,515.9v-5.6l-2.3,5.6h-0.7l-2.3-5.6v5.6h-1.7v-8h2.4l1.9,4.8l1.9-4.8h2.4v8H167.9z"/>
	<path fill="#010101" d="M176.7,515.9l-0.5-1.4h-3.4l-0.5,1.4h-1.9l3.1-8h2.1l3.1,8H176.7z M174.5,509.6l-1.2,3.4h2.5L174.5,509.6z"
		/>
	<path fill="#010101" d="M180.4,515.9v-6.5h-2.3v-1.5h6.4v1.5h-2.3v6.5H180.4z"/>
	<path fill="#010101" d="M185.6,515.9v-8h1.7v8H185.6z"/>
	<path fill="#010101" d="M188.5,511.9c0-2.4,1.8-4.1,4.2-4.1c2.4,0,4.2,1.7,4.2,4.1c0,2.4-1.8,4.1-4.2,4.1
		C190.3,516.1,188.5,514.3,188.5,511.9z M195.1,511.9c0-1.5-1-2.6-2.4-2.6c-1.5,0-2.4,1.1-2.4,2.6c0,1.5,0.9,2.6,2.4,2.6
		C194.1,514.6,195.1,513.4,195.1,511.9z"/>
	<path fill="#010101" d="M203.6,515.9l-3.8-5.2v5.2h-1.7v-8h1.8l3.7,5v-5h1.7v8H203.6z"/>
</g>
<g>
	<path fill="#010101" d="M49.9,540v-6.5h-2.3V532h6.4v1.5h-2.3v6.5H49.9z"/>
	<path fill="#010101" d="M59.8,540l-0.5-1.4h-3.4l-0.5,1.4h-1.9l3.1-8h2.1l3.1,8H59.8z M57.6,533.7l-1.2,3.4h2.5L57.6,533.7z"/>
	<path fill="#010101" d="M67.7,540l-2-2.9l-2,2.9h-2l2.9-4.1l-2.7-3.9h2l1.8,2.7l1.8-2.7h2.1l-2.7,3.9l2.9,4.1H67.7z"/>
	<path fill="#010101" d="M73.6,540v-8h5.7v1.5h-4v1.7h3.9v1.5h-3.9v1.8h4v1.5H73.6z"/>
	<path fill="#010101" d="M85.8,540l-2-2.9l-2,2.9h-2l2.9-4.1l-2.7-3.9h2l1.8,2.7l1.8-2.7h2.1l-2.7,3.9l2.9,4.1H85.8z"/>
	<path fill="#010101" d="M88.6,540v-8h5.7v1.5h-4v1.7h3.9v1.5h-3.9v1.8h4v1.5H88.6z"/>
	<path fill="#010101" d="M102.5,540v-5.6l-2.3,5.6h-0.7l-2.3-5.6v5.6h-1.7v-8h2.4l1.9,4.8l1.9-4.8h2.4v8H102.5z"/>
	<path fill="#010101" d="M105.8,540v-8h3.7c1.7,0,2.7,1.2,2.7,2.6c0,1.4-1,2.6-2.7,2.6h-2v2.8H105.8z M110.5,534.5
		c0-0.7-0.5-1.1-1.2-1.1h-1.8v2.2h1.8C110,535.6,110.5,535.2,110.5,534.5z"/>
	<path fill="#010101" d="M115.2,540v-6.5h-2.3V532h6.4v1.5h-2.3v6.5H115.2z"/>
	<path fill="#010101" d="M120.3,540v-8h1.7v8H120.3z"/>
	<path fill="#010101" d="M123.2,536c0-2.4,1.8-4.1,4.2-4.1c2.4,0,4.2,1.7,4.2,4.1s-1.8,4.1-4.2,4.1C125,540.1,123.2,538.4,123.2,536
		z M129.8,536c0-1.5-1-2.6-2.4-2.6c-1.5,0-2.4,1.1-2.4,2.6c0,1.5,0.9,2.6,2.4,2.6C128.8,538.6,129.8,537.4,129.8,536z"/>
	<path fill="#010101" d="M138.3,540l-3.8-5.2v5.2h-1.7v-8h1.8l3.7,5v-5h1.7v8H138.3z"/>
	<path fill="#010101" d="M144.6,540v-8h1.7v8H144.6z"/>
	<path fill="#010101" d="M153.4,540l-3.8-5.2v5.2h-1.7v-8h1.8l3.7,5v-5h1.7v8H153.4z"/>
	<path fill="#010101" d="M156.6,540v-8h5.7v1.5h-4v1.7h3.9v1.5h-3.9v3.3H156.6z"/>
	<path fill="#010101" d="M163.1,536c0-2.4,1.8-4.1,4.2-4.1c2.4,0,4.2,1.7,4.2,4.1s-1.8,4.1-4.2,4.1
		C164.8,540.1,163.1,538.4,163.1,536z M169.7,536c0-1.5-1-2.6-2.4-2.6c-1.5,0-2.4,1.1-2.4,2.6c0,1.5,0.9,2.6,2.4,2.6
		C168.7,538.6,169.7,537.4,169.7,536z"/>
	<path fill="#010101" d="M177.2,540l-1.6-2.8h-1.2v2.8h-1.7v-8h3.7c1.7,0,2.7,1.1,2.7,2.6c0,1.4-0.9,2.2-1.8,2.4l1.8,3H177.2z
		 M177.3,534.5c0-0.7-0.5-1.1-1.2-1.1h-1.8v2.2h1.8C176.8,535.6,177.3,535.2,177.3,534.5z"/>
	<path fill="#010101" d="M187.3,540v-5.6l-2.3,5.6h-0.7l-2.3-5.6v5.6h-1.7v-8h2.4l1.9,4.8l1.9-4.8h2.4v8H187.3z"/>
	<path fill="#010101" d="M196.1,540l-0.5-1.4h-3.4l-0.5,1.4h-1.9l3.1-8h2.1l3.1,8H196.1z M193.9,533.7l-1.2,3.4h2.5L193.9,533.7z"/>
	<path fill="#010101" d="M199.9,540v-6.5h-2.3V532h6.4v1.5h-2.3v6.5H199.9z"/>
	<path fill="#010101" d="M205,540v-8h1.7v8H205z"/>
	<path fill="#010101" d="M207.9,536c0-2.4,1.8-4.1,4.2-4.1c2.4,0,4.2,1.7,4.2,4.1s-1.8,4.1-4.2,4.1
		C209.7,540.1,207.9,538.4,207.9,536z M214.6,536c0-1.5-1-2.6-2.4-2.6c-1.5,0-2.4,1.1-2.4,2.6c0,1.5,0.9,2.6,2.4,2.6
		C213.6,538.6,214.6,537.4,214.6,536z"/>
	<path fill="#010101" d="M223,540l-3.8-5.2v5.2h-1.7v-8h1.8l3.7,5v-5h1.7v8H223z"/>
</g>
<g>
	<path fill="#010101" d="M96.3,591.9v-8h3.2c2.5,0,4.2,1.6,4.2,4c0,2.4-1.7,4-4.2,4H96.3z M102,587.9c0-1.4-0.9-2.5-2.5-2.5H98v5
		h1.5C101,590.4,102,589.2,102,587.9z"/>
	<path fill="#010101" d="M104.9,591.9v-8h5.7v1.5h-4v1.7h3.9v1.5h-3.9v1.8h4v1.5H104.9z"/>
	<path fill="#010101" d="M111.5,587.9c0-2.5,1.9-4.1,4.3-4.1c1.8,0,2.8,1,3.3,2l-1.5,0.7c-0.3-0.6-1.1-1.2-1.9-1.2
		c-1.5,0-2.5,1.1-2.5,2.6c0,1.5,1.1,2.6,2.5,2.6c0.8,0,1.5-0.5,1.9-1.2l1.5,0.7c-0.6,1-1.6,2-3.3,2
		C113.4,592,111.5,590.3,111.5,587.9z"/>
	<path fill="#010101" d="M120.2,591.9v-8h1.7v6.5h3.4v1.5H120.2z"/>
	<path fill="#010101" d="M132,591.9l-0.5-1.4H128l-0.5,1.4h-1.9l3.1-8h2.1l3.1,8H132z M129.7,585.6l-1.2,3.4h2.5L129.7,585.6z"/>
	<path fill="#010101" d="M139.2,591.9l-1.6-2.8h-1.2v2.8h-1.7v-8h3.7c1.7,0,2.7,1.1,2.7,2.6c0,1.4-0.9,2.2-1.8,2.4l1.8,3H139.2z
		 M139.3,586.4c0-0.7-0.5-1.1-1.2-1.1h-1.8v2.2h1.8C138.8,587.5,139.3,587.1,139.3,586.4z"/>
	<path fill="#010101" d="M147.9,591.9l-0.5-1.4H144l-0.5,1.4h-1.9l3.1-8h2.1l3.1,8H147.9z M145.7,585.6l-1.2,3.4h2.5L145.7,585.6z"
		/>
	<path fill="#010101" d="M151.6,591.9v-6.5h-2.3v-1.5h6.4v1.5h-2.3v6.5H151.6z"/>
	<path fill="#010101" d="M156.8,591.9v-8h1.7v8H156.8z"/>
	<path fill="#010101" d="M159.7,587.9c0-2.4,1.8-4.1,4.2-4.1c2.4,0,4.2,1.7,4.2,4.1c0,2.4-1.8,4.1-4.2,4.1
		C161.4,592,159.7,590.3,159.7,587.9z M166.3,587.9c0-1.5-1-2.6-2.4-2.6c-1.5,0-2.4,1.1-2.4,2.6c0,1.5,0.9,2.6,2.4,2.6
		C165.3,590.5,166.3,589.4,166.3,587.9z"/>
	<path fill="#010101" d="M174.8,591.9l-3.8-5.2v5.2h-1.7v-8h1.8l3.7,5v-5h1.7v8H174.8z"/>
</g>
<g>
	<path fill="#010101" d="M89.8,466.2v-5.8l-1.3,1.4l-1-1l2.5-2.5h1.5v8H89.8z"/>
	<path fill="#010101" d="M101.4,466.2l-2-2.9l-2,2.9h-2l2.9-4.1l-2.7-3.9h2l1.8,2.7l1.8-2.7h2.1l-2.7,3.9l2.9,4.1H101.4z"/>
	<path fill="#010101" d="M107.3,466.2v-8h3.2c2.5,0,4.2,1.6,4.2,4s-1.7,4-4.2,4H107.3z M112.9,462.2c0-1.4-0.9-2.5-2.5-2.5H109v5
		h1.5C112,464.7,112.9,463.5,112.9,462.2z"/>
	<path fill="#010101" d="M115.5,462.2c0-2.4,1.8-4.1,4.2-4.1c2.4,0,4.2,1.7,4.2,4.1s-1.8,4.1-4.2,4.1
		C117.3,466.3,115.5,464.6,115.5,462.2z M122.1,462.2c0-1.5-1-2.6-2.4-2.6c-1.5,0-2.4,1.1-2.4,2.6c0,1.5,0.9,2.6,2.4,2.6
		C121.2,464.8,122.1,463.6,122.1,462.2z"/>
	<path fill="#010101" d="M124.7,462.2c0-2.5,1.9-4.1,4.3-4.1c1.8,0,2.8,1,3.3,2l-1.5,0.7c-0.3-0.6-1.1-1.2-1.9-1.2
		c-1.5,0-2.5,1.1-2.5,2.6s1.1,2.6,2.5,2.6c0.8,0,1.5-0.5,1.9-1.2l1.5,0.7c-0.6,1-1.6,2-3.3,2C126.5,466.3,124.7,464.6,124.7,462.2z"
		/>
	<path fill="#010101" d="M133.3,463v-4.8h1.7v4.8c0,1.1,0.6,1.9,1.9,1.9s1.9-0.8,1.9-1.9v-4.8h1.7v4.8c0,2-1.2,3.3-3.6,3.3
		S133.3,464.9,133.3,463z"/>
	<path fill="#010101" d="M149.1,466.2v-5.6l-2.3,5.6h-0.7l-2.3-5.6v5.6h-1.7v-8h2.4l1.9,4.8l1.9-4.8h2.4v8H149.1z"/>
	<path fill="#010101" d="M152.4,466.2v-8h5.7v1.5h-4v1.7h3.9v1.5h-3.9v1.8h4v1.5H152.4z"/>
	<path fill="#010101" d="M164.9,466.2l-3.8-5.2v5.2h-1.7v-8h1.8l3.7,5v-5h1.7v8H164.9z"/>
	<path fill="#010101" d="M170,466.2v-6.5h-2.3v-1.5h6.4v1.5h-2.3v6.5H170z"/>
	<path fill="#010101" d="M178.2,466.2v-8h4.2c1.5,0,2.3,1,2.3,2c0,1-0.6,1.7-1.4,1.8c0.9,0.1,1.5,1,1.5,2c0,1.2-0.8,2.2-2.3,2.2
		H178.2z M182.9,460.5c0-0.5-0.4-0.9-0.9-0.9h-2.1v1.7h2.1C182.6,461.4,182.9,461,182.9,460.5z M183.1,463.8c0-0.5-0.4-0.9-1-0.9
		h-2.2v1.9h2.2C182.7,464.7,183.1,464.3,183.1,463.8z"/>
</g>
<line fill="none" stroke="#FFFFFF" stroke-miterlimit="10" x1="55.9" y1="448.7" x2="216.8" y2="448.7"/>
<line fill="none" stroke="#FFFFFF" stroke-miterlimit="10" x1="55.9" y1="500" x2="216.8" y2="500"/>
<line fill="none" stroke="#FFFFFF" stroke-miterlimit="10" x1="55.9" y1="524.5" x2="216.8" y2="524.5"/>
<line fill="none" stroke="#FFFFFF" stroke-miterlimit="10" x1="55.9" y1="548.5" x2="216.8" y2="548.5"/>
<rect x="269.7" y="503.7" fill="#E5E5E5" width="212.9" height="102.5"/>
<g>
	<path fill="#010101" d="M307.6,519.6l-0.5-1.4h-3.4l-0.5,1.4h-1.9l3.1-8h2.1l3.1,8H307.6z M305.4,513.3l-1.2,3.4h2.5L305.4,513.3z"
		/>
	<path fill="#010101" d="M310.3,519.6v-8h3.7c1.7,0,2.7,1.2,2.7,2.6c0,1.4-1,2.6-2.7,2.6h-2v2.8H310.3z M315,514.2
		c0-0.7-0.5-1.1-1.2-1.1H312v2.2h1.8C314.5,515.3,315,514.9,315,514.2z"/>
	<path fill="#010101" d="M317.8,519.6v-8h3.7c1.7,0,2.7,1.2,2.7,2.6c0,1.4-1,2.6-2.7,2.6h-2v2.8H317.8z M322.5,514.2
		c0-0.7-0.5-1.1-1.2-1.1h-1.8v2.2h1.8C322,515.3,322.5,514.9,322.5,514.2z"/>
	<path fill="#010101" d="M325.3,519.6v-8h1.7v6.5h3.4v1.5H325.3z"/>
	<path fill="#010101" d="M331.6,519.6v-8h1.7v8H331.6z"/>
	<path fill="#010101" d="M334.5,515.6c0-2.5,1.9-4.1,4.3-4.1c1.8,0,2.8,1,3.3,2l-1.5,0.7c-0.3-0.6-1.1-1.2-1.9-1.2
		c-1.5,0-2.5,1.1-2.5,2.6c0,1.5,1.1,2.6,2.5,2.6c0.8,0,1.5-0.5,1.9-1.2l1.5,0.7c-0.6,1-1.6,2-3.3,2
		C336.3,519.8,334.5,518.1,334.5,515.6z"/>
	<path fill="#010101" d="M348.5,519.6l-0.5-1.4h-3.4l-0.5,1.4h-1.9l3.1-8h2.1l3.1,8H348.5z M346.3,513.3l-1.2,3.4h2.5L346.3,513.3z"
		/>
	<path fill="#010101" d="M356.8,519.6l-3.8-5.2v5.2h-1.7v-8h1.8l3.7,5v-5h1.7v8H356.8z"/>
	<path fill="#010101" d="M361.8,519.6v-6.5h-2.3v-1.5h6.4v1.5h-2.3v6.5H361.8z"/>
	<path fill="#010101" d="M370,519.6v-8h1.7v8H370z"/>
	<path fill="#010101" d="M378.8,519.6l-3.8-5.2v5.2h-1.7v-8h1.8l3.7,5v-5h1.7v8H378.8z"/>
	<path fill="#010101" d="M382.1,519.6v-8h5.7v1.5h-4v1.7h3.9v1.5h-3.9v3.3H382.1z"/>
	<path fill="#010101" d="M388.5,515.6c0-2.4,1.8-4.1,4.2-4.1c2.4,0,4.2,1.7,4.2,4.1c0,2.4-1.8,4.1-4.2,4.1
		C390.3,519.8,388.5,518.1,388.5,515.6z M395.2,515.6c0-1.5-1-2.6-2.4-2.6c-1.5,0-2.4,1.1-2.4,2.6c0,1.5,0.9,2.6,2.4,2.6
		C394.2,518.3,395.2,517.1,395.2,515.6z"/>
	<path fill="#010101" d="M402.6,519.6l-1.6-2.8h-1.2v2.8h-1.7v-8h3.7c1.7,0,2.7,1.1,2.7,2.6c0,1.4-0.9,2.2-1.8,2.4l1.8,3H402.6z
		 M402.8,514.2c0-0.7-0.5-1.1-1.2-1.1h-1.8v2.2h1.8C402.3,515.3,402.8,514.9,402.8,514.2z"/>
	<path fill="#010101" d="M412.8,519.6V514l-2.3,5.6h-0.7l-2.3-5.6v5.6h-1.7v-8h2.4l1.9,4.8l1.9-4.8h2.4v8H412.8z"/>
	<path fill="#010101" d="M421.6,519.6l-0.5-1.4h-3.4l-0.5,1.4h-1.9l3.1-8h2.1l3.1,8H421.6z M419.4,513.3l-1.2,3.4h2.5L419.4,513.3z"
		/>
	<path fill="#010101" d="M425.4,519.6v-6.5H423v-1.5h6.4v1.5h-2.3v6.5H425.4z"/>
	<path fill="#010101" d="M430.5,519.6v-8h1.7v8H430.5z"/>
	<path fill="#010101" d="M433.4,515.6c0-2.4,1.8-4.1,4.2-4.1c2.4,0,4.2,1.7,4.2,4.1c0,2.4-1.8,4.1-4.2,4.1
		C435.2,519.8,433.4,518.1,433.4,515.6z M440,515.6c0-1.5-1-2.6-2.4-2.6c-1.5,0-2.4,1.1-2.4,2.6c0,1.5,0.9,2.6,2.4,2.6
		C439.1,518.3,440,517.1,440,515.6z"/>
	<path fill="#010101" d="M448.5,519.6l-3.8-5.2v5.2H443v-8h1.8l3.7,5v-5h1.7v8H448.5z"/>
</g>
<rect x="513.6" y="425.1" fill="#E5E5E5" width="212.9" height="181.1"/>
<g>
	<path fill="#010101" d="M575.3,442l-0.5-1.4h-3.4l-0.5,1.4h-1.9l3.1-8h2.1l3.1,8H575.3z M573.1,435.7l-1.2,3.4h2.5L573.1,435.7z"/>
	<path fill="#010101" d="M578,442v-8h3.7c1.7,0,2.7,1.2,2.7,2.6c0,1.4-1,2.6-2.7,2.6h-2v2.8H578z M582.6,436.6
		c0-0.7-0.5-1.1-1.2-1.1h-1.8v2.2h1.8C582.1,437.7,582.6,437.3,582.6,436.6z"/>
	<path fill="#010101" d="M585.4,442v-8h3.7c1.7,0,2.7,1.2,2.7,2.6c0,1.4-1,2.6-2.7,2.6h-2v2.8H585.4z M590.1,436.6
		c0-0.7-0.5-1.1-1.2-1.1h-1.8v2.2h1.8C589.6,437.7,590.1,437.3,590.1,436.6z"/>
	<path fill="#010101" d="M592.9,442v-8h1.7v6.5h3.4v1.5H592.9z"/>
	<path fill="#010101" d="M599.2,442v-8h1.7v8H599.2z"/>
	<path fill="#010101" d="M602.1,438c0-2.5,1.9-4.1,4.3-4.1c1.8,0,2.8,1,3.3,2l-1.5,0.7c-0.3-0.6-1.1-1.2-1.9-1.2
		c-1.5,0-2.5,1.1-2.5,2.6c0,1.5,1.1,2.6,2.5,2.6c0.8,0,1.5-0.5,1.9-1.2l1.5,0.7c-0.6,1-1.6,2-3.3,2C604,442.2,602.1,440.5,602.1,438
		z"/>
	<path fill="#010101" d="M616.2,442l-0.5-1.4h-3.4l-0.5,1.4h-1.9l3.1-8h2.1l3.1,8H616.2z M614,435.7l-1.2,3.4h2.5L614,435.7z"/>
	<path fill="#010101" d="M624.4,442l-3.8-5.2v5.2h-1.7v-8h1.8l3.7,5v-5h1.7v8H624.4z"/>
	<path fill="#010101" d="M629.5,442v-6.5h-2.3V434h6.4v1.5h-2.3v6.5H629.5z"/>
	<path fill="#010101" d="M643.2,442l-3.8-5.2v5.2h-1.7v-8h1.8l3.7,5v-5h1.7v8H643.2z"/>
	<path fill="#010101" d="M651.9,442l-0.5-1.4H648l-0.5,1.4h-1.9l3.1-8h2.1l3.1,8H651.9z M649.7,435.7l-1.2,3.4h2.5L649.7,435.7z"/>
	<path fill="#010101" d="M661.6,442v-5.6l-2.3,5.6h-0.7l-2.3-5.6v5.6h-1.7v-8h2.4l1.9,4.8l1.9-4.8h2.4v8H661.6z"/>
	<path fill="#010101" d="M664.9,442v-8h5.7v1.5h-4v1.7h3.9v1.5h-3.9v1.8h4v1.5H664.9z"/>
</g>
<g>
	<path fill="#010101" d="M579.8,466.2v-8h5.7v1.5h-4v1.7h3.9v1.5h-3.9v3.3H579.8z"/>
	<path fill="#010101" d="M586.3,462.2c0-2.4,1.8-4.1,4.2-4.1c2.4,0,4.2,1.7,4.2,4.1s-1.8,4.1-4.2,4.1
		C588.1,466.3,586.3,464.6,586.3,462.2z M592.9,462.2c0-1.5-1-2.6-2.4-2.6c-1.5,0-2.4,1.1-2.4,2.6c0,1.5,0.9,2.6,2.4,2.6
		C592,464.8,592.9,463.6,592.9,462.2z"/>
	<path fill="#010101" d="M600.4,466.2l-1.6-2.8h-1.2v2.8h-1.7v-8h3.7c1.7,0,2.7,1.1,2.7,2.6c0,1.4-0.9,2.2-1.8,2.4l1.8,3H600.4z
		 M600.6,460.7c0-0.7-0.5-1.1-1.2-1.1h-1.8v2.2h1.8C600,461.8,600.6,461.4,600.6,460.7z"/>
	<path fill="#010101" d="M606.7,466.2v-8h4.2c1.5,0,2.3,1,2.3,2c0,1-0.6,1.7-1.4,1.8c0.9,0.1,1.5,1,1.5,2c0,1.2-0.8,2.2-2.3,2.2
		H606.7z M611.4,460.5c0-0.5-0.4-0.9-0.9-0.9h-2.1v1.7h2.1C611.1,461.4,611.4,461,611.4,460.5z M611.6,463.8c0-0.5-0.4-0.9-1-0.9
		h-2.2v1.9h2.2C611.2,464.7,611.6,464.3,611.6,463.8z"/>
	<path fill="#010101" d="M619.1,466.2l-1.6-2.8h-1.2v2.8h-1.7v-8h3.7c1.7,0,2.7,1.1,2.7,2.6c0,1.4-0.9,2.2-1.8,2.4l1.8,3H619.1z
		 M619.3,460.7c0-0.7-0.5-1.1-1.2-1.1h-1.8v2.2h1.8C618.8,461.8,619.3,461.4,619.3,460.7z"/>
	<path fill="#010101" d="M627.9,466.2l-0.5-1.4h-3.4l-0.5,1.4h-1.9l3.1-8h2.1l3.1,8H627.9z M625.6,459.9l-1.2,3.4h2.5L625.6,459.9z"
		/>
	<path fill="#010101" d="M636.1,466.2l-3.8-5.2v5.2h-1.7v-8h1.8l3.7,5v-5h1.7v8H636.1z"/>
	<path fill="#010101" d="M638.9,462.2c0-2.5,1.9-4.1,4.3-4.1c1.8,0,2.8,1,3.3,2l-1.5,0.7c-0.3-0.6-1.1-1.2-1.9-1.2
		c-1.5,0-2.5,1.1-2.5,2.6s1.1,2.6,2.5,2.6c0.8,0,1.5-0.5,1.9-1.2l1.5,0.7c-0.6,1-1.6,2-3.3,2C640.8,466.3,638.9,464.6,638.9,462.2z"
		/>
	<path fill="#010101" d="M653,466.2v-3.4h-3.8v3.4h-1.7v-8h1.7v3.1h3.8v-3.1h1.7v8H653z"/>
	<path fill="#010101" d="M657.3,462.6c0-1.4,1.8-1.6,1.8-2.4c0-0.4-0.3-0.7-0.9-0.7c-0.6,0-1.1,0.3-1.5,0.7l-1-1.1
		c0.6-0.7,1.6-1.2,2.6-1.2c1.5,0,2.5,0.8,2.5,1.9c0,1.8-2,1.9-2,2.9c0,0.2,0.1,0.4,0.2,0.5l-1.3,0.4
		C657.4,463.4,657.3,463.1,657.3,462.6z M657.3,465.3c0-0.5,0.4-1,1-1c0.5,0,1,0.4,1,1s-0.4,1-1,1
		C657.7,466.3,657.3,465.8,657.3,465.3z"/>
</g>
<g>
	<path fill="#010101" d="M599.1,492l-0.5-1.4h-3.4l-0.5,1.4h-1.9l3.1-8h2.1l3.1,8H599.1z M596.8,485.7l-1.2,3.4h2.5L596.8,485.7z"/>
	<path fill="#010101" d="M601.7,492v-8h3.2c2.5,0,4.2,1.6,4.2,4c0,2.4-1.7,4-4.2,4H601.7z M607.4,488c0-1.4-0.9-2.5-2.5-2.5h-1.5v5
		h1.5C606.5,490.5,607.4,489.4,607.4,488z"/>
	<path fill="#010101" d="M610.4,492v-8h3.2c2.5,0,4.2,1.6,4.2,4c0,2.4-1.7,4-4.2,4H610.4z M616,488c0-1.4-0.9-2.5-2.5-2.5h-1.5v5
		h1.5C615.1,490.5,616,489.4,616,488z"/>
	<path fill="#010101" d="M623.5,492l-1.6-2.8h-1.2v2.8H619v-8h3.7c1.7,0,2.7,1.1,2.7,2.6c0,1.4-0.9,2.2-1.8,2.4l1.8,3H623.5z
		 M623.7,486.6c0-0.7-0.5-1.1-1.2-1.1h-1.8v2.2h1.8C623.1,487.7,623.7,487.3,623.7,486.6z"/>
	<path fill="#010101" d="M626.7,492v-8h5.7v1.5h-4v1.7h3.9v1.5h-3.9v1.8h4v1.5H626.7z"/>
	<path fill="#010101" d="M633.1,490.9l0.9-1.3c0.6,0.6,1.4,1.1,2.5,1.1c0.9,0,1.4-0.4,1.4-0.9c0-1.4-4.6-0.4-4.6-3.5
		c0-1.3,1.2-2.4,3-2.4c1.3,0,2.3,0.4,3.1,1.1l-0.9,1.2c-0.6-0.6-1.5-0.9-2.3-0.9c-0.7,0-1.1,0.3-1.1,0.8c0,1.3,4.6,0.4,4.6,3.4
		c0,1.5-1,2.6-3.2,2.6C635,492.2,633.9,491.6,633.1,490.9z"/>
	<path fill="#010101" d="M640.3,490.9l0.9-1.3c0.6,0.6,1.4,1.1,2.5,1.1c0.9,0,1.4-0.4,1.4-0.9c0-1.4-4.6-0.4-4.6-3.5
		c0-1.3,1.2-2.4,3-2.4c1.3,0,2.3,0.4,3.1,1.1l-0.9,1.2c-0.6-0.6-1.5-0.9-2.3-0.9c-0.7,0-1.1,0.3-1.1,0.8c0,1.3,4.6,0.4,4.6,3.4
		c0,1.5-1,2.6-3.2,2.6C642.2,492.2,641.1,491.6,640.3,490.9z"/>
</g>
<g>
	<path fill="#010101" d="M312.8,543.9l-0.5-1.4h-3.4l-0.5,1.4h-1.9l3.1-8h2.1l3.1,8H312.8z M310.6,537.6l-1.2,3.4h2.5L310.6,537.6z"
		/>
	<path fill="#010101" d="M315.5,543.9v-8h3.2c2.5,0,4.2,1.6,4.2,4c0,2.4-1.7,4-4.2,4H315.5z M321.1,539.9c0-1.4-0.9-2.5-2.5-2.5
		h-1.5v5h1.5C320.2,542.4,321.1,541.3,321.1,539.9z"/>
	<path fill="#010101" d="M324.1,543.9v-8h3.2c2.5,0,4.2,1.6,4.2,4c0,2.4-1.7,4-4.2,4H324.1z M329.8,539.9c0-1.4-0.9-2.5-2.5-2.5
		h-1.5v5h1.5C328.8,542.4,329.8,541.3,329.8,539.9z"/>
	<path fill="#010101" d="M337.2,543.9l-1.6-2.8h-1.2v2.8h-1.7v-8h3.7c1.7,0,2.7,1.1,2.7,2.6c0,1.4-0.9,2.2-1.8,2.4l1.8,3H337.2z
		 M337.4,538.5c0-0.7-0.5-1.1-1.2-1.1h-1.8v2.2h1.8C336.9,539.6,337.4,539.2,337.4,538.5z"/>
	<path fill="#010101" d="M340.4,543.9v-8h5.7v1.5h-4v1.7h3.9v1.5h-3.9v1.8h4v1.5H340.4z"/>
	<path fill="#010101" d="M346.9,542.8l0.9-1.3c0.6,0.6,1.4,1.1,2.5,1.1c0.9,0,1.4-0.4,1.4-0.9c0-1.4-4.6-0.4-4.6-3.5
		c0-1.3,1.2-2.4,3-2.4c1.3,0,2.3,0.4,3.1,1.1l-0.9,1.2c-0.6-0.6-1.5-0.9-2.3-0.9c-0.7,0-1.1,0.3-1.1,0.8c0,1.3,4.6,0.4,4.6,3.4
		c0,1.5-1,2.6-3.2,2.6C348.7,544,347.6,543.5,346.9,542.8z"/>
	<path fill="#010101" d="M354.1,542.8l0.9-1.3c0.6,0.6,1.4,1.1,2.5,1.1c0.9,0,1.4-0.4,1.4-0.9c0-1.4-4.6-0.4-4.6-3.5
		c0-1.3,1.2-2.4,3-2.4c1.3,0,2.3,0.4,3.1,1.1l-0.9,1.2c-0.6-0.6-1.5-0.9-2.3-0.9c-0.7,0-1.1,0.3-1.1,0.8c0,1.3,4.6,0.4,4.6,3.4
		c0,1.5-1,2.6-3.2,2.6C355.9,544,354.8,543.5,354.1,542.8z"/>
	<path fill="#010101" d="M364.9,543.9v-8h1.7v8H364.9z"/>
	<path fill="#010101" d="M373.7,543.9l-3.8-5.2v5.2h-1.7v-8h1.8l3.7,5v-5h1.7v8H373.7z"/>
	<path fill="#010101" d="M376.9,543.9v-8h5.7v1.5h-4v1.7h3.9v1.5h-3.9v3.3H376.9z"/>
	<path fill="#010101" d="M383.4,539.9c0-2.4,1.8-4.1,4.2-4.1c2.4,0,4.2,1.7,4.2,4.1c0,2.4-1.8,4.1-4.2,4.1
		C385.2,544,383.4,542.3,383.4,539.9z M390,539.9c0-1.5-1-2.6-2.4-2.6c-1.5,0-2.4,1.1-2.4,2.6c0,1.5,0.9,2.6,2.4,2.6
		C389,542.5,390,541.4,390,539.9z"/>
	<path fill="#010101" d="M397.5,543.9l-1.6-2.8h-1.2v2.8H393v-8h3.7c1.7,0,2.7,1.1,2.7,2.6c0,1.4-0.9,2.2-1.8,2.4l1.8,3H397.5z
		 M397.7,538.5c0-0.7-0.5-1.1-1.2-1.1h-1.8v2.2h1.8C397.1,539.6,397.7,539.2,397.7,538.5z"/>
	<path fill="#010101" d="M407.6,543.9v-5.6l-2.3,5.6h-0.7l-2.3-5.6v5.6h-1.7v-8h2.4l1.9,4.8l1.9-4.8h2.4v8H407.6z"/>
	<path fill="#010101" d="M416.5,543.9l-0.5-1.4h-3.4l-0.5,1.4h-1.9l3.1-8h2.1l3.1,8H416.5z M414.2,537.6L413,541h2.5L414.2,537.6z"
		/>
	<path fill="#010101" d="M420.2,543.9v-6.5h-2.3v-1.5h6.4v1.5h-2.3v6.5H420.2z"/>
	<path fill="#010101" d="M425.4,543.9v-8h1.7v8H425.4z"/>
	<path fill="#010101" d="M428.3,539.9c0-2.4,1.8-4.1,4.2-4.1c2.4,0,4.2,1.7,4.2,4.1c0,2.4-1.8,4.1-4.2,4.1
		C430,544,428.3,542.3,428.3,539.9z M434.9,539.9c0-1.5-1-2.6-2.4-2.6c-1.5,0-2.4,1.1-2.4,2.6c0,1.5,0.9,2.6,2.4,2.6
		C433.9,542.5,434.9,541.4,434.9,539.9z"/>
	<path fill="#010101" d="M443.3,543.9l-3.8-5.2v5.2h-1.7v-8h1.8l3.7,5v-5h1.7v8H443.3z"/>
</g>
<g>
	<path fill="#010101" d="M289.7,567.9v-6.5h-2.3v-1.5h6.4v1.5h-2.3v6.5H289.7z"/>
	<path fill="#010101" d="M299.5,567.9l-0.5-1.4h-3.4l-0.5,1.4h-1.9l3.1-8h2.1l3.1,8H299.5z M297.3,561.6l-1.2,3.4h2.5L297.3,561.6z"
		/>
	<path fill="#010101" d="M307.5,567.9l-2-2.9l-2,2.9h-2l2.9-4.1l-2.7-3.9h2l1.8,2.7l1.8-2.7h2.1l-2.7,3.9l2.9,4.1H307.5z"/>
	<path fill="#010101" d="M313.3,567.9v-8h5.7v1.5h-4v1.7h3.9v1.5H315v1.8h4v1.5H313.3z"/>
	<path fill="#010101" d="M325.5,567.9l-2-2.9l-2,2.9h-2l2.9-4.1l-2.7-3.9h2l1.8,2.7l1.8-2.7h2.1l-2.7,3.9l2.9,4.1H325.5z"/>
	<path fill="#010101" d="M328.3,567.9v-8h5.7v1.5h-4v1.7h3.9v1.5H330v1.8h4v1.5H328.3z"/>
	<path fill="#010101" d="M342.3,567.9v-5.6l-2.3,5.6h-0.7l-2.3-5.6v5.6h-1.7v-8h2.4l1.9,4.8l1.9-4.8h2.4v8H342.3z"/>
	<path fill="#010101" d="M345.6,567.9v-8h3.7c1.7,0,2.7,1.2,2.7,2.6c0,1.4-1,2.6-2.7,2.6h-2v2.8H345.6z M350.3,562.5
		c0-0.7-0.5-1.1-1.2-1.1h-1.8v2.2h1.8C349.8,563.6,350.3,563.2,350.3,562.5z"/>
	<path fill="#010101" d="M354.9,567.9v-6.5h-2.3v-1.5h6.4v1.5h-2.3v6.5H354.9z"/>
	<path fill="#010101" d="M360.1,567.9v-8h1.7v8H360.1z"/>
	<path fill="#010101" d="M363,563.9c0-2.4,1.8-4.1,4.2-4.1c2.4,0,4.2,1.7,4.2,4.1c0,2.4-1.8,4.1-4.2,4.1
		C364.7,568.1,363,566.3,363,563.9z M369.6,563.9c0-1.5-1-2.6-2.4-2.6c-1.5,0-2.4,1.1-2.4,2.6c0,1.5,0.9,2.6,2.4,2.6
		C368.6,566.6,369.6,565.4,369.6,563.9z"/>
	<path fill="#010101" d="M378,567.9l-3.8-5.2v5.2h-1.7v-8h1.8l3.7,5v-5h1.7v8H378z"/>
	<path fill="#010101" d="M384.4,567.9v-8h1.7v8H384.4z"/>
	<path fill="#010101" d="M393.2,567.9l-3.8-5.2v5.2h-1.7v-8h1.8l3.7,5v-5h1.7v8H393.2z"/>
	<path fill="#010101" d="M396.4,567.9v-8h5.7v1.5h-4v1.7h3.9v1.5h-3.9v3.3H396.4z"/>
	<path fill="#010101" d="M402.9,563.9c0-2.4,1.8-4.1,4.2-4.1c2.4,0,4.2,1.7,4.2,4.1c0,2.4-1.8,4.1-4.2,4.1
		C404.6,568.1,402.9,566.3,402.9,563.9z M409.5,563.9c0-1.5-1-2.6-2.4-2.6c-1.5,0-2.4,1.1-2.4,2.6c0,1.5,0.9,2.6,2.4,2.6
		C408.5,566.6,409.5,565.4,409.5,563.9z"/>
	<path fill="#010101" d="M416.9,567.9l-1.6-2.8h-1.2v2.8h-1.7v-8h3.7c1.7,0,2.7,1.1,2.7,2.6c0,1.4-0.9,2.2-1.8,2.4l1.8,3H416.9z
		 M417.1,562.5c0-0.7-0.5-1.1-1.2-1.1h-1.8v2.2h1.8C416.6,563.6,417.1,563.2,417.1,562.5z"/>
	<path fill="#010101" d="M427.1,567.9v-5.6l-2.3,5.6h-0.7l-2.3-5.6v5.6h-1.7v-8h2.4l1.9,4.8l1.9-4.8h2.4v8H427.1z"/>
	<path fill="#010101" d="M435.9,567.9l-0.5-1.4H432l-0.5,1.4h-1.9l3.1-8h2.1l3.1,8H435.9z M433.7,561.6l-1.2,3.4h2.5L433.7,561.6z"
		/>
	<path fill="#010101" d="M439.7,567.9v-6.5h-2.3v-1.5h6.4v1.5h-2.3v6.5H439.7z"/>
	<path fill="#010101" d="M444.8,567.9v-8h1.7v8H444.8z"/>
	<path fill="#010101" d="M447.7,563.9c0-2.4,1.8-4.1,4.2-4.1c2.4,0,4.2,1.7,4.2,4.1c0,2.4-1.8,4.1-4.2,4.1
		C449.5,568.1,447.7,566.3,447.7,563.9z M454.3,563.9c0-1.5-1-2.6-2.4-2.6c-1.5,0-2.4,1.1-2.4,2.6c0,1.5,0.9,2.6,2.4,2.6
		C453.4,566.6,454.3,565.4,454.3,563.9z"/>
	<path fill="#010101" d="M462.8,567.9l-3.8-5.2v5.2h-1.7v-8h1.8l3.7,5v-5h1.7v8H462.8z"/>
</g>
<g>
	<path fill="#010101" d="M336.1,591.9v-8h3.2c2.5,0,4.2,1.6,4.2,4c0,2.4-1.7,4-4.2,4H336.1z M341.7,587.9c0-1.4-0.9-2.5-2.5-2.5
		h-1.5v5h1.5C340.8,590.4,341.7,589.2,341.7,587.9z"/>
	<path fill="#010101" d="M344.7,591.9v-8h5.7v1.5h-4v1.7h3.9v1.5h-3.9v1.8h4v1.5H344.7z"/>
	<path fill="#010101" d="M351.3,587.9c0-2.5,1.9-4.1,4.3-4.1c1.8,0,2.8,1,3.3,2l-1.5,0.7c-0.3-0.6-1.1-1.2-1.9-1.2
		c-1.5,0-2.5,1.1-2.5,2.6c0,1.5,1.1,2.6,2.5,2.6c0.8,0,1.5-0.5,1.9-1.2l1.5,0.7c-0.6,1-1.6,2-3.3,2
		C353.2,592,351.3,590.3,351.3,587.9z"/>
	<path fill="#010101" d="M359.9,591.9v-8h1.7v6.5h3.4v1.5H359.9z"/>
	<path fill="#010101" d="M371.7,591.9l-0.5-1.4h-3.4l-0.5,1.4h-1.9l3.1-8h2.1l3.1,8H371.7z M369.5,585.6l-1.2,3.4h2.5L369.5,585.6z"
		/>
	<path fill="#010101" d="M378.9,591.9l-1.6-2.8h-1.2v2.8h-1.7v-8h3.7c1.7,0,2.7,1.1,2.7,2.6c0,1.4-0.9,2.2-1.8,2.4l1.8,3H378.9z
		 M379.1,586.4c0-0.7-0.5-1.1-1.2-1.1h-1.8v2.2h1.8C378.6,587.5,379.1,587.1,379.1,586.4z"/>
	<path fill="#010101" d="M387.6,591.9l-0.5-1.4h-3.4l-0.5,1.4h-1.9l3.1-8h2.1l3.1,8H387.6z M385.4,585.6l-1.2,3.4h2.5L385.4,585.6z"
		/>
	<path fill="#010101" d="M391.4,591.9v-6.5h-2.3v-1.5h6.4v1.5h-2.3v6.5H391.4z"/>
	<path fill="#010101" d="M396.6,591.9v-8h1.7v8H396.6z"/>
	<path fill="#010101" d="M399.5,587.9c0-2.4,1.8-4.1,4.2-4.1c2.4,0,4.2,1.7,4.2,4.1c0,2.4-1.8,4.1-4.2,4.1
		C401.2,592,399.5,590.3,399.5,587.9z M406.1,587.9c0-1.5-1-2.6-2.4-2.6c-1.5,0-2.4,1.1-2.4,2.6c0,1.5,0.9,2.6,2.4,2.6
		C405.1,590.5,406.1,589.4,406.1,587.9z"/>
	<path fill="#010101" d="M414.5,591.9l-3.8-5.2v5.2H409v-8h1.8l3.7,5v-5h1.7v8H414.5z"/>
</g>
<g>
	<path fill="#010101" d="M580,591.9v-8h3.2c2.5,0,4.2,1.6,4.2,4c0,2.4-1.7,4-4.2,4H580z M585.6,587.9c0-1.4-0.9-2.5-2.5-2.5h-1.5v5
		h1.5C584.7,590.4,585.6,589.2,585.6,587.9z"/>
	<path fill="#010101" d="M588.6,591.9v-8h5.7v1.5h-4v1.7h3.9v1.5h-3.9v1.8h4v1.5H588.6z"/>
	<path fill="#010101" d="M595.2,587.9c0-2.5,1.9-4.1,4.3-4.1c1.8,0,2.8,1,3.3,2l-1.5,0.7c-0.3-0.6-1.1-1.2-1.9-1.2
		c-1.5,0-2.5,1.1-2.5,2.6c0,1.5,1.1,2.6,2.5,2.6c0.8,0,1.5-0.5,1.9-1.2l1.5,0.7c-0.6,1-1.6,2-3.3,2C597,592,595.2,590.3,595.2,587.9
		z"/>
	<path fill="#010101" d="M603.8,591.9v-8h1.7v6.5h3.4v1.5H603.8z"/>
	<path fill="#010101" d="M615.6,591.9l-0.5-1.4h-3.4l-0.5,1.4h-1.9l3.1-8h2.1l3.1,8H615.6z M613.4,585.6l-1.2,3.4h2.5L613.4,585.6z"
		/>
	<path fill="#010101" d="M622.8,591.9l-1.6-2.8H620v2.8h-1.7v-8h3.7c1.7,0,2.7,1.1,2.7,2.6c0,1.4-0.9,2.2-1.8,2.4l1.8,3H622.8z
		 M623,586.4c0-0.7-0.5-1.1-1.2-1.1H620v2.2h1.8C622.5,587.5,623,587.1,623,586.4z"/>
	<path fill="#010101" d="M631.5,591.9l-0.5-1.4h-3.4l-0.5,1.4h-1.9l3.1-8h2.1l3.1,8H631.5z M629.3,585.6l-1.2,3.4h2.5L629.3,585.6z"
		/>
	<path fill="#010101" d="M635.3,591.9v-6.5H633v-1.5h6.4v1.5H637v6.5H635.3z"/>
	<path fill="#010101" d="M640.4,591.9v-8h1.7v8H640.4z"/>
	<path fill="#010101" d="M643.3,587.9c0-2.4,1.8-4.1,4.2-4.1c2.4,0,4.2,1.7,4.2,4.1c0,2.4-1.8,4.1-4.2,4.1
		C645.1,592,643.3,590.3,643.3,587.9z M650,587.9c0-1.5-1-2.6-2.4-2.6c-1.5,0-2.4,1.1-2.4,2.6c0,1.5,0.9,2.6,2.4,2.6
		C649,590.5,650,589.4,650,587.9z"/>
	<path fill="#010101" d="M658.4,591.9l-3.8-5.2v5.2h-1.7v-8h1.8l3.7,5v-5h1.7v8H658.4z"/>
</g>
<line fill="none" stroke="#FFFFFF" stroke-miterlimit="10" x1="295.7" y1="528" x2="456.5" y2="528"/>
<line fill="none" stroke="#FFFFFF" stroke-miterlimit="10" x1="295.7" y1="552.5" x2="456.5" y2="552.5"/>
<line fill="none" stroke="#FFFFFF" stroke-miterlimit="10" x1="295.7" y1="576.5" x2="456.5" y2="576.5"/>
<g>
	<polygon fill="#58595B" points="486.9,400.3 265.4,400.3 264.3,400.3 264.3,401.3 264.3,424.8 264.3,425.8 265.4,425.8 
		486.9,425.8 487.9,425.8 487.9,424.8 487.9,401.3 487.9,400.3 	"/>
	<g>
		<g>
			<path fill="#010101" d="M358.3,417.6v-8h1.7v8H358.3z"/>
			<path fill="#010101" d="M366.1,417.6l-1.6-2.8h-1.2v2.8h-1.7v-8h3.7c1.7,0,2.7,1.1,2.7,2.6c0,1.4-0.9,2.2-1.8,2.4l1.8,3H366.1z
				 M366.2,412.2c0-0.7-0.5-1.1-1.2-1.1h-1.8v2.2h1.8C365.7,413.2,366.2,412.8,366.2,412.2z"/>
			<path fill="#010101" d="M372.1,416.5l0.9-1.2c0.5,0.6,1.3,0.9,2.1,0.9c0.9,0,1.5-0.5,1.5-1.2c0-0.7-0.5-1.2-1.4-1.2
				c-0.7,0-1.2,0.2-1.7,0.6l-1.2-0.3v-4.6h5.5v1.5h-3.8v2c0.4-0.4,1-0.7,1.8-0.7c1.4,0,2.6,1,2.6,2.6c0,1.7-1.3,2.8-3.2,2.8
				C373.8,417.7,372.8,417.3,372.1,416.5z"/>
			<path fill="#010101" d="M379.6,416.9l0.8-1.3c0.4,0.4,0.9,0.6,1.6,0.6c1.3,0,2-1.1,2-2.3c0-0.1,0-0.1,0-0.2c-0.4,0.5-1.2,1-2.1,1
				c-1.4,0-2.7-0.9-2.7-2.6c0-1.6,1.2-2.7,3.1-2.7c2.4,0,3.4,1.9,3.4,4.1c0,2.4-1.4,4.1-3.7,4.1C381,417.7,380.2,417.4,379.6,416.9z
				 M384,412.6c-0.1-0.8-0.5-1.6-1.6-1.6c-0.9,0-1.4,0.6-1.4,1.2c0,0.8,0.7,1.2,1.5,1.2C383,413.3,383.6,413.1,384,412.6z"/>
			<path fill="#010101" d="M386.7,416.5l0.9-1.2c0.5,0.6,1.3,0.9,2.1,0.9c0.9,0,1.5-0.5,1.5-1.2c0-0.7-0.5-1.2-1.4-1.2
				c-0.7,0-1.2,0.2-1.7,0.6l-1.2-0.3v-4.6h5.5v1.5h-3.8v2c0.4-0.4,1-0.7,1.8-0.7c1.4,0,2.6,1,2.6,2.6c0,1.7-1.3,2.8-3.2,2.8
				C388.4,417.7,387.4,417.3,386.7,416.5z"/>
		</g>
		<g>
			<path fill="#FFFFFF" d="M358.3,417.6v-8h1.7v8H358.3z"/>
			<path fill="#FFFFFF" d="M366.1,417.6l-1.6-2.8h-1.2v2.8h-1.7v-8h3.7c1.7,0,2.7,1.1,2.7,2.6c0,1.4-0.9,2.2-1.8,2.4l1.8,3H366.1z
				 M366.2,412.2c0-0.7-0.5-1.1-1.2-1.1h-1.8v2.2h1.8C365.7,413.2,366.2,412.8,366.2,412.2z"/>
			<path fill="#FFFFFF" d="M372.1,416.5l0.9-1.2c0.5,0.6,1.3,0.9,2.1,0.9c0.9,0,1.5-0.5,1.5-1.2c0-0.7-0.5-1.2-1.4-1.2
				c-0.7,0-1.2,0.2-1.7,0.6l-1.2-0.3v-4.6h5.5v1.5h-3.8v2c0.4-0.4,1-0.7,1.8-0.7c1.4,0,2.6,1,2.6,2.6c0,1.7-1.3,2.8-3.2,2.8
				C373.8,417.7,372.8,417.3,372.1,416.5z"/>
			<path fill="#FFFFFF" d="M379.6,416.9l0.8-1.3c0.4,0.4,0.9,0.6,1.6,0.6c1.3,0,2-1.1,2-2.3c0-0.1,0-0.1,0-0.2c-0.4,0.5-1.2,1-2.1,1
				c-1.4,0-2.7-0.9-2.7-2.6c0-1.6,1.2-2.7,3.1-2.7c2.4,0,3.4,1.9,3.4,4.1c0,2.4-1.4,4.1-3.7,4.1C381,417.7,380.2,417.4,379.6,416.9z
				 M384,412.6c-0.1-0.8-0.5-1.6-1.6-1.6c-0.9,0-1.4,0.6-1.4,1.2c0,0.8,0.7,1.2,1.5,1.2C383,413.3,383.6,413.1,384,412.6z"/>
			<path fill="#FFFFFF" d="M386.7,416.5l0.9-1.2c0.5,0.6,1.3,0.9,2.1,0.9c0.9,0,1.5-0.5,1.5-1.2c0-0.7-0.5-1.2-1.4-1.2
				c-0.7,0-1.2,0.2-1.7,0.6l-1.2-0.3v-4.6h5.5v1.5h-3.8v2c0.4-0.4,1-0.7,1.8-0.7c1.4,0,2.6,1,2.6,2.6c0,1.7-1.3,2.8-3.2,2.8
				C388.4,417.7,387.4,417.3,386.7,416.5z"/>
		</g>
	</g>
</g>
<g>
	<g>
		<rect x="508.2" y="401.3" fill="#58595B" width="223.6" height="23.5"/>
	</g>
	<g>
		<g>
			<path fill="#010101" d="M602.8,417.6v-8h1.7v8H602.8z"/>
			<path fill="#010101" d="M610.6,417.6l-1.6-2.8h-1.2v2.8h-1.7v-8h3.7c1.7,0,2.7,1.1,2.7,2.6c0,1.4-0.9,2.2-1.8,2.4l1.8,3H610.6z
				 M610.8,412.2c0-0.7-0.5-1.1-1.2-1.1h-1.8v2.2h1.8C610.3,413.2,610.8,412.8,610.8,412.2z"/>
			<path fill="#010101" d="M616.7,416.5l0.9-1.2c0.5,0.6,1.3,0.9,2.1,0.9c0.9,0,1.5-0.5,1.5-1.2c0-0.7-0.5-1.2-1.4-1.2
				c-0.7,0-1.2,0.2-1.7,0.6l-1.2-0.3v-4.6h5.5v1.5h-3.8v2c0.4-0.4,1-0.7,1.8-0.7c1.4,0,2.6,1,2.6,2.6c0,1.7-1.3,2.8-3.2,2.8
				C618.4,417.7,617.4,417.3,616.7,416.5z"/>
			<path fill="#010101" d="M624.2,416.9l0.8-1.3c0.4,0.4,0.9,0.6,1.6,0.6c1.3,0,2-1.1,2-2.3c0-0.1,0-0.1,0-0.2c-0.4,0.5-1.2,1-2.1,1
				c-1.4,0-2.7-0.9-2.7-2.6c0-1.6,1.2-2.7,3.1-2.7c2.4,0,3.4,1.9,3.4,4.1c0,2.4-1.4,4.1-3.7,4.1
				C625.6,417.7,624.8,417.4,624.2,416.9z M628.6,412.6c-0.1-0.8-0.5-1.6-1.6-1.6c-0.9,0-1.4,0.6-1.4,1.2c0,0.8,0.7,1.2,1.5,1.2
				C627.6,413.3,628.2,413.1,628.6,412.6z"/>
			<path fill="#010101" d="M631.1,413.6c0-2.4,1.4-4.1,3.7-4.1c1,0,1.8,0.3,2.4,0.8l-0.8,1.3c-0.4-0.4-0.9-0.6-1.6-0.6
				c-1.2,0-2,1-2,2.3c0,0.1,0,0.1,0,0.2c0.4-0.5,1.2-1,2.1-1c1.4,0,2.7,0.9,2.7,2.6c0,1.6-1.2,2.7-3.1,2.7
				C632.1,417.7,631.1,415.9,631.1,413.6z M635.9,415c0-0.8-0.7-1.2-1.5-1.2c-0.6,0-1.2,0.3-1.6,0.8c0.1,0.8,0.5,1.6,1.6,1.6
				C635.4,416.2,635.9,415.6,635.9,415z"/>
		</g>
		<g>
			<path fill="#FFFFFF" d="M602.8,417.6v-8h1.7v8H602.8z"/>
			<path fill="#FFFFFF" d="M610.6,417.6l-1.6-2.8h-1.2v2.8h-1.7v-8h3.7c1.7,0,2.7,1.1,2.7,2.6c0,1.4-0.9,2.2-1.8,2.4l1.8,3H610.6z
				 M610.8,412.2c0-0.7-0.5-1.1-1.2-1.1h-1.8v2.2h1.8C610.3,413.2,610.8,412.8,610.8,412.2z"/>
			<path fill="#FFFFFF" d="M616.7,416.5l0.9-1.2c0.5,0.6,1.3,0.9,2.1,0.9c0.9,0,1.5-0.5,1.5-1.2c0-0.7-0.5-1.2-1.4-1.2
				c-0.7,0-1.2,0.2-1.7,0.6l-1.2-0.3v-4.6h5.5v1.5h-3.8v2c0.4-0.4,1-0.7,1.8-0.7c1.4,0,2.6,1,2.6,2.6c0,1.7-1.3,2.8-3.2,2.8
				C618.4,417.7,617.4,417.3,616.7,416.5z"/>
			<path fill="#FFFFFF" d="M624.2,416.9l0.8-1.3c0.4,0.4,0.9,0.6,1.6,0.6c1.3,0,2-1.1,2-2.3c0-0.1,0-0.1,0-0.2c-0.4,0.5-1.2,1-2.1,1
				c-1.4,0-2.7-0.9-2.7-2.6c0-1.6,1.2-2.7,3.1-2.7c2.4,0,3.4,1.9,3.4,4.1c0,2.4-1.4,4.1-3.7,4.1
				C625.6,417.7,624.8,417.4,624.2,416.9z M628.6,412.6c-0.1-0.8-0.5-1.6-1.6-1.6c-0.9,0-1.4,0.6-1.4,1.2c0,0.8,0.7,1.2,1.5,1.2
				C627.6,413.3,628.2,413.1,628.6,412.6z"/>
			<path fill="#FFFFFF" d="M631.1,413.6c0-2.4,1.4-4.1,3.7-4.1c1,0,1.8,0.3,2.4,0.8l-0.8,1.3c-0.4-0.4-0.9-0.6-1.6-0.6
				c-1.2,0-2,1-2,2.3c0,0.1,0,0.1,0,0.2c0.4-0.5,1.2-1,2.1-1c1.4,0,2.7,0.9,2.7,2.6c0,1.6-1.2,2.7-3.1,2.7
				C632.1,417.7,631.1,415.9,631.1,413.6z M635.9,415c0-0.8-0.7-1.2-1.5-1.2c-0.6,0-1.2,0.3-1.6,0.8c0.1,0.8,0.5,1.6,1.6,1.6
				C635.4,416.2,635.9,415.6,635.9,415z"/>
		</g>
	</g>
</g>
<rect x="269.7" y="426.1" fill="#F5B951" width="212.9" height="77.2"/>
<rect x="513.6" y="527.3" fill="#F5B951" width="212.9" height="25.2"/>
<g>
	<path fill="#010101" d="M329.5,441v-5.8l-1.3,1.4l-1-1l2.5-2.5h1.5v8H329.5z"/>
	<path fill="#010101" d="M341,441l-2-2.9l-2,2.9h-2l2.9-4.1l-2.7-3.9h2l1.8,2.7l1.8-2.7h2.1l-2.7,3.9l2.9,4.1H341z"/>
	<path fill="#010101" d="M346.9,441v-8h3.2c2.5,0,4.2,1.6,4.2,4c0,2.4-1.7,4-4.2,4H346.9z M352.6,437c0-1.4-0.9-2.5-2.5-2.5h-1.5v5
		h1.5C351.7,439.5,352.6,438.4,352.6,437z"/>
	<path fill="#010101" d="M355.1,437c0-2.4,1.8-4.1,4.2-4.1c2.4,0,4.2,1.7,4.2,4.1c0,2.4-1.8,4.1-4.2,4.1
		C356.9,441.2,355.1,439.5,355.1,437z M361.8,437c0-1.5-1-2.6-2.4-2.6c-1.5,0-2.4,1.1-2.4,2.6c0,1.5,0.9,2.6,2.4,2.6
		C360.8,439.7,361.8,438.5,361.8,437z"/>
	<path fill="#010101" d="M364.3,437c0-2.5,1.9-4.1,4.3-4.1c1.8,0,2.8,1,3.3,2l-1.5,0.7c-0.3-0.6-1.1-1.2-1.9-1.2
		c-1.5,0-2.5,1.1-2.5,2.6c0,1.5,1.1,2.6,2.5,2.6c0.8,0,1.5-0.5,1.9-1.2l1.5,0.7c-0.6,1-1.6,2-3.3,2
		C366.2,441.2,364.3,439.5,364.3,437z"/>
	<path fill="#010101" d="M373,437.8V433h1.7v4.8c0,1.1,0.6,1.9,1.9,1.9s1.9-0.8,1.9-1.9V433h1.7v4.8c0,2-1.2,3.3-3.6,3.3
		S373,439.8,373,437.8z"/>
	<path fill="#010101" d="M388.7,441v-5.6l-2.3,5.6h-0.7l-2.3-5.6v5.6h-1.7v-8h2.4l1.9,4.8l1.9-4.8h2.4v8H388.7z"/>
	<path fill="#010101" d="M392,441v-8h5.7v1.5h-4v1.7h3.9v1.5h-3.9v1.8h4v1.5H392z"/>
	<path fill="#010101" d="M404.5,441l-3.8-5.2v5.2H399v-8h1.8l3.7,5v-5h1.7v8H404.5z"/>
	<path fill="#010101" d="M409.6,441v-6.5h-2.3V433h6.4v1.5h-2.3v6.5H409.6z"/>
	<path fill="#010101" d="M423.3,441l-0.5-1.4h-3.4l-0.5,1.4H417l3.1-8h2.1l3.1,8H423.3z M421.1,434.7l-1.2,3.4h2.5L421.1,434.7z"/>
</g>
<g>
	<path fill="#010101" d="M329.6,466.2v-5.8l-1.3,1.4l-1-1l2.5-2.5h1.5v8H329.6z"/>
	<path fill="#010101" d="M341.2,466.2l-2-2.9l-2,2.9h-2l2.9-4.1l-2.7-3.9h2l1.8,2.7l1.8-2.7h2.1l-2.7,3.9l2.9,4.1H341.2z"/>
	<path fill="#010101" d="M347,466.2v-8h3.2c2.5,0,4.2,1.6,4.2,4s-1.7,4-4.2,4H347z M352.7,462.2c0-1.4-0.9-2.5-2.5-2.5h-1.5v5h1.5
		C351.8,464.7,352.7,463.5,352.7,462.2z"/>
	<path fill="#010101" d="M355.3,462.2c0-2.4,1.8-4.1,4.2-4.1c2.4,0,4.2,1.7,4.2,4.1s-1.8,4.1-4.2,4.1
		C357,466.3,355.3,464.6,355.3,462.2z M361.9,462.2c0-1.5-1-2.6-2.4-2.6c-1.5,0-2.4,1.1-2.4,2.6c0,1.5,0.9,2.6,2.4,2.6
		C360.9,464.8,361.9,463.6,361.9,462.2z"/>
	<path fill="#010101" d="M364.5,462.2c0-2.5,1.9-4.1,4.3-4.1c1.8,0,2.8,1,3.3,2l-1.5,0.7c-0.3-0.6-1.1-1.2-1.9-1.2
		c-1.5,0-2.5,1.1-2.5,2.6s1.1,2.6,2.5,2.6c0.8,0,1.5-0.5,1.9-1.2l1.5,0.7c-0.6,1-1.6,2-3.3,2C366.3,466.3,364.5,464.6,364.5,462.2z"
		/>
	<path fill="#010101" d="M373.1,463v-4.8h1.7v4.8c0,1.1,0.6,1.9,1.9,1.9s1.9-0.8,1.9-1.9v-4.8h1.7v4.8c0,2-1.2,3.3-3.6,3.3
		S373.1,464.9,373.1,463z"/>
	<path fill="#010101" d="M388.8,466.2v-5.6l-2.3,5.6h-0.7l-2.3-5.6v5.6h-1.7v-8h2.4l1.9,4.8l1.9-4.8h2.4v8H388.8z"/>
	<path fill="#010101" d="M392.1,466.2v-8h5.7v1.5h-4v1.7h3.9v1.5h-3.9v1.8h4v1.5H392.1z"/>
	<path fill="#010101" d="M404.7,466.2l-3.8-5.2v5.2h-1.7v-8h1.8l3.7,5v-5h1.7v8H404.7z"/>
	<path fill="#010101" d="M409.7,466.2v-6.5h-2.3v-1.5h6.4v1.5h-2.3v6.5H409.7z"/>
	<path fill="#010101" d="M417.9,466.2v-8h4.2c1.5,0,2.3,1,2.3,2c0,1-0.6,1.7-1.4,1.8c0.9,0.1,1.5,1,1.5,2c0,1.2-0.8,2.2-2.3,2.2
		H417.9z M422.7,460.5c0-0.5-0.4-0.9-0.9-0.9h-2.1v1.7h2.1C422.4,461.4,422.7,461,422.7,460.5z M422.9,463.8c0-0.5-0.4-0.9-1-0.9
		h-2.2v1.9h2.2C422.5,464.7,422.9,464.3,422.9,463.8z"/>
</g>
<g>
	<path fill="#010101" d="M287.4,492v-8h3.7c1.7,0,2.7,1.2,2.7,2.6c0,1.4-1,2.6-2.7,2.6h-2v2.8H287.4z M292.1,486.6
		c0-0.7-0.5-1.1-1.2-1.1h-1.8v2.2h1.8C291.6,487.7,292.1,487.2,292.1,486.6z"/>
	<path fill="#010101" d="M299.4,492l-1.6-2.8h-1.2v2.8h-1.7v-8h3.7c1.7,0,2.7,1.1,2.7,2.6c0,1.4-0.9,2.2-1.8,2.4l1.8,3H299.4z
		 M299.6,486.6c0-0.7-0.5-1.1-1.2-1.1h-1.8v2.2h1.8C299.1,487.7,299.6,487.3,299.6,486.6z"/>
	<path fill="#010101" d="M302.2,488c0-2.4,1.8-4.1,4.2-4.1c2.4,0,4.2,1.7,4.2,4.1c0,2.4-1.8,4.1-4.2,4.1
		C304,492.2,302.2,490.4,302.2,488z M308.8,488c0-1.5-1-2.6-2.4-2.6c-1.5,0-2.4,1.1-2.4,2.6c0,1.5,0.9,2.6,2.4,2.6
		C307.9,490.6,308.8,489.5,308.8,488z"/>
	<path fill="#010101" d="M311.4,488c0-2.4,1.8-4.1,4.2-4.1c2.4,0,4.2,1.7,4.2,4.1c0,2.4-1.8,4.1-4.2,4.1
		C313.2,492.2,311.4,490.4,311.4,488z M318,488c0-1.5-1-2.6-2.4-2.6c-1.5,0-2.4,1.1-2.4,2.6c0,1.5,0.9,2.6,2.4,2.6
		C317,490.6,318,489.5,318,488z"/>
	<path fill="#010101" d="M321,492v-8h5.7v1.5h-4v1.7h3.9v1.5h-3.9v3.3H321z"/>
	<path fill="#010101" d="M336.4,492l-0.5-1.4h-3.4L332,492H330l3.1-8h2.1l3.1,8H336.4z M334.2,485.7l-1.2,3.4h2.5L334.2,485.7z"/>
	<path fill="#010101" d="M338.5,490.9l0.9-1.3c0.6,0.6,1.4,1.1,2.5,1.1c0.9,0,1.4-0.4,1.4-0.9c0-1.4-4.6-0.4-4.6-3.5
		c0-1.3,1.2-2.4,3-2.4c1.3,0,2.3,0.4,3.1,1.1l-0.9,1.2c-0.6-0.6-1.5-0.9-2.3-0.9c-0.7,0-1.1,0.3-1.1,0.8c0,1.3,4.6,0.4,4.6,3.4
		c0,1.5-1,2.6-3.2,2.6C340.3,492.2,339.2,491.6,338.5,490.9z"/>
	<path fill="#010101" d="M349.3,492v-8h3.7c1.7,0,2.7,1.2,2.7,2.6c0,1.4-1,2.6-2.7,2.6h-2v2.8H349.3z M354,486.6
		c0-0.7-0.5-1.1-1.2-1.1H351v2.2h1.8C353.5,487.7,354,487.2,354,486.6z"/>
	<path fill="#010101" d="M361.4,492l-0.5-1.4h-3.4L357,492H355l3.1-8h2.1l3.1,8H361.4z M359.2,485.7l-1.2,3.4h2.5L359.2,485.7z"/>
	<path fill="#010101" d="M368.6,492l-1.6-2.8h-1.2v2.8h-1.7v-8h3.7c1.7,0,2.7,1.1,2.7,2.6c0,1.4-0.9,2.2-1.8,2.4l1.8,3H368.6z
		 M368.8,486.6c0-0.7-0.5-1.1-1.2-1.1h-1.8v2.2h1.8C368.3,487.7,368.8,487.3,368.8,486.6z"/>
	<path fill="#010101" d="M371.8,492v-8h5.7v1.5h-4v1.7h3.9v1.5h-3.9v1.8h4v1.5H371.8z"/>
	<path fill="#010101" d="M384.3,492l-3.8-5.2v5.2h-1.7v-8h1.8l3.7,5v-5h1.7v8H384.3z"/>
	<path fill="#010101" d="M389.4,492v-6.5h-2.3V484h6.4v1.5h-2.3v6.5H389.4z"/>
	<path fill="#010101" d="M396.8,492.2l2.8-8.5h1.1l-2.8,8.5H396.8z"/>
	<path fill="#010101" d="M404.2,488c0-2.5,1.9-4.1,4.3-4.1c1.7,0,2.7,0.8,3.3,1.8l-1.4,0.8c-0.4-0.6-1-1-1.9-1
		c-1.5,0-2.5,1.1-2.5,2.6c0,1.5,1.1,2.6,2.5,2.6c0.7,0,1.4-0.3,1.7-0.6v-1h-2.1v-1.5h3.8v3.1c-0.8,0.9-2,1.5-3.4,1.5
		C406.2,492.2,404.2,490.5,404.2,488z"/>
	<path fill="#010101" d="M413.3,488.8V484h1.7v4.7c0,1.1,0.6,1.9,1.9,1.9s1.9-0.8,1.9-1.9V484h1.7v4.8c0,2-1.2,3.3-3.6,3.3
		S413.3,490.8,413.3,488.8z"/>
	<path fill="#010101" d="M427.2,492l-0.5-1.4h-3.4l-0.5,1.4h-1.9l3.1-8h2.1l3.1,8H427.2z M425,485.7l-1.2,3.4h2.5L425,485.7z"/>
	<path fill="#010101" d="M434.4,492l-1.6-2.8h-1.2v2.8h-1.7v-8h3.7c1.7,0,2.7,1.1,2.7,2.6c0,1.4-0.9,2.2-1.8,2.4l1.8,3H434.4z
		 M434.6,486.6c0-0.7-0.5-1.1-1.2-1.1h-1.8v2.2h1.8C434,487.7,434.6,487.3,434.6,486.6z"/>
	<path fill="#010101" d="M437.6,492v-8h3.2c2.5,0,4.2,1.6,4.2,4c0,2.4-1.7,4-4.2,4H437.6z M443.2,488c0-1.4-0.9-2.5-2.5-2.5h-1.5v5
		h1.5C442.3,490.5,443.2,489.4,443.2,488z"/>
	<path fill="#010101" d="M446.2,492v-8h1.7v8H446.2z"/>
	<path fill="#010101" d="M455,492l-0.5-1.4h-3.4l-0.5,1.4h-1.9l3.1-8h2.1l3.1,8H455z M452.8,485.7l-1.2,3.4h2.5L452.8,485.7z"/>
	<path fill="#010101" d="M463.2,492l-3.8-5.2v5.2h-1.7v-8h1.8l3.7,5v-5h1.7v8H463.2z"/>
</g>
<line fill="none" stroke="#FFFFFF" stroke-miterlimit="10" x1="295.7" y1="448.7" x2="456.5" y2="448.7"/>
<line fill="none" stroke="#FFFFFF" stroke-miterlimit="10" x1="539.6" y1="448.7" x2="700.4" y2="448.7"/>
<line fill="none" stroke="#FFFFFF" stroke-miterlimit="10" x1="539.6" y1="475.7" x2="700.4" y2="475.7"/>
<g>
	<path fill="#010101" d="M571.4,513.8c0-2.5,1.9-4.1,4.3-4.1c1.8,0,2.8,1,3.3,2l-1.5,0.7c-0.3-0.6-1.1-1.2-1.9-1.2
		c-1.5,0-2.5,1.1-2.5,2.6s1.1,2.6,2.5,2.6c0.8,0,1.5-0.5,1.9-1.2l1.5,0.7c-0.6,1-1.6,2-3.3,2C573.2,517.9,571.4,516.2,571.4,513.8z"
		/>
	<path fill="#010101" d="M579.6,513.8c0-2.4,1.8-4.1,4.2-4.1c2.4,0,4.2,1.7,4.2,4.1c0,2.4-1.8,4.1-4.2,4.1
		C581.4,517.9,579.6,516.2,579.6,513.8z M586.2,513.8c0-1.5-1-2.6-2.4-2.6c-1.5,0-2.4,1.1-2.4,2.6c0,1.5,0.9,2.6,2.4,2.6
		C585.3,516.4,586.2,515.3,586.2,513.8z"/>
	<path fill="#010101" d="M594.7,517.8l-3.8-5.2v5.2h-1.7v-8h1.8l3.7,5v-5h1.7v8H594.7z"/>
	<path fill="#010101" d="M599.8,517.8v-6.5h-2.3v-1.5h6.4v1.5h-2.3v6.5H599.8z"/>
	<path fill="#010101" d="M609.7,517.8l-0.5-1.4h-3.4l-0.5,1.4h-1.9l3.1-8h2.1l3.1,8H609.7z M607.5,511.5l-1.2,3.4h2.5L607.5,511.5z"
		/>
	<path fill="#010101" d="M611.6,513.8c0-2.5,1.9-4.1,4.3-4.1c1.8,0,2.8,1,3.3,2l-1.5,0.7c-0.3-0.6-1.1-1.2-1.9-1.2
		c-1.5,0-2.5,1.1-2.5,2.6s1.1,2.6,2.5,2.6c0.8,0,1.5-0.5,1.9-1.2l1.5,0.7c-0.6,1-1.6,2-3.3,2C613.4,517.9,611.6,516.2,611.6,513.8z"
		/>
	<path fill="#010101" d="M622,517.8v-6.5h-2.3v-1.5h6.4v1.5h-2.3v6.5H622z"/>
	<path fill="#010101" d="M630.3,517.8v-8h3.2c2.5,0,4.2,1.6,4.2,4c0,2.4-1.7,4-4.2,4H630.3z M635.9,513.8c0-1.4-0.9-2.5-2.5-2.5H632
		v5h1.5C635,516.3,635.9,515.1,635.9,513.8z"/>
	<path fill="#010101" d="M638.9,517.8v-8h5.7v1.5h-4v1.7h3.9v1.5h-3.9v1.8h4v1.5H638.9z"/>
	<path fill="#010101" d="M647.7,517.8v-6.5h-2.3v-1.5h6.4v1.5h-2.3v6.5H647.7z"/>
	<path fill="#010101" d="M657.6,517.8l-0.5-1.4h-3.4l-0.5,1.4h-1.9l3.1-8h2.1l3.1,8H657.6z M655.4,511.5l-1.2,3.4h2.5L655.4,511.5z"
		/>
	<path fill="#010101" d="M660.3,517.8v-8h1.7v8H660.3z"/>
	<path fill="#010101" d="M663.6,517.8v-8h1.7v6.5h3.4v1.5H663.6z"/>
</g>
<g>
	<path fill="#010101" d="M553.6,543.9v-8h3.2c2.5,0,4.2,1.6,4.2,4c0,2.4-1.7,4-4.2,4H553.6z M559.3,539.9c0-1.4-0.9-2.5-2.5-2.5
		h-1.5v5h1.5C558.4,542.4,559.3,541.3,559.3,539.9z"/>
	<path fill="#010101" d="M561.9,539.9c0-2.4,1.8-4.1,4.2-4.1c2.4,0,4.2,1.7,4.2,4.1c0,2.4-1.8,4.1-4.2,4.1
		C563.6,544,561.9,542.3,561.9,539.9z M568.5,539.9c0-1.5-1-2.6-2.4-2.6c-1.5,0-2.4,1.1-2.4,2.6c0,1.5,0.9,2.6,2.4,2.6
		C567.5,542.5,568.5,541.4,568.5,539.9z"/>
	<path fill="#010101" d="M571,539.9c0-2.5,1.9-4.1,4.3-4.1c1.8,0,2.8,1,3.3,2l-1.5,0.7c-0.3-0.6-1.1-1.2-1.9-1.2
		c-1.5,0-2.5,1.1-2.5,2.6c0,1.5,1.1,2.6,2.5,2.6c0.8,0,1.5-0.5,1.9-1.2l1.5,0.7c-0.6,1-1.6,2-3.3,2C572.9,544,571,542.4,571,539.9z"
		/>
	<path fill="#010101" d="M579.7,540.7v-4.8h1.7v4.7c0,1.1,0.6,1.9,1.9,1.9s1.9-0.8,1.9-1.9v-4.7h1.7v4.8c0,2-1.2,3.3-3.6,3.3
		S579.7,542.7,579.7,540.7z"/>
	<path fill="#010101" d="M595.4,543.9v-5.6l-2.3,5.6h-0.7l-2.3-5.6v5.6h-1.7v-8h2.4l1.9,4.8l1.9-4.8h2.4v8H595.4z"/>
	<path fill="#010101" d="M598.7,543.9v-8h5.7v1.5h-4v1.7h3.9v1.5h-3.9v1.8h4v1.5H598.7z"/>
	<path fill="#010101" d="M611.2,543.9l-3.8-5.2v5.2h-1.7v-8h1.8l3.7,5v-5h1.7v8H611.2z"/>
	<path fill="#010101" d="M616.3,543.9v-6.5H614v-1.5h6.4v1.5H618v6.5H616.3z"/>
	<path fill="#010101" d="M624.1,539.9c0-2.5,1.9-4.1,4.3-4.1c1.8,0,2.8,1,3.3,2l-1.5,0.7c-0.3-0.6-1.1-1.2-1.9-1.2
		c-1.5,0-2.5,1.1-2.5,2.6c0,1.5,1.1,2.6,2.5,2.6c0.8,0,1.5-0.5,1.9-1.2l1.5,0.7c-0.6,1-1.6,2-3.3,2C626,544,624.1,542.4,624.1,539.9
		z"/>
	<path fill="#010101" d="M638.2,543.9v-3.4h-3.8v3.4h-1.7v-8h1.7v3.1h3.8v-3.1h1.7v8H638.2z"/>
	<path fill="#010101" d="M641.5,543.9v-8h5.7v1.5h-4v1.7h3.9v1.5h-3.9v1.8h4v1.5H641.5z"/>
	<path fill="#010101" d="M648.1,539.9c0-2.5,1.9-4.1,4.3-4.1c1.8,0,2.8,1,3.3,2l-1.5,0.7c-0.3-0.6-1.1-1.2-1.9-1.2
		c-1.5,0-2.5,1.1-2.5,2.6c0,1.5,1.1,2.6,2.5,2.6c0.8,0,1.5-0.5,1.9-1.2l1.5,0.7c-0.6,1-1.6,2-3.3,2C650,544,648.1,542.4,648.1,539.9
		z"/>
	<path fill="#010101" d="M661.5,543.9l-2.4-3.2l-0.6,0.7v2.5h-1.7v-8h1.7v3.6l2.8-3.6h2.1l-3.2,3.8l3.4,4.2H661.5z"/>
	<path fill="#010101" d="M664.4,543.9v-8h1.7v6.5h3.4v1.5H664.4z"/>
	<path fill="#010101" d="M670.7,543.9v-8h1.7v8H670.7z"/>
	<path fill="#010101" d="M673.4,542.8l0.9-1.3c0.6,0.6,1.4,1.1,2.5,1.1c0.9,0,1.4-0.4,1.4-0.9c0-1.4-4.6-0.4-4.6-3.5
		c0-1.3,1.2-2.4,3-2.4c1.3,0,2.3,0.4,3.1,1.1l-0.9,1.2c-0.6-0.6-1.5-0.9-2.3-0.9c-0.7,0-1.1,0.3-1.1,0.8c0,1.3,4.6,0.4,4.6,3.4
		c0,1.5-1,2.6-3.2,2.6C675.3,544,674.2,543.5,673.4,542.8z"/>
	<path fill="#010101" d="M682.9,543.9v-6.5h-2.3v-1.5h6.4v1.5h-2.3v6.5H682.9z"/>
</g>
<line fill="none" stroke="#FFFFFF" stroke-miterlimit="10" x1="539.6" y1="501.5" x2="700.4" y2="501.5"/>
<line fill="none" stroke="#FFFFFF" stroke-miterlimit="10" x1="295.7" y1="475.7" x2="456.5" y2="475.7"/>
<g>
	<circle fill="#010101" cx="620" cy="564.2" r="1.8"/>
	<circle fill="#010101" cx="620" cy="569.6" r="1.8"/>
	<circle fill="#010101" cx="620" cy="575" r="1.8"/>
</g>
</svg>
