<?xml version="1.0" encoding="UTF-8" standalone="no"?>
<svg width="40px" height="28px" viewBox="0 0 40 28" version="1.1" xmlns="http://www.w3.org/2000/svg" xmlns:xlink="http://www.w3.org/1999/xlink" xmlns:sketch="http://www.bohemiancoding.com/sketch/ns">
    <title>icn-awesome</title>
    <description>Created with Sketch (http://www.bohemiancoding.com/sketch)</description>
    <defs></defs>
    <g id="Page-1" stroke="none" stroke-width="1" fill="none" fill-rule="evenodd" sketch:type="MSPage">
        <g id="Artboard-2" sketch:type="MSArtboardGroup" transform="translate(-303.000000, -54.000000)" fill="#4C4C4C">
            <path d="M335,65.0625 C335,65.9182735 334.755428,66.7019195 334.266276,67.4134615 C334.35612,67.7307708 334.401042,68.0624983 334.401042,68.4086538 C334.401042,69.1490422 334.211373,69.8413429 333.832031,70.4855769 C333.861979,70.687501 333.876953,70.8942297 333.876953,71.1057692 C333.876953,72.0769279 333.577477,72.9326886 332.978516,73.6730769 C332.988498,75.0096221 332.56424,76.0649 331.705729,76.8389423 C330.847218,77.6129846 329.7142,78 328.306641,78 L327.767578,78 L326.375,78 C325.416662,78 324.470816,77.891828 323.537435,77.6754808 C322.604053,77.4591335 321.523444,77.1442328 320.295573,76.7307692 C319.137581,76.3461519 318.448786,76.1538462 318.229167,76.1538462 L313.916667,76.1538462 C313.387584,76.1538462 312.935874,75.9735595 312.561523,75.6129808 C312.187173,75.252402 312,74.8173102 312,74.3076923 L312,65.0769231 C312,64.5673051 312.187173,64.1322133 312.561523,63.7716346 C312.935874,63.4110559 313.387584,63.2307692 313.916667,63.2307692 L318.019531,63.2307692 C318.378908,62.9999988 319.062712,62.254814 320.070964,60.9951923 C320.649959,60.2740349 321.184025,59.6586564 321.673177,59.1490385 C321.912762,58.9086526 322.089952,58.4975991 322.204753,57.9158654 C322.319554,57.3341317 322.471787,56.7259647 322.661458,56.0913462 C322.851129,55.4567276 323.160588,54.937502 323.589844,54.5336538 C323.979169,54.1778828 324.428383,54 324.9375,54 C325.776046,54 326.529728,54.1562484 327.198568,54.46875 C327.867408,54.7812516 328.376517,55.2692275 328.725911,55.9326923 C329.075306,56.5961572 329.25,57.490379 329.25,58.6153846 C329.25,59.5096199 329.010419,60.4326875 328.53125,61.3846154 L331.166667,61.3846154 C332.204866,61.3846154 333.103295,61.7499963 333.861979,62.4807692 C334.620664,63.2115421 335,64.0721104 335,65.0625 Z M315.833333,73.3846154 C315.833333,73.1346141 315.738499,72.9182701 315.548828,72.7355769 C315.359157,72.5528837 315.13455,72.4615385 314.875,72.4615385 C314.61545,72.4615385 314.390843,72.5528837 314.201172,72.7355769 C314.011501,72.9182701 313.916667,73.1346141 313.916667,73.3846154 C313.916667,73.6346166 314.011501,73.8509606 314.201172,74.0336538 C314.390843,74.2163471 314.61545,74.3076923 314.875,74.3076923 C315.13455,74.3076923 315.359157,74.2163471 315.548828,74.0336538 C315.738499,73.8509606 315.833333,73.6346166 315.833333,73.3846154 Z M333.083333,65.0769231 C333.083333,64.586536 332.888674,64.1562519 332.499349,63.7860577 C332.110024,63.4158635 331.665801,63.2307692 331.166667,63.2307692 L325.895833,63.2307692 C325.895833,62.6730741 326.135414,61.9062549 326.614583,60.9302885 C327.093752,59.954322 327.333333,59.1826951 327.333333,58.6153846 C327.333333,57.6730722 327.173613,56.9759638 326.854167,56.5240385 C326.534721,56.0721131 325.895838,55.8461538 324.9375,55.8461538 C324.67795,56.0961551 324.488282,56.5048049 324.36849,57.0721154 C324.248697,57.6394259 324.096464,58.2427853 323.911784,58.8822115 C323.727104,59.5216378 323.430124,60.0480749 323.020833,60.4615385 C322.801214,60.6826934 322.416886,61.120189 321.867839,61.7740385 C321.827908,61.8221156 321.713109,61.966345 321.523437,62.2067308 C321.333766,62.4471166 321.176541,62.64423 321.051758,62.7980769 C320.926974,62.9519238 320.754775,63.1562487 320.535156,63.4110577 C320.315537,63.6658667 320.115886,63.877403 319.936198,64.0456731 C319.75651,64.2139431 319.564346,64.3846145 319.359701,64.5576923 C319.155055,64.7307701 318.955405,64.8605765 318.760742,64.9471154 C318.56608,65.0336543 318.38889,65.0769231 318.229167,65.0769231 L317.75,65.0769231 L317.75,74.3076923 L318.229167,74.3076923 C318.358942,74.3076923 318.516167,74.3221152 318.700846,74.3509615 C318.885526,74.3798078 319.050238,74.4110575 319.194987,74.4447115 C319.339736,74.4783656 319.529404,74.5312496 319.763997,74.6033654 C319.998591,74.6754811 320.173285,74.730769 320.288086,74.7692308 C320.402887,74.8076925 320.580077,74.8677881 320.819661,74.9495192 C321.059246,75.0312504 321.203993,75.0817307 321.253906,75.1009615 C323.360254,75.8028881 325.067268,76.1538462 326.375,76.1538462 L328.186849,76.1538462 C330.103525,76.1538462 331.061849,75.3509696 331.061849,73.7451923 C331.061849,73.4951911 331.036893,73.225963 330.986979,72.9375 C331.28646,72.7836531 331.523545,72.5312518 331.698242,72.1802885 C331.872939,71.8293252 331.960286,71.4759633 331.960286,71.1201923 C331.960286,70.7644213 331.870444,70.4326938 331.690755,70.125 C332.219838,69.6442284 332.484375,69.0721187 332.484375,68.4086538 C332.484375,68.168268 332.434462,67.9014438 332.334635,67.6081731 C332.234809,67.3149024 332.110027,67.0865393 331.960286,66.9230769 C332.279732,66.9134615 332.546765,66.6875022 332.761393,66.2451923 C332.976021,65.8028824 333.083333,65.4134632 333.083333,65.0769231 Z" id="" sketch:type="MSShapeGroup"></path>
        </g>
    </g>
</svg>