<?xml version="1.0" encoding="UTF-8" standalone="no"?>
<svg width="825px" height="1685px" viewBox="0 0 825 1685" version="1.1" xmlns="http://www.w3.org/2000/svg" xmlns:xlink="http://www.w3.org/1999/xlink" xmlns:sketch="http://www.bohemiancoding.com/sketch/ns">
    <title>Artboard 1</title>
    <description>Created with Sketch (http://www.bohemiancoding.com/sketch)</description>
    <defs></defs>
    <g id="Page-1" stroke="none" stroke-width="1" fill="none" fill-rule="evenodd" sketch:type="MSPage">
        <g id="iPhone" sketch:type="MSLayerGroup" transform="translate(24.000000, 24.000000)">
            <path d="M130.110622,17.5124599 C67.8626522,17.5124599 17.1041949,66.5512838 17.1041949,127.350504 L17.1041949,232.088996 L12.858931,232.788537 C11.9668471,232.940611 10,234.501905 10,235.830019 L10,294.631999 C10,295.960113 11.9668471,297.521407 12.858931,297.673481 L17.1041949,298.373022 L17.1041949,383.149256 L12.858931,383.848797 C11.9668471,384.000871 10,385.562165 10,386.890279 L10,427.443368 C10,428.771482 11.9668471,430.332776 12.858931,430.48485 L17.1041949,431.184391 L17.1041949,514.946798 L12.858931,515.646339 C11.9668471,515.798413 10,517.359707 10,518.687821 L10,559.24091 C10,560.569024 11.9638024,562.130318 12.8569012,562.272254 L17.1041949,562.981933 L17.1041949,1479.79605 C17.1041949,1509.4505 29.032138,1537.85794 50.5862652,1559.39163 C72.1403924,1580.93546 100.421177,1593 130.110622,1593 L649.732747,1593 C710.595399,1593 760,1541.98421 760,1479.79605 L760,127.350504 C760,97.6859185 748.633288,70.1503705 727.889039,49.4378799 C707.14479,28.715251 679.418133,17.5124599 649.732747,17.5124599 L634.154263,17.5124599 L634.154263,10.4156692 L520.842355,10.4156692 C520.761164,10.4156692 520.487145,10 520.487145,10 L520.487145,17.5124599 L130.110622,17.5124599 L130.110622,17.5124599 L130.110622,17.5124599 L130.110622,17.5124599 Z M649.630435,1603 L130.20913,1603 C97.8214493,1603 67.0042029,1589.8698 43.542029,1566.41794 C20.0808696,1542.96608 7.10144928,1512.02139 7.10144928,1479.64707 L7.10144928,570.479412 C3.04347826,568.22852 0,563.949798 0,559.01203 L0,518.455421 C0,513.517653 3.04347826,509.238931 7.10144928,506.988039 L7.10144928,438.67043 C3.04347826,436.419538 0,432.140816 0,427.203049 L0,386.646439 C0,381.708672 3.04347826,377.429949 7.10144928,375.179058 L7.10144928,305.847533 C3.04347826,303.596641 0,299.317919 0,294.380152 L0,235.573068 C0,230.6353 3.04347826,226.356578 7.10144928,224.105686 L7.10144928,127.084137 C7.10144928,60.6929665 62.3913043,7.0974067 130.20913,7.0974067 L510.442029,7.0974067 C510.807246,3.04174573 513.657971,0 520.789855,0 L636.442029,0 C641.189855,0 644.02029,2.02783049 644.294203,7.0974067 L649.630435,7.0974067 C682.023188,7.0974067 712.275362,19.355642 734.928986,41.9963694 C757.582609,64.6269576 770,94.7098229 770,127.084137 L770,1479.64707 C770,1547.43744 716.069565,1603 649.630435,1603 L649.630435,1603 Z" id="Fill-3" fill="#D4D8DE" sketch:type="MSShapeGroup"></path>
            <path d="M385,78 C379.48,78 375,82.49 375,88 C375,93.51 379.48,98 385,98 C390.51,98 395,93.51 395,88 C395,82.49 390.51,78 385,78 L385,78 L385,78 L385,78 Z M385,108 C373.97,108 365,99.03 365,88 C365,76.97 373.97,68 385,68 C396.03,68 405,76.97 405,88 C405,99.03 396.03,108 385,108 L385,108 Z" id="Fill-4" fill="#D4D8DE" sketch:type="MSShapeGroup"></path>
            <path d="M448,147 C448,142.03 443.905,138 438.854839,138 L331.145161,138 C326.093984,138 322,142.03 322,147 L322,149 C322,153.97 326.093984,158 331.145161,158 L438.854839,158 C443.905,158 448,153.97 448,149 L448,147 L448,147 L448,147 L448,147 Z M458,149 C458,159.49 449.371806,168 438.736111,168 L331.263889,168 C320.624139,168 312,159.49 312,149 L312,147 C312,136.51 320.624139,128 331.263889,128 L438.736111,128 C449.371806,128 458,136.51 458,147 L458,149 L458,149 Z" id="Fill-5" fill="#D4D8DE" sketch:type="MSShapeGroup"></path>
            <path d="M386.000508,1424 C350.159382,1424 321,1453.15859 321,1489 C321,1524.84141 350.159382,1554 386.000508,1554 C421.841634,1554 451,1524.84141 451,1489 C451,1453.15859 421.841634,1424 386.000508,1424 L386.000508,1424 L386.000508,1424 L386.000508,1424 Z M386.000507,1564 C344.6393,1564 311,1530.35135 311,1489 C311,1447.64865 344.6393,1414 386.000507,1414 C427.351579,1414 461,1447.64865 461,1489 C461,1530.35135 427.351579,1564 386.000507,1564 L386.000507,1564 Z" id="Fill-6" fill="#D4D8DE" sketch:type="MSShapeGroup"></path>
            <path d="M706,242.026643 C706,240.351901 704.639746,239 702.952381,239 L69.047619,239 C67.3643175,239 66,240.351901 66,242.026643 L66,1371.97336 C66,1373.6481 67.3643175,1375 69.047619,1375 L702.952381,1375 C704.639746,1375 706,1373.6481 706,1371.97336 L706,242.026643 L706,242.026643 L706,242.026643 L706,242.026643 Z M716,1371.88656 C716,1379.12921 710.091477,1385 702.8,1385 L69.2,1385 C61.9095385,1385 56,1379.12921 56,1371.88656 L56,242.113438 C56,234.870785 61.9095385,229 69.2,229 L702.8,229 C710.091477,229 716,234.870785 716,242.113438 L716,1371.88656 L716,1371.88656 Z" id="Fill-7" fill="#D4D8DE" sketch:type="MSShapeGroup"></path>
            <text id="1a.-Title-of-Interac" fill="#606D89" sketch:type="MSTextLayer" font-family="Source Sans Pro" font-size="36" font-weight="normal">
                <tspan x="6" y="1675">1a. Title of Interaction</tspan>
            </text>
        </g>
        <g id="Artboard-1" sketch:type="MSArtboardGroup"></g>
    </g>
</svg>