<?xml version="1.0" encoding="UTF-8" standalone="no"?>
<svg width="486px" height="312px" viewBox="0 0 486 312" version="1.1" xmlns="http://www.w3.org/2000/svg" xmlns:xlink="http://www.w3.org/1999/xlink" xmlns:sketch="http://www.bohemiancoding.com/sketch/ns">
    <title>two-factor</title>
    <description>Created with Sketch (http://www.bohemiancoding.com/sketch)</description>
    <defs></defs>
    <g id="Page-1" stroke="none" stroke-width="1" fill="none" fill-rule="evenodd" sketch:type="MSPage">
        <g id="Artboard-1-1-1" sketch:type="MSArtboardGroup" transform="translate(-633.000000, -3025.000000)">
            <rect id="Rectangle-20" stroke="#D4D4D4" stroke-linecap="square" fill="#FFFFFF" sketch:type="MSShapeGroup" x="711.502625" y="3157.5" width="32.674968" height="41.4" rx="4"></rect>
            <circle id="Oval-7" fill="#000000" sketch:type="MSShapeGroup" cx="728.23833" cy="3178.2" r="5.4"></circle>
            <rect id="Rectangle-20" stroke="#D4D4D4" stroke-linecap="square" fill="#FFFFFF" sketch:type="MSShapeGroup" x="746.511519" y="3157.5" width="32.674968" height="41.4" rx="4"></rect>
            <path d="M763.247224,3183.6 C766.229562,3183.6 768.647224,3181.18234 768.647224,3178.2 C768.647224,3175.21766 766.229562,3172.8 763.247224,3172.8 C760.264886,3172.8 757.847224,3175.21766 757.847224,3178.2 C757.847224,3181.18234 760.264886,3183.6 763.247224,3183.6 Z" id="Oval-7" fill="#000000" sketch:type="MSShapeGroup"></path>
            <rect id="Rectangle-20" stroke="#D4D4D4" stroke-linecap="square" fill="#FFFFFF" sketch:type="MSShapeGroup" x="781.520413" y="3157.5" width="32.674968" height="41.4" rx="4"></rect>
            <path d="M798.256119,3183.6 C801.238456,3183.6 803.656119,3181.18234 803.656119,3178.2 C803.656119,3175.21766 801.238456,3172.8 798.256119,3172.8 C795.273781,3172.8 792.856119,3175.21766 792.856119,3178.2 C792.856119,3181.18234 795.273781,3183.6 798.256119,3183.6 Z" id="Oval-7" fill="#000000" sketch:type="MSShapeGroup"></path>
            <rect id="Rectangle-20" stroke="#D4D4D4" stroke-linecap="square" fill="#FFFFFF" sketch:type="MSShapeGroup" x="818.863234" y="3157.5" width="32.674968" height="41.4" rx="4"></rect>
            <circle id="Oval-7" fill="#000000" sketch:type="MSShapeGroup" cx="835.598939" cy="3178.2" r="5.4"></circle>
            <path d="M890.929235,3280.36941 L890.929235,3277.17844 L883.696959,3277.17844 L883.696959,3269.302 L880.18183,3269.302 L880.18183,3277.17844 L872.90915,3277.17844 L872.90915,3280.36941 L880.18183,3280.36941 L880.18183,3288.56898 L883.696959,3288.56898 L883.696959,3280.36941 L890.929235,3280.36941 Z" id="+" fill="#4A4A4A" sketch:type="MSShapeGroup"></path>
            <rect id="Rectangle-26" fill="#4A4A4A" sketch:type="MSShapeGroup" x="954.072573" y="3118.36525" width="53.1120725" height="98.8695085" rx="6.5"></rect>
            <rect id="Rectangle-27" fill="#FFFFFF" sketch:type="MSShapeGroup" x="957.735474" y="3136.67441" width="45.7862694" height="62.251172"></rect>
            <g id="flex-button" sketch:type="MSLayerGroup" transform="translate(726.000000, 3055.000000)" fill="#4A4A4A">
                <path d="M11.364,16 L11.364,14.224 L3.516,14.224 C7.98,10.696 11.292,7.72 11.292,4.456 C11.292,1.264 8.58,-0.248 5.916,-0.248 C3.66,-0.248 1.572,0.664 0.348,2.272 L1.572,3.544 C2.508,2.344 3.996,1.528 5.916,1.528 C7.572,1.528 9.252,2.416 9.252,4.456 C9.252,7.216 6.132,9.88 0.372,14.416 L0.372,16 L11.364,16 Z M23.244,16 L23.244,8.704 L31.572,8.704 L31.572,6.928 L23.244,6.928 L23.244,1.768 L31.74,1.768 L31.74,-0.008 L21.252,-0.008 L21.252,16 L23.244,16 Z M47.292,16 L40.836,-0.008 L38.364,-0.008 L31.932,16 L34.212,16 L35.628,12.448 L43.596,12.448 L45.012,16 L47.292,16 Z M42.996,10.672 L36.204,10.672 L39.612,2.056 L42.996,10.672 Z M56.076,16.288 C58.908,16.288 60.828,14.944 62.172,13.12 L60.468,12.184 C59.556,13.552 57.9,14.512 56.076,14.512 C52.572,14.512 49.908,11.8 49.908,8.008 C49.908,4.192 52.572,1.504 56.076,1.504 C57.9,1.504 59.556,2.488 60.468,3.832 L62.148,2.896 C60.876,1.096 58.908,-0.272 56.076,-0.272 C51.468,-0.272 47.844,3.088 47.844,8.008 C47.844,12.928 51.468,16.288 56.076,16.288 Z M70.668,16 L70.668,1.768 L75.756,1.768 L75.756,-0.008 L63.612,-0.008 L63.612,1.768 L68.676,1.768 L68.676,16 L70.668,16 Z M85.044,16.288 C89.772,16.288 92.988,12.736 92.988,8.008 C92.988,3.28 89.772,-0.272 85.044,-0.272 C80.292,-0.272 77.1,3.28 77.1,8.008 C77.1,12.736 80.292,16.288 85.044,16.288 Z M85.044,14.512 C81.444,14.512 79.164,11.728 79.164,8.008 C79.164,4.264 81.444,1.504 85.044,1.504 C88.62,1.504 90.924,4.264 90.924,8.008 C90.924,11.728 88.62,14.512 85.044,14.512 Z M107.724,16 L103.404,9.472 C105.588,9.28 107.556,7.696 107.556,4.816 C107.556,1.864 105.468,-0.008 102.54,-0.008 L96.108,-0.008 L96.108,16 L98.1,16 L98.1,9.64 L101.292,9.64 L105.372,16 L107.724,16 Z M102.3,7.888 L98.1,7.888 L98.1,1.768 L102.3,1.768 C104.196,1.768 105.492,3.016 105.492,4.816 C105.492,6.616 104.196,7.888 102.3,7.888 Z M130.596,16 L124.14,-0.008 L121.668,-0.008 L115.236,16 L117.516,16 L118.932,12.448 L126.9,12.448 L128.316,16 L130.596,16 Z M126.3,10.672 L119.508,10.672 L122.916,2.056 L126.3,10.672 Z M138.588,16.288 C142.932,16.288 145.116,13.744 145.116,9.76 L145.116,-0.008 L143.124,-0.008 L143.124,9.736 C143.124,12.664 141.54,14.512 138.588,14.512 C135.636,14.512 134.052,12.664 134.052,9.736 L134.052,-0.008 L132.06,-0.008 L132.06,9.784 C132.06,13.72 134.244,16.288 138.588,16.288 Z M154.812,16 L154.812,1.768 L159.9,1.768 L159.9,-0.008 L147.756,-0.008 L147.756,1.768 L152.82,1.768 L152.82,16 L154.812,16 Z M175.884,16 L175.884,-0.008 L173.892,-0.008 L173.892,6.88 L164.532,6.88 L164.532,-0.008 L162.54,-0.008 L162.54,16 L164.532,16 L164.532,8.656 L173.892,8.656 L173.892,16 L175.884,16 Z M190.116,16 L190.116,14.224 L181.62,14.224 L181.62,8.704 L189.948,8.704 L189.948,6.928 L181.62,6.928 L181.62,1.768 L190.116,1.768 L190.116,-0.008 L179.628,-0.008 L179.628,16 L190.116,16 Z M206.532,16 L206.532,-0.008 L204.54,-0.008 L204.54,12.496 L195.324,-0.008 L193.284,-0.008 L193.284,16 L195.276,16 L195.276,3.232 L204.612,16 L206.532,16 Z M216.228,16 L216.228,1.768 L221.316,1.768 L221.316,-0.008 L209.172,-0.008 L209.172,1.768 L214.236,1.768 L214.236,16 L216.228,16 Z M225.948,16 L225.948,-0.008 L223.956,-0.008 L223.956,16 L225.948,16 Z M237.276,16.288 C240.108,16.288 242.028,14.944 243.372,13.12 L241.668,12.184 C240.756,13.552 239.1,14.512 237.276,14.512 C233.772,14.512 231.108,11.8 231.108,8.008 C231.108,4.192 233.772,1.504 237.276,1.504 C239.1,1.504 240.756,2.488 241.668,3.832 L243.348,2.896 C242.076,1.096 240.108,-0.272 237.276,-0.272 C232.668,-0.272 229.044,3.088 229.044,8.008 C229.044,12.928 232.668,16.288 237.276,16.288 Z M259.548,16 L253.092,-0.008 L250.62,-0.008 L244.188,16 L246.468,16 L247.884,12.448 L255.852,12.448 L257.268,16 L259.548,16 Z M255.252,10.672 L248.46,10.672 L251.868,2.056 L255.252,10.672 Z M265.98,16 L265.98,1.768 L271.068,1.768 L271.068,-0.008 L258.924,-0.008 L258.924,1.768 L263.988,1.768 L263.988,16 L265.98,16 Z M275.7,16 L275.7,-0.008 L273.708,-0.008 L273.708,16 L275.7,16 Z M286.74,16.288 C291.468,16.288 294.684,12.736 294.684,8.008 C294.684,3.28 291.468,-0.272 286.74,-0.272 C281.988,-0.272 278.796,3.28 278.796,8.008 C278.796,12.736 281.988,16.288 286.74,16.288 Z M286.74,14.512 C283.14,14.512 280.86,11.728 280.86,8.008 C280.86,4.264 283.14,1.504 286.74,1.504 C290.316,1.504 292.62,4.264 292.62,8.008 C292.62,11.728 290.316,14.512 286.74,14.512 Z M311.052,16 L311.052,-0.008 L309.06,-0.008 L309.06,12.496 L299.844,-0.008 L297.804,-0.008 L297.804,16 L299.796,16 L299.796,3.232 L309.132,16 L311.052,16 Z" id="10:20:10:20" sketch:type="MSShapeGroup"></path>
            </g>
            <path d="M708.5,3086.5 L1056.52298,3086.5" id="Line" stroke="#979797" stroke-linecap="square" sketch:type="MSShapeGroup"></path>
            <g id="flex-button" sketch:type="MSLayerGroup" transform="translate(703.000000, 3255.400000)">
                <rect id="BG" fill="#008B95" sketch:type="MSShapeGroup" x="0" y="0" width="158.834646" height="48"></rect>
                <path d="M39.3848728,19.1836 C42.1388728,19.1836 43.4699728,17.776 43.4699728,15.9094 C43.4699728,12.0997 37.6100728,13.186 37.6100728,11.5642 C37.6100728,10.9522 38.1302728,10.5391 39.0635728,10.5391 C40.1039728,10.5391 41.2055728,10.891 42.0317728,11.656 L43.2404728,10.0648 C42.2306728,9.1315 40.8842728,8.6419 39.2624728,8.6419 C36.8603728,8.6419 35.3915728,10.0495 35.3915728,11.7478 C35.3915728,15.5881 41.2667728,14.3488 41.2667728,16.1542 C41.2667728,16.7356 40.6853728,17.2864 39.4919728,17.2864 C38.0843728,17.2864 36.9674728,16.6591 36.2483728,15.9094 L35.0702728,17.5618 C36.0188728,18.5257 37.4264728,19.1836 39.3848728,19.1836 Z M49.7735728,19.1836 C52.8641728,19.1836 55.1132728,16.9804 55.1132728,13.9051 C55.1132728,10.8298 52.8641728,8.6266 49.7735728,8.6266 C46.6982728,8.6266 44.4491728,10.8298 44.4491728,13.9051 C44.4491728,16.9804 46.6982728,19.1836 49.7735728,19.1836 Z M49.7735728,17.2558 C47.8916728,17.2558 46.6829728,15.8023 46.6829728,13.9051 C46.6829728,11.9926 47.8916728,10.5544 49.7735728,10.5544 C51.6554728,10.5544 52.8794728,11.9926 52.8794728,13.9051 C52.8794728,15.8023 51.6554728,17.2558 49.7735728,17.2558 Z M67.7051728,19 L67.7051728,8.7949 L64.6451728,8.7949 L62.1665728,14.9608 L59.6879728,8.7949 L56.6432728,8.7949 L56.6432728,19 L58.8158728,19 L58.8158728,11.8549 L61.6922728,19 L62.6408728,19 L65.5172728,11.8549 L65.5172728,19 L67.7051728,19 Z M76.9463728,19 L76.9463728,17.0875 L71.8973728,17.0875 L71.8973728,14.7772 L76.8392728,14.7772 L76.8392728,12.8647 L71.8973728,12.8647 L71.8973728,10.7074 L76.9463728,10.7074 L76.9463728,8.7949 L69.7247728,8.7949 L69.7247728,19 L76.9463728,19 Z M83.1887728,19 L83.1887728,10.7074 L86.1569728,10.7074 L86.1569728,8.7949 L78.0173728,8.7949 L78.0173728,10.7074 L81.0008728,10.7074 L81.0008728,19 L83.1887728,19 Z M96.7292728,19 L96.7292728,8.7949 L94.5413728,8.7949 L94.5413728,12.8035 L89.7218728,12.8035 L89.7218728,8.7949 L87.5492728,8.7949 L87.5492728,19 L89.7218728,19 L89.7218728,14.716 L94.5413728,14.716 L94.5413728,19 L96.7292728,19 Z M100.906173,19 L100.906173,8.7949 L98.7335728,8.7949 L98.7335728,19 L100.906173,19 Z M112.059873,19 L112.059873,8.7949 L109.887273,8.7949 L109.887273,15.2056 L105.159573,8.7949 L102.925773,8.7949 L102.925773,19 L105.098373,19 L105.098373,12.3445 L109.963773,19 L112.059873,19 Z M119.021373,19.1989 C120.872673,19.1989 122.326173,18.4339 123.366573,17.2711 L123.366573,13.3543 L118.501173,13.3543 L118.501173,15.2515 L121.193973,15.2515 L121.193973,16.4755 C120.780873,16.858 119.924073,17.2558 119.021373,17.2558 C117.170073,17.2558 115.823673,15.8329 115.823673,13.9051 C115.823673,11.9773 117.170073,10.5544 119.021373,10.5544 C120.107673,10.5544 120.979773,11.1664 121.438773,11.8855 L123.244173,10.9063 C122.479173,9.6976 121.148073,8.6266 119.021373,8.6266 C116.037873,8.6266 113.589873,10.6768 113.589873,13.9051 C113.589873,17.1181 116.037873,19.1989 119.021373,19.1989 Z M43.7759728,38 L43.7759728,33.8231 L47.6774728,27.7949 L45.1988728,27.7949 L42.6896728,31.8953 L40.1498728,27.7949 L37.6712728,27.7949 L41.6033728,33.8231 L41.6033728,38 L43.7759728,38 Z M53.4608728,38.1836 C56.5514728,38.1836 58.8005728,35.9804 58.8005728,32.9051 C58.8005728,29.8298 56.5514728,27.6266 53.4608728,27.6266 C50.3855728,27.6266 48.1364728,29.8298 48.1364728,32.9051 C48.1364728,35.9804 50.3855728,38.1836 53.4608728,38.1836 Z M53.4608728,36.2558 C51.5789728,36.2558 50.3702728,34.8023 50.3702728,32.9051 C50.3702728,30.9926 51.5789728,29.5544 53.4608728,29.5544 C55.3427728,29.5544 56.5667728,30.9926 56.5667728,32.9051 C56.5667728,34.8023 55.3427728,36.2558 53.4608728,36.2558 Z M64.9358728,38.1836 C68.0417728,38.1836 69.5411728,36.4547 69.5411728,33.9149 L69.5411728,27.7949 L67.3226728,27.7949 L67.3226728,33.8537 C67.3226728,35.2766 66.5117728,36.2558 64.9358728,36.2558 C63.3599728,36.2558 62.5337728,35.2766 62.5337728,33.8537 L62.5337728,27.7949 L60.3305728,27.7949 L60.3305728,33.9302 C60.3305728,36.4394 61.8299728,38.1836 64.9358728,38.1836 Z M84.1985728,38 L79.8686728,32.5838 L83.9231728,27.7949 L81.2456728,27.7949 L77.6348728,32.3543 L77.6348728,27.7949 L75.4622728,27.7949 L75.4622728,38 L77.6348728,38 L77.6348728,34.8635 L78.4304728,33.9149 L81.5210728,38 L84.1985728,38 Z M94.3271728,38 L94.3271728,27.7949 L92.1545728,27.7949 L92.1545728,34.2056 L87.4268728,27.7949 L85.1930728,27.7949 L85.1930728,38 L87.3656728,38 L87.3656728,31.3445 L92.2310728,38 L94.3271728,38 Z M101.181573,38.1836 C104.272173,38.1836 106.521273,35.9804 106.521273,32.9051 C106.521273,29.8298 104.272173,27.6266 101.181573,27.6266 C98.1062728,27.6266 95.8571728,29.8298 95.8571728,32.9051 C95.8571728,35.9804 98.1062728,38.1836 101.181573,38.1836 Z M101.181573,36.2558 C99.2996728,36.2558 98.0909728,34.8023 98.0909728,32.9051 C98.0909728,30.9926 99.2996728,29.5544 101.181573,29.5544 C103.063473,29.5544 104.287473,30.9926 104.287473,32.9051 C104.287473,34.8023 103.063473,36.2558 101.181573,36.2558 Z M118.164573,38 L121.071573,27.7949 L118.623573,27.7949 L116.848773,35.1695 L114.920973,27.7949 L113.222673,27.7949 L111.279573,35.1695 L109.489473,27.7949 L107.056773,27.7949 L109.979073,38 L112.289373,38 L114.064173,30.9926 L115.854273,38 L118.164573,38 Z" id="5:20:5:20" fill="#FFFFFF" sketch:type="MSShapeGroup"></path>
            </g>
            <g id="flex-button-copy" sketch:type="MSLayerGroup" transform="translate(900.000000, 3255.400000)">
                <rect id="BG" fill="#008B95" sketch:type="MSShapeGroup" x="0" y="0" width="158.834646" height="48"></rect>
                <path d="M39.3848728,19.1836 C42.1388728,19.1836 43.4699728,17.776 43.4699728,15.9094 C43.4699728,12.0997 37.6100728,13.186 37.6100728,11.5642 C37.6100728,10.9522 38.1302728,10.5391 39.0635728,10.5391 C40.1039728,10.5391 41.2055728,10.891 42.0317728,11.656 L43.2404728,10.0648 C42.2306728,9.1315 40.8842728,8.6419 39.2624728,8.6419 C36.8603728,8.6419 35.3915728,10.0495 35.3915728,11.7478 C35.3915728,15.5881 41.2667728,14.3488 41.2667728,16.1542 C41.2667728,16.7356 40.6853728,17.2864 39.4919728,17.2864 C38.0843728,17.2864 36.9674728,16.6591 36.2483728,15.9094 L35.0702728,17.5618 C36.0188728,18.5257 37.4264728,19.1836 39.3848728,19.1836 Z M49.7735728,19.1836 C52.8641728,19.1836 55.1132728,16.9804 55.1132728,13.9051 C55.1132728,10.8298 52.8641728,8.6266 49.7735728,8.6266 C46.6982728,8.6266 44.4491728,10.8298 44.4491728,13.9051 C44.4491728,16.9804 46.6982728,19.1836 49.7735728,19.1836 Z M49.7735728,17.2558 C47.8916728,17.2558 46.6829728,15.8023 46.6829728,13.9051 C46.6829728,11.9926 47.8916728,10.5544 49.7735728,10.5544 C51.6554728,10.5544 52.8794728,11.9926 52.8794728,13.9051 C52.8794728,15.8023 51.6554728,17.2558 49.7735728,17.2558 Z M67.7051728,19 L67.7051728,8.7949 L64.6451728,8.7949 L62.1665728,14.9608 L59.6879728,8.7949 L56.6432728,8.7949 L56.6432728,19 L58.8158728,19 L58.8158728,11.8549 L61.6922728,19 L62.6408728,19 L65.5172728,11.8549 L65.5172728,17.2458022 L65.5172728,19 L67.7051728,19 Z M76.9463728,19 L76.9463728,17.0875 L71.8973728,17.0875 L71.8973728,14.7772 L76.8392728,14.7772 L76.8392728,12.8647 L71.8973728,12.8647 L71.8973728,10.7074 L76.9463728,10.7074 L76.9463728,8.7949 L69.7247728,8.7949 L69.7247728,19 L76.9463728,19 Z M83.1887728,19 L83.1887728,10.7074 L86.1569728,10.7074 L86.1569728,8.7949 L78.0173728,8.7949 L78.0173728,10.7074 L81.0008728,10.7074 L81.0008728,19 L83.1887728,19 Z M96.7292728,19 L96.7292728,8.7949 L94.5413728,8.7949 L94.5413728,12.8035 L89.7218728,12.8035 L89.7218728,8.7949 L87.5492728,8.7949 L87.5492728,19 L89.7218728,19 L89.7218728,14.716 L94.5413728,14.716 L94.5413728,19 L96.7292728,19 Z M100.906173,19 L100.906173,8.7949 L98.7335728,8.7949 L98.7335728,19 L100.906173,19 Z M112.059873,19 L112.059873,8.7949 L109.887273,8.7949 L109.887273,15.2056 L105.159573,8.7949 L102.925773,8.7949 L102.925773,19 L105.098373,19 L105.098373,12.3445 L109.963773,19 L112.059873,19 Z M119.021373,19.1989 C120.872673,19.1989 122.326173,18.4339 123.366573,17.2711 L123.366573,13.3543 L118.501173,13.3543 L118.501173,15.2515 L121.193973,15.2515 L121.193973,16.4755 C120.780873,16.858 119.924073,17.2558 119.021373,17.2558 C117.170073,17.2558 115.823673,15.8329 115.823673,13.9051 C115.823673,11.9773 117.170073,10.5544 119.021373,10.5544 C120.107673,10.5544 120.979773,11.1664 121.438773,11.8855 L123.244173,10.9063 C122.479173,9.6976 121.148073,8.6266 119.021373,8.6266 C116.037873,8.6266 113.589873,10.6768 113.589873,13.9051 C113.589873,17.1181 116.037873,19.1989 119.021373,19.1989 Z M48.6413728,38 L48.6413728,33.8231 L52.5428728,27.7949 L50.0642728,27.7949 L47.5550728,31.8953 L45.0152728,27.7949 L42.5366728,27.7949 L46.4687728,33.8231 L46.4687728,38 L48.6413728,38 Z M58.3262728,38.1836 C61.4168728,38.1836 63.6659728,35.9804 63.6659728,32.9051 C63.6659728,29.8298 61.4168728,27.6266 58.3262728,27.6266 C55.2509728,27.6266 53.0018728,29.8298 53.0018728,32.9051 C53.0018728,35.9804 55.2509728,38.1836 58.3262728,38.1836 Z M58.3262728,36.2558 C56.4443728,36.2558 55.2356728,34.8023 55.2356728,32.9051 C55.2356728,30.9926 56.4443728,29.5544 58.3262728,29.5544 C60.2081728,29.5544 61.4321728,30.9926 61.4321728,32.9051 C61.4321728,34.8023 60.2081728,36.2558 58.3262728,36.2558 Z M69.8012728,38.1836 C72.9071728,38.1836 74.4065728,36.4547 74.4065728,33.9149 L74.4065728,27.7949 L72.1880728,27.7949 L72.1880728,33.8537 C72.1880728,35.2766 71.3771728,36.2558 69.8012728,36.2558 C68.2253728,36.2558 67.3991728,35.2766 67.3991728,33.8537 L67.3991728,27.7949 L65.1959728,27.7949 L65.1959728,33.9302 C65.1959728,36.4394 66.6953728,38.1836 69.8012728,38.1836 Z M85.1624728,38.1836 C88.2530728,38.1836 90.5021728,35.9804 90.5021728,32.9051 C90.5021728,29.8298 88.2530728,27.6266 85.1624728,27.6266 C82.0871728,27.6266 79.8380728,29.8298 79.8380728,32.9051 C79.8380728,35.9804 82.0871728,38.1836 85.1624728,38.1836 Z M85.1624728,36.2558 C83.2805728,36.2558 82.0718728,34.8023 82.0718728,32.9051 C82.0718728,30.9926 83.2805728,29.5544 85.1624728,29.5544 C87.0443728,29.5544 88.2683728,30.9926 88.2683728,32.9051 C88.2683728,34.8023 87.0443728,36.2558 85.1624728,36.2558 Z M102.145473,38 L105.052473,27.7949 L102.604473,27.7949 L100.829673,35.1695 L98.9018728,27.7949 L97.2035728,27.7949 L95.2604728,35.1695 L93.4703728,27.7949 L91.0376728,27.7949 L93.9599728,38 L96.2702728,38 L98.0450728,30.9926 L99.8351728,38 L102.145473,38 Z M115.211673,38 L115.211673,27.7949 L113.039073,27.7949 L113.039073,34.2056 L108.311373,27.7949 L106.077573,27.7949 L106.077573,38 L108.250173,38 L108.250173,31.3445 L113.115573,38 L115.211673,38 Z" id="5:20:5:20" fill="#FFFFFF" sketch:type="MSShapeGroup"></path>
            </g>
            <path d="M755.529497,3243.5 L755.529497,3241.3706 L756.713897,3241.3706 L756.713897,3240.4508 L755.529497,3240.4508 L755.529497,3235.0958 L754.093097,3235.0958 L750.489497,3240.5012 L750.489497,3241.3706 L754.483697,3241.3706 L754.483697,3243.5 L755.529497,3243.5 Z M754.483697,3240.4508 L751.535297,3240.4508 L754.483697,3236.066 L754.483697,3240.4508 Z M764.223497,3243.5 C766.831697,3243.5 768.532697,3241.6982 768.532697,3239.3042 C768.532697,3236.9228 766.831697,3235.0958 764.223497,3235.0958 L761.350697,3235.0958 L761.350697,3243.5 L764.223497,3243.5 Z M764.223497,3242.5676 L762.396497,3242.5676 L762.396497,3236.0282 L764.223497,3236.0282 C766.302497,3236.0282 767.449097,3237.4898 767.449097,3239.3042 C767.449097,3241.106 766.264697,3242.5676 764.223497,3242.5676 Z M771.216497,3243.5 L771.216497,3235.0958 L770.170697,3235.0958 L770.170697,3243.5 L771.216497,3243.5 Z M777.163697,3243.6638 C778.537097,3243.6638 779.683697,3243.0842 780.464897,3242.2148 L780.464897,3239.1782 L776.533697,3239.1782 L776.533697,3240.1106 L779.419097,3240.1106 L779.419097,3241.8242 C779.003297,3242.24 778.171697,3242.7314 777.163697,3242.7314 C775.324097,3242.7314 773.925497,3241.295 773.925497,3239.3042 C773.925497,3237.3008 775.324097,3235.8896 777.163697,3235.8896 C778.171697,3235.8896 779.066297,3236.3684 779.595497,3237.0488 L780.427097,3236.5322 C779.683697,3235.6124 778.650497,3234.9572 777.163697,3234.9572 C774.769697,3234.9572 772.841897,3236.696 772.841897,3239.3042 C772.841897,3241.9124 774.769697,3243.6638 777.163697,3243.6638 Z M783.211697,3243.5 L783.211697,3235.0958 L782.165897,3235.0958 L782.165897,3243.5 L783.211697,3243.5 Z M788.302097,3243.5 L788.302097,3236.0282 L790.973297,3236.0282 L790.973297,3235.0958 L784.597697,3235.0958 L784.597697,3236.0282 L787.256297,3236.0282 L787.256297,3243.5 L788.302097,3243.5 Z M796.655897,3243.5 L796.655897,3240.161 L798.986897,3240.161 C800.650097,3240.161 801.620297,3239.0018 801.620297,3237.6284 C801.620297,3236.255 800.675297,3235.0958 798.986897,3235.0958 L795.610097,3235.0958 L795.610097,3243.5 L796.655897,3243.5 Z M798.860897,3239.2286 L796.655897,3239.2286 L796.655897,3236.0282 L798.860897,3236.0282 C799.856297,3236.0282 800.536697,3236.6834 800.536697,3237.6284 C800.536697,3238.5734 799.856297,3239.2286 798.860897,3239.2286 Z M804.052097,3243.5 L804.052097,3235.0958 L803.006297,3235.0958 L803.006297,3243.5 L804.052097,3243.5 Z M812.972897,3243.5 L812.972897,3235.0958 L811.927097,3235.0958 L811.927097,3241.6604 L807.088697,3235.0958 L806.017697,3235.0958 L806.017697,3243.5 L807.063497,3243.5 L807.063497,3236.7968 L811.964897,3243.5 L812.972897,3243.5 Z" id="4-DIGIT-PIN" fill="#4A4A4A" sketch:type="MSShapeGroup"></path>
            <path d="M944.950401,3243.5 L944.950401,3235.0958 L943.451001,3235.0958 L940.830201,3241.421 L938.222001,3235.0958 L936.722601,3235.0958 L936.722601,3243.5 L937.768401,3243.5 L937.768401,3236.5826 L940.616001,3243.5 L941.044401,3243.5 L943.904601,3236.5826 L943.904601,3243.5 L944.950401,3243.5 Z M950.746401,3243.6512 C953.228601,3243.6512 954.917001,3241.7864 954.917001,3239.3042 C954.917001,3236.822 953.228601,3234.9572 950.746401,3234.9572 C948.251601,3234.9572 946.575801,3236.822 946.575801,3239.3042 C946.575801,3241.7864 948.251601,3243.6512 950.746401,3243.6512 Z M950.746401,3242.7188 C948.856401,3242.7188 947.659401,3241.2572 947.659401,3239.3042 C947.659401,3237.3386 948.856401,3235.8896 950.746401,3235.8896 C952.623801,3235.8896 953.833401,3237.3386 953.833401,3239.3042 C953.833401,3241.2572 952.623801,3242.7188 950.746401,3242.7188 Z M960.385401,3243.5 C961.922601,3243.5 962.817201,3242.5802 962.817201,3241.232 C962.817201,3240.224 962.073801,3239.3042 961.179201,3239.1656 C961.947801,3239.0018 962.653401,3238.2962 962.653401,3237.2378 C962.653401,3235.9778 961.758801,3235.0958 960.297201,3235.0958 L956.555001,3235.0958 L956.555001,3243.5 L960.385401,3243.5 Z M960.120801,3238.7372 L957.600801,3238.7372 L957.600801,3236.0282 L960.120801,3236.0282 C961.065801,3236.0282 961.569801,3236.633 961.569801,3237.389 C961.569801,3238.1576 961.065801,3238.7372 960.120801,3238.7372 Z M960.171201,3242.5676 L957.600801,3242.5676 L957.600801,3239.6696 L960.171201,3239.6696 C961.204401,3239.6696 961.733601,3240.35 961.733601,3241.1186 C961.733601,3242.0132 961.154001,3242.5676 960.171201,3242.5676 Z M965.526201,3243.5 L965.526201,3235.0958 L964.480401,3235.0958 L964.480401,3243.5 L965.526201,3243.5 Z M972.443601,3243.5 L972.443601,3242.5676 L968.537601,3242.5676 L968.537601,3235.0958 L967.491801,3235.0958 L967.491801,3243.5 L972.443601,3243.5 Z M979.424001,3243.5 L979.424001,3242.5676 L974.963601,3242.5676 L974.963601,3239.6696 L979.335801,3239.6696 L979.335801,3238.7372 L974.963601,3238.7372 L974.963601,3236.0282 L979.424001,3236.0282 L979.424001,3235.0958 L973.917801,3235.0958 L973.917801,3243.5 L979.424001,3243.5 Z M985.383801,3243.5 L985.383801,3240.161 L987.714801,3240.161 C989.378001,3240.161 990.348201,3239.0018 990.348201,3237.6284 C990.348201,3236.255 989.403201,3235.0958 987.714801,3235.0958 L984.338001,3235.0958 L984.338001,3243.5 L985.383801,3243.5 Z M987.588801,3239.2286 L985.383801,3239.2286 L985.383801,3236.0282 L987.588801,3236.0282 C988.584201,3236.0282 989.264601,3236.6834 989.264601,3237.6284 C989.264601,3238.5734 988.584201,3239.2286 987.588801,3239.2286 Z M998.739801,3243.5 L998.739801,3235.0958 L997.694001,3235.0958 L997.694001,3238.712 L992.780001,3238.712 L992.780001,3235.0958 L991.734201,3235.0958 L991.734201,3243.5 L992.780001,3243.5 L992.780001,3239.6444 L997.694001,3239.6444 L997.694001,3243.5 L998.739801,3243.5 Z M1004.5358,3243.6512 C1007.018,3243.6512 1008.7064,3241.7864 1008.7064,3239.3042 C1008.7064,3236.822 1007.018,3234.9572 1004.5358,3234.9572 C1002.041,3234.9572 1000.3652,3236.822 1000.3652,3239.3042 C1000.3652,3241.7864 1002.041,3243.6512 1004.5358,3243.6512 Z M1004.5358,3242.7188 C1002.6458,3242.7188 1001.4488,3241.2572 1001.4488,3239.3042 C1001.4488,3237.3386 1002.6458,3235.8896 1004.5358,3235.8896 C1006.4132,3235.8896 1007.6228,3237.3386 1007.6228,3239.3042 C1007.6228,3241.2572 1006.4132,3242.7188 1004.5358,3242.7188 Z M1017.2996,3243.5 L1017.2996,3235.0958 L1016.2538,3235.0958 L1016.2538,3241.6604 L1011.4154,3235.0958 L1010.3444,3235.0958 L1010.3444,3243.5 L1011.3902,3243.5 L1011.3902,3236.7968 L1016.2916,3243.5 L1017.2996,3243.5 Z M1024.7714,3243.5 L1024.7714,3242.5676 L1020.311,3242.5676 L1020.311,3239.6696 L1024.6832,3239.6696 L1024.6832,3238.7372 L1020.311,3238.7372 L1020.311,3236.0282 L1024.7714,3236.0282 L1024.7714,3235.0958 L1019.2652,3235.0958 L1019.2652,3243.5 L1024.7714,3243.5 Z" id="MOBILE-PHONE" fill="#4A4A4A" sketch:type="MSShapeGroup"></path>
        </g>
    </g>
</svg>