<?xml version="1.0" encoding="utf-8"?>
<!-- Generator: Adobe Illustrator 17.1.0, SVG Export Plug-In . SVG Version: 6.00 Build 0)  -->
<!DOCTYPE svg PUBLIC "-//W3C//DTD SVG 1.1//EN" "http://www.w3.org/Graphics/SVG/1.1/DTD/svg11.dtd">
<svg version="1.1" id="Layer_1" xmlns="http://www.w3.org/2000/svg" xmlns:xlink="http://www.w3.org/1999/xlink" x="0px" y="0px"
	 viewBox="0 0 273.6 337.7" enable-background="new 0 0 273.6 337.7" xml:space="preserve">
<g>
	<g>
		<g>
			<path fill="#BB7064" d="M211.5,337.7h24.4V220.8c0-8.4-6.8-15.2-15.2-15.2h-9.3H62.2h0H51.7c-7.7,0-13.9,6.2-13.9,13.9v118.1
				h24.4"/>
			<g>
				<g>
					<g opacity="0.1">
						<path fill="#231F20" d="M136.8,207.9l-74.7-3.8l47.3,64.5c13.6,18.5,41.2,18.5,54.8,0l47.3-64.5L136.8,207.9z"/>
					</g>
					<g>
						<path fill="#EFEEEE" d="M136.8,198.3l-74.7-3.8l47.3,64.5c13.6,18.5,41.2,18.5,54.8,0l47.3-64.5L136.8,198.3z"/>
					</g>
				</g>
			</g>
			<g>
				<rect x="54.2" y="96.9" fill="#A47B53" width="165.1" height="98.6"/>
				<path fill="#F6C6A7" d="M198.8,180.9c-31.7,40-92.4,40-124.1,0c-11.8-14.8-20.5-29.5-20.5-40.5l0-56.5
					c0-45.3,35.9-83.2,81.2-83.9c46.2-0.8,84,36.5,84,82.6v57.9C219.3,151.4,210.6,166.1,198.8,180.9z"/>
				<g>
					<defs>
						<path id="SVGID_1_" d="M136.7,218.9c-45.6,0-82.6-37-82.6-82.6V82.6C54.2,37,91.1,0,136.7,0s82.6,37,82.6,82.6"/>
					</defs>
					<clipPath id="SVGID_3_">
						<use xlink:href="#SVGID_1_"  overflow="visible"/>
					</clipPath>
					<g clip-path="url(#SVGID_3_)">
						<defs>
							<path id="SVGID_2_" d="M54.2,63C86.6,63,183.3,3.6,183.3-56s-78.4-18.9-78.4-18.9L30.9,10.3L54.2,63z"/>
						</defs>
						<use xlink:href="#SVGID_2_"  overflow="visible" fill="#A47B53"/>
						<clipPath id="SVGID_4_">
							<use xlink:href="#SVGID_2_"  overflow="visible"/>
						</clipPath>
						<path clip-path="url(#SVGID_4_)" fill="#A47B53" d="M136.7,207c-45.6,0-82.6-37-82.6-82.6V70.6c0-45.6,37-82.6,82.6-82.6
							s82.6,37,82.6,82.6v53.8C219.3,170,182.3,207,136.7,207z"/>
					</g>
					<g clip-path="url(#SVGID_3_)">
						<g opacity="0.1">
							<path fill="#010101" d="M213.8,70.9c-51.5,0-133.2-34.9-133.2-151.2s133.2,31,133.2,31V70.9z"/>
						</g>
						<g>
							<path fill="#A47B53" d="M219.3,70.9c-51.5,0-133.2-34.9-133.2-151.2s133.2,31,133.2,31V70.9z"/>
						</g>
					</g>
				</g>
				<g>
					<circle fill="#EFEEEE" cx="103.7" cy="94.3" r="6"/>
					<circle fill="#A47B53" cx="103.7" cy="96.3" r="3.7"/>
					<path fill="#EFEEEE" d="M175.7,93.3c0.6,4.1-2.8,7.5-6.9,6.9c-2.5-0.4-4.6-2.5-5-5c-0.6-4.1,2.8-7.5,6.9-6.9
						C173.2,88.8,175.3,90.8,175.7,93.3z"/>
					<circle fill="#A47B53" cx="169.8" cy="96.3" r="3.7"/>
				</g>
				<circle fill="#F6C6A7" cx="219.3" cy="92.9" r="13.5"/>
				<circle fill="#F6C6A7" cx="54.2" cy="92.9" r="13.5"/>
			</g>
			<g>
				<g>
					<path fill="#010101" d="M164.2,292.3l1.4-2.6c0.4,0.3,0.9,0.5,1.4,0.5c0.7,0,1.2-0.5,1.2-1.3v-7.1h3.4v7.2
						c0,2.9-1.7,4.2-4.3,4.2C166.2,293.2,165,293,164.2,292.3z"/>
					<path fill="#010101" d="M180.2,293l-0.4-1.3h-4l-0.4,1.3h-3.8l4.1-11.1h4.2L184,293H180.2z M177.7,285.2l-1.1,3.6h2.2
						L177.7,285.2z"/>
					<path fill="#010101" d="M192.1,293l-4.1-5.6v5.6h-3.4v-11.1h3.5l3.9,5.3v-5.3h3.4V293H192.1z"/>
					<path fill="#010101" d="M197.1,293v-11.1h8.5v2.9h-5.1v1.1h5v2.9h-5v1.2h5.1v2.9H197.1z"/>
				</g>
				<g>
					<rect x="158.7" y="276.5" fill="#EFEEEE" width="52.3" height="22.2"/>
				</g>
				<g>
					<path fill="#424244" d="M164.2,292.3l1.4-2.6c0.4,0.3,0.9,0.5,1.4,0.5c0.7,0,1.2-0.5,1.2-1.3v-7.1h3.4v7.2
						c0,2.9-1.7,4.2-4.3,4.2C166.2,293.2,165,293,164.2,292.3z"/>
					<path fill="#424244" d="M180.2,293l-0.4-1.3h-4l-0.4,1.3h-3.8l4.1-11.1h4.2L184,293H180.2z M177.7,285.2l-1.1,3.6h2.2
						L177.7,285.2z"/>
					<path fill="#424244" d="M192.1,293l-4.1-5.6v5.6h-3.4v-11.1h3.5l3.9,5.3v-5.3h3.4V293H192.1z"/>
					<path fill="#424244" d="M197.1,293v-11.1h8.5v2.9h-5.1v1.1h5v2.9h-5v1.2h5.1v2.9H197.1z"/>
				</g>
			</g>
		</g>
	</g>
	<g>
		<g>
			<path fill="#424244" d="M193.5,263.1H80.1c-8,0-14.6-6.5-14.6-14.6v-2.4h142.6v2.4C208.1,256.6,201.6,263.1,193.5,263.1z"/>
		</g>
		<linearGradient id="SVGID_5_" gradientUnits="userSpaceOnUse" x1="136.8057" y1="141.7735" x2="136.8057" y2="245.3403">
			<stop  offset="0.1179" style="stop-color:#FFFFFF;stop-opacity:0"/>
			<stop  offset="1" style="stop-color:#FFFFFF;stop-opacity:0.7"/>
		</linearGradient>
		<polygon fill="url(#SVGID_5_)" points="208.1,245.3 65.5,245.3 0,141.8 273.6,141.8 		"/>
	</g>
	<path fill="#575757" d="M170.1,67.6c-13.4,0-24.5,10.3-25.8,23.3h-15.1c-1.3-13.1-12.4-23.3-25.8-23.3c-14.3,0-25.9,11.6-25.9,25.9
		s11.6,25.9,25.9,25.9c13.4,0,24.5-10.3,25.8-23.3h15.1c1.3,13.1,12.4,23.3,25.8,23.3c14.3,0,25.9-11.6,25.9-25.9
		S184.4,67.6,170.1,67.6z M103.4,114.2c-11.4,0-20.6-9.2-20.6-20.6S92,73,103.4,73S124,82.2,124,93.6S114.7,114.2,103.4,114.2z
		 M170.1,114.2c-11.4,0-20.6-9.2-20.6-20.6S158.8,73,170.1,73c11.4,0,20.6,9.2,20.6,20.6S181.5,114.2,170.1,114.2z"/>
</g>
</svg>
