<?xml version="1.0" encoding="utf-8"?>
<!-- Generator: Adobe Illustrator 17.1.0, SVG Export Plug-In . SVG Version: 6.00 Build 0)  -->
<!DOCTYPE svg PUBLIC "-//W3C//DTD SVG 1.1//EN" "http://www.w3.org/Graphics/SVG/1.1/DTD/svg11.dtd">
<svg version="1.1" id="Layer_1" xmlns="http://www.w3.org/2000/svg" xmlns:xlink="http://www.w3.org/1999/xlink" x="0px" y="0px"
	 viewBox="0 0 108.1 110" enable-background="new 0 0 108.1 110" xml:space="preserve">
<g>
	<g>
		<g opacity="0.1">
			<path fill="#010101" d="M100.1,60.2c0,7.1,0.1,14.2,0,21.2c-0.3,12.6-7,19.4-19.7,19.6c-14.3,0.2-28.5,0.2-42.8,0
				c-12.6-0.2-19.4-7-19.6-19.7c-0.2-14.3-0.2-28.5,0-42.8c0.2-12.6,7-19.4,19.7-19.6c14.3-0.2,28.5-0.2,42.8,0
				c12.6,0.2,19.4,7,19.6,19.7C100.3,45.8,100.1,53,100.1,60.2z"/>
		</g>
		<g>
			<g>
				<linearGradient id="SVGID_1_" gradientUnits="userSpaceOnUse" x1="54.0323" y1="96.1966" x2="54.0323" y2="13.8188">
					<stop  offset="0.2993" style="stop-color:#EEEDEE"/>
					<stop  offset="1" style="stop-color:#FFFFFF"/>
				</linearGradient>
				<path fill="url(#SVGID_1_)" d="M95.1,55.2c0,7.1,0.1,14.2,0,21.2c-0.3,12.6-7,19.4-19.7,19.6c-14.3,0.2-28.5,0.2-42.8,0
					C20,95.9,13.2,89.1,13,76.4c-0.2-14.3-0.2-28.5,0-42.8c0.2-12.6,7-19.4,19.7-19.6c14.3-0.2,28.5-0.2,42.8,0
					c12.6,0.2,19.4,7,19.6,19.7C95.3,40.8,95.1,48,95.1,55.2z"/>
			</g>
		</g>
	</g>
	<g>
		<g>
			<g id="SL4VAZ_1_">
				<g>
					<path fill="#068A93" d="M56.8,59c0-3.4,0-6.2,0-9.1c-6.1,0-12,0-18.1,0c0,1.1,0,1.9,0,2.9c0.7,0.1,1.3,0.1,1.9,0.2
						c1.7,0.2,2.9,1.2,2.9,2.9c0.1,8.6,0,17.1,0,25.7C32.8,79.8,23.7,64.3,25.6,51c2.2-14.8,15.5-26.2,32.1-24.3
						c14.7,1.7,26.5,15.1,24.9,31.4c-1.5,15.4-14.7,25-25.3,25.4c-0.1-0.1-0.2-0.2-0.2-0.3c0.1-6.2-0.1-12.3,0.3-18.5
						c0.2-3.6,2.2-6.8,4.9-9.2c1.4-1.2,3-2.1,5.3-1.5c-0.2,0.7-0.4,1.4-0.6,2c-0.8,2.5-0.6,4.8,1.4,6.6c2,1.9,4.5,2,6.9,1.1
						c2.5-1,3.9-2.9,4.1-5.6c0.5-6-4.1-9.6-10.4-8.3C64.1,50.7,61.1,53,56.8,59z M57.1,37.7c0-3.9-3.3-7.3-7.3-7.4
						c-4-0.1-7.5,3.3-7.5,7.4c0,4,3.5,7.5,7.5,7.4C53.7,45,57.1,41.6,57.1,37.7z"/>
				</g>
			</g>
		</g>
	</g>
</g>
</svg>
