<?xml version="1.0" encoding="UTF-8" standalone="no"?>
<svg width="41px" height="40px" viewBox="0 0 41 40" version="1.1" xmlns="http://www.w3.org/2000/svg" xmlns:xlink="http://www.w3.org/1999/xlink" xmlns:sketch="http://www.bohemiancoding.com/sketch/ns">
    <title>Artboard 1 1</title>
    <description>Created with Sketch (http://www.bohemiancoding.com/sketch)</description>
    <defs></defs>
    <g id="Page-1" stroke="none" stroke-width="1" fill="none" fill-rule="evenodd" sketch:type="MSPage">
        <g id="Artboard-1-1" sketch:type="MSArtboardGroup" transform="translate(-211.000000, -1548.000000)">
            <g id="Group" sketch:type="MSLayerGroup" transform="translate(90.000000, 1311.000000)">
                <g id="200%-github.svg" transform="translate(121.000000, 237.000000)" sketch:type="MSShapeGroup">
                    <path d="M0.228323699,20 C0.228323699,8.95430446 9.1955679,0 20.2572254,0 C31.318883,0 40.2861272,8.95430446 40.2861272,20 C40.2861272,31.0456955 31.318883,40 20.2572254,40 C9.1955679,40 0.228323699,31.0456955 0.228323699,20 Z" id="Github" fill="#333333"></path>
                    <path d="M12.3480433,21.290371 C13.2890876,22.9671935 15.1039589,24.010451 18.1649384,24.2990116 C17.7280249,24.6243557 17.2032117,25.2420656 17.1308237,25.9561738 C16.5814502,26.3049833 15.4768865,26.4197733 14.617925,26.1540439 C13.414474,25.7811348 12.9536467,23.4428428 11.1517018,23.7757973 C10.7613235,23.848096 10.8388821,24.1005072 11.1762621,24.3148665 C11.7256355,24.663676 12.2426928,25.100005 12.6414733,26.0291067 C12.9478298,26.7425807 13.5915662,28.0173209 15.6274794,28.0173209 C16.4353815,28.0173209 17.0015593,27.922191 17.0015593,27.922191 C17.0015593,27.922191 17.0170711,29.7429766 17.0170711,30.4507428 C17.0170711,31.266957 15.8944103,31.4971713 15.8944103,31.8897405 C15.8944103,32.0451193 16.2660453,32.0597059 16.5646459,32.0597059 C17.1547376,32.0597059 18.3827488,31.5764462 18.3827488,30.7278878 C18.3827488,30.0537342 18.3937362,27.7871066 18.3937362,27.3907321 C18.3937362,26.523782 18.86749,26.2491738 18.86749,26.2491738 C18.86749,26.2491738 18.9263053,30.8769246 18.7543837,31.4971713 C18.5527314,32.2265003 18.1888523,32.1231258 18.1888523,32.4484699 C18.1888523,32.9323639 19.6669899,32.5670652 20.1569018,31.5047817 C20.5356463,30.6777861 20.3701879,26.1381889 20.3701879,26.1381889 L20.774139,26.1299443 C20.774139,26.1299443 20.7967602,28.2082148 20.7831875,29.158245 C20.7689684,30.1418878 20.7011046,31.3861865 21.2963669,31.9728206 C21.6873915,32.3584137 22.9554746,33.0351041 22.9554746,32.41676 C22.9554746,32.0571691 22.2606788,31.7616323 22.2606788,30.7887709 L22.2606788,26.3125937 C22.8152228,26.3125937 22.7318473,27.7845698 22.7318473,27.7845698 L22.7725656,30.5192363 C22.7725656,30.5192363 22.6504108,31.5155631 23.8706661,31.9328661 C24.3011163,32.0806345 25.2227711,32.120589 25.2660746,31.8726172 C25.3093782,31.6240111 24.1563403,31.254273 24.1459991,30.4824527 C24.1395359,30.011877 24.1673278,29.7372688 24.1673278,27.6919767 C24.1673278,25.6466846 23.8874705,24.8907193 22.9121711,24.2882302 C25.9220911,23.9844488 27.7847902,23.253788 28.6928721,21.296713 C28.7637786,21.2989978 29.0625344,20.3825161 29.0237888,20.3828321 C29.2273802,19.6439902 29.3372549,18.7700638 29.3592298,17.7350509 C29.3540592,14.9287199 27.9851499,13.9361983 27.722097,13.470062 C28.10989,11.345495 27.6574648,10.3783414 27.4474103,10.0466553 C26.6718243,9.77585225 24.7490173,10.7430059 23.6987445,11.4247699 C21.9859921,10.9332656 18.3665907,10.9808305 17.0093152,11.5516097 C14.5048187,9.79170723 13.1798593,10.0612418 13.1798593,10.0612418 C13.1798593,10.0612418 12.323483,11.5674647 12.9536467,13.7713066 C12.1295865,14.8018801 11.5155809,15.531209 11.5155809,17.4642479 C11.5155809,18.5531677 11.6461379,19.5279318 11.9408606,20.3790269 C11.9047313,20.3789395 12.3361312,21.2906518 12.3480433,21.290371 Z" id="Path" fill="#FFFFFF"></path>
                </g>
            </g>
        </g>
    </g>
</svg>