<?xml version="1.0" encoding="UTF-8" standalone="no"?>
<svg width="41px" height="40px" viewBox="0 0 41 40" version="1.1" xmlns="http://www.w3.org/2000/svg" xmlns:xlink="http://www.w3.org/1999/xlink" xmlns:sketch="http://www.bohemiancoding.com/sketch/ns">
    <title>Artboard 1 1</title>
    <description>Created with Sketch (http://www.bohemiancoding.com/sketch)</description>
    <defs></defs>
    <g id="Page-1" stroke="none" stroke-width="1" fill="none" fill-rule="evenodd" sketch:type="MSPage">
        <g id="Artboard-1-1" sketch:type="MSArtboardGroup" transform="translate(-159.000000, -1548.000000)">
            <g id="Group" sketch:type="MSLayerGroup" transform="translate(90.000000, 1311.000000)">
                <g id="200%-twitter.svg" transform="translate(69.000000, 237.000000)" sketch:type="MSShapeGroup">
                    <path d="M0,20 C0,8.95430446 8.9672442,0 20.0289017,0 C31.0905593,0 40.0578035,8.95430446 40.0578035,20 C40.0578035,31.0456955 31.0905593,40 20.0289017,40 C8.9672442,40 0,31.0456955 0,20 Z" id="Twitter" fill="#4099FF"></path>
                    <path d="M19.5331783,15.9253184 L19.5751471,16.6173635 L18.8756677,16.5326233 C16.329563,16.2077858 14.1052187,15.106163 12.2166245,13.2560015 L11.2933118,12.3379825 L11.0554888,13.0159042 C10.5518637,14.5271048 10.8736242,16.1230456 11.9228432,17.1964217 C12.4824267,17.7896032 12.3565204,17.8743434 11.3912389,17.5212592 C11.0554888,17.4082722 10.7617075,17.323532 10.7337283,17.3659021 C10.6358012,17.4647657 10.9715513,18.7499924 11.2373535,19.2584337 C11.6010827,19.9646022 12.3425308,20.6566473 13.1539268,21.066225 L13.8394166,21.3910625 L13.0280205,21.4051859 C12.2446037,21.4051859 12.2166245,21.4193093 12.300562,21.7159 C12.5803538,22.6339191 13.6855311,23.6084316 14.9166147,24.0321327 L15.7839691,24.3287234 L15.0285314,24.7806713 C13.9093645,25.4303463 12.5943434,25.7975539 11.2793222,25.8258006 C10.6497908,25.839924 10.1321761,25.8964175 10.1321761,25.9387876 C10.1321761,26.0800213 11.8389057,26.87093 12.8321663,27.1816441 C15.8119483,28.0996632 19.3513137,27.7042088 22.0093351,26.1365148 C23.8979293,25.0207686 25.7865235,22.8033995 26.6678675,20.6566473 C27.1435134,19.5126543 27.6191594,17.4223956 27.6191594,16.4196363 C27.6191594,15.7699613 27.6611281,15.6852211 28.444545,14.9084358 C28.9062013,14.4564879 29.3398785,13.96217 29.423816,13.8209363 C29.5637119,13.5525923 29.5497223,13.5525923 28.8362534,13.7926896 C27.6471385,14.2163907 27.4792635,14.1598972 28.0668261,13.5243455 C28.5005033,13.0723977 29.018118,12.2532423 29.018118,12.013145 C29.018118,11.9707749 28.8082742,12.0413917 28.5704512,12.168502 C28.3186387,12.3097357 27.7590552,12.5215863 27.3393676,12.6486966 L26.5839299,12.8887939 L25.8984402,12.4227227 C25.5207214,12.168502 24.9891171,11.8860346 24.7093253,11.8012944 C23.9958564,11.6035672 22.9046687,11.631814 22.2611477,11.8577879 C20.5124494,12.4933395 19.407272,14.1316504 19.5331783,15.9253184 Z" id="Path" fill="#FFFFFF"></path>
                </g>
            </g>
        </g>
    </g>
</svg>