<?xml version="1.0" encoding="utf-8"?>
<!-- Generator: Adobe Illustrator 17.1.0, SVG Export Plug-In . SVG Version: 6.00 Build 0)  -->
<!DOCTYPE svg PUBLIC "-//W3C//DTD SVG 1.1//EN" "http://www.w3.org/Graphics/SVG/1.1/DTD/svg11.dtd">
<svg version="1.1" id="Layer_1" xmlns="http://www.w3.org/2000/svg" xmlns:xlink="http://www.w3.org/1999/xlink" x="0px" y="0px"
	 viewBox="0 0 321.6 375.6" enable-background="new 0 0 321.6 375.6" xml:space="preserve">
<g>
	<rect x="112.5" y="233.9" fill="#020202" width="96.6" height="69.8"/>
	<g>
		<defs>
			<rect id="SVGID_4_" x="51.7" y="0" width="218.2" height="354.6"/>
		</defs>
		<clipPath id="SVGID_1_">
			<use xlink:href="#SVGID_4_"  overflow="visible"/>
		</clipPath>
		<g clip-path="url(#SVGID_1_)">
			<g>
				<g opacity="0.1">
					<path fill="#010101" d="M166.7,521.1c-53.7,0-97.2-43.5-97.2-97.2V120.4c0-53.7,43.5-97.2,97.2-97.2s97.2,43.5,97.2,97.2v303.5
						C263.9,477.6,220.4,521.1,166.7,521.1z"/>
				</g>
				<g>
					<g>
						<path fill="#F6C6A7" d="M160.5,521.1c-53.7,0-97.2-43.5-97.2-97.2V120.4c0-53.7,43.5-97.2,97.2-97.2s97.2,43.5,97.2,97.2
							v303.5C257.7,477.6,214.1,521.1,160.5,521.1z"/>
					</g>
				</g>
			</g>
			<circle fill="#EFEEEE" cx="120.9" cy="95.9" r="10"/>
			<circle fill="#754E2C" cx="120.9" cy="96.9" r="4.7"/>
			<circle fill="#EFEEEE" cx="195.3" cy="95.9" r="10.2"/>
			<circle fill="#754E2C" cx="195.3" cy="96.9" r="4.7"/>
			<path fill="#A47B53" d="M177.1,130.6l-0.2,0.1c-10.2,5.8-22.7,5.8-32.9,0l-0.2-0.1H120c-12.7,0-23,10.3-23,23v39.2
				c0,18.3,14.8,33.1,33.1,33.1h60.9c18.3,0,33.1-14.8,33.1-33.1v-39.2c0-12.7-10.3-23-23-23H177.1z M187.7,197.4h-2.6
				c-8.2,0-16.1-1.9-22.6-5.4l-2.1-1.1l-2.1,1.1c-6.5,3.5-14.4,5.4-22.6,5.4h-2.6c-14,0-25.3-8-25.3-17.8v-1.7
				c0-10.4,12.1-18.9,27-18.9h51.2c14.9,0,27,8.5,27,18.9v1.7C213,189.5,201.7,197.4,187.7,197.4z"/>
		</g>
	</g>
	<path fill="#424244" d="M227.5,317.7H94.1c-9.5,0-17.1-7.7-17.1-17.1v-2.8h167.6v2.8C244.6,310,237,317.7,227.5,317.7z"/>
	<linearGradient id="SVGID_2_" gradientUnits="userSpaceOnUse" x1="160.8045" y1="175.0683" x2="160.8045" y2="296.803">
		<stop  offset="0.1179" style="stop-color:#FFFFFF;stop-opacity:0"/>
		<stop  offset="1" style="stop-color:#FFFFFF;stop-opacity:0.7"/>
	</linearGradient>
	<polygon fill="url(#SVGID_2_)" points="244.6,296.8 77,296.8 0,175.1 321.6,175.1 	"/>
</g>
</svg>
