<?xml version="1.0" encoding="utf-8"?>
<!-- Generator: Adobe Illustrator 17.1.0, SVG Export Plug-In . SVG Version: 6.00 Build 0)  -->
<!DOCTYPE svg PUBLIC "-//W3C//DTD SVG 1.1//EN" "http://www.w3.org/Graphics/SVG/1.1/DTD/svg11.dtd">
<svg version="1.1" id="Layer_1" xmlns="http://www.w3.org/2000/svg" xmlns:xlink="http://www.w3.org/1999/xlink" x="0px" y="0px"
	 viewBox="0 0 500 500" enable-background="new 0 0 500 500" xml:space="preserve">
<g>
	<defs>
		<rect id="SVGID_16_" x="73.5" y="56.7" width="372" height="386.6"/>
	</defs>
	<clipPath id="SVGID_1_">
		<use xlink:href="#SVGID_16_"  overflow="visible"/>
	</clipPath>
	<g clip-path="url(#SVGID_1_)">
		<ellipse fill="#82B2A9" cx="250.4" cy="943" rx="203.5" ry="44"/>
		<g>
			<g>
				<defs>
					<path id="SVGID_18_" d="M257,316.6c-38,0-68.7-30.8-68.7-68.7v-73.8c0-38,30.8-68.7,68.7-68.7s68.7,30.8,68.7,68.7v73.8
						C325.7,285.9,294.9,316.6,257,316.6z"/>
				</defs>
				<clipPath id="SVGID_2_">
					<use xlink:href="#SVGID_18_"  overflow="visible"/>
				</clipPath>
			</g>
			<path fill="#F6C6A7" d="M432.5,479.7c0,135.9,16.2,246.1-175.5,246.1c-175.5,0-175.5-110.2-175.5-246.1S160.1,233.7,257,233.7
				S432.5,343.8,432.5,479.7z"/>
			<g>
				<defs>
					<path id="SVGID_20_" d="M257,725.8c-175.5,0-175.5-110.2-175.5-246.1S160.1,233.7,257,233.7s175.5,110.2,175.5,246.1"/>
				</defs>
				<clipPath id="SVGID_3_">
					<use xlink:href="#SVGID_20_"  overflow="visible"/>
				</clipPath>
				<polygon clip-path="url(#SVGID_3_)" fill="#ECBD9F" points="136.9,738.9 112.2,225.7 401.8,225.7 377,738.9 				"/>
			</g>
			<g>
				<defs>
					<path id="SVGID_22_" d="M437.5,479.7c0,139.8-80.8,253.2-180.5,253.2S76.4,619.5,76.4,479.7S158.5,236,258.3,236
						S437.5,339.9,437.5,479.7z"/>
				</defs>
				<clipPath id="SVGID_4_">
					<use xlink:href="#SVGID_22_"  overflow="visible"/>
				</clipPath>
				<polygon clip-path="url(#SVGID_4_)" fill="#FFFFFF" points="371.2,732.9 142.7,732.9 118.5,231.7 395.4,231.7 				"/>
			</g>
			<g>
				<g>
					<path fill="#F6C6A7" d="M257,316.6c-38,0-68.7-30.8-68.7-68.7v-73.8c0-38,30.8-68.7,68.7-68.7s68.7,30.8,68.7,68.7v73.8
						C325.7,285.9,294.9,316.6,257,316.6z"/>
				</g>
				<circle fill="#EFEEEE" cx="229" cy="156.8" r="5.1"/>
				<circle fill="#754E2C" cx="229" cy="157.8" r="3.3"/>
				<circle fill="#EFEEEE" cx="281.6" cy="156.8" r="5"/>
				<circle fill="#754E2C" cx="281.6" cy="157.8" r="3.3"/>
				<path fill="#A47B53" d="M268.7,181.3l-0.1,0.1c-7.2,4.1-16.1,4.1-23.3,0l-0.1-0.1h-16.9c-9,0-16.3,7.3-16.3,16.3v27.8
					c0,12.9,10.5,23.4,23.4,23.4h43c12.9,0,23.4-10.5,23.4-23.4v-27.8c0-9-7.3-16.3-16.3-16.3H268.7z M276.2,228.6h-1.8
					c-5.8,0-11.4-1.3-16-3.8L257,224l-1.5,0.8c-4.6,2.5-10.2,3.8-16,3.8h-1.8c-9.9,0-17.9-5.6-17.9-12.6v-1.2
					c0-7.4,8.5-13.4,19.1-13.4h36.2c10.5,0,19.1,6,19.1,13.4v1.2C294.2,223,286.1,228.6,276.2,228.6z"/>
			</g>
			<g>
				<defs>
					<path id="SVGID_24_" d="M439.2,479.7c0,144.7-2.5,261.9-182.3,261.9c-186.8,0-186.8-117.3-186.8-261.9S153.8,217.8,257,217.8
						S439.2,335.1,439.2,479.7z"/>
				</defs>
				<clipPath id="SVGID_5_">
					<use xlink:href="#SVGID_24_"  overflow="visible"/>
				</clipPath>
				<rect x="379.3" y="588.8" clip-path="url(#SVGID_5_)" fill="#FFFFFF" width="69.6" height="20.6"/>
			</g>
			<g>
				<path fill="#424244" d="M392,774.8H121.9c0-282.1,35.3-418.3,35.3-418.3h199.6C356.8,356.4,392,479.7,392,774.8z"/>
			</g>
			<g>
				<polygon fill="#4D6660" points="239.4,906.1 170.5,906.1 158.8,774.8 239.4,774.8 				"/>
				<polygon fill="#394D48" points="199.1,916.3 170.5,906.1 158.8,774.8 				"/>
				<polygon fill="#4D6660" points="343.4,906.1 274.5,906.1 274.5,774.8 355.2,774.8 				"/>
				<polygon fill="#394D48" points="314.8,916.3 274.5,906.1 274.5,774.8 				"/>
			</g>
			<polygon fill="#424244" points="164.6,901.4 170.5,918.2 158.8,931.7 110.4,931.7 110.4,957.3 170.5,957.3 179.3,957.3 
				239.4,957.3 239.4,906.1 			"/>
			<polygon fill="#424244" points="349.3,901.4 343.4,918.2 355.2,931.7 403.6,931.7 403.6,957.3 343.4,957.3 334.7,957.3 
				274.5,957.3 274.5,906.1 			"/>
			<g>
				<path fill="none" stroke="#D7D6D6" stroke-width="1.1751" stroke-miterlimit="10" d="M331.4,275.4
					c-11.2,30.2-40.3,51.8-74.4,51.8c-33.3,0-61.8-20.6-73.6-49.6"/>
			</g>
			<g>
				<defs>
					<ellipse id="SVGID_26_" cx="257" cy="479.7" rx="191.6" ry="246.1"/>
				</defs>
				<clipPath id="SVGID_6_">
					<use xlink:href="#SVGID_26_"  overflow="visible"/>
				</clipPath>
				<g clip-path="url(#SVGID_6_)">
					<rect x="170" y="233.7" fill="#424244" width="18.3" height="128.8"/>
					<rect x="325.7" y="233.7" fill="#424244" width="18.3" height="128.8"/>
				</g>
			</g>
			<linearGradient id="SVGID_7_" gradientUnits="userSpaceOnUse" x1="258.2512" y1="735.1169" x2="258.2512" y2="542.3272">
				<stop  offset="0" style="stop-color:#424244"/>
				<stop  offset="1" style="stop-color:#3B3B3D"/>
			</linearGradient>
			<linearGradient id="SVGID_8_" gradientUnits="userSpaceOnUse" x1="145.9139" y1="638.722" x2="370.5885" y2="638.722">
				<stop  offset="0" style="stop-color:#424244"/>
				<stop  offset="1" style="stop-color:#414143"/>
			</linearGradient>
			
				<rect x="146.5" y="542.3" fill="url(#SVGID_7_)" stroke="url(#SVGID_8_)" stroke-width="1.1751" stroke-miterlimit="10" width="223.5" height="192.8"/>
			<line fill="none" stroke="#818181" stroke-width="5.8754" stroke-miterlimit="10" x1="146.5" y1="542.3" x2="370" y2="542.3"/>
		</g>
		<g>
			<polygon fill="#FEE581" points="167,326.9 167,338 171.8,338 178.2,326.9 			"/>
			<polygon fill="#FEE581" points="192.2,326.9 187.4,326.9 181,338 192.2,338 			"/>
			<polygon fill="#FEE896" points="178.2,326.9 171.8,338 181,338 187.4,326.9 			"/>
		</g>
		<g>
			<polygon fill="#FEE581" points="321.7,326.9 321.7,338 326.5,338 332.9,326.9 			"/>
			<polygon fill="#FEE581" points="347,326.9 342.2,326.9 335.8,338 347,338 			"/>
			<polygon fill="#FEE896" points="332.9,326.9 326.5,338 335.8,338 342.2,326.9 			"/>
		</g>
	</g>
</g>
<g>
	<path fill="#424244" d="M301.7,340.3h-84.4c-6,0-10.8-7.7-10.8-17.1v-2.8h106.1v2.8C312.5,332.6,307.7,340.3,301.7,340.3z"/>
	<linearGradient id="SVGID_9_" gradientUnits="userSpaceOnUse" x1="259.5145" y1="197.6605" x2="259.5145" y2="319.3952">
		<stop  offset="0" style="stop-color:#FFFFFF;stop-opacity:0"/>
		<stop  offset="1" style="stop-color:#FFFFFF;stop-opacity:0.8"/>
	</linearGradient>
	<polygon fill="url(#SVGID_9_)" points="312.5,319.4 206.5,319.4 157.8,197.7 361.2,197.7 	"/>
</g>
</svg>
