<?xml version="1.0" encoding="utf-8"?>
<!-- Generator: Adobe Illustrator 17.1.0, SVG Export Plug-In . SVG Version: 6.00 Build 0)  -->
<!DOCTYPE svg PUBLIC "-//W3C//DTD SVG 1.1//EN" "http://www.w3.org/Graphics/SVG/1.1/DTD/svg11.dtd">
<svg version="1.1" id="Layer_1" xmlns="http://www.w3.org/2000/svg" xmlns:xlink="http://www.w3.org/1999/xlink" x="0px" y="0px"
	 viewBox="0 0 230.9 500" enable-background="new 0 0 230.9 500" xml:space="preserve">
<g>
	<ellipse fill="#82B2A9" cx="115.4" cy="475.1" rx="115.4" ry="24.9"/>
	<g>
		<g>
			<defs>
				<path id="SVGID_1_" d="M119.2,119.8c-21.5,0-39-17.5-39-39V39c0-21.5,17.5-39,39-39s39,17.5,39,39v41.8
					C158.2,102.4,140.7,119.8,119.2,119.8z"/>
			</defs>
			<clipPath id="SVGID_2_">
				<use xlink:href="#SVGID_1_"  overflow="visible"/>
			</clipPath>
		</g>
		<path fill="#F6C6A7" d="M218.7,212.3c0,77.1,9.2,139.6-99.5,139.6c-99.5,0-99.5-62.5-99.5-139.6S64.2,72.7,119.2,72.7
			S218.7,135.2,218.7,212.3z"/>
		<g>
			<defs>
				<path id="SVGID_3_" d="M119.2,351.9c-99.5,0-99.5-62.5-99.5-139.6S64.2,72.7,119.2,72.7s99.5,62.5,99.5,139.6"/>
			</defs>
			<clipPath id="SVGID_4_">
				<use xlink:href="#SVGID_3_"  overflow="visible"/>
			</clipPath>
			<polygon clip-path="url(#SVGID_4_)" fill="#ECBD9F" points="51.1,359.3 37.1,68.2 201.3,68.2 187.3,359.3 			"/>
		</g>
		<g>
			<defs>
				<path id="SVGID_5_" d="M221.6,212.3c0,79.3-45.8,143.6-102.4,143.6S16.8,291.6,16.8,212.3S63.4,74.1,119.9,74.1
					S221.6,133,221.6,212.3z"/>
			</defs>
			<clipPath id="SVGID_6_">
				<use xlink:href="#SVGID_5_"  overflow="visible"/>
			</clipPath>
			<polygon clip-path="url(#SVGID_6_)" fill="#FFFFFF" points="184,355.9 54.4,355.9 40.7,71.7 197.7,71.7 			"/>
		</g>
		<g>
			<g>
				<path fill="#F6C6A7" d="M119.2,119.8c-21.5,0-39-17.5-39-39V39c0-21.5,17.5-39,39-39s39,17.5,39,39v41.8
					C158.2,102.4,140.7,119.8,119.2,119.8z"/>
			</g>
			<circle fill="#754E2C" cx="103.3" cy="29.2" r="1.9"/>
			<circle fill="#754E2C" cx="133.2" cy="29.2" r="1.9"/>
			<path fill="#A47B53" d="M125.9,43.1L125.9,43.1c-4.2,2.4-9.2,2.4-13.3,0l-0.1,0H103c-5.1,0-9.2,4.1-9.2,9.2V68
				c0,7.3,5.9,13.3,13.3,13.3h24.4c7.3,0,13.3-5.9,13.3-13.3V52.3c0-5.1-4.1-9.2-9.2-9.2H125.9z M130.1,69.9h-1
				c-3.3,0-6.5-0.8-9.1-2.2l-0.8-0.4l-0.8,0.4c-2.6,1.4-5.8,2.2-9.1,2.2h-1c-5.6,0-10.2-3.2-10.2-7.1v-0.7c0-4.2,4.8-7.6,10.8-7.6
				h20.6c6,0,10.8,3.4,10.8,7.6v0.7C140.3,66.7,135.7,69.9,130.1,69.9z"/>
		</g>
		<g>
			<defs>
				<path id="SVGID_7_" d="M222.6,212.3c0,82.1-1.4,148.6-103.4,148.6c-106,0-106-66.5-106-148.6s47.4-148.6,106-148.6
					S222.6,130.3,222.6,212.3z"/>
			</defs>
			<clipPath id="SVGID_8_">
				<use xlink:href="#SVGID_7_"  overflow="visible"/>
			</clipPath>
			<rect x="188.6" y="274.2" clip-path="url(#SVGID_8_)" fill="#FFFFFF" width="39.5" height="11.7"/>
		</g>
		<g>
			<path fill="#424244" d="M195.8,379.6H42.6c0-160,20-237.3,20-237.3h113.2C175.8,142.4,195.8,212.3,195.8,379.6z"/>
		</g>
		<g>
			<polygon fill="#4D6660" points="109.2,454.1 70.2,454.1 63.5,379.6 109.2,379.6 			"/>
			<polygon fill="#394D48" points="86.4,459.9 70.2,454.1 63.5,379.6 			"/>
			<polygon fill="#4D6660" points="168.2,454.1 129.1,454.1 129.1,379.6 174.9,379.6 			"/>
			<polygon fill="#394D48" points="152,459.9 129.1,454.1 129.1,379.6 			"/>
		</g>
		<polygon fill="#424244" points="66.8,451.5 70.2,461 63.5,468.6 36.1,468.6 36.1,483.2 70.2,483.2 75.1,483.2 109.2,483.2 
			109.2,454.1 		"/>
		<polygon fill="#424244" points="171.6,451.5 168.2,461 174.9,468.6 202.3,468.6 202.3,483.2 168.2,483.2 163.3,483.2 129.1,483.2 
			129.1,454.1 		"/>
		<g>
			<path fill="none" stroke="#D7D6D6" stroke-width="0.6665" stroke-miterlimit="10" d="M161.4,96.4c-6.4,17.1-22.9,29.4-42.2,29.4
				c-18.9,0-35-11.7-41.7-28.2"/>
		</g>
		<g>
			<defs>
				<ellipse id="SVGID_9_" cx="119.2" cy="212.3" rx="108.7" ry="139.6"/>
			</defs>
			<clipPath id="SVGID_10_">
				<use xlink:href="#SVGID_9_"  overflow="visible"/>
			</clipPath>
			<g clip-path="url(#SVGID_10_)">
				<rect x="69.8" y="72.7" fill="#424244" width="10.4" height="73"/>
				<rect x="158.2" y="72.7" fill="#424244" width="10.4" height="73"/>
			</g>
		</g>
		<linearGradient id="SVGID_11_" gradientUnits="userSpaceOnUse" x1="119.9222" y1="357.1655" x2="119.9222" y2="247.8192">
			<stop  offset="0" style="stop-color:#424244"/>
			<stop  offset="1" style="stop-color:#3B3B3D"/>
		</linearGradient>
		<linearGradient id="SVGID_12_" gradientUnits="userSpaceOnUse" x1="56.2069" y1="302.4924" x2="183.6376" y2="302.4924">
			<stop  offset="0" style="stop-color:#424244"/>
			<stop  offset="1" style="stop-color:#414143"/>
		</linearGradient>
		
			<rect x="56.5" y="247.8" fill="url(#SVGID_11_)" stroke="url(#SVGID_12_)" stroke-width="0.6665" stroke-miterlimit="10" width="126.8" height="109.3"/>
		<line fill="none" stroke="#818181" stroke-width="3.3324" stroke-miterlimit="10" x1="56.5" y1="247.8" x2="183.3" y2="247.8"/>
	</g>
	<g>
		<polygon fill="#FEE581" points="68.1,125.6 68.1,132 70.9,132 74.5,125.6 		"/>
		<polygon fill="#FEE581" points="82.5,125.6 79.8,125.6 76.1,132 82.5,132 		"/>
		<polygon fill="#FEE896" points="74.5,125.6 70.9,132 76.1,132 79.8,125.6 		"/>
	</g>
	<g>
		<polygon fill="#FEE581" points="155.9,125.6 155.9,132 158.6,132 162.3,125.6 		"/>
		<polygon fill="#FEE581" points="170.3,125.6 167.5,125.6 163.9,132 170.3,132 		"/>
		<polygon fill="#FEE896" points="162.3,125.6 158.6,132 163.9,132 167.5,125.6 		"/>
	</g>
</g>
</svg>
