<?xml version="1.0" encoding="utf-8"?>
<!-- Generator: Adobe Illustrator 17.1.0, SVG Export Plug-In . SVG Version: 6.00 Build 0)  -->
<!DOCTYPE svg PUBLIC "-//W3C//DTD SVG 1.1//EN" "http://www.w3.org/Graphics/SVG/1.1/DTD/svg11.dtd">
<svg version="1.1" id="Layer_1" xmlns="http://www.w3.org/2000/svg" xmlns:xlink="http://www.w3.org/1999/xlink" x="0px" y="0px"
	 viewBox="0 0 479.4 655.5" enable-background="new 0 0 479.4 655.5" xml:space="preserve">
<g>
	<g>
		<ellipse fill="#82B2A9" cx="134.3" cy="626.5" rx="134.3" ry="29"/>
	</g>
	<g>
		<g>
			<defs>
				<path id="SVGID_14_" d="M138.6,213.4c-25,0-45.3-20.3-45.3-45.3v-48.7c0-25,20.3-45.3,45.3-45.3S184,94.3,184,119.4V168
					C184,193.1,163.7,213.4,138.6,213.4z"/>
			</defs>
			<clipPath id="SVGID_1_">
				<use xlink:href="#SVGID_14_"  overflow="visible"/>
			</clipPath>
		</g>
		<g>
			<path fill="#F6C6A7" d="M254.4,320.9c0,89.6,10.7,162.3-115.7,162.3c-115.7,0-115.7-72.7-115.7-162.3s51.8-162.3,115.7-162.3
				S254.4,231.3,254.4,320.9z"/>
		</g>
		<g>
			<defs>
				<path id="SVGID_16_" d="M138.6,483.2c-115.7,0-115.7-72.7-115.7-162.3s51.8-162.3,115.7-162.3s115.7,72.7,115.7,162.3"/>
			</defs>
			<clipPath id="SVGID_2_">
				<use xlink:href="#SVGID_16_"  overflow="visible"/>
			</clipPath>
			<g clip-path="url(#SVGID_2_)">
				<polygon fill="#ECBD9F" points="59.4,491.9 43.1,153.4 234.1,153.4 217.8,491.9 				"/>
			</g>
		</g>
		<g>
			<defs>
				<path id="SVGID_18_" d="M257.7,320.9c0,92.2-53.3,167-119.1,167s-119.1-74.8-119.1-167s54.2-160.8,119.9-160.8
					S257.7,228.7,257.7,320.9z"/>
			</defs>
			<clipPath id="SVGID_3_">
				<use xlink:href="#SVGID_18_"  overflow="visible"/>
			</clipPath>
			<g clip-path="url(#SVGID_3_)">
				<polygon fill="#FFFFFF" points="214,487.9 63.3,487.9 47.3,157.4 229.9,157.4 				"/>
			</g>
		</g>
		<g>
			<g>
				<g>
					<path fill="#F6C6A7" d="M138.6,213.4c-25,0-45.3-20.3-45.3-45.3v-48.7c0-25,20.3-45.3,45.3-45.3S184,94.3,184,119.4V168
						C184,193.1,163.7,213.4,138.6,213.4z"/>
				</g>
			</g>
			<g>
				<circle fill="#754E2C" cx="120.2" cy="108" r="2.2"/>
			</g>
			<g>
				<circle fill="#754E2C" cx="154.9" cy="108" r="2.2"/>
			</g>
			<g>
				<path fill="#A47B53" d="M146.4,124.1L146.4,124.1c-4.8,2.8-10.7,2.8-15.4,0l-0.1,0h-11.1c-5.9,0-10.7,4.8-10.7,10.7v18.3
					c0,8.5,6.9,15.4,15.4,15.4h28.4c8.5,0,15.4-6.9,15.4-15.4v-18.3c0-5.9-4.8-10.7-10.7-10.7H146.4z M151.3,155.3h-1.2
					c-3.8,0-7.5-0.9-10.6-2.5l-1-0.5l-1,0.5c-3,1.6-6.7,2.5-10.6,2.5h-1.2c-6.5,0-11.8-3.7-11.8-8.3v-0.8c0-4.9,5.6-8.8,12.6-8.8
					h23.9c6.9,0,12.6,3.9,12.6,8.8v0.8C163.1,151.6,157.8,155.3,151.3,155.3z"/>
			</g>
		</g>
		<g>
			<defs>
				<path id="SVGID_20_" d="M258.8,320.9c0,95.4-1.7,172.8-120.2,172.8c-123.2,0-123.2-77.4-123.2-172.8s55.2-172.8,123.2-172.8
					S258.8,225.5,258.8,320.9z"/>
			</defs>
			<clipPath id="SVGID_4_">
				<use xlink:href="#SVGID_20_"  overflow="visible"/>
			</clipPath>
			<g clip-path="url(#SVGID_4_)">
				<rect x="219.3" y="392.9" fill="#FFFFFF" width="45.9" height="13.6"/>
			</g>
		</g>
		<g>
			<g>
				<path fill="#424244" d="M227.7,515.5H49.5c0-186.1,23.3-275.9,23.3-275.9h131.6C204.4,239.6,227.7,320.9,227.7,515.5z"/>
			</g>
		</g>
		<g>
			<g>
				<polygon fill="#4D6660" points="127,602.1 81.6,602.1 73.8,515.5 127,515.5 				"/>
			</g>
			<g>
				<polygon fill="#394D48" points="100.4,608.9 81.6,602.1 73.8,515.5 				"/>
			</g>
			<g>
				<polygon fill="#4D6660" points="195.6,602.1 150.2,602.1 150.2,515.5 203.4,515.5 				"/>
			</g>
			<g>
				<polygon fill="#394D48" points="176.8,608.9 150.2,602.1 150.2,515.5 				"/>
			</g>
		</g>
		<g>
			<polygon fill="#424244" points="77.7,599 81.6,610.1 73.8,619 41.9,619 41.9,635.9 81.6,635.9 87.4,635.9 127,635.9 127,602.1 
							"/>
		</g>
		<g>
			<polygon fill="#424244" points="199.5,599 195.6,610.1 203.4,619 235.3,619 235.3,635.9 195.6,635.9 189.9,635.9 150.2,635.9 
				150.2,602.1 			"/>
		</g>
		<g>
			<g>
				<path fill="#D7D6D6" d="M138.6,220.7c-21.6,0-40.8-12.9-48.9-33l0.7-0.3c8,19.7,26.9,32.5,48.2,32.5c21.6,0,41.2-13.6,48.7-33.9
					l0.7,0.3C180.4,206.9,160.6,220.7,138.6,220.7z"/>
			</g>
		</g>
		<g>
			<defs>
				<ellipse id="SVGID_22_" cx="138.6" cy="320.9" rx="126.4" ry="162.3"/>
			</defs>
			<clipPath id="SVGID_5_">
				<use xlink:href="#SVGID_22_"  overflow="visible"/>
			</clipPath>
			<g clip-path="url(#SVGID_5_)">
				<g>
					<rect x="81.2" y="158.6" fill="#424244" width="12" height="84.9"/>
				</g>
				<g>
					<rect x="184" y="158.6" fill="#424244" width="12" height="84.9"/>
				</g>
			</g>
		</g>
		<g>
			<g>
				<defs>
					<rect id="SVGID_24_" x="65.8" y="362.2" width="147.4" height="127.2"/>
				</defs>
				<clipPath id="SVGID_6_">
					<use xlink:href="#SVGID_24_"  overflow="visible"/>
				</clipPath>
				<rect x="65.8" y="471.2" clip-path="url(#SVGID_6_)" fill="#424244" width="147.4" height="18.2"/>
				<rect x="65.8" y="453.1" clip-path="url(#SVGID_6_)" fill="#414143" width="147.4" height="18.2"/>
				<rect x="65.8" y="434.9" clip-path="url(#SVGID_6_)" fill="#404042" width="147.4" height="18.2"/>
				<rect x="65.8" y="416.7" clip-path="url(#SVGID_6_)" fill="#3F3F41" width="147.4" height="18.2"/>
				<rect x="65.8" y="398.6" clip-path="url(#SVGID_6_)" fill="#3D3D3F" width="147.4" height="18.2"/>
				<rect x="65.8" y="380.4" clip-path="url(#SVGID_6_)" fill="#3B3C3D" width="147.4" height="18.2"/>
				<polygon clip-path="url(#SVGID_6_)" fill="#3B3B3D" points="213.2,362.2 213.2,362.2 213.2,380.4 65.8,380.4 65.8,362.2 				"/>
				<path clip-path="url(#SVGID_6_)" fill="#3B3B3D" d="M213.2,362.2L213.2,362.2L213.2,362.2z"/>
			</g>
			<linearGradient id="SVGID_7_" gradientUnits="userSpaceOnUse" x1="65.3625" y1="425.8064" x2="213.551" y2="425.8064">
				<stop  offset="0" style="stop-color:#424244"/>
				<stop  offset="1" style="stop-color:#414143"/>
			</linearGradient>
			<path fill="url(#SVGID_7_)" d="M213.6,489.8H65.4V361.8h148.2V489.8z M66.1,489h146.6V362.6H66.1V489z"/>
		</g>
		<g>
			<rect x="65.8" y="360.3" fill="#818181" width="147.4" height="3.9"/>
		</g>
	</g>
	<g>
		<g>
			<polygon fill="#FEE581" points="79.2,220.2 79.2,227.5 82.4,227.5 86.6,220.2 			"/>
		</g>
		<g>
			<polygon fill="#FEE581" points="95.9,220.2 92.8,220.2 88.5,227.5 95.9,227.5 			"/>
		</g>
		<g>
			<polygon fill="#FEE896" points="86.6,220.2 82.4,227.5 88.5,227.5 92.8,220.2 			"/>
		</g>
	</g>
	<g>
		<g>
			<polygon fill="#FEE581" points="181.3,220.2 181.3,227.5 184.5,227.5 188.7,220.2 			"/>
		</g>
		<g>
			<polygon fill="#FEE581" points="198,220.2 194.8,220.2 190.6,227.5 198,227.5 			"/>
		</g>
		<g>
			<polygon fill="#FEE896" points="188.7,220.2 184.5,227.5 190.6,227.5 194.8,220.2 			"/>
		</g>
	</g>
	<path fill="#FAFDFF" d="M349.6,0c-71.7,0-129.8,35.9-129.8,80.1c0,15.1,6.8,29.2,18.5,41.3l-25.1,22.4l49.9-3.9
		c23,12.7,53.3,20.4,86.5,20.4c71.7,0,129.8-35.9,129.8-80.1C479.4,35.9,421.3,0,349.6,0z"/>
	<g>
		<path fill="#424244" d="M296.4,67.5h3.2L304,80h0.1l4.3-12.5h3.3v23.6h-3.4V76.8h-0.1l-3.3,10.1h-1.7l-3.3-10.1h-0.1v14.3h-3.4
			V67.5z"/>
		<path fill="#424244" d="M317.6,84v2.3c0,1.1,0.6,1.7,1.7,1.7c1.3,0,1.6-1,1.7-1.7h3.4c0,1.4-0.5,2.7-1.4,3.6
			c-0.9,0.9-2.1,1.5-3.7,1.5c-2.1,0-3.6-1-4.4-2.4c-0.5-0.9-0.6-2.1-0.6-3.4v-5.5c0-1.4,0.2-2.5,0.6-3.4c0.8-1.5,2.4-2.4,4.4-2.4
			c3.1,0,5,2.3,5,5.2V84H317.6z M317.6,81.3h3.3v-1.9c0-1.3-0.6-1.9-1.7-1.9c-1,0-1.7,0.7-1.7,1.9V81.3z"/>
		<path fill="#424244" d="M333,74.3h3.4v1.6h0.1c0.7-1.1,1.6-1.8,3.2-1.8c1.7,0,3.5,1.1,3.5,4.1v12.9h-3.4V79.5c0-1.2-0.6-2-1.7-2
			c-1.3,0-1.7,0.8-1.7,2.3v11.3H333V74.3z"/>
		<path fill="#424244" d="M345.5,79.9c0-1.4,0.2-2.5,0.6-3.4c0.8-1.5,2.4-2.4,4.4-2.4s3.6,1,4.4,2.4c0.5,0.9,0.6,2.1,0.6,3.4v5.5
			c0,1.4-0.2,2.5-0.6,3.4c-0.8,1.5-2.3,2.4-4.4,2.4s-3.6-1-4.4-2.4c-0.5-0.9-0.6-2.1-0.6-3.4V79.9z M348.9,86c0,1.3,0.6,1.9,1.7,1.9
			c1,0,1.7-0.7,1.7-1.9v-6.6c0-1.3-0.6-1.9-1.7-1.9c-1,0-1.7,0.7-1.7,1.9V86z"/>
		<path fill="#424244" d="M364.5,67.5h3.4v23.6h-3.4V67.5z"/>
		<path fill="#424244" d="M371.2,67.5h5.4c4,0,6,2.3,6,6.9c0,2.7-0.8,4.7-2.9,5.9l3.6,10.8h-3.6L376.6,81h-2v10.1h-3.4V67.5z
			 M374.6,78h1.9c2.3,0,2.7-1.3,2.7-3.7c0-2.4-0.4-3.7-2.9-3.7h-1.8V78z"/>
		<path fill="#424244" d="M385.3,67.5h5c3.8,0,5.9,2.3,5.9,6.1v11c0,4.4-2.3,6.5-6.2,6.5h-4.7V67.5z M388.7,87.9h1.6
			c1.9,0,2.6-0.9,2.6-2.9V73.6c0-1.9-0.6-2.9-2.6-2.9h-1.6V87.9z"/>
	</g>
</g>
</svg>
