<?xml version="1.0" encoding="utf-8"?>
<!-- Generator: Adobe Illustrator 17.1.0, SVG Export Plug-In . SVG Version: 6.00 Build 0)  -->
<!DOCTYPE svg PUBLIC "-//W3C//DTD SVG 1.1//EN" "http://www.w3.org/Graphics/SVG/1.1/DTD/svg11.dtd">
<svg version="1.1" id="Layer_1" xmlns="http://www.w3.org/2000/svg" xmlns:xlink="http://www.w3.org/1999/xlink" x="0px" y="0px"
	 viewBox="0 0 386.5 554" enable-background="new 0 0 386.5 554" xml:space="preserve">
<g>
	<g>
		<g>
			<g>
				<g opacity="0.1">
					<path fill="#010101" d="M350.3,246.9H28.9c-7.2,0-13.1-5.9-13.1-13.1V13.1C15.8,5.9,21.7,0,28.9,0h321.3
						c7.2,0,13.1,5.9,13.1,13.1v220.8C363.3,241.1,357.5,246.9,350.3,246.9z"/>
				</g>
				<g>
					<path fill="#3A3B3B" d="M344.8,246.9H23.4c-7.2,0-13.1-5.9-13.1-13.1V13.1C10.4,5.9,16.2,0,23.4,0h321.3
						c7.2,0,13.1,5.9,13.1,13.1v220.8C357.8,241.1,352,246.9,344.8,246.9z"/>
				</g>
			</g>
			<rect x="21.5" y="11.1" fill="#FFFFFF" width="325.2" height="224.6"/>
			<rect x="21.5" y="11.1" fill="#CDD0D0" width="325.2" height="21.7"/>
			<g>
				<g>
					<rect x="33.9" y="43.4" fill="#CDD0D0" width="59.6" height="111.9"/>
					<line fill="none" stroke="#A3A5A8" stroke-width="10.3043" stroke-miterlimit="10" x1="39.8" y1="60.7" x2="87.7" y2="60.7"/>
					<line fill="none" stroke="#A3A5A8" stroke-width="10.3043" stroke-miterlimit="10" x1="39.8" y1="86" x2="87.7" y2="86"/>
					
						<line fill="none" stroke="#A3A5A8" stroke-width="10.3043" stroke-miterlimit="10" x1="39.8" y1="111.2" x2="87.7" y2="111.2"/>
					
						<line fill="none" stroke="#A3A5A8" stroke-width="10.3043" stroke-miterlimit="10" x1="39.8" y1="136.4" x2="87.7" y2="136.4"/>
				</g>
			</g>
			<g>
				<g>
					<rect x="112.6" y="43.4" fill="#CDD0D0" width="59.6" height="111.9"/>
					
						<line fill="none" stroke="#A3A5A8" stroke-width="10.3043" stroke-miterlimit="10" x1="118.4" y1="60.7" x2="166.3" y2="60.7"/>
					<line fill="none" stroke="#A3A5A8" stroke-width="10.3043" stroke-miterlimit="10" x1="118.4" y1="86" x2="166.3" y2="86"/>
					
						<line fill="none" stroke="#A3A5A8" stroke-width="10.3043" stroke-miterlimit="10" x1="118.4" y1="111.2" x2="166.3" y2="111.2"/>
					
						<line fill="none" stroke="#A3A5A8" stroke-width="10.3043" stroke-miterlimit="10" x1="118.4" y1="136.4" x2="166.3" y2="136.4"/>
				</g>
			</g>
			<g>
				<g>
					<rect x="191.2" y="43.4" fill="#CDD0D0" width="59.6" height="111.9"/>
					<line fill="none" stroke="#A3A5A8" stroke-width="10.3043" stroke-miterlimit="10" x1="197.1" y1="60.7" x2="245" y2="60.7"/>
					<line fill="none" stroke="#A3A5A8" stroke-width="10.3043" stroke-miterlimit="10" x1="197.1" y1="86" x2="245" y2="86"/>
					
						<line fill="none" stroke="#A3A5A8" stroke-width="10.3043" stroke-miterlimit="10" x1="197.1" y1="111.2" x2="245" y2="111.2"/>
					
						<line fill="none" stroke="#A3A5A8" stroke-width="10.3043" stroke-miterlimit="10" x1="197.1" y1="136.4" x2="245" y2="136.4"/>
				</g>
			</g>
			<g>
				<g>
					<rect x="269.9" y="43.4" fill="#CDD0D0" width="59.6" height="111.9"/>
					
						<line fill="none" stroke="#A3A5A8" stroke-width="10.3043" stroke-miterlimit="10" x1="275.7" y1="60.7" x2="323.6" y2="60.7"/>
					<line fill="none" stroke="#A3A5A8" stroke-width="10.3043" stroke-miterlimit="10" x1="275.7" y1="86" x2="323.6" y2="86"/>
					
						<line fill="none" stroke="#A3A5A8" stroke-width="10.3043" stroke-miterlimit="10" x1="275.7" y1="111.2" x2="323.6" y2="111.2"/>
					
						<line fill="none" stroke="#A3A5A8" stroke-width="10.3043" stroke-miterlimit="10" x1="275.7" y1="136.4" x2="323.6" y2="136.4"/>
				</g>
			</g>
			<rect x="274.7" y="15.8" fill="#FFFFFF" width="64.8" height="11.3"/>
			<text transform="matrix(1 0 0 1 278.2146 24.5022)" fill="#808182" font-family="'MyriadPro-Regular'" font-size="11.1377">search</text>
			<rect x="33.9" y="163.7" fill="#CDD0D0" width="139.8" height="65.7"/>
			<line fill="none" stroke="#B9BABC" stroke-width="5.5689" stroke-miterlimit="10" x1="184.4" y1="169.3" x2="264" y2="169.3"/>
			<line fill="none" stroke="#CDD0D0" stroke-width="5.5689" stroke-miterlimit="10" x1="184.4" y1="184.3" x2="331.7" y2="184.3"/>
			<line fill="none" stroke="#CDD0D0" stroke-width="5.5689" stroke-miterlimit="10" x1="184.4" y1="197.5" x2="331.7" y2="197.5"/>
			<line fill="none" stroke="#CDD0D0" stroke-width="5.5689" stroke-miterlimit="10" x1="184.4" y1="210.7" x2="331.7" y2="210.7"/>
			<line fill="none" stroke="#CDD0D0" stroke-width="5.5689" stroke-miterlimit="10" x1="184.4" y1="223.9" x2="331.7" y2="223.9"/>
			<g>
				<path fill="#FEFEFE" d="M42.6,14.5c15.1,0,30.1,0,45.2,0c0.2,0,0.2,0,0.2,0.2c0,4.9,0,9.8,0,14.6c0,0.2,0,0.2-0.2,0.2
					c-17.9,0-35.7,0-53.6,0c-0.2,0-0.2,0-0.2-0.2c0-2.1,0-4.2,0-6.2c0.1,0.1,0.1,0.2,0.1,0.4c0.6,2.6,2.1,4.4,4.5,5.5
					c0.2,0.1,0.2,0.1,0.2-0.2c0-0.8,0-1.7,0-2.5c0-1.3,0-2.7,0-4c0-0.6-0.4-1-0.9-1c-0.4,0-0.4,0-0.4-0.4c0,0,0,0,0,0
					c0-0.1,0-0.2,0.2-0.2c1.4,0,2.9-0.1,4.3-0.1c0.2,0,0.2,0,0.2,0.2c0,0.7,0,1.5,0,2.2c0,0.1,0,0.2,0,0.2c0.1,0,0.1-0.1,0.1-0.1
					c0.6-1.5,2.4-2.6,3.9-2.5c1.5,0.1,2.1,1.4,1.8,2.5c-0.2,0.9-1.1,1.4-2,1.2c-0.6-0.1-1.1-0.5-1.2-1.1c-0.1-0.4,0-0.8,0.2-1.2
					c0.1-0.3,0.1-0.3-0.2-0.3c-0.5,0-1,0.2-1.3,0.5c-0.8,0.8-1.3,1.8-1.3,2.9c0,1.4,0,2.9,0,4.3c0,0.1,0,0.2,0.2,0.2
					c0.2,0,0.5,0,0.7-0.1c1.8-0.4,3.3-1.3,4.4-2.8c1.4-1.9,1.9-3.9,1.4-6.2c-0.3-1.6-1.2-3-2.4-4.1c-0.9-0.8-2-1.4-3.2-1.7
					C43.1,14.6,42.8,14.7,42.6,14.5z M68.7,19.9c0,0.5,0,1,0,1.5c0,0.5,0,0.5,0.5,0.4c0.2,0,0.2-0.1,0.2-0.3c0-0.4,0-0.8,0-1.1
					c0-0.2,0.1-0.3,0.3-0.2c0.1,0,0.1,0.1,0.1,0.2c0.2,0.4,0.4,0.7,0.6,1.1c0.2,0.3,0.6,0.5,1,0.3c0.1,0,0.1-0.1,0.1-0.2
					c-0.3-0.4-0.5-0.8-0.8-1.2c-0.2-0.4-0.2-0.4,0.1-0.7c0.3-0.3,0.4-0.7,0.2-1.1c-0.1-0.4-0.4-0.6-0.8-0.6c-0.5-0.1-0.9-0.1-1.4,0
					c-0.1,0-0.2,0.1-0.2,0.2C68.7,18.8,68.7,19.4,68.7,19.9z M66.9,19.5c0-0.5,0-0.9,0-1.4c0-0.5,0-0.4-0.5-0.4c0,0,0,0,0,0
					c-0.1,0-0.2,0.1-0.2,0.2c0,0.3,0,0.7,0,1c0,0.1,0,0.1-0.1,0.1c-0.9-0.2-1.8,0.5-1.8,1.6c0,0.5,0.2,0.9,0.6,1.1
					c0.4,0.2,0.9,0.2,1.3,0c0.1-0.1,0.2-0.1,0.2,0c0.1,0.1,0.3,0.2,0.4,0.2c0.2,0,0.3-0.1,0.4-0.3c0.1-0.1,0-0.2-0.2-0.3
					c-0.1,0-0.1-0.2-0.1-0.3C66.9,20.5,66.9,20,66.9,19.5z M54.9,19.4c0-0.1-0.1-0.2-0.2-0.3c-0.1-0.1-0.3-0.1-0.4,0
					c-0.1,0.1-0.3,0.2-0.1,0.4c0.1,0.1,0.1,0.3,0.1,0.4c0,0.5,0,1,0,1.5c0,0.5,0,0.5,0.5,0.4c0.2,0,0.3-0.1,0.3-0.3
					c0-0.5,0-0.9,0-1.4c0-0.3,0.2-0.5,0.5-0.5c0.3,0,0.4,0.1,0.4,0.5c0,0.1,0,0.1,0,0.2c0,0.4,0,0.9,0,1.3c0,0.1,0,0.2,0.1,0.2
					c0.2,0,0.4,0,0.6-0.1c0,0,0,0,0-0.1c0-0.6,0-1.2,0-1.8c0-0.5-0.3-0.9-0.9-0.9C55.4,19,55.2,19.2,54.9,19.4z M62,19.4
					c0-0.1,0-0.1-0.1-0.2c-0.1-0.2-0.3-0.3-0.5-0.2c-0.2,0.1-0.2,0.3-0.1,0.5c0,0.1,0,0.2,0,0.2c0,0.5,0,1.1,0,1.6
					c0,0.5,0,0.5,0.5,0.4c0.2,0,0.2-0.1,0.2-0.3c0-0.5,0-0.9,0-1.4c0-0.3,0.2-0.5,0.6-0.6c0.3,0,0.4,0.2,0.4,0.5c0,0.5,0,1,0,1.5
					c0,0.1,0,0.2,0.1,0.2c0.2,0,0.4,0,0.6-0.1c0,0,0,0,0-0.1c0-0.6,0-1.2,0-1.7c0-0.6-0.4-0.9-1-0.9C62.4,19.1,62.2,19.3,62,19.4z
					 M80.3,19.4c0-0.1,0-0.1-0.1-0.1c-0.1-0.2-0.4-0.3-0.5-0.3c-0.2,0.1-0.2,0.3-0.1,0.5c0,0.1,0,0.1,0,0.2c0,0.5,0,1.1,0,1.6
					c0,0.5,0,0.5,0.5,0.4c0.2,0,0.3-0.1,0.3-0.3c0-0.5,0-1,0-1.4c0-0.3,0.3-0.5,0.6-0.5c0.3,0,0.4,0.1,0.4,0.5c0,0.4,0,0.9,0,1.3
					c0,0.5,0,0.5,0.5,0.4c0,0,0,0,0.1,0c0.1,0,0.1,0,0.1-0.1c0-0.6,0-1.2,0-1.8c0-0.4-0.2-0.7-0.6-0.8C80.9,19,80.6,19.1,80.3,19.4z
					 M84.4,21.5c0.1,0.1,0.1,0.2,0.2,0.2c0.2,0.2,0.6,0.2,0.7-0.1c0.1-0.1,0.1-0.2-0.1-0.3c-0.1,0-0.2-0.2-0.2-0.3c0-0.5,0-1,0-1.6
					c0-0.4,0-0.4-0.5-0.4c-0.2,0-0.3,0.1-0.3,0.3c0,0.5,0,1,0,1.4c0,0.3-0.2,0.5-0.5,0.5c-0.2,0-0.4-0.1-0.5-0.4c0-0.1,0-0.2,0-0.3
					c0-0.4,0-0.9,0-1.3c0-0.1,0-0.2-0.1-0.2c-0.2,0-0.3,0-0.5,0c-0.1,0-0.1,0.1-0.1,0.2c0,0.6,0,1.2,0,1.8c0,0.4,0.2,0.7,0.6,0.8
					C83.8,22,84.1,21.8,84.4,21.5z M60.9,21.3c-0.1,0-0.3,0.1-0.3-0.2c0-0.3,0-0.7,0-1c0-0.6-0.1-1-0.6-1.1
					c-0.5-0.1-0.9,0.1-1.4,0.3c-0.1,0-0.1,0.1,0,0.1c0.1,0.3,0.2,0.3,0.5,0.2c0.2-0.1,0.4-0.2,0.6-0.1c0.2,0,0.3,0.2,0.3,0.4
					c0,0.2-0.1,0.2-0.3,0.2c-0.4,0.1-0.7,0.2-1,0.5c-0.4,0.4-0.2,1.1,0.3,1.2c0.4,0.1,0.6-0.1,0.9-0.3c0.2,0.3,0.4,0.4,0.7,0.3
					C60.9,21.8,60.9,21.6,60.9,21.3z M78.2,19.1c-0.4,0-0.7,0.1-0.9,0.3c-0.3,0.3-0.4,0.7-0.4,1.2c0,0.8,0.4,1.2,1.1,1.3
					c0.4,0,0.7,0.1,1-0.3c0-0.1,0.1-0.2,0.1-0.2c-0.1-0.1-0.1,0-0.2,0c-0.4,0.1-0.8,0.1-1.1-0.3c-0.1-0.1-0.2-0.3-0.1-0.4
					c0.1-0.1,0.2,0,0.3,0c0.3,0,0.7,0,1-0.1c0.2-0.1,0.2-0.2,0.3-0.4C79.2,19.5,78.8,19.1,78.2,19.1z M85.6,20.5
					c-0.1,1.1,0.9,1.5,1.8,1.3c0.2,0,0.3-0.2,0.4-0.4c0-0.1,0-0.2-0.1-0.2c-0.1,0-0.2,0-0.3,0.1c-0.4,0.1-0.8-0.1-0.9-0.4
					c-0.1-0.3-0.1-0.4,0.2-0.4c0.2,0,0.4,0,0.6,0c0.2,0,0.4-0.1,0.5-0.1c0.1,0,0.2-0.1,0.2-0.2c0.1-0.8-0.6-1.4-1.4-1.2
					C86,19.3,85.6,19.8,85.6,20.5z M72.3,20.6c0.3,0,0.6,0,0.9,0c0.2,0,0.4-0.1,0.6-0.1c0.1,0,0.2-0.1,0.2-0.2
					c0.1-0.8-0.6-1.3-1.4-1.1c-0.5,0.1-1,0.6-1,1.5c0,0.9,0.6,1.4,1.5,1.3c0.3,0,0.6-0.1,0.7-0.4c0-0.1,0-0.1,0-0.2
					c0-0.1-0.1,0-0.2,0c-0.1,0-0.2,0.1-0.3,0.1C72.8,21.4,72.4,21.1,72.3,20.6z M75.5,21c-0.2-0.6-0.4-1.2-0.6-1.7
					c0-0.1-0.1-0.2-0.2-0.2c-0.2,0-0.4,0-0.5,0.2c0,0,0,0.1,0,0.1c0.3,0.8,0.6,1.6,0.9,2.4c0,0.1,0.1,0.1,0.2,0.1
					c0.3,0,0.5-0.2,0.6-0.4c0.2-0.7,0.5-1.3,0.8-2c0.1-0.2,0-0.3-0.2-0.4c-0.2,0-0.3-0.1-0.4,0.1C75.9,19.8,75.7,20.4,75.5,21z
					 M57.2,19.8C57.2,19.8,57.2,19.8,57.2,19.8c0,0.5,0,1.1,0,1.6c0,0.6-0.1,0.5,0.5,0.5c0.1,0,0.2-0.1,0.2-0.2c0-1.2,0-2.4,0-3.6
					c0-0.1,0-0.1,0-0.2c0-0.1-0.1-0.2-0.2-0.2c-0.1,0-0.2,0-0.3,0c-0.1,0-0.2,0.1-0.2,0.3C57.2,18.6,57.2,19.2,57.2,19.8z
					 M52.7,19.9C52.7,19.9,52.7,19.9,52.7,19.9c0,0.6,0,1.1,0,1.7c0,0.1,0,0.2,0.1,0.2c0.2,0,0.3,0,0.5,0c0.1,0,0.1-0.1,0.1-0.2
					c0-0.2,0-0.4,0-0.6c0-0.9,0-1.7,0-2.6c0-0.5,0-0.5-0.5-0.5c-0.2,0-0.2,0.1-0.2,0.3C52.7,18.8,52.7,19.4,52.7,19.9z M72.1,26.1
					c0-0.8,0-1.5,0-2.2c0-0.1,0-0.2-0.1-0.2c-0.1,0-0.2,0-0.2,0.2c0,1.2,0,2.3,0,3.5c0,0.2,0.1,0.1,0.2,0.1c0.1,0,0.1-0.1,0.1-0.2
					c0-0.3,0-0.7,0-1.1c0.1,0.1,0.1,0.1,0.2,0.2c0.3,0.3,0.6,0.7,1,1c0.1,0.1,0.3,0.2,0.5,0.1c-0.4-0.4-0.8-0.8-1.2-1.2
					c-0.1-0.1-0.1-0.2,0-0.3c0.3-0.3,0.6-0.5,0.9-0.8c0.1,0,0.1-0.1,0.1-0.2c0-0.1-0.1-0.1-0.2-0.1c-0.1,0-0.1,0.1-0.2,0.1
					C72.8,25.4,72.5,25.8,72.1,26.1z M60.8,27.3c0.2,0.3,0.3,0.4,0.5,0.3c0.1,0,0.1-0.1,0.1-0.1c0-0.1,0-0.1-0.1-0.1
					c-0.2,0-0.2-0.1-0.2-0.2c0-0.2,0-0.4,0-0.6c0-0.3,0-0.6,0-0.9c0-0.2-0.1-0.4-0.3-0.5c-0.3-0.2-1,0-1.2,0.3c-0.1,0.1,0,0.1,0,0.2
					c0.1,0.1,0.1,0.1,0.2,0c0.1,0,0.1-0.1,0.2-0.1c0.2-0.1,0.3-0.2,0.5-0.1c0.2,0,0.4,0.2,0.4,0.5c0,0.3-0.1,0.3-0.3,0.3
					c-0.3,0.1-0.7,0.2-0.9,0.5c-0.3,0.3-0.1,0.9,0.3,1C60.3,27.6,60.6,27.4,60.8,27.3z M68.5,27.2c0.1,0.3,0.3,0.4,0.5,0.3
					c0.1,0,0.1-0.1,0.1-0.1c0-0.1-0.1-0.1-0.1-0.1c-0.2,0-0.2-0.1-0.2-0.2c0-0.4,0-0.8,0-1.3c0-0.3-0.1-0.6-0.3-0.7
					c-0.3-0.2-1,0-1.2,0.3c-0.1,0.1-0.1,0.1,0,0.2c0.1,0.1,0.1,0,0.2,0c0,0,0.1-0.1,0.1-0.1c0.1-0.1,0.2-0.1,0.4-0.2
					c0.3,0,0.5,0.1,0.5,0.4c0.1,0.3,0,0.4-0.3,0.5c-0.3,0.1-0.6,0.2-0.9,0.4c-0.2,0.2-0.2,0.5-0.1,0.7c0.1,0.2,0.4,0.3,0.6,0.3
					C68.1,27.5,68.3,27.4,68.5,27.2z M70.7,27.2c0.1,0.3,0.3,0.4,0.5,0.3c0.1,0,0.1-0.1,0.1-0.1c0-0.1,0-0.1-0.1-0.1
					C71,27.3,71,27.2,71,27c0-0.4,0-0.8,0-1.3c0-0.3-0.1-0.6-0.4-0.7c-0.4-0.1-0.7,0-1,0.2c-0.1,0.1-0.2,0.1-0.1,0.3
					c0.1,0.1,0.2,0,0.3-0.1c0.1-0.1,0.3-0.2,0.5-0.2c0.3,0,0.5,0.1,0.5,0.4c0.1,0.3,0,0.3-0.3,0.4c-0.3,0.1-0.6,0.2-0.9,0.4
					c-0.2,0.2-0.2,0.5-0.1,0.7c0.1,0.2,0.4,0.3,0.7,0.3C70.3,27.5,70.5,27.4,70.7,27.2z M74.8,26.2c0.2,0,0.5,0,0.8-0.1
					c0.1,0,0.2-0.1,0.2-0.2c0-0.4-0.1-0.7-0.5-0.9c-0.3-0.2-0.8-0.1-1.1,0.1c-0.4,0.4-0.5,0.9-0.4,1.4c0.1,0.7,1,1.2,1.6,0.8
					c0.1,0,0.2-0.1,0.2-0.2c0-0.1-0.1,0-0.2,0c-0.7,0.2-1.2-0.2-1.3-0.8c0-0.1,0-0.2,0.2-0.2C74.4,26.3,74.6,26.2,74.8,26.2z
					 M55.3,26.2c0.2,0,0.5,0,0.7,0c0.2-0.1,0.2-0.2,0.2-0.4c0-0.4-0.2-0.7-0.5-0.8c-0.4-0.1-0.8-0.1-1.1,0.2c-0.4,0.4-0.4,1-0.3,1.5
					c0.2,0.6,1,1,1.5,0.7c0.1-0.1,0.2-0.1,0.2-0.2c0-0.1-0.2,0-0.2,0c0,0-0.1,0-0.1,0c-0.6,0.1-1.1-0.2-1.1-0.8c0-0.1,0-0.2,0.2-0.2
					C54.9,26.3,55.1,26.2,55.3,26.2z M59.9,24c-0.1,0-0.3,0-0.4,0c-0.7,0-1.4,0-2.1,0c-0.1,0-0.2,0.1-0.2,0.2c0,0.2,0.1,0.1,0.2,0.1
					c0.2,0,0.5,0,0.7,0c0.2,0,0.3,0,0.3,0.2c0,0.9,0,1.9,0,2.8c0,0.1,0,0.2,0.2,0.2c0.1,0,0.2-0.1,0.2-0.2c-0.1-1,0-1.9,0-2.9
					c0-0.1,0-0.2,0.2-0.2c0.3,0,0.5,0,0.8,0C59.8,24.3,59.9,24.2,59.9,24z M53.2,25.9c0,0.5,0,1,0,1.5c0,0.1,0,0.2,0.1,0.2
					c0.1,0,0.2,0,0.2-0.2c-0.1-1,0-1.9,0-2.9c0-0.2,0-0.2,0.2-0.2c0.3,0,0.5,0,0.8,0c0.1,0,0.2-0.1,0.2-0.2c0-0.1-0.1-0.1-0.1-0.1
					c-0.8,0-1.6,0-2.4,0c-0.1,0-0.2,0.1-0.2,0.2c0,0.1,0.1,0.1,0.2,0.1c0.2,0,0.5,0,0.7,0c0.2,0,0.3,0,0.3,0.2
					C53.2,25,53.2,25.4,53.2,25.9z M67.7,24c-0.5,0-0.9,0-1.4,0c-0.4,0-0.7,0-1.1,0c-0.1,0-0.2,0-0.2,0.2c0,0.1,0.1,0.1,0.2,0.1
					c0.2,0,0.5,0,0.7,0c0.2,0,0.3,0,0.3,0.3c0,0.9,0,1.8,0,2.7c0,0.1-0.1,0.3,0.1,0.3c0.2,0,0.2-0.1,0.2-0.3c0-0.9,0-1.8,0-2.8
					c0-0.2,0-0.3,0.2-0.2c0.2,0,0.5,0,0.7,0C67.6,24.3,67.7,24.2,67.7,24z M62.2,25.4c0-0.2-0.1-0.3-0.2-0.4c-0.1-0.1-0.2-0.1-0.3,0
					c-0.1,0.1,0,0.1,0,0.2c0.1,0.1,0.1,0.2,0.1,0.4c0,0.6,0,1.1,0,1.7c0,0.2,0.1,0.2,0.2,0.2c0.1,0,0.1-0.1,0.1-0.2
					c0-0.4,0-0.8,0-1.3c0-0.2,0.1-0.4,0.3-0.6c0.1-0.1,0.3-0.2,0.4-0.1c0.1,0,0.2-0.1,0.1-0.2C63,25,62.9,25,62.8,25
					C62.5,25,62.4,25.2,62.2,25.4z M63.7,26.3c0-0.3,0-0.6,0-0.9c0-0.1,0.1-0.3-0.2-0.3c-0.2,0-0.1,0.2-0.1,0.3c0,0.1,0,0.2,0,0.2
					c0,0.6,0,1.2,0,1.8c0,0.1,0,0.2,0.1,0.2c0.1,0,0.2,0,0.2-0.2c0,0,0-0.1,0-0.1C63.7,26.9,63.7,26.6,63.7,26.3z M63.7,24.1
					c0-0.1,0-0.2-0.2-0.2c-0.1,0-0.2,0.1-0.2,0.2c0,0.1,0.1,0.2,0.2,0.2C63.6,24.2,63.7,24.2,63.7,24.1z"/>
				<path fill="#088C96" d="M42.6,14.5c0.2,0.1,0.5,0.1,0.8,0.2c1.2,0.3,2.3,0.9,3.2,1.7c1.3,1.1,2.1,2.5,2.4,4.1
					c0.5,2.3,0,4.4-1.4,6.2c-1.1,1.5-2.6,2.4-4.4,2.8c-0.2,0-0.5,0.1-0.7,0.1c-0.1,0-0.2,0-0.2-0.2c0-1.4,0-2.9,0-4.3
					c0-1.1,0.5-2.1,1.3-2.9c0.4-0.4,0.8-0.6,1.3-0.5c0.3,0,0.3,0.1,0.2,0.3c-0.2,0.4-0.3,0.8-0.2,1.2c0.1,0.6,0.6,1,1.2,1.1
					c0.9,0.2,1.8-0.3,2-1.2c0.3-1.1-0.3-2.4-1.8-2.5c-1.5-0.1-3.3,1-3.9,2.5c0,0.1,0,0.2-0.1,0.1c-0.1,0,0-0.1,0-0.2
					c0-0.7,0-1.5,0-2.2c0-0.2,0-0.2-0.2-0.2c-1.4,0-2.9,0.1-4.3,0.1c-0.1,0-0.2,0-0.2,0.2c0,0,0,0,0,0c0,0.4,0,0.4,0.4,0.4
					c0.5,0,0.9,0.4,0.9,1c0,1.3,0,2.7,0,4c0,0.8,0,1.7,0,2.5c0,0.3,0,0.3-0.2,0.2c-2.4-1.1-3.9-2.9-4.5-5.5c0-0.1,0-0.3-0.1-0.4
					c0-0.7,0-1.4,0-2.1c0.1-0.2,0.1-0.3,0.1-0.5c0.3-1.6,1.1-2.9,2.3-4c0.9-0.9,2-1.5,3.2-1.8c0.3-0.1,0.7-0.1,1-0.2
					C41.2,14.5,41.9,14.5,42.6,14.5z M40.4,15.6c-1,0-1.9,0.7-1.9,1.9c0,1,0.8,1.9,1.9,1.9c1.1,0,1.9-0.9,1.9-1.9
					C42.3,16.5,41.4,15.6,40.4,15.6z"/>
				<path fill="#FEFEFE" d="M40.5,14.5c-0.3,0.1-0.7,0.1-1,0.2c-1.2,0.3-2.3,0.9-3.2,1.8c-1.2,1.1-1.9,2.4-2.3,4
					c0,0.2,0,0.4-0.1,0.5c0-2.1,0-4.2,0-6.4c0-0.2,0-0.2,0.2-0.2C36.3,14.5,38.4,14.5,40.5,14.5z"/>
				<path fill="#118D97" d="M68.7,19.9c0-0.6,0-1.1,0-1.7c0-0.1,0-0.2,0.2-0.2c0.5-0.1,0.9-0.1,1.4,0c0.4,0.1,0.7,0.3,0.8,0.6
					c0.1,0.4,0.1,0.8-0.2,1.1c-0.3,0.3-0.3,0.3-0.1,0.7c0.2,0.4,0.5,0.8,0.8,1.2c0.1,0.1,0,0.1-0.1,0.2c-0.4,0.1-0.7,0-1-0.3
					c-0.2-0.3-0.4-0.7-0.6-1.1c0-0.1-0.1-0.1-0.1-0.2c-0.2-0.1-0.3,0-0.3,0.2c0,0.4,0,0.8,0,1.1c0,0.2-0.1,0.2-0.2,0.3
					c-0.5,0-0.5,0-0.5-0.4C68.7,20.9,68.7,20.4,68.7,19.9z M69.4,19.2c0,0.1,0,0.3,0,0.4c0,0.2,0.1,0.3,0.3,0.3
					c0.5,0,0.7-0.3,0.6-0.8c0-0.4-0.3-0.7-0.7-0.6c-0.1,0-0.2,0.1-0.2,0.2C69.4,18.8,69.4,19,69.4,19.2z"/>
				<path fill="#118D97" d="M66.9,19.5c0,0.5,0,1,0,1.6c0,0.1,0,0.2,0.1,0.3c0.1,0,0.2,0.1,0.2,0.3c-0.1,0.2-0.2,0.3-0.4,0.3
					c-0.2,0-0.3-0.1-0.4-0.2c-0.1-0.1-0.1-0.1-0.2,0c-0.4,0.3-0.8,0.3-1.3,0c-0.4-0.2-0.6-0.6-0.6-1.1c-0.1-1.1,0.9-1.7,1.8-1.6
					c0.1,0,0.1,0,0.1-0.1c0-0.3,0-0.7,0-1c0-0.1,0-0.2,0.2-0.2c0,0,0,0,0,0c0.5,0,0.5-0.1,0.5,0.4C66.9,18.6,66.9,19,66.9,19.5z
					 M66.1,20.4c0-0.2,0-0.4,0-0.6c0-0.1-0.1-0.2-0.2-0.2c-0.3-0.1-0.6,0-0.8,0.3c-0.3,0.5-0.2,1.2,0.3,1.4c0.2,0.1,0.4,0.1,0.6,0
					c0.2-0.1,0.1-0.3,0.1-0.4C66.2,20.7,66.1,20.6,66.1,20.4z"/>
				<path fill="#1B8E98" d="M54.9,19.4c0.3-0.2,0.5-0.4,0.8-0.4c0.5,0,0.9,0.3,0.9,0.9c0,0.6,0,1.2,0,1.8c0,0,0,0.1,0,0.1
					c-0.2,0.1-0.4,0.1-0.6,0.1c-0.2,0-0.1-0.1-0.1-0.2c0-0.4,0-0.9,0-1.3c0-0.1,0-0.1,0-0.2c0-0.3-0.2-0.5-0.4-0.5
					c-0.3,0-0.5,0.2-0.5,0.5c0,0.5,0,0.9,0,1.4c0,0.2-0.1,0.3-0.3,0.3c-0.5,0-0.5,0-0.5-0.4c0-0.5,0-1,0-1.5c0-0.1,0-0.3-0.1-0.4
					c-0.1-0.2,0-0.3,0.1-0.4c0.1-0.1,0.3-0.1,0.4,0C54.8,19.2,54.9,19.3,54.9,19.4z"/>
				<path fill="#158D97" d="M62,19.4c0.2-0.2,0.4-0.4,0.7-0.4c0.6,0,1,0.3,1,0.9c0,0.6,0,1.2,0,1.7c0,0,0,0.1,0,0.1
					c-0.2,0.1-0.4,0.1-0.6,0.1c-0.2,0-0.1-0.1-0.1-0.2c0-0.5,0-1,0-1.5c0-0.4-0.1-0.5-0.4-0.5c-0.3,0-0.6,0.2-0.6,0.6
					c0,0.5,0,0.9,0,1.4c0,0.2-0.1,0.3-0.2,0.3c-0.5,0.1-0.5,0-0.5-0.4c0-0.5,0-1.1,0-1.6c0-0.1,0-0.2,0-0.2
					c-0.1-0.2-0.1-0.4,0.1-0.5c0.2-0.1,0.4,0,0.5,0.2C62,19.3,62,19.4,62,19.4z"/>
				<path fill="#158D97" d="M80.3,19.4c0.3-0.3,0.7-0.5,1.1-0.4c0.4,0.1,0.6,0.4,0.6,0.8c0,0.6,0,1.2,0,1.8c0,0.1,0,0.1-0.1,0.1
					c0,0,0,0-0.1,0c-0.5,0.1-0.5,0.1-0.5-0.4c0-0.4,0-0.9,0-1.3c0-0.3-0.1-0.5-0.4-0.5c-0.3,0-0.6,0.2-0.6,0.5c0,0.5,0,1,0,1.4
					c0,0.2-0.1,0.3-0.3,0.3c-0.5,0.1-0.5,0.1-0.5-0.4c0-0.5,0-1.1,0-1.6c0-0.1,0-0.1,0-0.2c-0.1-0.3-0.1-0.4,0.1-0.5
					c0.2-0.1,0.4,0,0.5,0.3C80.3,19.4,80.3,19.4,80.3,19.4z"/>
				<path fill="#118D97" d="M84.4,21.5c-0.3,0.3-0.7,0.5-1.1,0.3c-0.4-0.1-0.6-0.4-0.6-0.8c0-0.6,0-1.2,0-1.8c0-0.1,0-0.2,0.1-0.2
					c0.2,0,0.3,0,0.5,0c0.1,0,0.1,0.1,0.1,0.2c0,0.4,0,0.9,0,1.3c0,0.1,0,0.2,0,0.3c0.1,0.3,0.2,0.4,0.5,0.4c0.3,0,0.5-0.2,0.5-0.5
					c0-0.5,0-1,0-1.4c0-0.2,0.1-0.3,0.3-0.3c0.5,0,0.5,0,0.5,0.4c0,0.5,0,1,0,1.6c0,0.1,0,0.3,0.2,0.3c0.2,0.1,0.1,0.2,0.1,0.3
					c-0.1,0.3-0.5,0.3-0.7,0.1C84.5,21.7,84.5,21.6,84.4,21.5z"/>
				<path fill="#158D97" d="M60.9,21.3c0.1,0.2,0,0.4-0.2,0.5c-0.3,0.1-0.5,0-0.7-0.3c-0.3,0.2-0.6,0.4-0.9,0.3
					c-0.5-0.1-0.7-0.8-0.3-1.2c0.3-0.3,0.6-0.4,1-0.5c0.1,0,0.3,0,0.3-0.2c0-0.2-0.1-0.3-0.3-0.4c-0.2,0-0.4,0-0.6,0.1
					c-0.3,0.1-0.4,0.1-0.5-0.2c0-0.1,0-0.1,0-0.1c0.4-0.3,0.8-0.5,1.4-0.3c0.5,0.1,0.7,0.5,0.6,1.1c0,0.3,0,0.7,0,1
					C60.5,21.4,60.7,21.4,60.9,21.3z M59.9,20.8c0-0.1,0.1-0.2-0.1-0.2c-0.2,0-0.4,0.1-0.6,0.3c-0.1,0.1-0.1,0.2,0,0.3
					c0.1,0.1,0.1,0.2,0.3,0.2C59.7,21.3,59.9,21.1,59.9,20.8z"/>
				<path fill="#158D97" d="M78.2,19.1c0.6,0,1,0.4,1,1.1c0,0.2-0.1,0.3-0.3,0.4c-0.3,0.1-0.7,0.1-1,0.1c-0.1,0-0.3-0.1-0.3,0
					c-0.1,0.1,0,0.3,0.1,0.4c0.3,0.4,0.7,0.4,1.1,0.3c0.1,0,0.2-0.1,0.2,0c0.1,0.1,0,0.2-0.1,0.2c-0.2,0.4-0.6,0.4-1,0.3
					c-0.8-0.1-1.1-0.6-1.1-1.3c0-0.4,0.1-0.8,0.4-1.2C77.5,19.2,77.8,19,78.2,19.1z M78,20.2C78,20.2,78,20.2,78,20.2
					c0.1,0,0.2,0,0.3,0c0.2,0,0.2-0.1,0.2-0.2c0-0.2-0.1-0.3-0.3-0.4c-0.2,0-0.4,0-0.5,0.2c-0.1,0.1-0.2,0.2-0.1,0.4
					c0.1,0.1,0.2,0,0.3,0.1C78,20.2,78,20.2,78,20.2z"/>
				<path fill="#158D97" d="M85.6,20.5c0-0.7,0.4-1.3,0.9-1.4c0.8-0.2,1.5,0.3,1.4,1.2c0,0.1-0.1,0.2-0.2,0.2
					c-0.2,0.1-0.3,0.1-0.5,0.1c-0.2,0-0.4,0-0.6,0c-0.3,0-0.4,0.1-0.2,0.4c0.1,0.3,0.5,0.5,0.9,0.4c0.1,0,0.2,0,0.3-0.1
					c0.2-0.1,0.2,0,0.1,0.2c-0.1,0.2-0.2,0.3-0.4,0.4C86.5,22.1,85.6,21.6,85.6,20.5z M86.8,19.5c-0.2,0-0.5,0.3-0.5,0.5
					c0,0.1,0.1,0.1,0.1,0.1c0.2,0,0.4,0,0.7,0c0.1,0,0.1,0,0.1-0.1C87.3,19.8,87.1,19.5,86.8,19.5z"/>
				<path fill="#158D97" d="M72.3,20.6c0.1,0.5,0.5,0.8,1,0.8c0.1,0,0.2,0,0.3-0.1c0.1,0,0.1,0,0.2,0c0,0,0,0.1,0,0.2
					c-0.1,0.3-0.4,0.4-0.7,0.4c-0.8,0-1.5-0.4-1.5-1.3c0-0.8,0.5-1.4,1-1.5c0.8-0.2,1.4,0.3,1.4,1.1c0,0.1-0.1,0.2-0.2,0.2
					c-0.2,0.1-0.4,0.1-0.6,0.1C72.9,20.6,72.6,20.6,72.3,20.6z M72.8,20.2C72.8,20.2,72.8,20.2,72.8,20.2c0.1,0,0.2,0,0.2,0
					c0.2,0,0.3-0.1,0.2-0.3c0-0.2-0.1-0.3-0.4-0.4c-0.2,0-0.4,0.1-0.5,0.3c-0.1,0.3-0.1,0.3,0.2,0.3C72.7,20.2,72.7,20.2,72.8,20.2z
					"/>
				<path fill="#158D97" d="M75.5,21c0.2-0.6,0.4-1.2,0.6-1.8c0.1-0.3,0.2-0.2,0.4-0.1c0.2,0,0.3,0.2,0.2,0.4
					c-0.3,0.7-0.6,1.3-0.8,2c-0.1,0.3-0.3,0.4-0.6,0.4c-0.1,0-0.2,0-0.2-0.1c-0.3-0.8-0.6-1.6-0.9-2.4c0,0,0-0.1,0-0.1
					c0.1-0.1,0.3-0.1,0.5-0.2c0.2,0,0.2,0.1,0.2,0.2C75.1,19.8,75.3,20.4,75.5,21z"/>
				<path fill="#158D97" d="M57.2,19.8c0-0.6,0-1.2,0-1.8c0-0.2,0.1-0.2,0.2-0.3c0.1,0,0.2,0,0.3,0c0.1,0,0.2,0,0.2,0.2
					c0,0.1,0,0.1,0,0.2c0,1.2,0,2.4,0,3.6c0,0.2-0.1,0.2-0.2,0.2c-0.7,0-0.5,0.1-0.5-0.5C57.2,20.8,57.2,20.3,57.2,19.8
					C57.2,19.8,57.2,19.8,57.2,19.8z"/>
				<path fill="#158D97" d="M52.7,19.9c0-0.6,0-1.1,0-1.7c0-0.2,0-0.2,0.2-0.3c0.5,0,0.5,0,0.5,0.5c0,0.9,0,1.7,0,2.6
					c0,0.2,0,0.4,0,0.6c0,0.1,0,0.2-0.1,0.2c-0.2,0-0.3,0-0.5,0c-0.2,0-0.1-0.1-0.1-0.2C52.7,21.1,52.7,20.5,52.7,19.9
					C52.7,19.9,52.7,19.9,52.7,19.9z"/>
				<path fill="#158D97" d="M72.1,26.1c0.4-0.3,0.7-0.7,1.1-1c0.1,0,0.1-0.1,0.2-0.1c0.1,0,0.2,0,0.2,0.1c0.1,0.1,0,0.1-0.1,0.2
					c-0.3,0.3-0.6,0.5-0.9,0.8c-0.1,0.1-0.1,0.2,0,0.3c0.4,0.4,0.7,0.8,1.2,1.2c-0.2,0.1-0.4,0.1-0.5-0.1c-0.3-0.3-0.6-0.7-1-1
					c0,0-0.1-0.1-0.2-0.2c0,0.4,0,0.7,0,1.1c0,0.1,0,0.2-0.1,0.2c-0.1,0-0.2,0-0.2-0.1c0-1.2,0-2.3,0-3.5c0-0.1,0.1-0.2,0.2-0.2
					c0.1,0,0.1,0.1,0.1,0.2C72.1,24.6,72.1,25.3,72.1,26.1z"/>
				<path fill="#26909A" d="M60.8,27.3c-0.3,0.2-0.5,0.4-0.8,0.3c-0.4-0.1-0.6-0.6-0.3-1c0.2-0.3,0.6-0.4,0.9-0.5
					c0.2,0,0.3-0.1,0.3-0.3c0-0.3-0.2-0.5-0.4-0.5c-0.2,0-0.4,0.1-0.5,0.1c-0.1,0-0.1,0.1-0.2,0.1c-0.1,0-0.1,0.1-0.2,0
					c0-0.1,0-0.1,0-0.2c0.2-0.3,0.9-0.4,1.2-0.3c0.2,0.1,0.3,0.3,0.3,0.5c0,0.3,0,0.6,0,0.9c0,0.2,0,0.4,0,0.6c0,0.1,0,0.2,0.2,0.2
					c0.1,0,0.1,0,0.1,0.1c0,0.1,0,0.1-0.1,0.1C61.2,27.6,61,27.5,60.8,27.3z M60.8,26.6c-0.1,0,0.1-0.3-0.1-0.2
					c-0.3,0-0.6,0.1-0.9,0.4c-0.1,0.1-0.1,0.2,0,0.4c0.1,0.1,0.2,0.2,0.3,0.2C60.6,27.3,60.8,27,60.8,26.6z"/>
				<path fill="#26909A" d="M68.5,27.2c-0.2,0.1-0.4,0.3-0.6,0.3c-0.3,0-0.5-0.1-0.6-0.3c-0.1-0.2-0.1-0.5,0.1-0.7
					c0.2-0.3,0.5-0.4,0.9-0.4c0.3-0.1,0.4-0.1,0.3-0.5c-0.1-0.3-0.3-0.4-0.5-0.4c-0.1,0-0.3,0.1-0.4,0.2c0,0-0.1,0.1-0.1,0.1
					c-0.1,0-0.1,0.1-0.2,0c0-0.1,0-0.1,0-0.2c0.2-0.3,0.9-0.4,1.2-0.3c0.3,0.2,0.3,0.5,0.3,0.7c0,0.4,0,0.8,0,1.3
					c0,0.1,0,0.2,0.2,0.2c0.1,0,0.1,0,0.1,0.1c0,0.1,0,0.1-0.1,0.1C68.8,27.6,68.6,27.5,68.5,27.2z M68.5,26.6c0-0.3,0-0.3-0.3-0.2
					c-0.1,0-0.3,0.1-0.4,0.2c-0.1,0.1-0.2,0.2-0.3,0.3c0,0.2,0.1,0.4,0.3,0.4C68.2,27.3,68.5,27,68.5,26.6z"/>
				<path fill="#1F8F99" d="M70.7,27.2c-0.2,0.2-0.4,0.3-0.6,0.3c-0.3,0-0.5-0.1-0.7-0.3c-0.1-0.2-0.1-0.5,0.1-0.7
					c0.2-0.2,0.5-0.3,0.9-0.4c0.3-0.1,0.4-0.1,0.3-0.4c-0.1-0.3-0.2-0.5-0.5-0.4c-0.2,0-0.3,0.1-0.5,0.2c-0.1,0-0.1,0.2-0.3,0.1
					c-0.1-0.1,0-0.2,0.1-0.3c0.3-0.3,0.7-0.3,1-0.2c0.3,0.1,0.4,0.4,0.4,0.7c0,0.4,0,0.8,0,1.3c0,0.1,0,0.3,0.2,0.3
					c0.1,0,0.1,0,0.1,0.1c0,0.1,0,0.1-0.1,0.1C71,27.6,70.8,27.5,70.7,27.2z M70.7,26.3c-0.3,0-0.6,0.1-0.8,0.2
					c-0.2,0.1-0.3,0.4-0.2,0.6c0.1,0.1,0.3,0.2,0.6,0.1C70.7,27,70.7,26.9,70.7,26.3z"/>
				<path fill="#1D8E98" d="M74.8,26.2c-0.2,0-0.4,0-0.5,0c-0.2,0-0.2,0.1-0.2,0.2c0.1,0.6,0.5,1,1.3,0.8c0.1,0,0.2-0.1,0.2,0
					c0,0.1-0.1,0.2-0.2,0.2c-0.6,0.3-1.5-0.1-1.6-0.8c-0.1-0.5,0-1,0.4-1.4c0.3-0.2,0.8-0.3,1.1-0.1c0.3,0.2,0.5,0.5,0.5,0.9
					c0,0.1-0.1,0.2-0.2,0.2C75.3,26.3,75,26.2,74.8,26.2z M74.7,26c0.1,0,0.2,0,0.3,0c0.4,0,0.5-0.2,0.3-0.5c0-0.1-0.1-0.2-0.2-0.2
					c-0.5-0.2-0.9,0.1-1,0.6c0,0.1,0.1,0.1,0.1,0.1C74.4,26,74.6,26,74.7,26z"/>
				<path fill="#1D8E98" d="M55.3,26.2c-0.2,0-0.4,0-0.5,0c-0.1,0-0.2,0.1-0.2,0.2c0.1,0.6,0.5,1,1.1,0.8c0,0,0.1,0,0.1,0
					c0.1,0,0.2-0.1,0.2,0c0,0.1-0.1,0.2-0.2,0.2c-0.6,0.3-1.4-0.1-1.5-0.7c-0.1-0.5-0.1-1.1,0.3-1.5c0.3-0.3,0.7-0.4,1.1-0.2
					c0.3,0.1,0.5,0.4,0.5,0.8c0,0.2,0,0.3-0.2,0.4C55.8,26.3,55.5,26.2,55.3,26.2z M55.2,26c0.2,0,0.3,0,0.5,0c0.1,0,0.2,0,0.2-0.2
					c0-0.3-0.2-0.5-0.4-0.6c-0.4-0.1-0.7,0.1-0.8,0.5c-0.1,0.1,0,0.2,0.1,0.2C54.9,26,55.1,26,55.2,26z"/>
				<path fill="#26909A" d="M59.9,24c0,0.2-0.1,0.3-0.3,0.3c-0.3,0-0.5,0-0.8,0c-0.1,0-0.2,0-0.2,0.2c0,1,0,1.9,0,2.9
					c0,0.2-0.1,0.2-0.2,0.2c-0.2,0-0.2-0.1-0.2-0.2c0-0.9,0-1.9,0-2.8c0-0.2-0.1-0.3-0.3-0.2c-0.2,0-0.5,0-0.7,0
					c-0.1,0-0.2,0-0.2-0.1c0-0.1,0.1-0.2,0.2-0.2c0.7,0,1.4,0,2.1,0C59.6,24,59.8,24,59.9,24z"/>
				<path fill="#26909A" d="M53.2,25.9c0-0.5,0-0.9,0-1.4c0-0.2-0.1-0.3-0.3-0.2c-0.2,0-0.5,0-0.7,0c-0.1,0-0.2,0-0.2-0.1
					c0-0.1,0.1-0.2,0.2-0.2c0.8,0,1.6,0,2.4,0c0,0,0.1,0,0.1,0.1c0,0.1-0.1,0.2-0.2,0.2c-0.3,0-0.5,0-0.8,0c-0.2,0-0.2,0-0.2,0.2
					c0,1,0,1.9,0,2.9c0,0.2-0.1,0.2-0.2,0.2c-0.1,0-0.1-0.1-0.1-0.2C53.2,26.9,53.2,26.4,53.2,25.9z"/>
				<path fill="#1B8E98" d="M67.7,24c0,0.2-0.1,0.3-0.3,0.3c-0.2,0-0.5,0-0.7,0c-0.2,0-0.2,0.1-0.2,0.2c0,0.9,0,1.8,0,2.8
					c0,0.2,0,0.3-0.2,0.3c-0.2,0-0.1-0.2-0.1-0.3c0-0.9,0-1.8,0-2.7c0-0.3-0.1-0.3-0.3-0.3c-0.2,0-0.4,0-0.7,0c-0.1,0-0.2,0-0.2-0.1
					c0-0.1,0.1-0.2,0.2-0.2c0.4,0,0.7,0,1.1,0C66.8,24,67.2,24,67.7,24z"/>
				<path fill="#31929C" d="M62.2,25.4c0.2-0.2,0.3-0.4,0.6-0.4c0.1,0,0.2,0,0.3,0.1c0,0.1,0,0.2-0.1,0.2c-0.2,0-0.3,0-0.4,0.1
					c-0.2,0.2-0.3,0.4-0.3,0.6c0,0.4,0,0.8,0,1.3c0,0.1,0,0.2-0.1,0.2c-0.1,0-0.2,0-0.2-0.2c0-0.6,0-1.1,0-1.7c0-0.1,0-0.3-0.1-0.4
					c-0.1-0.1-0.1-0.1,0-0.2c0.1-0.1,0.2-0.1,0.3,0C62.1,25.1,62.2,25.3,62.2,25.4z"/>
				<path fill="#1F8F99" d="M63.7,26.3c0,0.3,0,0.6,0,0.9c0,0,0,0.1,0,0.1c0,0.2-0.1,0.2-0.2,0.2c-0.1,0-0.1-0.1-0.1-0.2
					c0-0.6,0-1.2,0-1.8c0-0.1,0-0.2,0-0.2c0-0.1-0.1-0.3,0.1-0.3c0.2,0,0.2,0.2,0.2,0.3C63.7,25.6,63.7,26,63.7,26.3z"/>
				<path fill="#2E9FAA" d="M63.7,24.1c0,0.1-0.1,0.2-0.2,0.2c-0.1,0-0.2-0.1-0.2-0.2c0-0.1,0.1-0.2,0.2-0.2
					C63.6,23.9,63.7,23.9,63.7,24.1z"/>
				<path fill="#FEFEFE" d="M40.4,15.6c1,0,1.9,0.8,1.9,1.9c0,1-0.7,1.9-1.9,1.9c-1.1,0-1.9-0.8-1.9-1.9
					C38.5,16.4,39.4,15.6,40.4,15.6z"/>
				<path fill="#F9FBFB" d="M69.4,19.2c0-0.2,0-0.3,0-0.5c0-0.1,0.1-0.2,0.2-0.2c0.4,0,0.7,0.2,0.7,0.6c0,0.5-0.2,0.8-0.6,0.8
					c-0.2,0-0.3,0-0.3-0.3C69.4,19.4,69.4,19.3,69.4,19.2z"/>
				<path fill="#FCFDFD" d="M66.1,20.4c0,0.1,0,0.3,0,0.4c0,0.1,0.1,0.3-0.1,0.4c-0.2,0.1-0.4,0.1-0.6,0c-0.5-0.2-0.6-0.9-0.3-1.4
					c0.2-0.3,0.5-0.4,0.8-0.3c0.1,0,0.2,0.1,0.2,0.2C66.1,20,66.1,20.2,66.1,20.4z"/>
				<path fill="#F9FBFB" d="M59.9,20.8c0,0.3-0.2,0.5-0.5,0.5c-0.1,0-0.2,0-0.3-0.2c-0.1-0.1,0-0.2,0-0.3c0.2-0.2,0.4-0.3,0.6-0.3
					C60,20.6,59.8,20.8,59.9,20.8z"/>
				<path fill="#F9FBFB" d="M78,20.2c0,0-0.1,0-0.1,0c-0.1,0-0.3,0.1-0.3-0.1c-0.1-0.1,0-0.2,0.1-0.4c0.1-0.2,0.3-0.3,0.5-0.2
					c0.2,0,0.3,0.2,0.3,0.4c0,0.2,0,0.3-0.2,0.2C78.2,20.2,78.1,20.2,78,20.2C78,20.2,78,20.2,78,20.2z"/>
				<path fill="#FAFBFC" d="M86.8,19.5c0.3,0,0.5,0.3,0.4,0.5c0,0.1-0.1,0.1-0.1,0.1c-0.2,0-0.4,0-0.7,0c-0.1,0-0.1,0-0.1-0.1
					C86.3,19.8,86.6,19.5,86.8,19.5z"/>
				<path fill="#F8FAFA" d="M72.8,20.2c-0.1,0-0.1,0-0.2,0c-0.3,0-0.3-0.1-0.2-0.3c0.1-0.2,0.2-0.3,0.5-0.3c0.2,0,0.3,0.2,0.4,0.4
					c0,0.2,0,0.3-0.2,0.3C73,20.2,72.9,20.2,72.8,20.2C72.8,20.2,72.8,20.2,72.8,20.2z"/>
				<path fill="#FAFBFC" d="M60.8,26.6c0,0.4-0.3,0.7-0.7,0.7c-0.1,0-0.3,0-0.3-0.2c-0.1-0.1,0-0.3,0-0.4c0.2-0.3,0.5-0.4,0.9-0.4
					C60.9,26.3,60.8,26.5,60.8,26.6z"/>
				<path fill="#FAFBFC" d="M68.5,26.6c0,0.4-0.3,0.7-0.7,0.6c-0.2,0-0.3-0.2-0.3-0.4c0-0.2,0.1-0.3,0.3-0.3
					c0.1-0.1,0.3-0.1,0.4-0.2C68.5,26.3,68.5,26.3,68.5,26.6z"/>
				<path fill="#F8FAFA" d="M70.7,26.3c0,0.6,0,0.7-0.4,0.9c-0.2,0.1-0.5,0.1-0.6-0.1c-0.1-0.2,0-0.4,0.2-0.6
					C70.1,26.4,70.4,26.4,70.7,26.3z"/>
				<path fill="#F8FAFA" d="M74.7,26c-0.2,0-0.3,0-0.5,0c-0.1,0-0.1,0-0.1-0.1c0.1-0.5,0.5-0.8,1-0.6c0.1,0,0.2,0.1,0.2,0.2
					c0.2,0.3,0.1,0.5-0.3,0.5C75,26,74.8,26,74.7,26z"/>
				<path fill="#F8FAFA" d="M55.2,26c-0.1,0-0.3,0-0.4,0c-0.2,0-0.2-0.1-0.1-0.2c0.2-0.4,0.5-0.7,0.8-0.5c0.2,0.1,0.4,0.3,0.4,0.6
					c0,0.1-0.1,0.2-0.2,0.2C55.6,26,55.4,26,55.2,26z"/>
			</g>
		</g>
		<rect x="98.1" y="16.3" fill="#A3A5A8" width="57.6" height="10.2"/>
		<rect x="161.9" y="16.3" fill="#A3A5A8" width="44.7" height="10.2"/>
		<rect x="212.9" y="16.3" fill="#A3A5A8" width="55.7" height="10.2"/>
		<polygon opacity="0.62" fill="#3A3B3B" points="204.7,102.8 192.8,89.7 192.6,107.4 197.1,104.8 200,112.3 202.4,111.3 
			199.6,103.9 		"/>
		<polygon opacity="0.62" fill="#3A3B3B" points="127.9,102.8 116,89.7 115.9,107.4 120.4,104.8 123.2,112.3 125.7,111.3 
			122.8,103.9 		"/>
		<polygon opacity="0.62" fill="#3A3B3B" points="255.7,129 243.8,115.9 243.6,133.6 248.1,131.1 251,138.5 253.4,137.6 
			250.6,130.1 		"/>
		<polygon opacity="0.62" fill="#3A3B3B" points="305.7,91.5 293.8,78.3 293.6,96.1 298.1,93.5 301,101 303.4,100 300.6,92.6 		"/>
		<polygon opacity="0.62" fill="#3A3B3B" points="299.7,225.7 287.7,212.6 287.6,230.3 292.1,227.7 295,235.2 297.4,234.2 
			294.6,226.8 		"/>
		<polygon opacity="0.62" fill="#3A3B3B" points="57.4,180.6 45.5,167.4 45.4,185.2 49.9,182.6 52.7,190 55.2,189.1 52.3,181.6 		
			"/>
		<polygon opacity="0.62" fill="#3A3B3B" points="139.9,185.8 128,172.6 127.9,190.4 132.4,187.8 135.2,195.2 137.7,194.3 
			134.8,186.8 		"/>
		<polygon fill="#3A3B3B" points="257.2,173.6 245.2,160.5 245.1,178.2 249.6,175.6 252.5,183.1 254.9,182.1 252.1,174.7 		"/>
		<polygon opacity="0.62" fill="#3A3B3B" points="65.7,103.5 53.8,90.4 53.7,108.1 58.2,105.5 61,113 63.5,112 60.6,104.6 		"/>
		<polygon opacity="0.62" fill="#3A3B3B" points="109.9,157.9 98,144.7 97.9,162.5 102.4,159.9 105.2,167.3 107.7,166.4 104.8,159 
					"/>
		<polygon opacity="0.62" fill="#3A3B3B" points="163.4,75 151.5,61.9 151.3,79.6 155.9,77.1 158.7,84.5 161.1,83.6 158.3,76.1 		
			"/>
	</g>
	<g>
		<g opacity="0.1">
			<path fill="#010101" d="M178.9,150.8v-5c0-5.8,1.1-10.6,3.2-14.4c2.1-3.8,5.8-7.8,11-11.9c6.3-4.9,10.3-8.8,12.1-11.5
				c1.8-2.7,2.7-6,2.7-9.8c0-4.4-1.5-7.8-4.4-10.2c-2.9-2.4-7.2-3.5-12.7-3.5c-5,0-9.6,0.7-13.9,2.1c-4.3,1.4-8.4,3.1-12.5,5.1
				l-6.6-13.9c10.7-5.9,22.1-8.9,34.3-8.9c10.3,0,18.5,2.5,24.5,7.6c6,5,9.1,12,9.1,20.9c0,3.9-0.6,7.4-1.7,10.5
				c-1.2,3.1-2.9,6-5.2,8.8c-2.3,2.8-6.4,6.4-12.1,10.9c-4.9,3.8-8.2,7-9.8,9.5c-1.7,2.5-2.5,5.9-2.5,10.2v3.5H178.9z M175.7,175.9
				c0-7.9,3.9-11.9,11.6-11.9c3.8,0,6.7,1,8.7,3.1c2,2.1,3,5,3,8.8c0,3.7-1,6.7-3,8.9c-2,2.2-4.9,3.3-8.6,3.3
				c-3.7,0-6.6-1.1-8.6-3.2C176.7,182.7,175.7,179.8,175.7,175.9z"/>
		</g>
		<g>
			<g>
				<path fill="#C7646B" d="M173.9,145.8v-5c0-5.8,1.1-10.6,3.2-14.4c2.1-3.8,5.8-7.8,11-11.9c6.3-4.9,10.3-8.8,12.1-11.5
					c1.8-2.7,2.7-6,2.7-9.8c0-4.4-1.5-7.8-4.4-10.2c-2.9-2.4-7.2-3.5-12.7-3.5c-5,0-9.6,0.7-13.9,2.1c-4.3,1.4-8.4,3.1-12.5,5.1
					l-6.6-13.9c10.7-5.9,22.1-8.9,34.3-8.9c10.3,0,18.5,2.5,24.5,7.6c6,5,9.1,12,9.1,20.9c0,3.9-0.6,7.4-1.7,10.5
					c-1.2,3.1-2.9,6-5.2,8.8c-2.3,2.8-6.4,6.4-12.1,10.9c-4.9,3.8-8.2,7-9.8,9.5c-1.7,2.5-2.5,5.9-2.5,10.2v3.5H173.9z M170.7,170.9
					c0-7.9,3.9-11.9,11.6-11.9c3.8,0,6.7,1,8.7,3.1c2,2.1,3,5,3,8.8c0,3.7-1,6.7-3,8.9c-2,2.2-4.9,3.3-8.6,3.3
					c-3.7,0-6.6-1.1-8.6-3.2C171.7,177.7,170.7,174.8,170.7,170.9z"/>
			</g>
		</g>
	</g>
	<g>
		<defs>
			<rect id="SVGID_15_" x="0" y="167.4" width="386.5" height="386.6"/>
		</defs>
		<clipPath id="SVGID_1_">
			<use xlink:href="#SVGID_15_"  overflow="visible"/>
		</clipPath>
		<g clip-path="url(#SVGID_1_)">
			<ellipse fill="#82B2A9" cx="184.1" cy="1053.7" rx="203.5" ry="44"/>
			<g>
				<g>
					<defs>
						<path id="SVGID_17_" d="M190.7,427.3c-38,0-68.7-30.8-68.7-68.7v-73.8c0-38,30.8-68.7,68.7-68.7s68.7,30.8,68.7,68.7v73.8
							C259.5,396.5,228.7,427.3,190.7,427.3z"/>
					</defs>
					<clipPath id="SVGID_2_">
						<use xlink:href="#SVGID_17_"  overflow="visible"/>
					</clipPath>
				</g>
				<path fill="#F6C6A7" d="M366.2,590.4c0,135.9,16.2,246.1-175.5,246.1c-175.5,0-175.5-110.2-175.5-246.1s78.6-246.1,175.5-246.1
					S366.2,454.5,366.2,590.4z"/>
				<g>
					<defs>
						<path id="SVGID_19_" d="M190.7,836.5c-175.5,0-175.5-110.2-175.5-246.1s78.6-246.1,175.5-246.1s175.5,110.2,175.5,246.1"/>
					</defs>
					<clipPath id="SVGID_3_">
						<use xlink:href="#SVGID_19_"  overflow="visible"/>
					</clipPath>
					<polygon clip-path="url(#SVGID_3_)" fill="#ECBD9F" points="70.7,849.6 45.9,336.4 335.5,336.4 310.8,849.6 					"/>
				</g>
				<g>
					<defs>
						<path id="SVGID_21_" d="M371.3,590.4c0,139.8-80.8,253.2-180.5,253.2S10.2,730.2,10.2,590.4S92.3,346.6,192,346.6
							S371.3,450.6,371.3,590.4z"/>
					</defs>
					<clipPath id="SVGID_4_">
						<use xlink:href="#SVGID_21_"  overflow="visible"/>
					</clipPath>
					<polygon clip-path="url(#SVGID_4_)" fill="#FFFFFF" points="305,843.6 76.5,843.6 52.3,342.4 329.2,342.4 					"/>
				</g>
				<g>
					<g>
						<path fill="#F6C6A7" d="M190.7,427.3c-38,0-68.7-30.8-68.7-68.7v-73.8c0-38,30.8-68.7,68.7-68.7s68.7,30.8,68.7,68.7v73.8
							C259.5,396.5,228.7,427.3,190.7,427.3z"/>
					</g>
					<circle fill="#754E2C" cx="162.7" cy="267.5" r="3.3"/>
					<circle fill="#754E2C" cx="215.4" cy="267.5" r="3.3"/>
					<path fill="#A47B53" d="M202.5,292l-0.1,0.1c-7.2,4.1-16.1,4.1-23.3,0L179,292h-16.9c-9,0-16.3,7.3-16.3,16.3V336
						c0,12.9,10.5,23.4,23.4,23.4h43c12.9,0,23.4-10.5,23.4-23.4v-27.8c0-9-7.3-16.3-16.3-16.3H202.5z M210,339.3h-1.8
						c-5.8,0-11.4-1.3-16-3.8l-1.5-0.8l-1.5,0.8c-4.6,2.5-10.2,3.8-16,3.8h-1.8c-9.9,0-17.9-5.6-17.9-12.6v-1.2
						c0-7.4,8.5-13.4,19.1-13.4h36.2c10.5,0,19.1,6,19.1,13.4v1.2C227.9,333.7,219.9,339.3,210,339.3z"/>
				</g>
				<g>
					<defs>
						<path id="SVGID_23_" d="M373,590.4c0,144.7-2.5,261.9-182.3,261.9C3.9,852.4,3.9,735.1,3.9,590.4s83.6-261.9,186.8-261.9
							S373,445.7,373,590.4z"/>
					</defs>
					<clipPath id="SVGID_5_">
						<use xlink:href="#SVGID_23_"  overflow="visible"/>
					</clipPath>
					<rect x="313.1" y="699.4" clip-path="url(#SVGID_5_)" fill="#FFFFFF" width="69.6" height="20.6"/>
				</g>
				<g>
					<path fill="#424244" d="M325.7,885.4H55.7c0-282.1,35.3-418.3,35.3-418.3h199.6C290.5,467.1,325.7,590.4,325.7,885.4z"/>
				</g>
				<g>
					<polygon fill="#4D6660" points="173.2,1016.8 104.3,1016.8 92.5,885.4 173.2,885.4 					"/>
					<polygon fill="#394D48" points="132.8,1027 104.3,1016.8 92.5,885.4 					"/>
					<polygon fill="#4D6660" points="277.2,1016.8 208.3,1016.8 208.3,885.4 288.9,885.4 					"/>
					<polygon fill="#394D48" points="248.6,1027 208.3,1016.8 208.3,885.4 					"/>
				</g>
				<polygon fill="#424244" points="98.4,1012.1 104.3,1028.9 92.5,1042.4 44.1,1042.4 44.1,1067.9 104.3,1067.9 113,1067.9 
					173.2,1067.9 173.2,1016.8 				"/>
				<polygon fill="#424244" points="283,1012.1 277.2,1028.9 288.9,1042.4 337.3,1042.4 337.3,1067.9 277.2,1067.9 268.4,1067.9 
					208.3,1067.9 208.3,1016.8 				"/>
				<g>
					<path fill="none" stroke="#D7D6D6" stroke-width="1.1751" stroke-miterlimit="10" d="M265.1,386.1
						c-11.2,30.2-40.3,51.8-74.4,51.8c-33.3,0-61.8-20.6-73.6-49.6"/>
				</g>
				<g>
					<defs>
						<ellipse id="SVGID_25_" cx="190.7" cy="590.4" rx="191.6" ry="246.1"/>
					</defs>
					<clipPath id="SVGID_6_">
						<use xlink:href="#SVGID_25_"  overflow="visible"/>
					</clipPath>
					<g clip-path="url(#SVGID_6_)">
						<rect x="103.7" y="344.3" fill="#424244" width="18.3" height="128.8"/>
						<rect x="259.5" y="344.3" fill="#424244" width="18.3" height="128.8"/>
					</g>
				</g>
				<linearGradient id="SVGID_7_" gradientUnits="userSpaceOnUse" x1="191.9884" y1="845.8008" x2="191.9884" y2="653.0112">
					<stop  offset="0" style="stop-color:#424244"/>
					<stop  offset="1" style="stop-color:#3B3B3D"/>
				</linearGradient>
				<linearGradient id="SVGID_8_" gradientUnits="userSpaceOnUse" x1="79.6511" y1="749.406" x2="304.3257" y2="749.406">
					<stop  offset="0" style="stop-color:#424244"/>
					<stop  offset="1" style="stop-color:#414143"/>
				</linearGradient>
				
					<rect x="80.2" y="653" fill="url(#SVGID_7_)" stroke="url(#SVGID_8_)" stroke-width="1.1751" stroke-miterlimit="10" width="223.5" height="192.8"/>
				<line fill="none" stroke="#818181" stroke-width="5.8754" stroke-miterlimit="10" x1="80.2" y1="653" x2="303.7" y2="653"/>
			</g>
			<g>
				<polygon fill="#FEE581" points="100.7,437.6 100.7,448.7 105.5,448.7 111.9,437.6 				"/>
				<polygon fill="#FEE581" points="126,437.6 121.2,437.6 114.7,448.7 126,448.7 				"/>
				<polygon fill="#FEE896" points="111.9,437.6 105.5,448.7 114.7,448.7 121.2,437.6 				"/>
			</g>
			<g>
				<polygon fill="#FEE581" points="255.5,437.6 255.5,448.7 260.2,448.7 266.7,437.6 				"/>
				<polygon fill="#FEE581" points="280.7,437.6 275.9,437.6 269.5,448.7 280.7,448.7 				"/>
				<polygon fill="#FEE896" points="266.7,437.6 260.2,448.7 269.5,448.7 275.9,437.6 				"/>
			</g>
		</g>
	</g>
</g>
</svg>
