<?xml version="1.0" encoding="utf-8"?>
<!-- Generator: Adobe Illustrator 17.1.0, SVG Export Plug-In . SVG Version: 6.00 Build 0)  -->
<!DOCTYPE svg PUBLIC "-//W3C//DTD SVG 1.1//EN" "http://www.w3.org/Graphics/SVG/1.1/DTD/svg11.dtd">
<svg version="1.1" id="Layer_1" xmlns="http://www.w3.org/2000/svg" xmlns:xlink="http://www.w3.org/1999/xlink" x="0px" y="0px"
	 viewBox="0 0 366 580.5" enable-background="new 0 0 366 580.5" xml:space="preserve">
<polygon opacity="0.62" fill="#3A3B3B" points="226.8,128.5 210.5,110.5 210.3,134.8 216.5,131.3 220.4,141.5 223.8,140.2 
	219.9,130 "/>
<polygon opacity="0.62" fill="#3A3B3B" points="243.3,87.5 227,69.5 226.8,93.8 233,90.3 236.9,100.5 240.3,99.2 236.4,89 "/>
<g>
	<g>
		<g>
			<g opacity="0.1">
				<path fill="#010101" d="M350.8,263.7H29.5c-7.2,0-13.1-5.9-13.1-13.1V29.9c0-7.2,5.9-13.1,13.1-13.1h321.3
					c7.2,0,13.1,5.9,13.1,13.1v220.8C363.9,257.8,358,263.7,350.8,263.7z"/>
			</g>
			<g>
				<path fill="#3A3B3B" d="M345.3,263.7H24c-7.2,0-13.1-5.9-13.1-13.1V29.9c0-7.2,5.9-13.1,13.1-13.1h321.3
					c7.2,0,13.1,5.9,13.1,13.1v220.8C358.4,257.8,352.6,263.7,345.3,263.7z"/>
			</g>
		</g>
		<rect x="22" y="27.9" fill="#FFFFFF" width="325.2" height="224.6"/>
		<rect x="22" y="27.9" fill="#CDD0D0" width="325.2" height="21.7"/>
		<g>
			<g>
				<rect x="34.5" y="60.2" fill="#CDD0D0" width="59.6" height="111.9"/>
				<line fill="none" stroke="#A3A5A8" stroke-width="10.3043" stroke-miterlimit="10" x1="40.3" y1="77.5" x2="88.2" y2="77.5"/>
				<line fill="none" stroke="#A3A5A8" stroke-width="10.3043" stroke-miterlimit="10" x1="40.3" y1="102.7" x2="88.2" y2="102.7"/>
				<line fill="none" stroke="#A3A5A8" stroke-width="10.3043" stroke-miterlimit="10" x1="40.3" y1="127.9" x2="88.2" y2="127.9"/>
				<line fill="none" stroke="#A3A5A8" stroke-width="10.3043" stroke-miterlimit="10" x1="40.3" y1="153.1" x2="88.2" y2="153.1"/>
			</g>
		</g>
		<g>
			<g>
				<rect x="113.1" y="60.2" fill="#CDD0D0" width="59.6" height="111.9"/>
				<line fill="none" stroke="#A3A5A8" stroke-width="10.3043" stroke-miterlimit="10" x1="119" y1="77.5" x2="166.9" y2="77.5"/>
				<line fill="none" stroke="#A3A5A8" stroke-width="10.3043" stroke-miterlimit="10" x1="119" y1="102.7" x2="166.9" y2="102.7"/>
				<line fill="none" stroke="#A3A5A8" stroke-width="10.3043" stroke-miterlimit="10" x1="119" y1="127.9" x2="166.9" y2="127.9"/>
				<line fill="none" stroke="#A3A5A8" stroke-width="10.3043" stroke-miterlimit="10" x1="119" y1="153.1" x2="166.9" y2="153.1"/>
			</g>
		</g>
		<g>
			<g>
				<rect x="191.8" y="60.2" fill="#CDD0D0" width="59.6" height="111.9"/>
				<line fill="none" stroke="#A3A5A8" stroke-width="10.3043" stroke-miterlimit="10" x1="197.6" y1="77.5" x2="245.5" y2="77.5"/>
				
					<line fill="none" stroke="#A3A5A8" stroke-width="10.3043" stroke-miterlimit="10" x1="197.6" y1="102.7" x2="245.5" y2="102.7"/>
				
					<line fill="none" stroke="#A3A5A8" stroke-width="10.3043" stroke-miterlimit="10" x1="197.6" y1="127.9" x2="245.5" y2="127.9"/>
				
					<line fill="none" stroke="#A3A5A8" stroke-width="10.3043" stroke-miterlimit="10" x1="197.6" y1="153.1" x2="245.5" y2="153.1"/>
			</g>
		</g>
		<g>
			<g>
				<rect x="270.4" y="60.2" fill="#CDD0D0" width="59.6" height="111.9"/>
				<line fill="none" stroke="#A3A5A8" stroke-width="10.3043" stroke-miterlimit="10" x1="276.3" y1="77.5" x2="324.2" y2="77.5"/>
				
					<line fill="none" stroke="#A3A5A8" stroke-width="10.3043" stroke-miterlimit="10" x1="276.3" y1="102.7" x2="324.2" y2="102.7"/>
				
					<line fill="none" stroke="#A3A5A8" stroke-width="10.3043" stroke-miterlimit="10" x1="276.3" y1="127.9" x2="324.2" y2="127.9"/>
				
					<line fill="none" stroke="#A3A5A8" stroke-width="10.3043" stroke-miterlimit="10" x1="276.3" y1="153.1" x2="324.2" y2="153.1"/>
			</g>
		</g>
		<rect x="275.2" y="32.6" fill="#FFFFFF" width="64.8" height="11.3"/>
		<text transform="matrix(1 0 0 1 278.7697 41.2834)" fill="#808182" font-family="'MyriadPro-Regular'" font-size="11.1377">search</text>
		<rect x="34.5" y="180.5" fill="#CDD0D0" width="139.8" height="65.7"/>
		<line fill="none" stroke="#B9BABC" stroke-width="5.5689" stroke-miterlimit="10" x1="185" y1="186.1" x2="264.6" y2="186.1"/>
		<line fill="none" stroke="#CDD0D0" stroke-width="5.5689" stroke-miterlimit="10" x1="185" y1="201.1" x2="332.2" y2="201.1"/>
		<line fill="none" stroke="#CDD0D0" stroke-width="5.5689" stroke-miterlimit="10" x1="185" y1="214.3" x2="332.2" y2="214.3"/>
		<line fill="none" stroke="#CDD0D0" stroke-width="5.5689" stroke-miterlimit="10" x1="185" y1="227.5" x2="332.2" y2="227.5"/>
		<line fill="none" stroke="#CDD0D0" stroke-width="5.5689" stroke-miterlimit="10" x1="185" y1="240.6" x2="332.2" y2="240.6"/>
		<g>
			<path fill="#048C96" d="M43.1,31.3c0.2,0.1,0.5,0.1,0.8,0.2c1.2,0.3,2.3,0.9,3.2,1.7c1.3,1.1,2.1,2.5,2.4,4.1
				c0.5,2.3,0,4.3-1.4,6.2c-1.1,1.5-2.6,2.4-4.4,2.8c-0.2,0-0.5,0.1-0.7,0.1c-0.1,0-0.2,0-0.2-0.2c0-0.6,0-1.1,0-1.7
				c0-0.8,0-1.7,0-2.5c0-1.2,0.5-2.2,1.4-3c0.3-0.3,0.8-0.5,1.3-0.5c0.3,0,0.3,0.1,0.2,0.3c-0.2,0.4-0.3,0.8-0.2,1.3
				c0.1,0.6,0.6,1,1.2,1.1c0.9,0.2,1.8-0.3,2-1.2c0.3-1.1-0.3-2.4-1.8-2.5c-1.5-0.1-3.3,1-3.9,2.5c0,0.1,0,0.1-0.1,0.1
				c-0.1,0-0.1-0.1-0.1-0.2c0-0.7,0-1.5,0-2.2c0-0.2-0.1-0.2-0.2-0.2c-1.4,0-2.8,0.1-4.3,0.1c-0.2,0-0.2,0-0.2,0.2
				c0,0.4,0,0.4,0.4,0.4c0.5,0,0.9,0.4,0.9,1c0,1.4,0,2.7,0,4.1c0,0.8,0,1.6,0,2.4c0,0.3,0,0.3-0.2,0.2c-2.4-1.1-3.9-2.9-4.5-5.5
				c0-0.1,0-0.3-0.1-0.4c0-0.7,0-1.4,0-2.1c0.1-0.9,0.3-1.7,0.8-2.5c1.1-2.1,2.9-3.4,5.2-4c0.2,0,0.4,0,0.6-0.1
				C41.8,31.3,42.5,31.3,43.1,31.3z"/>
			<path fill="#048C96" d="M69.9,37.8c0,0.2,0,0.4,0,0.6c0,0.1-0.1,0.2-0.2,0.2c-0.5,0.1-0.5,0-0.5-0.4c0-1.1,0-2.1,0-3.2
				c0-0.1,0-0.2,0.1-0.2c0.5-0.1,1-0.1,1.5,0c0.4,0.1,0.7,0.3,0.8,0.7c0.1,0.4,0.1,0.8-0.3,1.1c-0.1,0.1-0.3,0.2-0.3,0.3
				c0,0.1,0.1,0.3,0.2,0.4c0.2,0.4,0.5,0.8,0.8,1.2c0.1,0.1,0,0.2-0.1,0.2c-0.4,0.1-0.7,0-1-0.4c-0.2-0.3-0.4-0.6-0.6-1
				c0-0.1-0.1-0.1-0.1-0.2C70.2,37,70.1,37,70,37c-0.1,0-0.1,0.1-0.1,0.2C69.9,37.4,69.9,37.6,69.9,37.8z"/>
			<path fill="#048C96" d="M67.4,36.3c0,0.5,0,1,0,1.6c0,0.1,0,0.2,0.1,0.3c0.2,0.1,0.2,0.1,0.2,0.3c-0.1,0.2-0.2,0.3-0.4,0.2
				c-0.1,0-0.2,0-0.3-0.1c-0.1-0.1-0.2-0.1-0.3,0c-0.7,0.4-1.6,0.1-1.8-0.7c-0.3-1.3,0.6-2.1,1.7-1.9c0.1,0,0.2,0,0.2-0.1
				c0-0.3,0-0.7,0-1c0-0.1,0-0.2,0.2-0.2c0,0,0,0,0,0c0.5-0.1,0.5-0.1,0.5,0.4C67.4,35.4,67.4,35.8,67.4,36.3z"/>
			<path fill="#058C96" d="M55.5,36.2c0.3-0.2,0.5-0.4,0.8-0.4c0.5,0,0.9,0.3,0.9,0.8c0,0.6,0,1.2,0,1.8c0,0.1,0,0.1-0.1,0.1
				c-0.2,0-0.3,0-0.5,0c-0.2,0-0.1-0.1-0.1-0.2c0-0.4,0-0.9,0-1.3c0-0.1,0-0.1,0-0.2c0-0.4-0.1-0.5-0.4-0.5c-0.3,0-0.6,0.2-0.6,0.6
				c0,0.5,0,0.9,0,1.4c0,0.2-0.1,0.2-0.2,0.3c-0.5,0.1-0.5,0.1-0.5-0.4c0-0.5,0-1,0-1.5c0-0.2,0-0.3-0.1-0.5c-0.1-0.2,0-0.3,0.2-0.4
				c0.2-0.1,0.3-0.1,0.5,0.1C55.4,36,55.4,36.1,55.5,36.2z"/>
			<path fill="#058C96" d="M62.6,36.2c0.2-0.2,0.5-0.4,0.8-0.4c0.6,0,0.9,0.3,0.9,0.8c0,0.6,0,1.2,0,1.8c0,0.1,0,0.1-0.1,0.1
				c-0.2,0-0.3,0-0.5,0c-0.2,0-0.1-0.1-0.1-0.2c0-0.5,0-1,0-1.4c0-0.4-0.1-0.6-0.4-0.6c-0.3,0-0.6,0.2-0.6,0.6c0,0.5,0,0.9,0,1.4
				c0,0.2-0.1,0.3-0.2,0.3c0,0,0,0,0,0c-0.5,0-0.5,0-0.5-0.4c0-0.5,0-1,0-1.5c0-0.1,0-0.3-0.1-0.4c-0.1-0.2,0-0.3,0.2-0.4
				c0.2-0.1,0.3,0,0.5,0.1C62.5,36,62.5,36.1,62.6,36.2z"/>
			<path fill="#058C96" d="M80.8,36.2c0.2-0.2,0.4-0.3,0.7-0.4c0.6-0.1,1,0.3,1,0.9c0,0.6,0,1.2,0,1.7c0,0.1,0,0.2-0.1,0.2
				c0,0,0,0,0,0c-0.5,0.1-0.6,0.1-0.6-0.4c0-0.4,0-0.9,0-1.3c0-0.3-0.1-0.5-0.4-0.5c-0.3,0-0.5,0.2-0.5,0.5c0,0.5,0,1,0,1.4
				c0,0.2-0.1,0.3-0.3,0.3c0,0,0,0-0.1,0c-0.4,0-0.4,0-0.4-0.4c0-0.6,0-1.1,0-1.7c0-0.1,0-0.1,0-0.2c-0.1-0.2-0.1-0.4,0.1-0.5
				c0.2-0.1,0.4,0,0.5,0.2C80.8,36.1,80.8,36.1,80.8,36.2z"/>
			<path fill="#058C96" d="M85,38.3c-0.3,0.3-0.7,0.5-1.1,0.3c-0.4-0.1-0.6-0.4-0.6-0.8c0-0.6,0-1.2,0-1.8c0-0.1,0-0.2,0.1-0.2
				c0,0,0,0,0,0c0.5-0.1,0.5-0.1,0.5,0.4c0,0.5,0,0.9,0,1.4c0,0.3,0.2,0.4,0.5,0.4c0.3,0,0.5-0.2,0.5-0.5c0-0.5,0-0.9,0-1.4
				c0-0.2,0.1-0.3,0.3-0.3c0.4,0,0.4,0,0.4,0.4c0,0.5,0,1,0,1.6c0,0.1,0,0.3,0.2,0.3c0.2,0,0.1,0.1,0.1,0.2
				c-0.1,0.3-0.5,0.3-0.7,0.1C85.1,38.5,85.1,38.4,85,38.3z"/>
			<path fill="#058C96" d="M60.4,38.4c-0.2,0.1-0.4,0.2-0.6,0.3c-0.3,0.1-0.6-0.1-0.8-0.3c-0.2-0.3-0.1-0.7,0.1-0.9
				c0.3-0.3,0.6-0.4,1-0.5c0.1,0,0.3,0,0.2-0.2c0-0.2-0.1-0.3-0.3-0.4c-0.2-0.1-0.4,0-0.6,0.1c-0.3,0.1-0.4,0.1-0.5-0.2
				c0-0.1,0-0.1,0.1-0.1c0.4-0.3,0.8-0.5,1.3-0.3c0.5,0.1,0.7,0.5,0.7,1.1c0,0.3,0,0.7,0,1c0,0.1,0.1,0.2,0.1,0.2
				c0.1,0,0.2-0.1,0.2,0.1c0,0.1,0,0.3-0.1,0.4C61,38.8,60.7,38.7,60.4,38.4z"/>
			<path fill="#058C96" d="M77.4,37.3c-0.1-0.6,0.4-1.3,1-1.4c0.7-0.2,1.4,0.3,1.4,1c0,0.2-0.1,0.3-0.3,0.4
				c-0.4,0.1-0.7,0.1-1.1,0.1c-0.3,0-0.4,0.1-0.2,0.4c0.2,0.3,0.5,0.5,0.9,0.4c0.1,0,0.2,0,0.3-0.1c0.1,0,0.1,0,0.2,0
				c0,0,0,0.1,0,0.2c-0.1,0.3-0.4,0.4-0.7,0.4C78,38.7,77.4,38.2,77.4,37.3z"/>
			<path fill="#058C96" d="M86.2,37.3c0-0.7,0.4-1.2,1-1.4c0.8-0.2,1.5,0.3,1.4,1.2c0,0.1-0.1,0.2-0.2,0.2c-0.2,0.1-0.3,0.1-0.5,0.1
				c-0.2,0-0.4,0-0.6,0c-0.3,0-0.3,0.1-0.2,0.3c0.1,0.3,0.5,0.5,0.9,0.4c0.1,0,0.2,0,0.3-0.1c0.1,0,0.1-0.1,0.2,0c0,0.1,0,0.1,0,0.2
				c-0.1,0.3-0.4,0.4-0.7,0.4C86.7,38.7,86.2,38.2,86.2,37.3z"/>
			<path fill="#058C96" d="M72.2,37.3c0-0.7,0.4-1.3,1-1.4c0.8-0.2,1.4,0.3,1.4,1.1c0,0.2-0.1,0.3-0.3,0.4c-0.3,0.1-0.7,0.1-1.1,0.1
				c-0.4,0-0.4,0.1-0.2,0.4c0.1,0.3,0.5,0.4,0.9,0.4c0.1,0,0.2,0,0.3-0.1c0.1,0,0.1,0,0.2,0c0,0.1,0,0.1,0,0.2
				c-0.1,0.3-0.4,0.4-0.7,0.4C72.8,38.7,72.1,38.3,72.2,37.3z"/>
			<path fill="#058C96" d="M76,37.8c0.2-0.6,0.4-1.2,0.6-1.8c0.1-0.3,0.2-0.2,0.4-0.1c0.2,0,0.3,0.2,0.2,0.3
				c-0.3,0.7-0.6,1.5-0.9,2.2c-0.1,0.2-0.4,0.2-0.5,0.2c-0.2,0-0.1-0.2-0.2-0.3c-0.3-0.7-0.5-1.5-0.8-2.2c-0.1-0.2,0-0.2,0.1-0.3
				c0.1,0,0.2,0,0.2-0.1c0.2,0,0.3,0,0.4,0.2C75.6,36.6,75.8,37.2,76,37.8z"/>
			<path fill="#068C96" d="M57.8,36.6c0-0.6,0-1.2,0-1.8c0-0.2,0.1-0.2,0.2-0.3c0,0,0,0,0,0c0.5-0.1,0.5-0.1,0.5,0.4
				c0,1.2,0,2.4,0,3.5c0,0.1,0,0.2-0.2,0.2c0,0,0,0,0,0c-0.6,0-0.5,0.1-0.5-0.5C57.8,37.6,57.8,37.1,57.8,36.6
				C57.8,36.6,57.8,36.6,57.8,36.6z"/>
			<path fill="#068C96" d="M53.3,36.7c0-0.6,0-1.1,0-1.7c0-0.2,0.1-0.2,0.2-0.2c0.5,0,0.5,0,0.5,0.5c0,0.6,0,1.1,0,1.7
				c0,0.5,0,1,0,1.5c0,0.2-0.1,0.2-0.2,0.2c-0.5,0.1-0.6,0.1-0.6-0.5C53.3,37.7,53.3,37.2,53.3,36.7C53.3,36.7,53.3,36.7,53.3,36.7z
				"/>
			<path fill="#058C96" d="M72.6,43c0,0.3,0,0.7,0,1c0,0.1,0,0.1,0,0.2c0,0.1-0.1,0.1-0.2,0.1c-0.1,0-0.1-0.1-0.1-0.1
				c0-1.2,0-2.3,0-3.5c0-0.1,0-0.2,0.2-0.2c0.2,0,0.1,0.1,0.1,0.2c0,0.6,0,1.2,0,1.9c0,0.1,0,0.2,0,0.3c0.2-0.2,0.4-0.3,0.6-0.5
				c0.2-0.2,0.4-0.3,0.6-0.5c0.1-0.1,0.2-0.2,0.3,0c0.1,0.1-0.1,0.2-0.1,0.2c-0.3,0.2-0.6,0.5-0.8,0.7c-0.1,0.1-0.1,0.2,0,0.3
				c0.4,0.4,0.7,0.8,1.1,1.2c-0.2,0.1-0.3,0.1-0.5,0c-0.3-0.3-0.6-0.6-0.9-1C72.8,43.2,72.7,43.1,72.6,43z"/>
			<path fill="#088C96" d="M69.1,44c-0.2,0.2-0.5,0.3-0.8,0.3c-0.2,0-0.5-0.1-0.5-0.4c-0.1-0.2-0.1-0.5,0.1-0.7
				c0.2-0.2,0.5-0.3,0.9-0.4c0.3-0.1,0.4-0.1,0.3-0.5c0-0.3-0.2-0.4-0.5-0.4c-0.2,0-0.3,0.1-0.5,0.2c-0.1,0.1-0.2,0.2-0.2,0
				c-0.1-0.1,0-0.2,0.1-0.2c0.3-0.3,0.7-0.3,1.1-0.2c0.2,0.1,0.3,0.3,0.4,0.5c0.1,0.5,0,0.9,0,1.4c0,0.2-0.1,0.4,0.2,0.4
				c0.1,0,0.1,0,0.1,0.1c0,0.1,0,0.1-0.1,0.1C69.4,44.4,69.2,44.3,69.1,44z"/>
			<path fill="#088C96" d="M61.4,44c-0.2,0.2-0.5,0.3-0.8,0.3c-0.2,0-0.4-0.1-0.5-0.3c-0.1-0.2-0.1-0.5,0.1-0.7
				c0.2-0.3,0.6-0.4,0.9-0.5c0.1,0,0.3,0,0.3-0.2c0-0.3-0.1-0.5-0.3-0.6c-0.1-0.1-0.2-0.1-0.4,0c-0.2,0-0.3,0.1-0.4,0.2
				c-0.1,0-0.1,0.1-0.2,0c-0.1-0.1-0.1-0.1,0-0.2c0.2-0.3,0.8-0.4,1.2-0.3c0.2,0.1,0.3,0.3,0.4,0.5c0,0.3,0,0.6,0,0.9
				c0,0.2,0,0.4,0,0.6c0,0.1,0,0.2,0.2,0.2c0.1,0,0.1,0,0.1,0.1c0,0.1,0,0.1-0.1,0.1C61.7,44.4,61.6,44.3,61.4,44z"/>
			<path fill="#068C96" d="M71.2,44c-0.2,0.2-0.4,0.3-0.6,0.3c-0.3,0-0.5-0.1-0.6-0.3c-0.1-0.2-0.1-0.5,0.1-0.7
				c0.2-0.3,0.6-0.3,0.9-0.4c0.3-0.1,0.4-0.1,0.3-0.4c-0.1-0.3-0.2-0.5-0.5-0.5c-0.2,0-0.3,0.1-0.4,0.2c0,0-0.1,0.1-0.1,0.1
				c-0.1,0-0.1,0.1-0.2,0c0-0.1-0.1-0.1,0-0.2c0.2-0.3,0.9-0.4,1.2-0.3c0.3,0.1,0.3,0.4,0.3,0.7c0,0.4,0,0.9,0,1.3
				c0,0.1,0,0.3,0.2,0.3c0.1,0,0.1,0,0.1,0.1c0,0.1,0,0.1-0.1,0.2C71.6,44.4,71.4,44.3,71.2,44z"/>
			<path fill="#068C96" d="M76.1,44c0,0.2-0.1,0.2-0.2,0.3c-0.6,0.3-1.4,0-1.5-0.7c-0.2-0.6-0.1-1.1,0.4-1.6
				c0.2-0.2,0.8-0.3,1.1-0.2c0.3,0.2,0.5,0.5,0.5,0.8c0,0.2-0.1,0.2-0.2,0.3c-0.3,0.1-0.6,0-1,0.1c0,0,0,0,0,0
				c-0.5,0-0.5,0.1-0.3,0.5c0.2,0.4,0.5,0.6,1,0.5C75.8,44,76,44,76.1,44z"/>
			<path fill="#068C96" d="M55.8,43c-0.2,0-0.4,0-0.5,0c-0.2,0-0.2,0.1-0.2,0.2c0.1,0.6,0.5,0.9,1.1,0.8c0,0,0.1,0,0.1,0
				c0.1,0,0.2-0.1,0.2,0c0,0.1-0.1,0.2-0.2,0.2c-0.6,0.3-1.5-0.1-1.6-0.8c-0.1-0.5-0.1-1,0.4-1.5c0.3-0.3,0.7-0.3,1.1-0.2
				c0.4,0.1,0.5,0.4,0.5,0.8c0,0.2-0.1,0.3-0.2,0.3C56.3,43.1,56,43,55.8,43z"/>
			<path fill="#0D8D96" d="M55.3,40.8c0,0.2-0.1,0.3-0.3,0.2c-0.3,0-0.5,0-0.8,0c-0.1,0-0.2,0-0.2,0.2c0,1,0,1.9,0,2.9
				c0,0.2-0.1,0.2-0.2,0.2c-0.1,0-0.1-0.1-0.1-0.2c0-0.9,0-1.9,0-2.8c0-0.2,0-0.3-0.2-0.2c-0.2,0-0.5,0-0.7,0c-0.1,0-0.2,0-0.2-0.1
				c0-0.1,0.1-0.2,0.2-0.2c0.6,0,1.1,0,1.7,0C54.8,40.8,55,40.8,55.3,40.8z"/>
			<path fill="#0D8D96" d="M60.5,40.8c0,0.2-0.1,0.3-0.3,0.2c-0.3,0-0.5,0-0.8,0c-0.1,0-0.2,0-0.2,0.2c0,1,0,1.9,0,2.9
				c0,0.2-0.1,0.2-0.2,0.2c-0.2,0-0.2-0.1-0.2-0.2c0-0.9,0-1.9,0-2.8c0-0.2-0.1-0.3-0.3-0.3c-0.2,0-0.5,0-0.7,0
				c-0.1,0-0.2,0-0.2-0.1c0-0.1,0.1-0.2,0.2-0.1c0.3,0,0.6,0,0.9,0C59.4,40.8,59.9,40.8,60.5,40.8z"/>
			<path fill="#088C96" d="M66.7,42.7c0-0.5,0-1,0-1.4c0-0.1,0-0.2-0.2-0.2c-0.3,0-0.5,0-0.8,0c-0.1,0-0.2,0-0.2-0.1
				c0-0.1,0.1-0.2,0.2-0.2c0.8,0,1.5,0,2.3,0c0.1,0,0.2-0.1,0.2,0.1c0,0.1-0.1,0.2-0.2,0.2c-0.3,0-0.5,0-0.8,0
				c-0.2,0-0.2,0.1-0.2,0.2c0,0.9,0,1.9,0,2.8c0,0.2-0.1,0.2-0.2,0.2c-0.2,0-0.1-0.1-0.1-0.2C66.7,43.6,66.7,43.1,66.7,42.7z"/>
			<path fill="#128D97" d="M62.8,42.2c0.2-0.2,0.3-0.4,0.6-0.4c0.1,0,0.2,0,0.2,0c0.1,0,0.1,0.1,0.1,0.2c0,0.1-0.1,0.1-0.2,0.1
				c-0.4,0-0.7,0.3-0.7,0.7c0,0.4,0,0.8,0,1.3c0,0.2-0.1,0.3-0.2,0.2c-0.2,0-0.1-0.1-0.1-0.2c0-0.6,0-1.1,0-1.7c0-0.1,0-0.2-0.1-0.3
				c-0.1-0.1-0.1-0.1,0-0.2c0.1-0.1,0.2,0,0.3,0C62.7,41.9,62.7,42.1,62.8,42.2z"/>
			<path fill="#118D97" d="M63.9,43.1c0-0.4,0-0.7,0-1.1c0-0.1,0-0.2,0.1-0.2c0.1,0,0.2,0.1,0.2,0.2c0,0.7,0,1.4,0,2.1
				c0,0.1-0.1,0.2-0.2,0.2c-0.2,0-0.1-0.1-0.1-0.2C63.9,43.7,63.9,43.4,63.9,43.1z"/>
			<path fill="#229EA8" d="M63.9,40.8c0-0.1,0-0.1,0.2-0.1c0.1,0,0.2,0.1,0.2,0.2c0,0.1-0.1,0.2-0.2,0.2C64,41,63.9,41,63.9,40.8z"
				/>
			<path fill="#CDD0D0" d="M41,32.4c1,0,1.9,0.8,1.9,1.9c0,1-0.8,1.9-1.9,1.9c-1.2,0-1.9-0.9-1.9-1.9C39.1,33.2,39.9,32.4,41,32.4z"
				/>
			<path fill="#CDD0D0" d="M70.1,36.6c-0.2,0.1-0.2-0.1-0.2-0.2c0-0.3,0-0.6,0-0.9c0-0.2,0.1-0.3,0.3-0.3c0.4,0,0.7,0.3,0.7,0.7
				C70.8,36.4,70.6,36.6,70.1,36.6z"/>
			<path fill="#CDD0D0" d="M66.7,37.2c0,0.1,0,0.3,0,0.4c0,0.4-0.3,0.6-0.7,0.4c-0.4-0.2-0.6-0.8-0.4-1.3c0.2-0.4,0.6-0.6,0.9-0.4
				c0.1,0,0.1,0.1,0.1,0.2C66.7,36.8,66.7,37,66.7,37.2z"/>
			<path fill="#CDD0D0" d="M60.4,37.6c0,0.3-0.2,0.5-0.4,0.5c-0.1,0-0.2,0-0.3-0.1c-0.1-0.1,0-0.2,0-0.3c0.2-0.2,0.4-0.3,0.6-0.3
				C60.5,37.4,60.4,37.5,60.4,37.6z"/>
			<path fill="#CDD0D0" d="M78.6,36.9c-0.1,0-0.1,0-0.2,0c-0.3,0-0.3-0.1-0.2-0.3c0.1-0.2,0.2-0.3,0.5-0.3c0.2,0,0.3,0.2,0.4,0.4
				c0,0.2,0,0.3-0.2,0.3C78.8,36.9,78.7,36.9,78.6,36.9C78.6,36.9,78.6,36.9,78.6,36.9z"/>
			<path fill="#CDD0D0" d="M87.3,36.9c0,0-0.1,0-0.1,0c-0.1,0-0.3,0.1-0.3-0.1c-0.1-0.1,0-0.2,0.1-0.4c0.1-0.2,0.3-0.3,0.6-0.2
				c0.2,0.1,0.3,0.3,0.3,0.5c0,0.2-0.2,0.1-0.3,0.1C87.4,37,87.4,36.9,87.3,36.9C87.3,36.9,87.3,36.9,87.3,36.9z"/>
			<path fill="#CDD0D0" d="M73.3,36.9C73.3,36.9,73.3,37,73.3,36.9c-0.2-0.1-0.4,0.1-0.4-0.1c0-0.2,0.2-0.5,0.4-0.5
				c0.3,0,0.5,0.2,0.5,0.5c0,0.1-0.1,0.1-0.1,0.1C73.6,36.9,73.5,36.9,73.3,36.9C73.3,36.9,73.3,36.9,73.3,36.9z"/>
			<path fill="#CDD0D0" d="M69.1,43.4c0,0.4-0.3,0.7-0.7,0.7c-0.2,0-0.3-0.2-0.3-0.4c0-0.1,0.1-0.2,0.3-0.3c0.1-0.1,0.3-0.1,0.4-0.2
				C69.1,43.1,69.1,43.1,69.1,43.4z"/>
			<path fill="#CDD0D0" d="M61.4,43.3c0,0.4-0.3,0.7-0.6,0.7c-0.1,0-0.3,0-0.4-0.2c-0.1-0.1,0-0.3,0.1-0.4c0.2-0.2,0.5-0.3,0.8-0.4
				C61.5,43.1,61.3,43.3,61.4,43.3z"/>
			<path fill="#CDD0D0" d="M71.3,43.1c0,0.6,0,0.7-0.4,0.9c-0.2,0.1-0.5,0.1-0.6-0.1c-0.1-0.2,0-0.4,0.2-0.6
				C70.7,43.2,71,43.1,71.3,43.1z"/>
			<path fill="#CDD0D0" d="M75.3,42.8c-0.1,0-0.2,0-0.3,0c-0.3,0-0.3,0-0.2-0.3c0.2-0.4,0.5-0.5,0.9-0.4c0.1,0.1,0.2,0.1,0.3,0.3
				c0.1,0.3,0.1,0.4-0.3,0.4C75.5,42.8,75.4,42.8,75.3,42.8z"/>
			<path fill="#CDD0D0" d="M55.8,42.8c-0.1,0-0.2,0-0.4,0c-0.3,0-0.3,0-0.2-0.3c0.2-0.4,0.5-0.6,0.8-0.5c0.3,0.1,0.4,0.3,0.4,0.6
				c0,0.1-0.1,0.2-0.2,0.2C56.1,42.8,55.9,42.8,55.8,42.8z"/>
		</g>
	</g>
	<rect x="98.7" y="33.1" fill="#A3A5A8" width="57.6" height="10.2"/>
	<rect x="162.4" y="33.1" fill="#A3A5A8" width="44.7" height="10.2"/>
	<rect x="213.5" y="33.1" fill="#A3A5A8" width="55.7" height="10.2"/>
	<polygon opacity="0.62" fill="#3A3B3B" points="205.2,119.6 193.3,106.4 193.2,124.2 197.7,121.6 200.5,129 203,128.1 200.1,120.6 
			"/>
	<polygon opacity="0.62" fill="#3A3B3B" points="128.5,119.6 116.6,106.4 116.4,124.2 120.9,121.6 123.8,129 126.2,128.1 
		123.4,120.6 	"/>
	<polygon opacity="0.62" fill="#3A3B3B" points="256.2,145.8 244.3,132.7 244.2,150.4 248.7,147.8 251.5,155.3 254,154.4 
		251.1,146.9 	"/>
	<polygon opacity="0.62" fill="#3A3B3B" points="306.2,108.3 294.3,95.1 294.2,112.9 298.7,110.3 301.5,117.7 304,116.8 
		301.1,109.3 	"/>
	<polygon opacity="0.62" fill="#3A3B3B" points="300.2,242.5 288.3,229.3 288.2,247.1 292.7,244.5 295.5,252 298,251 295.1,243.6 	
		"/>
	<polygon opacity="0.62" fill="#3A3B3B" points="58,197.3 46,184.2 45.9,201.9 50.4,199.4 53.3,206.8 55.7,205.9 52.9,198.4 	"/>
	<polygon opacity="0.62" fill="#3A3B3B" points="140.5,202.5 128.5,189.4 128.4,207.1 132.9,204.6 135.8,212 138.2,211.1 
		135.4,203.6 	"/>
	<polygon fill="#3A3B3B" points="257.7,190.4 245.8,177.2 245.7,195 250.2,192.4 253,199.9 255.5,198.9 252.6,191.5 	"/>
	<polygon opacity="0.62" fill="#3A3B3B" points="66.3,120.3 54.4,107.2 54.2,124.9 58.7,122.3 61.6,129.8 64,128.8 61.2,121.4 	"/>
	<polygon opacity="0.62" fill="#3A3B3B" points="110.5,174.7 98.6,161.5 98.4,179.3 102.9,176.7 105.8,184.1 108.2,183.2 
		105.4,175.7 	"/>
	<polygon opacity="0.62" fill="#3A3B3B" points="163.9,91.8 152,78.7 151.9,96.4 156.4,93.8 159.3,101.3 161.7,100.4 158.9,92.9 	
		"/>
</g>
<g>
	<defs>
		<rect id="SVGID_3_" x="89.5" y="194.7" width="190.3" height="377"/>
	</defs>
	<clipPath id="SVGID_1_">
		<use xlink:href="#SVGID_3_"  overflow="visible"/>
	</clipPath>
	<g clip-path="url(#SVGID_1_)">
		<g>
			<g opacity="0.1">
				<path fill="#010101" d="M189.8,649.3c-46.8,0-84.8-38-84.8-84.8V299.7c0-46.8,38-84.8,84.8-84.8s84.8,38,84.8,84.8v264.8
					C274.6,611.3,236.6,649.3,189.8,649.3z"/>
			</g>
			<g>
				<g>
					<path fill="#F6C6A7" d="M184.4,649.3c-46.8,0-84.8-38-84.8-84.8V299.7c0-46.8,38-84.8,84.8-84.8s84.8,38,84.8,84.8v264.8
						C269.1,611.3,231.2,649.3,184.4,649.3z"/>
				</g>
			</g>
		</g>
		<circle fill="#754E2C" cx="149.8" cy="278.4" r="4.1"/>
		<circle fill="#754E2C" cx="214.7" cy="278.4" r="4.1"/>
		<path fill="#A47B53" d="M198.8,308.6l-0.1,0.1c-8.9,5.1-19.8,5.1-28.7,0l-0.1-0.1H149c-11.1,0-20.1,9-20.1,20.1v34.2
			c0,15.9,12.9,28.8,28.8,28.8h53.1c15.9,0,28.8-12.9,28.8-28.8v-34.2c0-11.1-9-20.1-20.1-20.1H198.8z M208.1,366.9h-2.2
			c-7.1,0-14.1-1.6-19.7-4.7l-1.8-1l-1.8,1c-5.7,3-12.6,4.7-19.7,4.7h-2.2c-12.2,0-22.1-6.9-22.1-15.5V350
			c0-9.1,10.5-16.5,23.5-16.5h44.7c13,0,23.5,7.4,23.5,16.5v1.5C230.2,360,220.3,366.9,208.1,366.9z"/>
	</g>
</g>
<g>
	<g opacity="0.1">
		<path fill="#010101" d="M179.4,167.6v-5c0-5.8,1.1-10.6,3.2-14.4c2.1-3.8,5.8-7.8,11-11.9c6.3-4.9,10.3-8.8,12.1-11.5
			c1.8-2.7,2.7-6,2.7-9.8c0-4.4-1.5-7.8-4.4-10.2c-2.9-2.4-7.2-3.5-12.7-3.5c-5,0-9.6,0.7-13.9,2.1c-4.3,1.4-8.4,3.1-12.5,5.1
			l-6.6-13.9c10.7-5.9,22.1-8.9,34.3-8.9c10.3,0,18.5,2.5,24.5,7.6c6,5,9.1,12,9.1,20.9c0,3.9-0.6,7.4-1.7,10.5
			c-1.2,3.1-2.9,6-5.2,8.8c-2.3,2.8-6.4,6.4-12.1,10.9c-4.9,3.8-8.2,7-9.8,9.5c-1.7,2.5-2.5,5.9-2.5,10.2v3.5H179.4z M176.2,192.7
			c0-7.9,3.9-11.9,11.6-11.9c3.8,0,6.7,1,8.7,3.1c2,2.1,3,5,3,8.8c0,3.7-1,6.7-3,8.9c-2,2.2-4.9,3.3-8.6,3.3c-3.7,0-6.6-1.1-8.6-3.2
			C177.2,199.5,176.2,196.5,176.2,192.7z"/>
	</g>
	<g>
		<g>
			<path fill="#C7646B" d="M174.4,162.6v-5c0-5.8,1.1-10.6,3.2-14.4c2.1-3.8,5.8-7.8,11-11.9c6.3-4.9,10.3-8.8,12.1-11.5
				c1.8-2.7,2.7-6,2.7-9.8c0-4.4-1.5-7.8-4.4-10.2c-2.9-2.4-7.2-3.5-12.7-3.5c-5,0-9.6,0.7-13.9,2.1c-4.3,1.4-8.4,3.1-12.5,5.1
				l-6.6-13.9c10.7-5.9,22.1-8.9,34.3-8.9c10.3,0,18.5,2.5,24.5,7.6c6,5,9.1,12,9.1,20.9c0,3.9-0.6,7.4-1.7,10.5
				c-1.2,3.1-2.9,6-5.2,8.8c-2.3,2.8-6.4,6.4-12.1,10.9c-4.9,3.8-8.2,7-9.8,9.5c-1.7,2.5-2.5,5.9-2.5,10.2v3.5H174.4z M171.2,187.7
				c0-7.9,3.9-11.9,11.6-11.9c3.8,0,6.7,1,8.7,3.1c2,2.1,3,5,3,8.8c0,3.7-1,6.7-3,8.9c-2,2.2-4.9,3.3-8.6,3.3
				c-3.7,0-6.6-1.1-8.6-3.2C172.2,194.5,171.2,191.5,171.2,187.7z"/>
		</g>
	</g>
</g>
</svg>
