<?xml version="1.0" encoding="utf-8"?>
<!-- Generator: Adobe Illustrator 17.1.0, SVG Export Plug-In . SVG Version: 6.00 Build 0)  -->
<!DOCTYPE svg PUBLIC "-//W3C//DTD SVG 1.1//EN" "http://www.w3.org/Graphics/SVG/1.1/DTD/svg11.dtd">
<svg version="1.1" id="Layer_1" xmlns="http://www.w3.org/2000/svg" xmlns:xlink="http://www.w3.org/1999/xlink" x="0px" y="0px"
	 viewBox="0 0 321.6 375.6" enable-background="new 0 0 321.6 375.6" xml:space="preserve">
<g>
	<defs>
		<rect id="SVGID_19_" x="75.1" y="-91.5" width="166.2" height="467.1"/>
	</defs>
	<clipPath id="SVGID_1_">
		<use xlink:href="#SVGID_19_"  overflow="visible"/>
	</clipPath>
	<g clip-path="url(#SVGID_1_)">
		<g>
			<g opacity="0.1">
				<path fill="#010101" d="M162.6,537.8c-40.9,0-74-23.3-74-52V89.2c0-28.7,33.1-71.3,74-71.3s74,42.6,74,71.3v396.6
					C236.7,514.5,203.5,537.8,162.6,537.8z"/>
			</g>
			<g>
				<g>
					<path fill="#F6C6A7" d="M157.9,537.8c-40.9,0-74-23.3-74-52V89.2c0-28.7,33.1-71.3,74-71.3s74,42.6,74,71.3v396.6
						C232,514.5,198.8,537.8,157.9,537.8z"/>
				</g>
			</g>
		</g>
		<circle fill="#754E2C" cx="127.8" cy="214" r="3.5"/>
		<circle fill="#754E2C" cx="184.5" cy="214" r="3.5"/>
		<path fill="#A47B53" d="M170.6,240.4l-0.1,0.1c-7.8,4.4-17.3,4.4-25.1,0l-0.1-0.1h-18.2c-9.7,0-17.5,7.8-17.5,17.5v29.9
			c0,13.9,11.3,25.2,25.2,25.2h46.3c13.9,0,25.2-11.3,25.2-25.2v-29.9c0-9.7-7.8-17.5-17.5-17.5H170.6z M178.7,291.3h-2
			c-6.2,0-12.3-1.4-17.2-4.1l-1.6-0.8l-1.6,0.8c-4.9,2.7-11,4.1-17.2,4.1h-2c-10.7,0-19.3-6.1-19.3-13.5v-1.3
			c0-8,9.2-14.4,20.5-14.4h39c11.3,0,20.5,6.4,20.5,14.4v1.3C198,285.2,189.3,291.3,178.7,291.3z"/>
	</g>
</g>
<path fill="#EFEEEE" d="M209,189.2H106.8c-8.1,0-14.6-6.5-14.6-14.6V96.2c0-8.1,6.5-14.6,14.6-14.6H209c8.1,0,14.6,6.5,14.6,14.6
	v78.4C223.6,182.7,217.1,189.2,209,189.2z"/>
<g>
	<ellipse opacity="0.1" fill="#424244" cx="155.5" cy="168.6" rx="49.6" ry="4.1"/>
	<g>
		<g>
			<g>
				<rect x="157.9" y="117.7" fill="#CDD0D0" width="20.6" height="32.7"/>
				<rect x="157.9" y="149.4" fill="#1E4B5A" width="20.6" height="2"/>
			</g>
			<g>
				<g opacity="0.2">
					<rect x="108.6" y="117.7" fill="#231F20" width="50.4" height="33.6"/>
					<rect x="108.6" y="151.3" fill="#231F20" width="50.4" height="2"/>
				</g>
				<g>
					<g>
						<rect x="107.5" y="117.7" fill="#CDD0D0" width="50.4" height="33.6"/>
						<rect x="107.5" y="151.3" fill="#1E4B5A" width="50.4" height="2"/>
					</g>
				</g>
			</g>
			<g>
				<g opacity="0.2">
					<g>
						<defs>
							<polygon id="SVGID_2_" points="183.3,115 191.5,131.4 210.2,142.4 211.9,166.4 172.5,167.3 167,112.1 							"/>
						</defs>
						<clipPath id="SVGID_3_">
							<use xlink:href="#SVGID_2_"  overflow="visible"/>
						</clipPath>
					</g>
					<g>
						<defs>
							<polygon id="SVGID_4_" points="183.3,115 191.5,131.4 210.2,142.4 211.9,166.4 172.5,167.3 167,112.1 							"/>
						</defs>
						<clipPath id="SVGID_5_">
							<use xlink:href="#SVGID_4_"  overflow="visible"/>
						</clipPath>
						<rect x="177.3" y="117.7" clip-path="url(#SVGID_5_)" fill="#231F20" width="31.1" height="33.6"/>
						<rect x="177.3" y="151.3" clip-path="url(#SVGID_5_)" fill="#231F20" width="31.1" height="2"/>
					</g>
					<g>
						<defs>
							<polygon id="SVGID_6_" points="183.3,115 191.5,131.4 210.2,142.4 211.9,166.4 172.5,167.3 167,112.1 							"/>
						</defs>
						<clipPath id="SVGID_7_">
							<use xlink:href="#SVGID_6_"  overflow="visible"/>
						</clipPath>
					</g>
				</g>
				<g>
					<g>
						<defs>
							<polygon id="SVGID_8_" points="184.4,115 192.6,131.4 211.3,142.4 213,166.4 173.6,167.3 168.2,112.1 							"/>
						</defs>
						<clipPath id="SVGID_9_">
							<use xlink:href="#SVGID_8_"  overflow="visible"/>
						</clipPath>
					</g>
					<g>
						<defs>
							<polygon id="SVGID_10_" points="184.4,115 192.6,131.4 211.3,142.4 213,166.4 173.6,167.3 168.2,112.1 							"/>
						</defs>
						<clipPath id="SVGID_11_">
							<use xlink:href="#SVGID_10_"  overflow="visible"/>
						</clipPath>
						<g clip-path="url(#SVGID_11_)">
							<rect x="178.4" y="117.7" fill="#CDD0D0" width="31.1" height="33.6"/>
							<rect x="178.4" y="151.3" fill="#1E4B5A" width="31.1" height="2"/>
						</g>
					</g>
					<g>
						<defs>
							<polygon id="SVGID_12_" points="184.4,115 192.6,131.4 211.3,142.4 213,166.4 173.6,167.3 168.2,112.1 							"/>
						</defs>
						<clipPath id="SVGID_13_">
							<use xlink:href="#SVGID_12_"  overflow="visible"/>
						</clipPath>
					</g>
				</g>
			</g>
			<rect x="113.2" y="121.2" fill="#424244" width="38.9" height="20.9"/>
			<rect x="127" y="124.8" opacity="0.56" fill="#FFFFFF" width="18.1" height="17.2"/>
			<rect x="117.9" y="130.7" opacity="0.56" fill="#FFFFFF" width="8.5" height="11.3"/>
			<circle fill="#424244" cx="132.7" cy="164.5" r="6.3"/>
			<circle fill="#424244" cx="178.4" cy="164.5" r="6.3"/>
			<path fill="#CA6A64" d="M178.4,153.3v-1.9h-20.6v9.7c0,1.3,1,2.3,2.3,2.3h9.9c0.5-4.2,4-7.4,8.3-7.4c4.3,0,7.8,3.3,8.3,7.4
				l22-1.8c0.8-0.1,1.4-0.7,1.4-1.5v-6.8H178.4z"/>
			<path fill="#CA6A64" d="M106.9,153.3v8.5c0,0.9,0.7,1.7,1.7,1.7h15.6c0.5-4.2,4.1-7.4,8.5-7.4s7.9,3.2,8.5,7.4h14.2
				c1.4,0,2.5-1.1,4.4-2.5v-7.7H106.9z"/>
			<polygon fill="#CDD0D0" points="107.5,109.3 160.2,109.3 163.7,113.1 183.2,113.1 185.9,117.7 107.5,117.7 			"/>
			<path fill="#424244" d="M189.6,131.3l-0.4,1.4c-0.3,1.1-1.3,1.8-2.4,1.8h-4.4c-1.4,0-2.5-1.1-2.5-2.5v-11.8
				c0-1.4,1.1-2.5,2.5-2.5h0c1,0,1.9,0.6,2.3,1.5l4.8,10.4C189.7,130.1,189.7,130.7,189.6,131.3z"/>
			<rect x="188.5" y="135.7" fill="#424244" width="4.1" height="4.5"/>
			<path fill="#CDD0D0" d="M191.1,137.2H190v-2.3c0-0.7-0.2-1.4-0.6-2l-0.5-0.8c-0.6-0.9,0-2.1,1.1-2.1h0h1.1V137.2z"/>
			<g>
				<circle fill="#EDEBEC" cx="178.4" cy="164.5" r="4.1"/>
				<g>
					<defs>
						<circle id="SVGID_33_" cx="178.4" cy="164.5" r="4.1"/>
					</defs>
					<clipPath id="SVGID_14_">
						<use xlink:href="#SVGID_33_"  overflow="visible"/>
					</clipPath>
					<polygon clip-path="url(#SVGID_14_)" fill="#FFFFFF" points="172.4,172.7 184,155.6 184,172.7 					"/>
				</g>
			</g>
			<g>
				<circle fill="#EDEBEC" cx="132.7" cy="164.5" r="4.1"/>
				<g>
					<defs>
						<circle id="SVGID_35_" cx="132.7" cy="164.5" r="4.1"/>
					</defs>
					<clipPath id="SVGID_15_">
						<use xlink:href="#SVGID_35_"  overflow="visible"/>
					</clipPath>
					<polygon clip-path="url(#SVGID_15_)" fill="#FFFFFF" points="126.7,172.7 138.3,155.6 138.3,172.7 					"/>
				</g>
			</g>
			<rect x="110.1" y="141.6" fill="#EFEEEE" width="45.3" height="0.9"/>
			<polygon fill="#EFEEEE" points="109.3,119.1 155.7,119.1 152.6,120.5 112.4,120.5 			"/>
			<line fill="none" stroke="#424244" stroke-width="0.1843" stroke-miterlimit="10" x1="155.5" y1="119.1" x2="153.3" y2="131.6"/>
			<line fill="none" stroke="#424244" stroke-width="0.1843" stroke-miterlimit="10" x1="109.5" y1="119.1" x2="111.7" y2="131.6"/>
			<rect x="152.9" y="131.3" fill="#424244" width="0.7" height="0.7"/>
			<rect x="111.3" y="131.3" fill="#424244" width="0.7" height="0.7"/>
			<path fill="#EFEEEE" d="M207.4,149.9h-4.5c-0.1,0-0.2-0.1-0.2-0.2v-0.6c0-0.1,0.1-0.2,0.2-0.2h4.5c0.1,0,0.2,0.1,0.2,0.2v0.6
				C207.5,149.8,207.5,149.9,207.4,149.9z"/>
			<path fill="#EFEEEE" d="M113.9,149.9h-4.5c-0.1,0-0.2-0.1-0.2-0.2v-0.6c0-0.1,0.1-0.2,0.2-0.2h4.5c0.1,0,0.2,0.1,0.2,0.2v0.6
				C114.1,149.8,114,149.9,113.9,149.9z"/>
			<path fill="#424244" d="M173.1,135.7h-9.4c-0.4,0-0.8-0.3-0.8-0.8v-15.7c0-0.4,0.3-0.8,0.8-0.8h9.4c0.4,0,0.8,0.3,0.8,0.8v15.7
				C173.8,135.3,173.5,135.7,173.1,135.7z"/>
			<rect x="160.5" y="139.1" fill="#424244" width="0.5" height="2"/>
			
				<line opacity="0.2" fill="none" stroke="#424244" stroke-width="0.1843" stroke-miterlimit="10" x1="111.3" y1="110.9" x2="154.4" y2="110.9"/>
			
				<line opacity="0.2" fill="none" stroke="#424244" stroke-width="0.1843" stroke-miterlimit="10" x1="111.3" y1="113.1" x2="158.3" y2="113.1"/>
			
				<line opacity="0.2" fill="none" stroke="#424244" stroke-width="0.1843" stroke-miterlimit="10" x1="111.3" y1="112" x2="156.3" y2="112"/>
			<g>
				<g>
					<rect x="139.1" y="121.5" opacity="0.8" fill="#BEE3ED" width="12.8" height="19.8"/>
					<path fill="#FFFFFF" d="M151.6,121.8V141h-12.2v-19.3H151.6 M152.2,121.2h-13.3v20.4h13.3V121.2L152.2,121.2z"/>
				</g>
			</g>
			<rect x="141.1" y="124.2" fill="#FFFFFF" width="8.8" height="14.4"/>
			<line fill="none" stroke="#424244" stroke-width="0.5529" stroke-miterlimit="10" x1="141.8" y1="125.7" x2="145.8" y2="125.7"/>
			<line fill="none" stroke="#424244" stroke-width="0.5529" stroke-miterlimit="10" x1="141.8" y1="128.5" x2="149.2" y2="128.5"/>
			<line fill="none" stroke="#424244" stroke-width="0.5529" stroke-miterlimit="10" x1="141.8" y1="131.3" x2="149.2" y2="131.3"/>
			<line fill="none" stroke="#424244" stroke-width="0.5529" stroke-miterlimit="10" x1="141.8" y1="132.5" x2="148.1" y2="132.5"/>
			<line fill="none" stroke="#424244" stroke-width="0.5529" stroke-miterlimit="10" x1="141.8" y1="129.6" x2="145.8" y2="129.6"/>
			<line fill="none" stroke="#424244" stroke-width="0.5529" stroke-miterlimit="10" x1="141.8" y1="134" x2="148.1" y2="134"/>
			<line fill="none" stroke="#C7646B" stroke-width="0.5529" stroke-miterlimit="10" x1="141.8" y1="136.8" x2="149.2" y2="136.8"/>
			<text transform="matrix(1 0 0 1 159.4704 147.4778)" fill="#424244" font-family="'ProximaNova-Black'" font-size="5.8">TACO</text>
			<polygon opacity="0.1" fill="#818386" points="157.9,149.4 157.9,119.8 157.9,117.7 178.4,117.7 			"/>
			<polygon opacity="0.1" fill="#818386" points="131.1,153.3 107.5,153.3 107.5,127 112.4,120.5 152.1,120.5 			"/>
		</g>
	</g>
</g>
</svg>
